<svg width="648" height="508" viewBox="0 0 648 508" fill="none" xmlns="http://www.w3.org/2000/svg">
<g filter="url(#filter0_d_24_138)">
<rect width="640" height="500" transform="translate(4)" fill="white"/>
<path d="M236.892 133.987C232.238 138.165 229.347 143.956 228.805 150.187L228.722 153.009C228.87 159.21 231.352 165.127 235.672 169.578C239.993 174.029 245.833 176.687 252.026 177.02C258.22 177.354 264.312 175.338 269.085 171.377C273.858 167.416 276.961 161.8 277.774 155.65L277.994 152.837C278.101 148.031 276.8 143.298 274.251 139.222C271.701 135.146 268.015 131.905 263.646 129.898C259.277 127.892 254.417 127.207 249.664 127.93C244.91 128.652 240.473 130.749 236.897 133.962L236.892 133.987Z" fill="white"/>
<path d="M235.495 132.43C230.79 136.656 227.733 142.411 226.864 148.676C225.996 154.94 227.373 161.31 230.752 166.656L226.989 174.069C226.847 174.347 226.793 174.662 226.834 174.972C226.874 175.282 227.007 175.572 227.216 175.805C227.424 176.038 227.698 176.202 228.002 176.276C228.305 176.351 228.624 176.331 228.917 176.221L236.693 173.282C240.682 176.459 245.496 178.429 250.568 178.96C255.64 179.491 260.758 178.561 265.319 176.279C269.88 173.997 273.693 170.459 276.309 166.082C278.926 161.704 280.236 156.67 280.086 151.573C279.936 146.475 278.332 141.527 275.462 137.311C272.593 133.096 268.578 129.788 263.891 127.779C259.204 125.769 254.04 125.142 249.008 125.97C243.976 126.799 239.286 129.049 235.49 132.455L235.495 132.43ZM271.708 135.877C275.889 140.532 278.135 146.607 277.989 152.862L277.77 155.675C276.944 161.814 273.837 167.416 269.067 171.366C264.297 175.317 258.214 177.326 252.029 176.993C245.844 176.66 240.012 174.01 235.693 169.57C231.375 165.131 228.887 159.227 228.725 153.036L228.8 150.212C229.217 145.424 231.026 140.862 234.003 137.088C236.979 133.315 240.995 130.494 245.554 128.973C250.114 127.452 255.018 127.298 259.664 128.529C264.31 129.76 268.495 132.323 271.703 135.902L271.708 135.877Z" fill="#FF0303"/>
<path opacity="0.7" d="M235.495 132.43C230.79 136.656 227.733 142.411 226.864 148.676C225.996 154.94 227.373 161.31 230.752 166.656L226.989 174.069C226.847 174.347 226.793 174.662 226.834 174.972C226.874 175.282 227.007 175.572 227.216 175.805C227.424 176.038 227.698 176.202 228.002 176.276C228.305 176.351 228.624 176.331 228.917 176.221L236.693 173.282C240.682 176.459 245.496 178.429 250.568 178.96C255.64 179.491 260.758 178.561 265.319 176.279C269.88 173.997 273.693 170.459 276.309 166.082C278.926 161.704 280.236 156.67 280.086 151.573C279.936 146.475 278.332 141.527 275.462 137.311C272.593 133.096 268.578 129.788 263.891 127.779C259.204 125.769 254.04 125.142 249.008 125.97C243.976 126.799 239.286 129.049 235.49 132.455L235.495 132.43ZM271.708 135.877C275.889 140.532 278.135 146.607 277.989 152.862L277.77 155.675C276.944 161.814 273.837 167.416 269.067 171.366C264.297 175.317 258.214 177.326 252.029 176.993C245.844 176.66 240.012 174.01 235.693 169.57C231.375 165.131 228.887 159.227 228.725 153.036L228.8 150.212C229.217 145.424 231.026 140.862 234.003 137.088C236.979 133.315 240.995 130.494 245.554 128.973C250.114 127.452 255.018 127.298 259.664 128.529C264.31 129.76 268.495 132.323 271.703 135.902L271.708 135.877Z" fill="white"/>
<path d="M258.252 150.316L257.831 149.51L248.457 154.364L248.878 155.171L258.252 150.316ZM256.099 147.637L255.686 146.832L247.512 151.065L247.933 151.872L256.099 147.637ZM252.887 145.519L252.466 144.713L247.662 147.229L248.084 148.036L252.887 145.519ZM249.486 134.927L241.312 139.161L241.733 139.967L249.899 135.732L249.486 134.927ZM249.78 139.583L249.367 138.778L244.564 141.295L244.976 142.1L249.78 139.583ZM259.19 153.656L258.769 152.85L250.603 157.085L251.015 157.89L259.19 153.656ZM259.07 157.507L258.649 156.7L253.846 159.217L254.267 160.024L259.07 157.507ZM265.375 165.636L264.954 164.829L256.787 169.064L257.2 169.869L265.375 165.636ZM262.156 163.508L261.744 162.703L256.94 165.22L257.353 166.025L262.156 163.508Z" fill="#FF0303"/>
<path opacity="0.45" d="M258.252 150.316L257.831 149.51L248.457 154.364L248.878 155.171L258.252 150.316ZM256.099 147.637L255.686 146.832L247.512 151.065L247.933 151.872L256.099 147.637ZM252.887 145.519L252.466 144.713L247.662 147.229L248.084 148.036L252.887 145.519ZM249.486 134.927L241.312 139.161L241.733 139.967L249.899 135.732L249.486 134.927ZM249.78 139.583L249.367 138.778L244.564 141.295L244.976 142.1L249.78 139.583ZM259.19 153.656L258.769 152.85L250.603 157.085L251.015 157.89L259.19 153.656ZM259.07 157.507L258.649 156.7L253.846 159.217L254.267 160.024L259.07 157.507ZM265.375 165.636L264.954 164.829L256.787 169.064L257.2 169.869L265.375 165.636ZM262.156 163.508L261.744 162.703L256.94 165.22L257.353 166.025L262.156 163.508Z" fill="white"/>
<path d="M238.894 137.043C240.701 140.526 244.632 142.318 248.512 143.84C252.197 145.299 255.936 147.01 257.577 150.151C259.218 153.291 258.438 157.341 257.507 161.198C256.52 165.251 255.715 169.477 257.519 172.977L258.475 172.499C256.837 169.342 257.613 165.308 258.553 161.453C259.538 157.409 260.345 153.174 258.541 149.674C256.737 146.174 252.801 144.407 248.923 142.876C245.229 141.424 241.499 139.706 239.848 136.573L238.894 137.043Z" fill="#FF0303"/>
<path d="M248.202 155.013C250.009 158.497 253.941 160.28 257.819 161.811C261.514 163.263 265.243 164.981 266.894 168.114L267.848 167.644C266.043 164.153 262.11 162.369 258.231 160.847C254.546 159.388 250.807 157.677 249.166 154.536C247.525 151.396 248.304 147.346 249.236 143.489C250.223 139.436 251.028 135.21 249.224 131.71L248.268 132.188C249.905 135.345 249.129 139.379 248.19 143.234C247.204 147.278 246.396 151.521 248.202 155.013Z" fill="#FF0303"/>
<path d="M167.626 135.798C167.626 135.798 168.154 128.408 164.723 123.93C161.292 119.452 153.375 119.443 149.952 120.763C146.53 122.082 143.091 124.458 142.29 128.425C141.803 131.301 141.626 134.221 141.762 137.134C141.403 137.212 141.064 137.366 140.77 137.587C140.476 137.808 140.232 138.089 140.057 138.413C139.881 138.736 139.778 139.094 139.753 139.461C139.729 139.828 139.784 140.196 139.915 140.54C140.336 142.201 141.151 143.737 142.29 145.018C142.29 145.018 143.082 148.713 143.61 150.296C144.138 151.88 147.015 155.311 147.015 155.311C147.015 155.311 147.543 159.269 145.696 160.589C143.848 161.909 139.362 162.964 133.036 165.067C126.711 167.17 120.896 172.729 119.576 179.846C118.781 184.107 118.603 188.459 119.048 192.77L116.673 207.805C115.085 211.937 114.196 216.304 114.043 220.728C113.779 228.118 112.459 242.863 112.459 242.863C112.459 242.863 114.043 243.919 110.348 245.766C106.653 247.614 106.389 248.933 105.861 250.253C105.333 251.573 105.069 254.212 104.014 255.003C102.958 255.795 99.527 255.003 100.055 257.634C100.583 260.265 104.312 258.69 104.312 258.69L106.687 258.162V271.622C106.687 272.941 107.479 274.789 108.798 273.205C108.798 273.205 110.118 275.053 110.91 274.261L112.195 273.512C112.195 273.512 113.753 274.159 114.485 273.886C115.217 273.614 116.682 271.588 116.682 271.588C116.682 271.588 117.056 272.686 118.384 271.043C119.712 269.4 119.942 267.374 120.308 265.994C120.675 264.615 121.866 257.098 122.233 255.778C122.599 254.459 122.233 247.707 122.233 247.707L121.96 244.77C121.96 244.77 127.92 228.544 128.933 224.687C130.001 221.016 130.828 217.279 131.41 213.5C131.776 210.206 133.334 203.693 133.334 203.693L133.973 203.42C133.973 203.42 134.066 218.915 133.7 220.933C133.334 222.95 130.584 226.705 130.857 231.472C131.129 236.24 129.477 244.311 129.026 247.06C128.575 249.81 125.076 259.167 126.549 274.482C128.022 289.798 131.087 298.38 132.866 305.191C134.645 312.001 134.16 316.377 133.351 322.856C132.542 329.335 133.836 332.221 136.109 340.521C138.383 348.822 142.426 357.548 142.92 360.784C143.414 364.019 141.95 364.351 141.141 366.3C140.332 368.25 135.956 373.264 135.794 375.376C135.633 377.487 137.089 379.105 141.141 380.237C145.193 381.369 148.114 381.369 150.055 378.781C151.996 376.193 152.166 374.567 152.004 372.617C151.842 370.668 151.357 370.353 152.004 368.565C152.651 366.777 153.46 365.815 152.975 362.733C152.489 359.651 152.813 362.41 151.519 356.084C150.225 349.759 151.681 341.501 151.681 337.933C151.681 334.366 151.681 325.938 150.829 321.758C149.978 317.578 149.859 319.485 149.374 313.653C148.888 307.821 149.697 307.166 149.697 302.951C149.688 300.445 149.403 297.946 148.846 295.502C148.846 295.502 152.089 278.645 152.251 277.99C152.413 277.334 154.805 266.165 154.805 266.165C155.083 266.214 155.345 266.327 155.571 266.496C155.797 266.664 155.981 266.883 156.108 267.135C156.431 267.944 160.645 295.34 160.645 295.34C160.645 295.34 159.019 299.716 159.181 302.628C159.343 305.54 161.131 313.815 161.131 313.815C161.131 313.815 159.981 319.042 158.823 327.147C157.666 335.252 159.47 343.68 159.309 348.703C159.264 351.977 158.885 355.237 158.176 358.434C157.691 360.698 156.882 363.942 157.691 366.377L158.5 368.803C158.13 370.999 157.967 373.226 158.015 375.452C158.176 378.372 159.47 380.314 161.42 380.637C162.04 380.69 162.663 380.584 163.23 380.329C163.798 380.075 164.291 379.679 164.664 379.181C165.417 379.616 166.248 379.897 167.11 380.008C167.973 380.119 168.848 380.058 169.687 379.828C172.445 379.019 174.386 377.879 173.739 375.614C173.218 373.325 172.223 371.17 170.819 369.289C169.04 366.862 167.899 366.539 167.414 363.619C166.888 360.639 167.114 357.576 168.069 354.705C169.04 352.108 173.254 344.165 175.195 333.634C177.136 323.103 176.821 322.447 176.336 318.718C175.902 313.47 176.119 308.189 176.983 302.994C177.792 298.942 183.462 284.358 183.462 272.524C183.292 262.781 182.261 253.072 180.38 243.51C179.865 240.993 179.487 238.449 179.247 235.891C179.799 233.493 179.799 231.001 179.247 228.603C178.277 225.198 177.63 223.895 176.821 220.175C176.157 216.906 175.668 213.603 175.357 210.282V203.965C175.357 203.965 178.439 211.414 179.894 216.608C181.35 221.801 181.359 224.874 182.976 229.735C184.594 234.597 187.999 243.672 188.646 245.622C189.293 247.571 187.837 250.968 188.484 256.153C189.132 261.338 189.787 270.26 190.919 271.554C192.052 272.848 193.354 271.392 193.354 271.392C193.354 271.392 193.839 273.946 194.81 274.312C195.781 274.678 197.075 273.657 197.075 273.657C197.108 273.867 197.192 274.066 197.318 274.238C197.444 274.41 197.609 274.549 197.799 274.645C197.989 274.74 198.2 274.789 198.413 274.788C198.626 274.786 198.835 274.734 199.024 274.636C199.458 274.496 199.856 274.264 200.192 273.955C200.527 273.647 200.791 273.269 200.965 272.848C200.965 272.848 203.4 273.818 203.077 270.583C202.753 267.348 201.944 262.964 201.944 261.993C201.944 261.023 202.106 257.941 202.106 257.941C202.96 258.631 203.953 259.128 205.018 259.396C206.32 259.558 207.614 260.852 208.585 259.396C209.555 257.941 208.747 257.455 206.967 256.315C205.188 255.174 205.018 254.859 203.724 252.909C202.43 250.96 203.562 250.483 200.803 248.048C198.045 245.613 196.283 244.481 196.283 242.421C196.283 240.36 198.394 227.181 196.445 217.783C194.495 208.384 193.533 205.949 193.209 204.493C192.886 203.037 189.966 192.012 189.966 192.012C189.966 192.012 192.52 181.796 188.016 173.206C183.513 164.616 177.323 165.263 172.624 163.16C167.924 161.057 164.195 160.606 163.54 159.269C163.068 158.126 162.742 156.927 162.569 155.702C162.569 155.702 166.826 149.87 166.945 147.921L167.107 145.98C167.107 145.98 169.661 145.009 170.351 140.02C171.04 135.031 167.626 135.798 167.626 135.798Z" fill="white" stroke="#263238" stroke-width="0.5" stroke-linecap="round" stroke-linejoin="round"/>
<path d="M151.63 163.901C151.156 164.028 150.751 164.333 150.497 164.752C150.237 165.228 150.094 165.759 150.08 166.301C149.724 166.69 149.5 167.182 149.442 167.706C149.373 168.558 149.305 168.064 149.373 168.558C149.442 169.051 149.024 169.69 149.161 170.388C149.248 170.813 149.415 171.218 149.654 171.58C149.77 172.045 149.988 172.478 150.293 172.848C150.542 173.102 150.829 173.315 151.144 173.478C151.144 173.478 151.28 173.759 151.996 173.904L152.694 174.049L152.838 171.095C153.168 171.247 153.531 171.318 153.894 171.299H154.567C154.812 171.398 155.081 171.424 155.341 171.376C155.659 171.322 155.968 171.228 156.261 171.095L156.329 174.049C156.88 173.851 157.382 173.538 157.802 173.129L158.159 172.636C158.358 172.605 158.547 172.533 158.716 172.425C158.885 172.316 159.029 172.173 159.138 172.006C159.351 171.643 159.471 171.234 159.488 170.814C159.66 170.642 159.783 170.428 159.846 170.193C159.909 169.959 159.908 169.712 159.845 169.477L159.632 168.626C159.638 167.976 159.519 167.332 159.283 166.727C158.926 166.089 159.138 166.514 158.926 166.089C158.636 165.553 158.309 165.038 157.947 164.548C157.637 164.087 157.226 163.703 156.746 163.424C156.269 163.126 153.239 162.641 151.63 163.901Z" fill="#808080" stroke="#263238" stroke-linecap="round" stroke-linejoin="round"/>
<path d="M154.652 161.296C154.652 161.296 153.801 158.861 153.153 159.005C152.432 159.355 151.774 159.821 151.204 160.385C151.204 160.385 150.855 157.507 150.497 158.205C150.14 158.903 150.429 160.104 150.642 161.091C150.855 162.079 151.059 161.943 151.204 162.36C151.349 162.777 151.63 163.901 151.63 163.901L152.26 164.182C152.26 164.182 152.54 165.314 152.821 166.293C153.102 167.272 153.8 168.191 154.788 168.123C155.173 168.133 155.549 168.003 155.846 167.757C156.144 167.512 156.342 167.167 156.406 166.787C156.55 166.08 157.257 164.182 157.257 164.182L157.964 164.539C157.964 164.539 157.819 162.36 158.1 161.934C158.381 161.508 159.019 160.878 159.019 160.231C159.019 159.584 159.3 157.907 158.943 158.265C158.565 158.951 158.279 159.684 158.091 160.444C158.091 160.444 157.189 158.444 156.269 158.937C155.35 159.431 154.652 161.296 154.652 161.296Z" fill="white" stroke="#263238" stroke-linecap="round" stroke-linejoin="round"/>
<path d="M152.515 165.195C152.515 165.195 154.805 167.255 156.865 165.195" stroke="#263238" stroke-linecap="round" stroke-linejoin="round"/>
<path d="M152.26 164.182C152.26 164.182 152.515 164.548 153.111 164.088C153.707 163.628 153.962 163.679 153.962 163.679C154.207 163.865 154.507 163.961 154.814 163.952C155.118 163.908 155.408 163.797 155.665 163.628C155.665 163.628 156.397 164.411 156.627 164.318C156.826 164.25 157.031 164.205 157.24 164.182" fill="white"/>
<path d="M152.26 164.182C152.26 164.182 152.515 164.548 153.111 164.088C153.707 163.628 153.962 163.679 153.962 163.679C154.207 163.865 154.507 163.961 154.814 163.952C155.118 163.908 155.408 163.797 155.665 163.628C155.665 163.628 156.397 164.411 156.627 164.318C156.826 164.25 157.031 164.205 157.24 164.182" stroke="#263238" stroke-linecap="round" stroke-linejoin="round"/>
<path d="M153.111 164.097C153.111 164.097 153.656 165.152 154.482 165.288C155.307 165.425 156.321 164.233 156.321 164.233" stroke="#263238" stroke-linecap="round" stroke-linejoin="round"/>
<path d="M155.81 173.308H153.043V190.114L150.855 192.531L152.668 196.175L154.422 194.37L157.419 196.448L158.108 191.612L155.81 189.765V173.308Z" fill="white" stroke="#263238" stroke-linecap="round" stroke-linejoin="round"/>
<path d="M152.149 191.45C151.888 191.172 151.691 190.841 151.57 190.48C151.45 190.118 151.409 189.735 151.451 189.356C151.621 188.13 152.847 186.734 151.272 184.818C149.697 182.903 143.61 183.243 139.745 189.535C135.88 195.826 135.548 211.542 137.472 212.249C139.396 212.955 150.046 210.325 151.621 208.401C153.196 206.477 152.472 197.742 152.668 196.175C152.681 194.585 152.506 192.999 152.149 191.45V191.45Z" fill="#FF0303" stroke="#263238" stroke-linecap="round" stroke-linejoin="round"/>
<path d="M156.908 191.45C157.167 191.171 157.363 190.84 157.483 190.479C157.604 190.117 157.646 189.735 157.606 189.356C157.427 188.13 156.21 186.734 157.776 184.818C159.343 182.903 165.438 183.243 169.312 189.535C173.186 195.826 173.501 211.542 171.585 212.249C169.67 212.955 159.002 210.325 157.427 208.401C155.852 206.477 156.576 197.742 156.38 196.175C156.374 194.585 156.551 193 156.908 191.45V191.45Z" fill="#FF0303" stroke="#263238" stroke-linecap="round" stroke-linejoin="round"/>
<path d="M153.273 177.684H155.58" stroke="#263238" stroke-linecap="round" stroke-linejoin="round"/>
<path d="M153.273 181.941H155.58" stroke="#263238" stroke-linecap="round" stroke-linejoin="round"/>
<path d="M153.273 186.197H155.58" stroke="#263238" stroke-linecap="round" stroke-linejoin="round"/>
<path d="M153.273 190.463H155.58" stroke="#263238" stroke-linecap="round" stroke-linejoin="round"/>
<path d="M143.712 228.271C143.792 228.792 144.036 229.274 144.408 229.647C144.779 230.021 145.26 230.266 145.781 230.349C147.671 230.706 148.335 229.089 150.191 228.45C152.047 227.812 151.808 231.064 151.808 231.064H152.804C152.947 229.934 152.792 228.786 152.353 227.735C151.63 226.381 149.203 226.381 149.203 226.381C149.203 226.381 144.972 227.19 143.712 228.271Z" stroke="#263238" stroke-linecap="round" stroke-linejoin="round"/>
<path d="M171.892 213.117C171.892 213.117 172.036 214.999 170.564 215.535C169.091 216.071 168.563 215.935 168.29 216.735C168.018 217.536 167.226 222.746 163.353 223.282C159.479 223.819 157.87 222.346 157.87 222.346C157.87 222.346 154.133 225.819 151.996 226.356C149.859 226.892 147.739 227.156 146.113 228.229C144.475 229.301 142.729 230.197 140.903 230.902C139.438 231.43 139.702 233.039 137.829 232.102C135.956 231.166 136.629 229.293 136.901 228.092C137.174 226.892 138.102 225.683 137.429 222.482C136.756 219.281 136.629 217.272 137.429 214.599C137.99 212.911 139.038 211.426 140.441 210.333C141.844 209.239 143.539 208.584 145.313 208.452C149.859 207.915 157.606 210.589 158.006 210.725C158.406 210.861 158.806 209.022 161.616 209.388C164.425 209.754 166.954 210.989 168.163 211.091C169.372 211.193 171.594 210.972 171.892 213.117Z" fill="#FF0303"/>
<path opacity="0.39" d="M171.892 213.117C171.892 213.117 172.036 214.999 170.564 215.535C169.091 216.071 168.563 215.935 168.29 216.735C168.018 217.536 167.226 222.746 163.353 223.282C159.479 223.819 157.87 222.346 157.87 222.346C157.87 222.346 154.133 225.819 151.996 226.356C149.859 226.892 147.739 227.156 146.113 228.229C144.475 229.301 142.729 230.197 140.903 230.902C139.438 231.43 139.702 233.039 137.829 232.102C135.956 231.166 136.629 229.293 136.901 228.092C137.174 226.892 138.102 225.683 137.429 222.482C136.756 219.281 136.629 217.272 137.429 214.599C137.99 212.911 139.038 211.426 140.441 210.333C141.844 209.239 143.539 208.584 145.313 208.452C149.859 207.915 157.606 210.589 158.006 210.725C158.406 210.861 158.806 209.022 161.616 209.388C164.425 209.754 166.954 210.989 168.163 211.091C169.372 211.193 171.594 210.972 171.892 213.117Z" fill="black"/>
<path d="M157.972 210.725C157.972 210.725 159.573 215.263 159.445 217.408C159.19 219.133 158.646 220.802 157.836 222.346" stroke="#263238" stroke-linecap="round" stroke-linejoin="round"/>
<path d="M171.892 213.117C171.892 213.117 172.036 214.999 170.564 215.535C169.091 216.071 168.563 215.935 168.29 216.735C168.018 217.536 167.226 222.746 163.353 223.282C159.479 223.819 157.87 222.346 157.87 222.346C157.87 222.346 154.133 225.819 151.996 226.356C149.859 226.892 147.739 227.156 146.113 228.229C144.475 229.301 142.729 230.197 140.903 230.902C139.438 231.43 139.702 233.039 137.829 232.102C135.956 231.166 136.629 229.293 136.901 228.092C137.174 226.892 138.102 225.683 137.429 222.482C136.756 219.281 136.629 217.272 137.429 214.599C137.99 212.911 139.038 211.426 140.441 210.333C141.844 209.239 143.539 208.584 145.313 208.452C149.859 207.915 157.606 210.589 158.006 210.725C158.406 210.861 158.806 209.022 161.616 209.388C164.425 209.754 166.954 210.989 168.163 211.091C169.372 211.193 171.594 210.972 171.892 213.117Z" stroke="#263238" stroke-miterlimit="10"/>
<path d="M156.457 201.888C156.457 203.778 157.521 207.43 158.585 208.613C159.649 209.797 160.118 207.081 164.485 206.485C168.852 205.889 173.101 210.503 172.147 216.761C171.194 223.018 161.65 234.937 153.715 236.112C145.781 237.287 144.155 227.735 143.21 227.028C142.265 226.322 140.494 234.58 140.494 234.58L136.952 233.166C136.952 233.166 139.43 223.955 140.732 222.184C142.035 220.413 145.091 221.009 145.925 223.487C146.76 225.964 148.871 226.322 151.349 223.725C153.826 221.128 155.716 214.36 154.541 212.742C153.366 211.125 152.89 201.292 152.89 201.292L152.634 196.184L154.388 194.379L156.346 196.184L156.457 201.888Z" fill="#808080" stroke="#263238" stroke-linecap="round" stroke-linejoin="round"/>
<path d="M142.869 245.545C143.537 245.628 144.173 245.878 144.718 246.272C145.262 246.667 145.698 247.193 145.985 247.801C146.836 249.844 148.25 251.036 150.404 250.491C151.713 250.148 152.858 249.348 153.63 248.235C153.63 248.235 154.167 248.448 156.542 249.308C158.917 250.168 159.232 251.785 159.232 251.785C159.232 251.785 159.556 252.867 164.289 250.168C169.023 247.469 170.249 240.59 169.244 235.21C168.239 229.829 168.061 226.271 165.26 226.058C162.459 225.845 157.504 227.599 150.94 227.147C144.376 226.696 144.129 224.261 142.188 226.296C140.247 228.331 140.281 230.91 140.817 235.414C141.354 239.918 140.715 245.869 142.869 245.545Z" fill="#FF0303" stroke="#263238" stroke-linecap="round" stroke-linejoin="round"/>
<path d="M153.63 248.235C153.873 247.755 153.972 247.215 153.915 246.681C153.857 246.146 153.646 245.639 153.307 245.222C152.123 243.715 148.037 242.744 146.743 241.774C146.041 241.333 145.537 240.637 145.338 239.832" fill="#FF0303"/>
<path d="M153.63 248.235C153.873 247.755 153.972 247.215 153.915 246.681C153.857 246.146 153.646 245.639 153.307 245.222C152.123 243.715 148.037 242.744 146.743 241.774C146.041 241.333 145.537 240.637 145.338 239.832" stroke="#263238" stroke-linecap="round" stroke-linejoin="round"/>
<path d="M148.999 242.31C149.435 242.014 149.929 241.813 150.449 241.721C150.968 241.628 151.501 241.646 152.013 241.774" fill="#FF0303"/>
<path d="M148.999 242.31C149.435 242.014 149.929 241.813 150.449 241.721C150.968 241.628 151.501 241.646 152.013 241.774" stroke="#263238" stroke-linecap="round" stroke-linejoin="round"/>
<path d="M143.942 243.493C144.151 244.142 144.532 244.723 145.045 245.173C145.558 245.622 146.183 245.925 146.854 246.047C149.11 246.371 149.757 245.834 150.191 247.554" fill="#FF0303"/>
<path d="M143.942 243.493C144.151 244.142 144.532 244.723 145.045 245.173C145.558 245.622 146.183 245.925 146.854 246.047C149.11 246.371 149.757 245.834 150.191 247.554" stroke="#263238" stroke-linecap="round" stroke-linejoin="round"/>
<path d="M143.295 237.364C143.295 237.364 143.406 236.069 145.125 236.929C146.845 237.789 146.53 238.547 148.36 238.87C150.191 239.194 154.064 239.194 155.171 240.479C155.48 240.849 155.674 241.299 155.732 241.777C155.789 242.254 155.707 242.738 155.495 243.17C155.495 243.17 155.708 241.884 157.538 243.817C159.368 245.749 159.59 246.507 159.59 246.507C159.59 246.507 161.633 244.362 163.353 245.221C163.6 244.696 163.816 244.155 164 243.604" fill="#FF0303"/>
<path d="M143.295 237.364C143.295 237.364 143.406 236.069 145.125 236.929C146.845 237.789 146.53 238.547 148.36 238.87C150.191 239.194 154.064 239.194 155.171 240.479C155.48 240.849 155.674 241.299 155.732 241.777C155.789 242.254 155.707 242.738 155.495 243.17C155.495 243.17 155.708 241.884 157.538 243.817C159.368 245.749 159.59 246.507 159.59 246.507C159.59 246.507 161.633 244.362 163.353 245.221C163.6 244.696 163.816 244.155 164 243.604" stroke="#263238" stroke-linecap="round" stroke-linejoin="round"/>
<path d="M144.912 234.563C144.912 234.563 146.53 235.857 147.603 235.312C148.675 234.767 148.999 232.758 151.153 234.128C153.307 235.499 154.388 237.789 155.997 239.296C157.606 240.803 159.011 242.633 160.518 241.774C162.025 240.914 163.072 238.223 165.047 240.59" fill="#FF0303"/>
<path d="M144.912 234.563C144.912 234.563 146.53 235.857 147.603 235.312C148.675 234.767 148.999 232.758 151.153 234.128C153.307 235.499 154.388 237.789 155.997 239.296C157.606 240.803 159.011 242.633 160.518 241.774C162.025 240.914 163.072 238.223 165.047 240.59" stroke="#263238" stroke-linecap="round" stroke-linejoin="round"/>
<path d="M160.203 229.063C161.199 230.496 161.788 232.174 161.905 233.916C161.794 235.558 161.064 237.098 159.862 238.223" fill="#FF0303"/>
<path d="M160.203 229.063C161.199 230.496 161.788 232.174 161.905 233.916C161.794 235.558 161.064 237.098 159.862 238.223" stroke="#263238" stroke-linecap="round" stroke-linejoin="round"/>
<path d="M161.599 236.069C161.599 236.069 163.497 233.226 165.345 234.971Z" fill="#FF0303"/>
<path d="M161.599 236.069C161.599 236.069 163.497 233.226 165.345 234.971" stroke="#263238" stroke-linecap="round" stroke-linejoin="round"/>
<path d="M155.997 239.296C156.651 238.87 157.176 238.274 157.518 237.572C157.86 236.871 158.005 236.089 157.938 235.312C157.863 234.583 157.631 233.879 157.26 233.247C156.888 232.615 156.385 232.071 155.784 231.651" fill="#FF0303"/>
<path d="M155.997 239.296C156.651 238.87 157.176 238.274 157.518 237.572C157.86 236.871 158.005 236.089 157.938 235.312C157.863 234.583 157.631 233.879 157.26 233.247C156.888 232.615 156.385 232.071 155.784 231.651" stroke="#263238" stroke-linecap="round" stroke-linejoin="round"/>
<path d="M153.528 236.606C153.528 236.606 154.49 235.312 152.77 232.945C151.051 230.578 151.476 229.395 151.698 228.212" fill="#FF0303"/>
<path d="M153.528 236.606C153.528 236.606 154.49 235.312 152.77 232.945C151.051 230.578 151.476 229.395 151.698 228.212" stroke="#263238" stroke-linecap="round" stroke-linejoin="round"/>
<path d="M144.351 228.212C144.2 228.743 144.199 229.307 144.35 229.839C144.5 230.371 144.795 230.851 145.202 231.225C146.598 232.298 147.679 230.255 149.833 231.651" fill="#FF0303"/>
<path d="M144.351 228.212C144.2 228.743 144.199 229.307 144.35 229.839C144.5 230.371 144.795 230.851 145.202 231.225C146.598 232.298 147.679 230.255 149.833 231.651" stroke="#263238" stroke-linecap="round" stroke-linejoin="round"/>
<path d="M165.796 227.454C165.796 227.454 162.995 231.013 163.54 232.085Z" fill="#FF0303"/>
<path d="M165.796 227.454C165.796 227.454 162.995 231.013 163.54 232.085" stroke="#263238" stroke-linecap="round" stroke-linejoin="round"/>
<path d="M167.839 228.637C169.264 228.637 170.419 227.482 170.419 226.058C170.419 224.633 169.264 223.478 167.839 223.478C166.415 223.478 165.26 224.633 165.26 226.058C165.26 227.482 166.415 228.637 167.839 228.637Z" fill="#FF0303" stroke="#263238" stroke-linecap="round" stroke-linejoin="round"/>
<path d="M168.273 232.4C169.966 232.4 171.338 231.245 171.338 229.821C171.338 228.396 169.966 227.241 168.273 227.241C166.581 227.241 165.209 228.396 165.209 229.821C165.209 231.245 166.581 232.4 168.273 232.4Z" fill="#FF0303" stroke="#263238" stroke-linecap="round" stroke-linejoin="round"/>
<path d="M171.415 233.72C171.704 235.116 170.564 236.529 168.903 236.878C167.243 237.227 165.634 236.367 165.345 234.971C165.055 233.575 166.196 232.162 167.899 231.813C169.601 231.464 171.125 232.324 171.415 233.72Z" fill="#FF0303" stroke="#263238" stroke-linecap="round" stroke-linejoin="round"/>
<path d="M171.798 237.61C172.026 238.201 172.066 238.847 171.915 239.462C171.763 240.076 171.427 240.629 170.951 241.046C170.475 241.463 169.882 241.724 169.253 241.794C168.624 241.863 167.989 241.737 167.433 241.434C166.878 241.131 166.429 240.664 166.147 240.097C165.865 239.531 165.764 238.891 165.858 238.265C165.951 237.639 166.235 237.057 166.67 236.597C167.105 236.138 167.671 235.823 168.29 235.695C169.01 235.489 169.781 235.574 170.438 235.933C171.094 236.291 171.583 236.894 171.798 237.61V237.61Z" fill="#FF0303" stroke="#263238" stroke-linecap="round" stroke-linejoin="round"/>
<path d="M171.875 242.353C172.094 242.938 172.128 243.576 171.973 244.181C171.818 244.787 171.481 245.33 171.007 245.738C170.534 246.146 169.947 246.399 169.326 246.463C168.704 246.527 168.078 246.399 167.531 246.097C166.984 245.794 166.544 245.331 166.268 244.77C165.993 244.209 165.896 243.577 165.991 242.959C166.086 242.342 166.368 241.768 166.799 241.315C167.23 240.863 167.789 240.553 168.401 240.428C169.117 240.226 169.884 240.314 170.534 240.675C171.185 241.035 171.667 241.638 171.875 242.353V242.353Z" fill="#FF0303" stroke="#263238" stroke-linecap="round" stroke-linejoin="round"/>
<path d="M170.589 246.55C170.807 247.135 170.841 247.773 170.686 248.377C170.531 248.982 170.195 249.525 169.722 249.933C169.249 250.341 168.662 250.594 168.041 250.659C167.42 250.723 166.794 250.596 166.248 250.294C165.701 249.992 165.26 249.529 164.984 248.969C164.708 248.409 164.61 247.778 164.704 247.16C164.798 246.543 165.078 245.969 165.508 245.516C165.937 245.063 166.495 244.752 167.107 244.626C167.824 244.427 168.59 244.518 169.241 244.877C169.891 245.237 170.376 245.837 170.589 246.55V246.55Z" fill="#FF0303" stroke="#263238" stroke-linecap="round" stroke-linejoin="round"/>
<path d="M169.082 249.453C169.303 250.039 169.338 250.678 169.182 251.285C169.027 251.892 168.69 252.436 168.215 252.845C167.741 253.253 167.152 253.506 166.529 253.569C165.906 253.632 165.279 253.502 164.732 253.197C164.185 252.892 163.745 252.426 163.472 251.863C163.198 251.3 163.104 250.666 163.203 250.048C163.301 249.429 163.587 248.856 164.022 248.406C164.457 247.955 165.02 247.649 165.634 247.529C166.346 247.338 167.105 247.433 167.748 247.792C168.392 248.151 168.87 248.747 169.082 249.453Z" fill="#FF0303" stroke="#263238" stroke-linecap="round" stroke-linejoin="round"/>
<path d="M166.171 251.07C166.389 251.655 166.423 252.293 166.268 252.898C166.113 253.503 165.776 254.046 165.303 254.454C164.83 254.862 164.244 255.115 163.623 255.179C163.002 255.244 162.376 255.116 161.829 254.814C161.283 254.512 160.842 254.05 160.566 253.49C160.29 252.93 160.192 252.298 160.285 251.681C160.379 251.064 160.66 250.49 161.089 250.037C161.519 249.583 162.077 249.273 162.689 249.146C163.405 248.943 164.173 249.032 164.825 249.392C165.477 249.752 165.961 250.355 166.171 251.07V251.07Z" fill="#FF0303" stroke="#263238" stroke-linecap="round" stroke-linejoin="round"/>
<path d="M163.267 252.364C163.486 252.949 163.52 253.587 163.365 254.192C163.21 254.797 162.873 255.34 162.4 255.748C161.927 256.156 161.341 256.409 160.72 256.473C160.099 256.538 159.473 256.41 158.926 256.108C158.379 255.806 157.938 255.344 157.663 254.784C157.387 254.224 157.289 253.592 157.382 252.975C157.476 252.358 157.756 251.784 158.186 251.331C158.616 250.877 159.174 250.567 159.785 250.44C160.502 250.237 161.27 250.326 161.922 250.686C162.574 251.046 163.058 251.649 163.267 252.364V252.364Z" fill="#FF0303" stroke="#263238" stroke-linecap="round" stroke-linejoin="round"/>
<path d="M159.675 253.114C159.964 254.51 158.619 255.974 156.678 256.374C154.737 256.774 152.924 255.966 152.634 254.569C152.345 253.173 153.69 251.709 155.631 251.309C157.572 250.909 159.428 251.717 159.675 253.114Z" fill="#FF0303" stroke="#263238" stroke-linecap="round" stroke-linejoin="round"/>
<path d="M164.076 228.739C165.501 228.739 166.656 227.584 166.656 226.16C166.656 224.735 165.501 223.58 164.076 223.58C162.652 223.58 161.497 224.735 161.497 226.16C161.497 227.584 162.652 228.739 164.076 228.739Z" fill="#FF0303" stroke="#263238" stroke-linecap="round" stroke-linejoin="round"/>
<path d="M160.203 229.063C161.975 229.063 163.412 228.007 163.412 226.705C163.412 225.402 161.975 224.346 160.203 224.346C158.43 224.346 156.993 225.402 156.993 226.705C156.993 228.007 158.43 229.063 160.203 229.063Z" fill="#FF0303" stroke="#263238" stroke-linecap="round" stroke-linejoin="round"/>
<path d="M144.827 226.287C144.863 226.816 144.739 227.342 144.472 227.799C144.205 228.256 143.806 228.622 143.328 228.849C142.85 229.077 142.315 229.155 141.792 229.075C141.268 228.994 140.782 228.758 140.394 228.397C140.007 228.036 139.738 227.567 139.62 227.05C139.503 226.534 139.544 225.995 139.737 225.502C139.931 225.009 140.268 224.586 140.705 224.287C141.142 223.989 141.659 223.828 142.188 223.827C142.864 223.804 143.522 224.05 144.016 224.511C144.511 224.973 144.803 225.611 144.827 226.287V226.287Z" fill="#FF0303" stroke="#263238" stroke-linecap="round" stroke-linejoin="round"/>
<path d="M140.664 231.217C141.995 231.217 143.073 230.199 143.073 228.944C143.073 227.688 141.995 226.671 140.664 226.671C139.334 226.671 138.255 227.688 138.255 228.944C138.255 230.199 139.334 231.217 140.664 231.217Z" fill="#FF0303" stroke="#263238" stroke-linecap="round" stroke-linejoin="round"/>
<path d="M143.116 232.204C143.142 232.686 143.022 233.164 142.773 233.577C142.524 233.99 142.157 234.318 141.719 234.52C141.281 234.722 140.792 234.788 140.317 234.709C139.841 234.63 139.4 234.411 139.05 234.079C138.701 233.746 138.459 233.317 138.356 232.846C138.253 232.375 138.294 231.884 138.474 231.436C138.653 230.989 138.962 230.605 139.362 230.335C139.762 230.065 140.233 229.922 140.715 229.923C141.023 229.915 141.329 229.968 141.616 230.078C141.903 230.188 142.165 230.354 142.388 230.566C142.611 230.778 142.79 231.032 142.915 231.313C143.04 231.594 143.108 231.897 143.116 232.204Z" fill="#FF0303" stroke="#263238" stroke-linecap="round" stroke-linejoin="round"/>
<path d="M143.227 235.405C143.254 235.887 143.136 236.365 142.889 236.779C142.641 237.193 142.275 237.523 141.838 237.726C141.401 237.929 140.912 237.997 140.436 237.92C139.96 237.843 139.519 237.625 139.168 237.294C138.817 236.963 138.574 236.535 138.469 236.064C138.365 235.593 138.404 235.102 138.581 234.654C138.759 234.206 139.067 233.821 139.466 233.55C139.864 233.278 140.335 233.133 140.817 233.132C141.438 233.116 142.039 233.346 142.491 233.772C142.942 234.198 143.207 234.785 143.227 235.405Z" fill="#FF0303" stroke="#263238" stroke-linecap="round" stroke-linejoin="round"/>
<path d="M143.337 238.743C143.363 239.225 143.243 239.703 142.994 240.116C142.744 240.529 142.377 240.858 141.938 241.059C141.5 241.261 141.011 241.326 140.535 241.247C140.059 241.167 139.618 240.947 139.269 240.614C138.919 240.281 138.678 239.851 138.576 239.379C138.475 238.907 138.517 238.416 138.697 237.968C138.878 237.521 139.189 237.138 139.59 236.869C139.99 236.601 140.463 236.458 140.945 236.461C141.564 236.45 142.162 236.683 142.61 237.11C143.058 237.537 143.32 238.124 143.337 238.743V238.743Z" fill="#FF0303" stroke="#263238" stroke-linecap="round" stroke-linejoin="round"/>
<path d="M141.362 244.464C142.693 244.464 143.772 243.446 143.772 242.191C143.772 240.935 142.693 239.918 141.362 239.918C140.032 239.918 138.953 240.935 138.953 242.191C138.953 243.446 140.032 244.464 141.362 244.464Z" fill="#FF0303" stroke="#263238" stroke-linecap="round" stroke-linejoin="round"/>
<path d="M158.985 226.909C158.985 228.271 157.504 229.369 155.682 229.369C153.86 229.369 152.387 228.271 152.387 226.909C152.387 225.547 153.86 224.449 155.682 224.449C157.504 224.449 158.985 225.547 158.985 226.909Z" fill="#FF0303" stroke="#263238" stroke-linecap="round" stroke-linejoin="round"/>
<path d="M150.94 229.608C152.586 229.608 153.92 228.506 153.92 227.147C153.92 225.789 152.586 224.687 150.94 224.687C149.294 224.687 147.96 225.789 147.96 227.147C147.96 228.506 149.294 229.608 150.94 229.608Z" fill="#FF0303" stroke="#263238" stroke-linecap="round" stroke-linejoin="round"/>
<path d="M148.812 226.722C148.849 227.252 148.726 227.782 148.459 228.241C148.191 228.701 147.792 229.069 147.312 229.298C146.832 229.527 146.294 229.607 145.769 229.526C145.243 229.445 144.754 229.208 144.365 228.846C143.976 228.483 143.705 228.012 143.588 227.493C143.471 226.975 143.512 226.433 143.707 225.938C143.902 225.443 144.242 225.019 144.681 224.72C145.121 224.421 145.641 224.261 146.172 224.261C146.848 224.238 147.506 224.484 148.001 224.946C148.496 225.407 148.787 226.046 148.812 226.722V226.722Z" fill="#FF0303" stroke="#263238" stroke-linecap="round" stroke-linejoin="round"/>
<path d="M141.575 248.227C143 248.227 144.155 247.072 144.155 245.647C144.155 244.223 143 243.068 141.575 243.068C140.15 243.068 138.996 244.223 138.996 245.647C138.996 247.072 140.15 248.227 141.575 248.227Z" fill="#FF0303" stroke="#263238" stroke-linecap="round" stroke-linejoin="round"/>
<path d="M152.668 254.569C152.458 255.066 152.349 255.6 152.349 256.14C152.349 256.68 152.458 257.214 152.668 257.711C153.315 259.754 152.566 261.474 153.102 262.768C153.639 264.062 154.933 264.275 155.367 263.619C155.801 262.964 155.469 261.142 155.682 259.856C155.947 258.67 156.294 257.504 156.721 256.366C156.721 256.366 153.426 256.808 152.668 254.569Z" fill="#FF0303" stroke="#263238" stroke-linecap="round" stroke-linejoin="round"/>
<path d="M141.575 248.235C142.027 248.524 142.427 248.887 142.759 249.308C143.516 250.159 143.516 249.844 143.082 251.138C142.648 252.432 142.546 253.616 143.193 252.841C143.84 252.066 144.7 250.789 144.376 249.606C144.16 248.868 143.752 248.201 143.193 247.673L141.575 248.235Z" fill="#FF0303" stroke="#263238" stroke-linecap="round" stroke-linejoin="round"/>
<path d="M146.53 139.714C146.53 139.714 149.135 142.191 151.102 142.319C152.356 142.38 153.61 142.186 154.788 141.749C156.452 142.227 158.211 142.271 159.896 141.876C162.314 141.178 161.999 137.747 161.999 137.747L154.686 135.261L146.53 139.714Z" fill="white" stroke="#263238" stroke-width="0.5" stroke-linecap="round" stroke-linejoin="round"/>
<path d="M148.752 141.434C149.79 141.608 150.857 141.412 151.766 140.88" stroke="#263238" stroke-width="0.5" stroke-linecap="round" stroke-linejoin="round"/>
<path d="M150.404 142.191C151.094 142.074 151.774 141.903 152.438 141.68" stroke="#263238" stroke-width="0.5" stroke-linecap="round" stroke-linejoin="round"/>
<path d="M156.695 141.553L158.806 142.012" stroke="#263238" stroke-width="0.5" stroke-linecap="round" stroke-linejoin="round"/>
<path d="M157.265 140.54C158.314 141.172 159.538 141.447 160.756 141.323" stroke="#263238" stroke-width="0.5" stroke-linecap="round" stroke-linejoin="round"/>
<path d="M150.659 140.029C150.659 140.029 153.213 140.88 153.213 144.992H155.767C155.767 144.992 156.15 141.587 157.93 139.586L158.628 138.888C157.968 138.351 157.215 137.941 156.406 137.679C154.754 137.041 155.009 137.168 153 137.62C151.527 137.952 150.208 139.714 150.208 139.714L150.659 140.029Z" fill="white" stroke="#263238" stroke-linecap="round" stroke-linejoin="round"/>
<path d="M154.567 125.096C154.567 125.096 153.239 123.632 151.962 123.887C150.685 124.143 145.866 127.446 144.912 128.782C144.2 129.941 143.9 131.306 144.061 132.656C144.189 132.98 144.376 133.354 144.376 133.354C144.376 133.354 143.167 134.435 143.993 136.76C144.819 139.084 146.215 140.063 147.398 140.318C148.497 140.603 149.659 140.513 150.702 140.063C151.336 139.672 151.95 139.249 152.54 138.794C152.909 138.822 153.28 138.774 153.629 138.654C153.979 138.534 154.301 138.344 154.575 138.096C154.901 138.444 155.318 138.694 155.778 138.817C156.238 138.941 156.724 138.933 157.18 138.794C157.589 139.383 158.144 139.857 158.79 140.168C159.436 140.48 160.151 140.62 160.867 140.574C161.958 140.494 162.996 140.069 163.83 139.36C164.664 138.652 165.251 137.696 165.506 136.632C165.784 135.418 165.653 134.145 165.132 133.014C165.225 131.036 164.592 129.092 163.353 127.548C161.25 124.875 158.713 124.56 157.436 124.143C156.159 123.725 154.567 125.096 154.567 125.096Z" fill="#FF0303" stroke="#263238" stroke-linecap="round" stroke-linejoin="round"/>
<path d="M154.533 138.062V125.096" stroke="#263238" stroke-width="0.5" stroke-linecap="round" stroke-linejoin="round"/>
<path d="M154.405 129.191C154.151 129.183 153.902 129.121 153.674 129.011C153.445 128.902 153.242 128.745 153.077 128.553C152.566 127.914 151.996 128.808 151.868 127.701C151.74 126.595 151.8 125.854 151.357 125.794C151.073 125.813 150.797 125.9 150.554 126.048C150.311 126.196 150.108 126.401 149.961 126.646" stroke="#263238" stroke-width="0.5" stroke-linecap="round" stroke-linejoin="round"/>
<path d="M151.928 126.492C152.27 126.226 152.499 125.84 152.566 125.411" stroke="#263238" stroke-width="0.5" stroke-linecap="round" stroke-linejoin="round"/>
<path d="M150.846 129.353L149.893 128.467L150.216 127.701" stroke="#263238" stroke-width="0.5" stroke-linecap="round" stroke-linejoin="round"/>
<path d="M149.893 128.468C149.592 128.704 149.335 128.992 149.135 129.319C149.02 129.54 148.934 129.774 148.88 130.017" stroke="#263238" stroke-width="0.5" stroke-linecap="round" stroke-linejoin="round"/>
<path d="M154.567 133.167C154.289 133.602 153.92 133.97 153.485 134.248C152.787 134.691 151.263 133.933 150.821 133.482C150.378 133.031 149.74 131.26 149.297 130.622C148.854 129.983 148.446 129.77 147.773 130.119C147.353 130.416 147.039 130.84 146.879 131.328" stroke="#263238" stroke-width="0.5" stroke-linecap="round" stroke-linejoin="round"/>
<path d="M153.264 130.945C153.264 130.945 152.881 131.703 152.753 132.026C152.626 132.35 152.498 131.073 151.902 130.434" stroke="#263238" stroke-width="0.5" stroke-linecap="round" stroke-linejoin="round"/>
<path d="M149.893 132.341C149.893 132.341 149.322 133.107 149.041 133.193" stroke="#263238" stroke-width="0.5" stroke-linecap="round" stroke-linejoin="round"/>
<path d="M149.459 135.329C149.377 135.4 149.282 135.452 149.179 135.484C149.076 135.516 148.967 135.526 148.86 135.514C148.753 135.502 148.65 135.468 148.556 135.414C148.463 135.361 148.382 135.288 148.318 135.202C147.747 134.563 147.552 134.35 147.041 134.35C146.649 134.375 146.265 134.462 145.9 134.606" stroke="#263238" stroke-width="0.5" stroke-linecap="round" stroke-linejoin="round"/>
<path d="M147.228 127.957C147.228 127.957 145.636 129.166 145.381 130.374C145.264 131.46 145.44 132.556 145.891 133.55C146.079 133.933 145.193 134.308 145.764 135.253C146.218 135.949 146.752 136.589 147.356 137.16C148.302 136.958 149.281 136.981 150.216 137.228C151.024 137.662 151.788 138.172 152.498 138.752" stroke="#263238" stroke-width="0.5" stroke-linecap="round" stroke-linejoin="round"/>
<path d="M147.356 137.168C147.077 137.244 146.832 137.411 146.659 137.643C146.486 137.874 146.396 138.157 146.402 138.445C146.275 139.586 147.254 139.969 148.369 140.225" stroke="#263238" stroke-width="0.5" stroke-linecap="round" stroke-linejoin="round"/>
<path d="M145.891 133.55C145.891 133.55 144.938 132.98 144.368 133.354" stroke="#263238" stroke-width="0.5" stroke-linecap="round" stroke-linejoin="round"/>
<path d="M143.925 136.215C143.925 136.215 144.683 137.109 145.381 137.109" stroke="#263238" stroke-width="0.5" stroke-linecap="round" stroke-linejoin="round"/>
<path d="M149.135 125.667C149.135 125.667 148.284 126.177 148.284 126.518C148.284 126.858 149.493 127.276 149.493 127.276" stroke="#263238" stroke-width="0.5" stroke-linecap="round" stroke-linejoin="round"/>
<path d="M148.752 127.19L148.113 128.272" stroke="#263238" stroke-width="0.5" stroke-linecap="round" stroke-linejoin="round"/>
<path d="M153.009 126.875C153.193 126.406 153.427 125.958 153.707 125.539C154.03 125.156 154.558 126.05 154.558 126.05C154.558 126.05 155.639 124.909 155.954 126.05" stroke="#263238" stroke-width="0.5" stroke-linecap="round" stroke-linejoin="round"/>
<path d="M153.707 125.539L153.264 124.841" stroke="#263238" stroke-width="0.5" stroke-linecap="round" stroke-linejoin="round"/>
<path d="M159.556 127.003C159.556 127.003 158.091 125.862 157.589 126.62C157.087 127.378 157.717 128.655 156.635 129.293C156.049 129.666 155.343 129.803 154.66 129.676" stroke="#263238" stroke-width="0.5" stroke-linecap="round" stroke-linejoin="round"/>
<path d="M155.997 131.83C155.997 131.83 156.125 132.026 156.695 131.643C157.265 131.26 157.138 130.792 157.717 130.306" stroke="#263238" stroke-width="0.5" stroke-linecap="round" stroke-linejoin="round"/>
<path d="M154.473 133.933C154.473 133.933 156.823 134.785 157.717 133.933C158.611 133.082 158.347 132.23 158.73 131.771C159.113 131.311 160.066 130.502 159.939 129.796C159.807 129.323 159.503 128.916 159.087 128.655" stroke="#263238" stroke-width="0.5" stroke-linecap="round" stroke-linejoin="round"/>
<path d="M159.939 129.796C160.129 129.684 160.341 129.616 160.56 129.595C160.779 129.575 161 129.602 161.207 129.676" stroke="#263238" stroke-width="0.5" stroke-linecap="round" stroke-linejoin="round"/>
<path d="M158.73 131.745C158.885 132.093 159.113 132.403 159.398 132.655C159.683 132.908 160.018 133.097 160.381 133.21" stroke="#263238" stroke-width="0.5" stroke-linecap="round" stroke-linejoin="round"/>
<path d="M163.625 131.643C163.797 132.68 163.753 133.74 163.497 134.759C163.055 135.968 162.731 136.087 162.731 136.087C161.737 136.022 160.74 136.176 159.811 136.538C158.67 137.109 157.717 137.168 157.257 137.994L156.814 138.846" stroke="#263238" stroke-width="0.5" stroke-linecap="round" stroke-linejoin="round"/>
<path d="M162.731 136.087C162.731 136.087 164.706 136.598 164.323 137.875" stroke="#263238" stroke-width="0.5" stroke-linecap="round" stroke-linejoin="round"/>
<path d="M164.264 136.794C164.264 136.794 164.894 136.47 164.894 135.142" stroke="#263238" stroke-width="0.5" stroke-linecap="round" stroke-linejoin="round"/>
<path d="M165.089 132.98L163.94 132.784" stroke="#263238" stroke-width="0.5" stroke-linecap="round" stroke-linejoin="round"/>
<path d="M162.161 127.769C162.379 127.792 162.583 127.889 162.738 128.044C162.893 128.199 162.99 128.403 163.012 128.621L163.14 129.378C163.14 129.378 164.408 129.762 164.034 130.715" stroke="#263238" stroke-width="0.5" stroke-linecap="round" stroke-linejoin="round"/>
<path d="M160.526 125.786C160.753 126.069 160.92 126.396 161.018 126.745C161.116 127.095 161.143 127.46 161.097 127.82" stroke="#263238" stroke-width="0.5" stroke-linecap="round" stroke-linejoin="round"/>
<path d="M157.019 124.934C157.642 124.825 158.285 124.911 158.858 125.181" stroke="#263238" stroke-width="0.5" stroke-linecap="round" stroke-linejoin="round"/>
<path d="M157.265 137.994C157.265 137.994 159.3 139.697 161.463 138.845" stroke="#263238" stroke-width="0.5" stroke-linecap="round" stroke-linejoin="round"/>
<path d="M161.02 137.747C161.258 137.682 161.507 137.667 161.751 137.703C161.995 137.739 162.229 137.825 162.438 137.956C162.647 138.088 162.827 138.261 162.965 138.465C163.103 138.67 163.198 138.901 163.242 139.143" stroke="#263238" stroke-width="0.5" stroke-linecap="round" stroke-linejoin="round"/>
<path d="M157.121 135.261C157.121 135.261 155.725 135.389 155.98 136.342" stroke="#263238" stroke-width="0.5" stroke-linecap="round" stroke-linejoin="round"/>
<path d="M161.148 132.026C161.148 132.026 161.65 131.958 162.416 130.945" stroke="#263238" stroke-width="0.5" stroke-linecap="round" stroke-linejoin="round"/>
<path d="M161.846 131.643L161.973 132.529" stroke="#263238" stroke-width="0.5" stroke-linecap="round" stroke-linejoin="round"/>
<path d="M150.846 136.002C151.011 136.232 151.22 136.425 151.461 136.572C151.703 136.718 151.971 136.814 152.251 136.853C152.542 136.91 152.842 136.899 153.128 136.823C153.414 136.746 153.679 136.605 153.903 136.411" stroke="#263238" stroke-width="0.5" stroke-linecap="round" stroke-linejoin="round"/>
<path d="M163.497 134.759C162.995 134.348 162.367 134.123 161.718 134.12" stroke="#263238" stroke-width="0.5" stroke-linecap="round" stroke-linejoin="round"/>
<path d="M148.113 131.643C147.892 131.771 147.702 131.945 147.555 132.154C147.408 132.363 147.308 132.601 147.262 132.852" stroke="#263238" stroke-width="0.5" stroke-linecap="round" stroke-linejoin="round"/>
<path d="M159.377 223.214C159.377 223.214 157.538 224.414 157.214 225.879C157.017 227.574 156.954 229.282 157.027 230.987L157.793 231.055C157.793 231.055 157.538 227.309 157.793 226.671C158.049 226.032 159.121 226.032 159.121 226.032C159.558 225.432 159.849 224.738 159.973 224.006C160.015 223.086 160.203 222.763 159.377 223.214Z" fill="white" stroke="#263238" stroke-width="0.5" stroke-linecap="round" stroke-linejoin="round"/>
<path d="M159.819 221.937C159.444 222.286 159.016 222.574 158.551 222.788C157.862 222.935 157.153 222.958 156.457 222.857L156.516 223.555C157.077 223.662 157.652 223.682 158.219 223.614C158.826 223.502 159.422 223.334 159.998 223.112C159.998 223.112 160.841 222.133 159.819 221.937Z" fill="white" stroke="#263238" stroke-width="0.5" stroke-linecap="round" stroke-linejoin="round"/>
<path d="M159.947 224.04L156.84 224.287L156.712 224.866C157.197 224.827 157.683 224.827 158.168 224.866C158.866 224.925 159.632 224.925 159.632 224.925C159.632 224.925 160.526 224.866 159.947 224.04Z" fill="white" stroke="#263238" stroke-width="0.5" stroke-linecap="round" stroke-linejoin="round"/>
<path d="M164.902 219.843C164.902 219.843 163.821 216.54 162.042 216.097C160.262 215.654 157.853 217.11 157.725 218.574C157.598 220.039 159.819 221.937 159.819 221.937C159.575 222.323 159.424 222.76 159.377 223.214C159.39 223.621 159.452 224.024 159.564 224.415C158.914 225.305 158.461 226.324 158.236 227.403C158.108 228.739 159.564 230.263 161.795 230.451C164.025 230.638 165.03 229.31 165.2 228.288C165.278 227.764 165.298 227.233 165.26 226.705C166.048 225.667 166.454 224.389 166.409 223.086C166.426 220.609 164.902 219.843 164.902 219.843Z" fill="#FF0303"/>
<path opacity="0.58" d="M164.902 219.843C164.902 219.843 163.821 216.54 162.042 216.097C160.262 215.654 157.853 217.11 157.725 218.574C157.598 220.039 159.819 221.937 159.819 221.937C159.575 222.323 159.424 222.76 159.377 223.214C159.39 223.621 159.452 224.024 159.564 224.415C158.914 225.305 158.461 226.324 158.236 227.403C158.108 228.739 159.564 230.263 161.795 230.451C164.025 230.638 165.03 229.31 165.2 228.288C165.278 227.764 165.298 227.233 165.26 226.705C166.048 225.667 166.454 224.389 166.409 223.086C166.426 220.609 164.902 219.843 164.902 219.843Z" fill="white"/>
<path d="M163.225 220.737C163.509 220.528 163.774 220.295 164.017 220.039" stroke="#263238" stroke-width="0.5" stroke-linecap="round" stroke-linejoin="round"/>
<path d="M160.841 221.69C161.479 221.593 162.096 221.385 162.663 221.077" stroke="#263238" stroke-width="0.5" stroke-linecap="round" stroke-linejoin="round"/>
<path d="M160.33 224.61C160.33 224.61 163.565 224.287 164.842 226.194" stroke="#263238" stroke-width="0.5" stroke-linecap="round" stroke-linejoin="round"/>
<path d="M164.902 219.843C164.902 219.843 163.821 216.54 162.042 216.097C160.262 215.654 157.853 217.11 157.725 218.574C157.598 220.039 159.819 221.937 159.819 221.937C159.575 222.323 159.424 222.76 159.377 223.214C159.39 223.621 159.452 224.024 159.564 224.415C158.914 225.305 158.461 226.324 158.236 227.403C158.108 228.739 159.564 230.263 161.795 230.451C164.025 230.638 165.03 229.31 165.2 228.288C165.278 227.764 165.298 227.233 165.26 226.705C166.048 225.667 166.454 224.389 166.409 223.086C166.426 220.609 164.902 219.843 164.902 219.843Z" stroke="#263238" stroke-miterlimit="10"/>
<path d="M151.732 223.214C151.732 223.214 153.571 224.414 153.886 225.879C154.089 227.573 154.155 229.282 154.081 230.987L153.315 231.055C153.315 231.055 153.571 227.309 153.315 226.671C153.06 226.032 151.987 226.032 151.987 226.032C151.55 225.432 151.259 224.738 151.136 224.006C151.093 223.086 150.906 222.763 151.732 223.214Z" fill="white" stroke="#263238" stroke-width="0.5" stroke-linecap="round" stroke-linejoin="round"/>
<path d="M151.289 221.937C151.664 222.286 152.092 222.574 152.558 222.788C153.246 222.935 153.955 222.958 154.652 222.857L154.584 223.555C154.023 223.663 153.448 223.683 152.881 223.614C152.274 223.502 151.678 223.334 151.102 223.112C151.102 223.112 150.31 222.133 151.289 221.937Z" fill="white" stroke="#263238" stroke-width="0.5" stroke-linecap="round" stroke-linejoin="round"/>
<path d="M151.161 224.04L154.269 224.287L154.396 224.866C153.909 224.827 153.419 224.827 152.932 224.866C152.234 224.925 151.476 224.925 151.476 224.925C151.476 224.925 150.582 224.866 151.161 224.04Z" fill="white" stroke="#263238" stroke-width="0.5" stroke-linecap="round" stroke-linejoin="round"/>
<path d="M146.206 219.843C146.206 219.843 147.279 216.54 149.059 216.097C150.838 215.654 153.256 217.11 153.383 218.574C153.511 220.039 151.289 221.937 151.289 221.937C151.533 222.323 151.685 222.76 151.732 223.214C151.718 223.621 151.652 224.025 151.536 224.415C152.19 225.304 152.646 226.323 152.873 227.403C153 228.739 151.536 230.263 149.314 230.451C147.092 230.638 146.079 229.31 145.909 228.288C145.831 227.764 145.808 227.233 145.84 226.705C145.057 225.665 144.654 224.388 144.7 223.086C144.683 220.609 146.206 219.843 146.206 219.843Z" fill="#FF0303"/>
<path opacity="0.58" d="M146.206 219.843C146.206 219.843 147.279 216.54 149.059 216.097C150.838 215.654 153.256 217.11 153.383 218.574C153.511 220.039 151.289 221.937 151.289 221.937C151.533 222.323 151.685 222.76 151.732 223.214C151.718 223.621 151.652 224.025 151.536 224.415C152.19 225.304 152.646 226.323 152.873 227.403C153 228.739 151.536 230.263 149.314 230.451C147.092 230.638 146.079 229.31 145.909 228.288C145.831 227.764 145.808 227.233 145.84 226.705C145.057 225.665 144.654 224.388 144.7 223.086C144.683 220.609 146.206 219.843 146.206 219.843Z" fill="white"/>
<path d="M147.884 220.737C147.598 220.53 147.332 220.297 147.092 220.039" stroke="#263238" stroke-width="0.5" stroke-linecap="round" stroke-linejoin="round"/>
<path d="M150.31 221.69C149.672 221.593 149.055 221.385 148.488 221.077" stroke="#263238" stroke-width="0.5" stroke-linecap="round" stroke-linejoin="round"/>
<path d="M150.778 224.61C150.778 224.61 147.535 224.287 146.266 226.194" stroke="#263238" stroke-width="0.5" stroke-linecap="round" stroke-linejoin="round"/>
<path d="M146.206 219.843C146.206 219.843 147.279 216.54 149.059 216.097C150.838 215.654 153.256 217.11 153.383 218.574C153.511 220.039 151.289 221.937 151.289 221.937C151.533 222.323 151.685 222.76 151.732 223.214C151.718 223.621 151.652 224.025 151.536 224.415C152.19 225.304 152.646 226.323 152.873 227.403C153 228.739 151.536 230.263 149.314 230.451C147.092 230.638 146.079 229.31 145.909 228.288C145.831 227.764 145.808 227.233 145.84 226.705C145.057 225.665 144.654 224.388 144.7 223.086C144.683 220.609 146.206 219.843 146.206 219.843Z" stroke="#263238" stroke-miterlimit="10"/>
<path d="M162.527 250.125C162.697 252.875 162.11 255.378 161.088 256.025C160.066 256.672 156.389 256.749 155.069 256.698C155.069 256.698 151.493 256.698 149.825 255.923C148.539 255.344 147.1 254.152 147.169 250.125H146.096C146.028 253.684 147.075 255.838 149.374 256.876C151.264 257.728 154.924 257.728 155.052 257.728C155.18 257.728 155.58 257.728 156.133 257.728C157.708 257.728 160.509 257.617 161.675 256.876C163.25 255.88 163.761 252.833 163.608 250.066L162.527 250.125Z" fill="#808080" stroke="#263238" stroke-linecap="round" stroke-linejoin="round"/>
<path d="M160.467 255.744C160.391 255.244 160.197 254.769 159.901 254.359C159.605 253.948 159.215 253.615 158.764 253.386C157.061 252.347 156.252 254.041 154.677 253.514C153.102 252.986 150.421 252.994 149.646 255.352C149.367 256.294 149.38 257.298 149.684 258.231C149.988 259.165 150.568 259.984 151.349 260.58C152.06 261.208 152.913 261.655 153.835 261.882C153.835 261.882 154.362 265.151 155.009 264.632C155.656 264.113 156.448 261.882 156.448 261.882C157.72 261.199 158.906 260.367 159.981 259.405C160.399 258.903 160.666 258.292 160.752 257.645C160.838 256.997 160.739 256.338 160.467 255.744V255.744Z" fill="#808080" stroke="#263238" stroke-linecap="round" stroke-linejoin="round"/>
<path d="M156.746 183.558C156.746 183.558 152.864 185.38 152.694 188.828C152.523 192.276 153.707 196.831 156.142 198.457C158.577 200.083 165.762 202.714 168.401 202.407C171.04 202.101 171.534 200.381 171.943 197.648C172.351 194.915 171.338 191.868 170.827 190.25C170.317 188.632 168.495 186.402 167.184 185.184C165.873 183.967 165.157 183.661 162.518 182.954C159.879 182.247 156.746 183.558 156.746 183.558Z" fill="#FF0303"/>
<path opacity="0.58" d="M156.746 183.558C156.746 183.558 152.864 185.38 152.694 188.828C152.523 192.276 153.707 196.831 156.142 198.457C158.577 200.083 165.762 202.714 168.401 202.407C171.04 202.101 171.534 200.381 171.943 197.648C172.351 194.915 171.338 191.868 170.827 190.25C170.317 188.632 168.495 186.402 167.184 185.184C165.873 183.967 165.157 183.661 162.518 182.954C159.879 182.247 156.746 183.558 156.746 183.558Z" fill="white"/>
<path d="M156.746 183.558C156.746 183.558 152.864 185.38 152.694 188.828C152.523 192.276 153.707 196.831 156.142 198.457C158.577 200.083 165.762 202.714 168.401 202.407C171.04 202.101 171.534 200.381 171.943 197.648C172.351 194.915 171.338 191.868 170.827 190.25C170.317 188.632 168.495 186.402 167.184 185.184C165.873 183.967 165.157 183.661 162.518 182.954C159.879 182.247 156.746 183.558 156.746 183.558Z" stroke="#263238" stroke-miterlimit="10"/>
<path d="M158.875 186.802C158.875 186.802 156.848 186.504 156.746 183.558C156.644 180.613 159.683 177.284 159.683 177.284C159.385 176.623 159.047 175.98 158.67 175.36L157.759 173.734L159.275 173.129C159.721 173.564 160.128 174.037 160.492 174.543C160.799 175.053 161.403 176.245 161.403 176.245V173.691L163.029 173.589L163.531 176.526C163.531 176.526 163.233 175.82 165.558 176.628C167.882 177.437 168.801 179.77 168.903 181.592C168.879 183.105 168.641 184.606 168.197 186.053L164.791 183.499C164.791 183.499 165.098 179.651 163.574 179.957C162.05 180.264 162.263 181.779 161.25 184.01C160.237 186.24 158.875 186.802 158.875 186.802Z" fill="white" stroke="#263238" stroke-linecap="round" stroke-linejoin="round"/>
<path d="M160.526 185.38C160.526 185.38 162.552 180.613 164.579 179.906C165.862 179.386 167.251 179.179 168.631 179.302C169.346 179.404 169.644 180.715 169.644 182.034C169.644 183.354 167.72 182.741 166.605 183.958C165.49 185.176 165.694 187.364 165.694 187.364" fill="#FF0303"/>
<path d="M160.526 185.38C160.526 185.38 162.552 180.613 164.579 179.906C165.862 179.386 167.251 179.179 168.631 179.302C169.346 179.404 169.644 180.715 169.644 182.034C169.644 183.354 167.72 182.741 166.605 183.958C165.49 185.176 165.694 187.364 165.694 187.364" stroke="#263238" stroke-linecap="round" stroke-linejoin="round"/>
<path d="M170.606 190.871C170.274 190.329 169.792 189.895 169.218 189.62L168.801 189.458C168.675 189.398 168.552 189.33 168.435 189.254C168.195 189.099 167.967 188.925 167.754 188.735C167.318 188.344 166.912 187.923 166.537 187.475L166 187.951C166.432 188.396 166.896 188.809 167.388 189.186L167.567 189.296C167.017 189.826 166.582 190.464 166.29 191.169C165.937 192.089 165.854 193.09 166.051 194.055C166.171 194.992 166.341 195.92 166.443 196.848C166.624 197.769 166.495 198.724 166.077 199.564C166.549 198.736 166.74 197.777 166.622 196.831C166.622 195.886 166.469 194.949 166.409 194.021C166.284 193.124 166.414 192.209 166.784 191.382C166.86 191.229 166.954 191.076 167.047 190.922C167.383 191.484 167.649 192.084 167.839 192.71C168.07 193.502 168.199 194.321 168.222 195.145C168.25 196.004 168.355 196.859 168.537 197.699C168.628 198.116 168.766 198.521 168.946 198.908C169.109 199.3 169.377 199.639 169.721 199.887C169.401 199.617 169.162 199.263 169.031 198.866C168.883 198.478 168.778 198.075 168.716 197.665C168.593 196.84 168.55 196.004 168.588 195.171C168.621 194.313 168.544 193.455 168.359 192.617C168.192 191.831 167.905 191.075 167.507 190.378C167.71 190.138 167.935 189.918 168.18 189.722V189.722C168.323 189.799 168.471 189.867 168.622 189.926L169.065 190.046C169.608 190.231 170.085 190.571 170.436 191.025C170.802 191.496 171.074 192.034 171.236 192.608C171.148 191.992 170.933 191.401 170.606 190.871V190.871Z" fill="#263238"/>
<path d="M159.377 191.663C158.951 191.467 158.575 191.176 158.279 190.812C158.06 190.523 157.912 190.188 157.844 189.833C158.127 189.577 158.381 189.292 158.602 188.981C159.206 188.21 159.54 187.262 159.556 186.283L158.517 186.879C158.422 187.455 158.198 188.002 157.861 188.479C157.506 189.016 157.082 189.506 156.601 189.935C155.931 190.501 155.21 191.006 154.448 191.442L153.732 191.825C153.562 191.919 153.383 192.004 153.205 192.089L153.741 191.97C153.77 192.416 153.847 192.859 153.971 193.289C154.147 193.92 154.435 194.514 154.822 195.043C155.2 195.552 155.619 196.031 156.074 196.473C156.518 196.921 157.009 197.321 157.538 197.665C157.052 197.27 156.61 196.825 156.218 196.337C155.823 195.861 155.462 195.357 155.137 194.83C154.825 194.305 154.609 193.728 154.499 193.127C154.401 192.672 154.367 192.205 154.396 191.74C154.66 191.655 154.916 191.561 155.171 191.459C155.825 191.193 156.447 190.856 157.027 190.454L157.274 190.267C157.418 190.583 157.617 190.871 157.861 191.118C158.237 191.507 158.702 191.799 159.215 191.97C160.146 192.324 161.043 192.76 161.897 193.272C161.107 192.661 160.264 192.122 159.377 191.663Z" fill="#263238"/>
</g>
<defs>
<filter id="filter0_d_24_138" x="0" y="0" width="648" height="508" filterUnits="userSpaceOnUse" color-interpolation-filters="sRGB">
<feFlood flood-opacity="0" result="BackgroundImageFix"/>
<feColorMatrix in="SourceAlpha" type="matrix" values="0 0 0 0 0 0 0 0 0 0 0 0 0 0 0 0 0 0 127 0" result="hardAlpha"/>
<feOffset dy="4"/>
<feGaussianBlur stdDeviation="2"/>
<feComposite in2="hardAlpha" operator="out"/>
<feColorMatrix type="matrix" values="0 0 0 0 0 0 0 0 0 0 0 0 0 0 0 0 0 0 0.25 0"/>
<feBlend mode="normal" in2="BackgroundImageFix" result="effect1_dropShadow_24_138"/>
<feBlend mode="normal" in="SourceGraphic" in2="effect1_dropShadow_24_138" result="shape"/>
</filter>
</defs>
</svg>
