<svg width="648" height="508" viewBox="0 0 648 508" fill="none" xmlns="http://www.w3.org/2000/svg">
<g filter="url(#filter0_d_24_284)">
<rect width="640" height="500" transform="translate(4)" fill="white"/>
<path d="M245.199 137.987C240.545 142.165 237.654 147.956 237.112 154.187L237.029 157.009C237.178 163.21 239.66 169.127 243.98 173.578C248.3 178.029 254.14 180.687 260.334 181.02C266.528 181.354 272.619 179.339 277.392 175.377C282.165 171.416 285.268 165.8 286.082 159.651L286.301 156.837C286.409 152.031 285.108 147.298 282.558 143.222C280.009 139.146 276.322 135.905 271.953 133.899C267.585 131.892 262.724 131.208 257.971 131.93C253.218 132.652 248.78 134.749 245.204 137.962L245.199 137.987Z" fill="white"/>
<path d="M245.199 137.987C240.545 142.165 237.654 147.956 237.112 154.187L237.029 157.009C237.178 163.21 239.66 169.127 243.98 173.578C248.3 178.029 254.14 180.687 260.334 181.02C266.528 181.354 272.619 179.338 277.392 175.377C282.165 171.416 285.268 165.8 286.082 159.65L286.301 156.837C286.409 152.031 285.108 147.298 282.558 143.222C280.009 139.146 276.322 135.905 271.954 133.898C267.585 131.892 262.724 131.207 257.971 131.93C253.218 132.652 248.78 134.749 245.204 137.962L245.199 137.987Z" fill="white"/>
<path d="M243.802 136.43C239.097 140.656 236.04 146.411 235.172 152.676C234.304 158.94 235.681 165.31 239.059 170.656L235.296 178.069C235.154 178.348 235.1 178.662 235.141 178.972C235.181 179.282 235.315 179.572 235.523 179.805C235.732 180.038 236.006 180.202 236.309 180.276C236.613 180.351 236.932 180.332 237.224 180.221L245 177.282C248.989 180.459 253.804 182.429 258.876 182.96C263.948 183.491 269.066 182.561 273.626 180.279C278.187 177.997 282 174.459 284.617 170.082C287.233 165.705 288.544 160.67 288.393 155.573C288.243 150.475 286.639 145.527 283.77 141.311C280.9 137.096 276.885 133.788 272.198 131.779C267.511 129.769 262.347 129.142 257.315 129.97C252.283 130.799 247.593 133.049 243.798 136.455L243.802 136.43ZM280.015 139.877C284.196 144.532 286.443 150.607 286.296 156.862L286.077 159.675C285.252 165.814 282.144 171.416 277.374 175.366C272.604 179.317 266.521 181.326 260.336 180.993C254.152 180.66 248.319 178.01 244.001 173.57C239.682 169.131 237.194 163.227 237.033 157.036L237.107 154.212C237.525 149.424 239.333 144.862 242.31 141.088C245.287 137.315 249.302 134.494 253.862 132.973C258.421 131.452 263.326 131.298 267.972 132.529C272.618 133.76 276.802 136.323 280.011 139.902L280.015 139.877Z" fill="#FF9C06"/>
<path opacity="0.7" d="M243.802 136.43C239.097 140.656 236.04 146.411 235.172 152.676C234.304 158.94 235.681 165.31 239.059 170.656L235.296 178.069C235.154 178.348 235.1 178.662 235.141 178.972C235.181 179.282 235.315 179.572 235.523 179.805C235.732 180.038 236.006 180.202 236.309 180.276C236.613 180.351 236.932 180.332 237.224 180.221L245 177.282C248.989 180.459 253.804 182.429 258.876 182.96C263.948 183.491 269.066 182.561 273.626 180.279C278.187 177.997 282 174.459 284.617 170.082C287.233 165.705 288.544 160.67 288.393 155.573C288.243 150.475 286.639 145.527 283.77 141.311C280.9 137.096 276.885 133.788 272.198 131.779C267.511 129.769 262.347 129.142 257.315 129.97C252.283 130.799 247.593 133.049 243.798 136.455L243.802 136.43ZM280.015 139.877C284.196 144.532 286.443 150.607 286.296 156.862L286.077 159.675C285.252 165.814 282.144 171.416 277.374 175.366C272.604 179.317 266.521 181.326 260.336 180.993C254.152 180.66 248.319 178.01 244.001 173.57C239.682 169.131 237.194 163.227 237.033 157.036L237.107 154.212C237.525 149.424 239.333 144.862 242.31 141.088C245.287 137.315 249.302 134.494 253.862 132.973C258.421 131.452 263.326 131.298 267.972 132.529C272.618 133.76 276.802 136.323 280.011 139.902L280.015 139.877Z" fill="white"/>
<path d="M253.926 166.058C255.343 166.296 256.799 166.03 258.041 165.308" stroke="#263238" stroke-width="0.5" stroke-linecap="round" stroke-linejoin="round"/>
<path d="M256.184 167.104C257.13 166.941 258.062 166.708 258.973 166.406" stroke="#263238" stroke-width="0.5" stroke-linecap="round" stroke-linejoin="round"/>
<path d="M264.797 166.232L267.691 166.851" stroke="#263238" stroke-width="0.5" stroke-linecap="round" stroke-linejoin="round"/>
<path d="M265.581 164.837C267.014 165.705 268.692 166.082 270.358 165.909" stroke="#263238" stroke-width="0.5" stroke-linecap="round" stroke-linejoin="round"/>
<path d="M256.532 164.148C256.532 164.148 260.019 165.273 260.019 170.931H263.506C263.506 170.931 264.021 166.232 266.462 163.538L267.421 162.579C266.515 161.842 265.481 161.281 264.37 160.923C262.112 160.051 262.46 160.226 259.758 160.836C257.744 161.298 255.931 163.713 255.931 163.713L256.532 164.148Z" fill="white" stroke="#263238" stroke-linecap="round" stroke-linejoin="round"/>
<path d="M261.841 143.697C261.841 143.697 260.011 141.692 258.276 142.041C256.541 142.39 249.925 146.914 248.617 148.745C247.652 150.336 247.253 152.207 247.484 154.054C247.658 154.489 247.92 155.012 247.92 155.012C247.92 155.012 246.263 156.486 247.397 159.624C248.53 162.762 250.439 164.148 252.008 164.488C253.513 164.873 255.102 164.753 256.532 164.148C257.579 163.538 259.061 162.405 259.061 162.405C259.061 162.405 260.185 162.666 261.841 161.446C262.286 161.923 262.856 162.267 263.487 162.436C264.117 162.606 264.782 162.595 265.407 162.405C265.968 163.211 266.727 163.858 267.611 164.284C268.495 164.71 269.475 164.9 270.454 164.837C271.947 164.725 273.365 164.144 274.507 163.176C275.649 162.208 276.455 160.904 276.809 159.45C277.186 157.784 277.002 156.04 276.286 154.489C276.416 151.779 275.548 149.114 273.845 147.001C270.977 143.348 267.499 142.913 265.756 142.302C264.012 141.692 261.841 143.697 261.841 143.697Z" fill="#FF0303" stroke="#263238" stroke-linecap="round" stroke-linejoin="round"/>
<path d="M261.841 161.446V143.697" stroke="#263238" stroke-width="0.5" stroke-linecap="round" stroke-linejoin="round"/>
<path d="M261.667 149.268C261.319 149.256 260.976 149.172 260.661 149.022C260.346 148.872 260.066 148.659 259.836 148.396C259.148 147.524 258.363 148.745 258.189 147.175C258.015 145.606 258.102 144.656 257.491 144.56C257.097 144.593 256.716 144.721 256.382 144.934C256.048 145.146 255.77 145.437 255.574 145.781" stroke="#263238" stroke-width="0.5" stroke-linecap="round" stroke-linejoin="round"/>
<path d="M258.276 145.615C258.743 145.249 259.054 144.719 259.148 144.133" stroke="#263238" stroke-width="0.5" stroke-linecap="round" stroke-linejoin="round"/>
<path d="M256.794 149.529L255.486 148.309L255.922 147.263" stroke="#263238" stroke-width="0.5" stroke-linecap="round" stroke-linejoin="round"/>
<path d="M255.487 148.309C255.079 148.625 254.729 149.008 254.449 149.442C254.295 149.746 254.178 150.068 254.1 150.401" stroke="#263238" stroke-width="0.5" stroke-linecap="round" stroke-linejoin="round"/>
<path d="M261.841 154.751C261.454 155.339 260.95 155.841 260.359 156.224C259.4 156.834 257.317 155.788 256.707 155.178C256.097 154.568 255.225 152.136 254.623 151.264C254.022 150.392 253.403 150.052 252.531 150.566C251.957 150.973 251.529 151.554 251.311 152.223" stroke="#263238" stroke-width="0.5" stroke-linecap="round" stroke-linejoin="round"/>
<path d="M260.098 151.7C260.098 151.7 259.575 152.746 259.401 153.182C259.226 153.618 259.06 151.874 258.276 151.003" stroke="#263238" stroke-width="0.5" stroke-linecap="round" stroke-linejoin="round"/>
<path d="M255.486 153.618C255.486 153.618 254.71 154.664 254.362 154.751" stroke="#263238" stroke-width="0.5" stroke-linecap="round" stroke-linejoin="round"/>
<path d="M254.92 157.706C254.809 157.803 254.678 157.877 254.537 157.921C254.397 157.965 254.248 157.979 254.101 157.963C253.954 157.947 253.813 157.9 253.685 157.825C253.557 157.751 253.446 157.651 253.359 157.532C252.575 156.66 252.313 156.399 251.616 156.399C251.081 156.431 250.554 156.549 250.055 156.747" stroke="#263238" stroke-width="0.5" stroke-linecap="round" stroke-linejoin="round"/>
<path d="M251.834 147.611C251.834 147.611 249.663 149.268 249.314 150.915C249.142 152.405 249.383 153.913 250.012 155.274C250.265 155.797 249.053 156.32 249.837 157.628C250.454 158.583 251.183 159.461 252.008 160.243C252.008 160.243 254.623 159.729 255.922 160.33C257.032 160.927 258.083 161.628 259.061 162.422" stroke="#263238" stroke-width="0.5" stroke-linecap="round" stroke-linejoin="round"/>
<path d="M252.008 160.208C251.625 160.307 251.286 160.533 251.048 160.85C250.811 161.167 250.688 161.556 250.701 161.952C250.526 163.521 251.921 164.044 253.403 164.384" stroke="#263238" stroke-width="0.5" stroke-linecap="round" stroke-linejoin="round"/>
<path d="M250.012 155.265C250.012 155.265 248.704 154.489 247.92 155.012" stroke="#263238" stroke-width="0.5" stroke-linecap="round" stroke-linejoin="round"/>
<path d="M247.309 158.927C247.309 158.927 248.356 160.138 249.314 160.138" stroke="#263238" stroke-width="0.5" stroke-linecap="round" stroke-linejoin="round"/>
<path d="M254.449 144.517C254.449 144.517 253.229 145.214 253.229 145.737C253.229 146.26 254.876 146.774 254.876 146.774" stroke="#263238" stroke-width="0.5" stroke-linecap="round" stroke-linejoin="round"/>
<path d="M253.926 146.565L253.054 148.047" stroke="#263238" stroke-width="0.5" stroke-linecap="round" stroke-linejoin="round"/>
<path d="M259.749 146.129C260.001 145.489 260.323 144.878 260.708 144.307C261.144 143.784 261.929 145.005 261.929 145.005C261.929 145.005 263.411 143.436 263.847 145.005" stroke="#263238" stroke-width="0.5" stroke-linecap="round" stroke-linejoin="round"/>
<path d="M260.708 144.307L260.098 143.349" stroke="#263238" stroke-width="0.5" stroke-linecap="round" stroke-linejoin="round"/>
<path d="M268.711 146.304C268.711 146.304 266.714 144.743 266.017 145.789C265.32 146.835 266.191 148.57 264.709 149.442C263.913 149.957 262.948 150.145 262.016 149.965" stroke="#263238" stroke-width="0.5" stroke-linecap="round" stroke-linejoin="round"/>
<path d="M263.847 152.92C263.847 152.92 264.012 153.182 264.797 152.659C265.581 152.136 265.407 151.438 266.192 150.828" stroke="#263238" stroke-width="0.5" stroke-linecap="round" stroke-linejoin="round"/>
<path d="M261.754 155.788C261.754 155.788 264.971 156.922 266.192 155.788C267.412 154.655 267.063 153.443 267.586 152.833C268.109 152.223 269.408 151.09 269.234 150.139C269.043 149.482 268.61 148.922 268.022 148.57" stroke="#263238" stroke-width="0.5" stroke-linecap="round" stroke-linejoin="round"/>
<path d="M269.234 150.139C269.494 149.984 269.785 149.888 270.086 149.858C270.388 149.828 270.692 149.865 270.977 149.965" stroke="#263238" stroke-width="0.5" stroke-linecap="round" stroke-linejoin="round"/>
<path d="M267.586 152.833C267.799 153.308 268.11 153.733 268.499 154.079C268.889 154.424 269.347 154.683 269.844 154.838" stroke="#263238" stroke-width="0.5" stroke-linecap="round" stroke-linejoin="round"/>
<path d="M274.281 152.659C274.52 154.076 274.461 155.528 274.107 156.922C273.497 158.578 273.07 158.752 273.07 158.752C271.704 158.659 270.335 158.867 269.06 159.362C267.499 160.138 266.192 160.234 265.573 161.359L264.962 162.492" stroke="#263238" stroke-width="0.5" stroke-linecap="round" stroke-linejoin="round"/>
<path d="M273.07 158.752C273.07 158.752 275.763 159.45 275.24 161.184" stroke="#263238" stroke-width="0.5" stroke-linecap="round" stroke-linejoin="round"/>
<path d="M275.153 159.711C275.153 159.711 276.025 159.275 276.025 157.445" stroke="#263238" stroke-width="0.5" stroke-linecap="round" stroke-linejoin="round"/>
<path d="M276.286 154.489L274.717 154.228" stroke="#263238" stroke-width="0.5" stroke-linecap="round" stroke-linejoin="round"/>
<path d="M272.285 147.35C272.571 147.389 272.836 147.522 273.039 147.726C273.242 147.931 273.372 148.197 273.41 148.483L273.584 149.529C273.584 149.529 275.327 150.052 274.804 151.351" stroke="#263238" stroke-width="0.5" stroke-linecap="round" stroke-linejoin="round"/>
<path d="M270.019 144.656C270.329 145.044 270.558 145.489 270.692 145.967C270.827 146.445 270.865 146.945 270.803 147.437" stroke="#263238" stroke-width="0.5" stroke-linecap="round" stroke-linejoin="round"/>
<path d="M265.233 143.436C266.091 143.289 266.974 143.41 267.761 143.784" stroke="#263238" stroke-width="0.5" stroke-linecap="round" stroke-linejoin="round"/>
<path d="M265.581 161.359C265.581 161.359 268.371 163.712 271.326 162.492" stroke="#263238" stroke-width="0.5" stroke-linecap="round" stroke-linejoin="round"/>
<path d="M270.716 161.01C271.042 160.921 271.383 160.901 271.718 160.951C272.052 161.001 272.372 161.12 272.658 161.3C272.944 161.481 273.19 161.718 273.379 161.999C273.569 162.279 273.698 162.595 273.758 162.928" stroke="#263238" stroke-width="0.5" stroke-linecap="round" stroke-linejoin="round"/>
<path d="M265.381 157.593C265.381 157.593 263.472 157.767 263.82 159.075" stroke="#263238" stroke-width="0.5" stroke-linecap="round" stroke-linejoin="round"/>
<path d="M270.89 153.182C270.89 153.182 271.588 153.095 272.634 151.7" stroke="#263238" stroke-width="0.5" stroke-linecap="round" stroke-linejoin="round"/>
<path d="M271.849 152.659L272.023 153.879" stroke="#263238" stroke-width="0.5" stroke-linecap="round" stroke-linejoin="round"/>
<path d="M256.794 158.665C257.021 158.972 257.308 159.23 257.638 159.423C257.968 159.617 258.333 159.741 258.712 159.79C259.109 159.871 259.52 159.859 259.912 159.755C260.303 159.651 260.666 159.457 260.97 159.188" stroke="#263238" stroke-width="0.5" stroke-linecap="round" stroke-linejoin="round"/>
<path d="M274.098 156.922C273.412 156.359 272.553 156.051 271.666 156.05" stroke="#263238" stroke-width="0.5" stroke-linecap="round" stroke-linejoin="round"/>
<path d="M253.054 152.659C252.757 152.837 252.502 153.077 252.307 153.363C252.111 153.649 251.98 153.974 251.921 154.315" stroke="#263238" stroke-width="0.5" stroke-linecap="round" stroke-linejoin="round"/>
<path d="M171.626 135.798C171.626 135.798 172.154 128.408 168.723 123.93C165.292 119.452 157.375 119.443 153.952 120.763C150.53 122.082 147.091 124.458 146.29 128.425C145.803 131.301 145.626 134.221 145.762 137.134C145.403 137.212 145.064 137.366 144.77 137.587C144.476 137.808 144.232 138.089 144.057 138.413C143.881 138.736 143.778 139.094 143.753 139.461C143.729 139.828 143.784 140.196 143.915 140.54C144.336 142.201 145.151 143.737 146.29 145.018C146.29 145.018 147.082 148.713 147.61 150.296C148.138 151.88 151.015 155.311 151.015 155.311C151.015 155.311 151.543 159.269 149.696 160.589C147.848 161.909 143.362 162.964 137.036 165.067C130.711 167.17 124.896 172.729 123.576 179.846C122.781 184.107 122.603 188.459 123.048 192.77L120.673 207.805C119.085 211.937 118.196 216.304 118.043 220.728C117.779 228.118 116.459 242.863 116.459 242.863C116.459 242.863 118.043 243.919 114.348 245.766C110.653 247.614 110.389 248.933 109.861 250.253C109.333 251.573 109.069 254.212 108.014 255.003C106.958 255.795 103.527 255.003 104.055 257.634C104.583 260.265 108.312 258.69 108.312 258.69L110.687 258.162V271.622C110.687 272.941 111.479 274.789 112.798 273.205C112.798 273.205 114.118 275.053 114.91 274.261L116.195 273.512C116.195 273.512 117.753 274.159 118.485 273.886C119.217 273.614 120.682 271.588 120.682 271.588C120.682 271.588 121.056 272.686 122.384 271.043C123.712 269.4 123.942 267.374 124.308 265.994C124.675 264.615 125.866 257.098 126.233 255.778C126.599 254.459 126.233 247.707 126.233 247.707L125.96 244.77C125.96 244.77 131.92 228.544 132.933 224.687C134.001 221.016 134.828 217.279 135.41 213.5C135.776 210.206 137.334 203.693 137.334 203.693L137.973 203.42C137.973 203.42 138.066 218.915 137.7 220.933C137.334 222.95 134.584 226.705 134.857 231.472C135.129 236.24 133.477 244.311 133.026 247.06C132.575 249.81 129.076 259.167 130.549 274.482C132.022 289.798 135.087 298.38 136.866 305.191C138.645 312.001 138.16 316.377 137.351 322.856C136.542 329.335 137.836 332.221 140.109 340.521C142.383 348.822 146.426 357.548 146.92 360.784C147.414 364.019 145.95 364.351 145.141 366.3C144.332 368.25 139.956 373.264 139.794 375.376C139.633 377.487 141.089 379.105 145.141 380.237C149.193 381.369 152.114 381.369 154.055 378.781C155.996 376.193 156.166 374.567 156.004 372.617C155.842 370.668 155.357 370.353 156.004 368.565C156.651 366.777 157.46 365.815 156.975 362.733C156.489 359.651 156.813 362.41 155.519 356.084C154.225 349.759 155.681 341.501 155.681 337.933C155.681 334.366 155.681 325.938 154.829 321.758C153.978 317.578 153.859 319.485 153.374 313.653C152.888 307.821 153.697 307.166 153.697 302.951C153.688 300.445 153.403 297.946 152.846 295.502C152.846 295.502 156.089 278.645 156.251 277.99C156.413 277.334 158.805 266.165 158.805 266.165C159.083 266.214 159.345 266.327 159.571 266.496C159.797 266.664 159.981 266.883 160.108 267.135C160.431 267.944 164.645 295.34 164.645 295.34C164.645 295.34 163.019 299.716 163.181 302.628C163.343 305.54 165.131 313.815 165.131 313.815C165.131 313.815 163.981 319.042 162.823 327.147C161.666 335.252 163.47 343.68 163.309 348.703C163.264 351.977 162.885 355.237 162.176 358.434C161.691 360.698 160.882 363.942 161.691 366.377L162.5 368.803C162.13 370.999 161.967 373.226 162.015 375.452C162.176 378.372 163.47 380.314 165.42 380.637C166.04 380.69 166.663 380.584 167.23 380.329C167.798 380.075 168.291 379.679 168.664 379.181C169.417 379.616 170.248 379.897 171.11 380.008C171.973 380.119 172.848 380.058 173.687 379.828C176.445 379.019 178.386 377.879 177.739 375.614C177.218 373.325 176.223 371.17 174.819 369.289C173.04 366.862 171.899 366.539 171.414 363.619C170.888 360.639 171.114 357.576 172.069 354.705C173.04 352.108 177.254 344.165 179.195 333.634C181.136 323.103 180.821 322.447 180.336 318.718C179.902 313.47 180.119 308.189 180.983 302.994C181.792 298.942 187.462 284.358 187.462 272.524C187.292 262.781 186.261 253.072 184.38 243.51C183.865 240.993 183.487 238.449 183.247 235.891C183.799 233.493 183.799 231.001 183.247 228.603C182.277 225.198 181.63 223.895 180.821 220.175C180.157 216.906 179.668 213.603 179.357 210.282V203.965C179.357 203.965 182.439 211.414 183.894 216.608C185.35 221.801 185.359 224.874 186.976 229.735C188.594 234.597 191.999 243.672 192.646 245.622C193.293 247.571 191.837 250.968 192.484 256.153C193.132 261.338 193.787 270.26 194.919 271.554C196.052 272.848 197.354 271.392 197.354 271.392C197.354 271.392 197.839 273.946 198.81 274.312C199.781 274.678 201.075 273.657 201.075 273.657C201.108 273.867 201.192 274.066 201.318 274.238C201.444 274.41 201.609 274.549 201.799 274.645C201.989 274.74 202.2 274.789 202.413 274.788C202.626 274.786 202.835 274.734 203.024 274.636C203.458 274.496 203.856 274.264 204.192 273.955C204.527 273.647 204.791 273.269 204.965 272.848C204.965 272.848 207.4 273.818 207.077 270.583C206.753 267.348 205.944 262.964 205.944 261.993C205.944 261.023 206.106 257.941 206.106 257.941C206.96 258.631 207.953 259.128 209.018 259.396C210.32 259.558 211.614 260.852 212.585 259.396C213.555 257.941 212.747 257.455 210.967 256.315C209.188 255.174 209.018 254.859 207.724 252.909C206.43 250.96 207.562 250.483 204.803 248.048C202.045 245.613 200.283 244.481 200.283 242.421C200.283 240.36 202.394 227.181 200.445 217.783C198.495 208.384 197.533 205.949 197.209 204.493C196.886 203.037 193.966 192.012 193.966 192.012C193.966 192.012 196.52 181.796 192.016 173.206C187.513 164.616 181.323 165.263 176.624 163.16C171.924 161.057 168.195 160.606 167.54 159.269C167.068 158.126 166.742 156.927 166.569 155.702C166.569 155.702 170.826 149.87 170.945 147.921L171.107 145.98C171.107 145.98 173.661 145.009 174.351 140.02C175.04 135.031 171.626 135.798 171.626 135.798Z" fill="white" stroke="#263238" stroke-width="0.5" stroke-linecap="round" stroke-linejoin="round"/>
<path d="M155.63 163.901C155.156 164.028 154.751 164.333 154.497 164.752C154.237 165.228 154.094 165.759 154.08 166.301C153.724 166.69 153.5 167.182 153.442 167.706C153.373 168.558 153.305 168.064 153.373 168.558C153.442 169.051 153.024 169.69 153.161 170.388C153.248 170.813 153.415 171.218 153.654 171.58C153.77 172.045 153.988 172.478 154.293 172.848C154.542 173.102 154.829 173.315 155.144 173.478C155.144 173.478 155.28 173.759 155.996 173.904L156.694 174.049L156.838 171.095C157.168 171.247 157.531 171.318 157.894 171.299H158.567C158.812 171.398 159.081 171.424 159.341 171.376C159.659 171.322 159.968 171.228 160.261 171.095L160.329 174.049C160.88 173.851 161.382 173.538 161.802 173.129L162.159 172.636C162.358 172.605 162.547 172.533 162.716 172.425C162.885 172.316 163.029 172.173 163.138 172.006C163.351 171.643 163.471 171.234 163.488 170.814C163.66 170.642 163.783 170.428 163.846 170.193C163.909 169.959 163.908 169.712 163.845 169.477L163.632 168.626C163.638 167.976 163.519 167.332 163.283 166.727C162.926 166.089 163.138 166.514 162.926 166.089C162.636 165.553 162.309 165.038 161.947 164.548C161.637 164.087 161.226 163.703 160.746 163.424C160.269 163.126 157.239 162.641 155.63 163.901Z" fill="#808080" stroke="#263238" stroke-linecap="round" stroke-linejoin="round"/>
<path d="M158.652 161.296C158.652 161.296 157.801 158.861 157.153 159.005C156.432 159.355 155.774 159.821 155.204 160.385C155.204 160.385 154.855 157.507 154.497 158.205C154.14 158.903 154.429 160.104 154.642 161.091C154.855 162.079 155.059 161.943 155.204 162.36C155.349 162.777 155.63 163.901 155.63 163.901L156.26 164.182C156.26 164.182 156.54 165.314 156.821 166.293C157.102 167.272 157.8 168.192 158.788 168.123C159.173 168.133 159.549 168.003 159.846 167.757C160.144 167.512 160.342 167.167 160.406 166.787C160.55 166.08 161.257 164.182 161.257 164.182L161.964 164.539C161.964 164.539 161.819 162.36 162.1 161.934C162.381 161.508 163.019 160.878 163.019 160.231C163.019 159.584 163.3 157.907 162.943 158.265C162.565 158.951 162.279 159.684 162.091 160.444C162.091 160.444 161.189 158.444 160.269 158.937C159.35 159.431 158.652 161.296 158.652 161.296Z" fill="white" stroke="#263238" stroke-linecap="round" stroke-linejoin="round"/>
<path d="M156.515 165.195C156.515 165.195 158.805 167.255 160.865 165.195" stroke="#263238" stroke-linecap="round" stroke-linejoin="round"/>
<path d="M156.26 164.182C156.26 164.182 156.515 164.548 157.111 164.088C157.707 163.628 157.962 163.679 157.962 163.679C158.207 163.865 158.507 163.961 158.814 163.952C159.118 163.908 159.408 163.797 159.665 163.628C159.665 163.628 160.397 164.411 160.627 164.318C160.826 164.25 161.031 164.205 161.24 164.182" fill="white"/>
<path d="M156.26 164.182C156.26 164.182 156.515 164.548 157.111 164.088C157.707 163.628 157.962 163.679 157.962 163.679C158.207 163.865 158.507 163.961 158.814 163.952C159.118 163.908 159.408 163.797 159.665 163.628C159.665 163.628 160.397 164.411 160.627 164.318C160.826 164.25 161.031 164.205 161.24 164.182" stroke="#263238" stroke-linecap="round" stroke-linejoin="round"/>
<path d="M157.111 164.097C157.111 164.097 157.656 165.152 158.482 165.288C159.307 165.425 160.321 164.233 160.321 164.233" stroke="#263238" stroke-linecap="round" stroke-linejoin="round"/>
<path d="M159.81 173.308H157.043V190.114L154.855 192.531L156.668 196.175L158.422 194.37L161.419 196.448L162.108 191.612L159.81 189.765V173.308Z" fill="white" stroke="#263238" stroke-linecap="round" stroke-linejoin="round"/>
<path d="M156.149 191.45C155.888 191.172 155.691 190.841 155.57 190.48C155.45 190.118 155.409 189.735 155.451 189.356C155.621 188.13 156.847 186.734 155.272 184.818C153.697 182.903 147.61 183.243 143.745 189.535C139.88 195.826 139.548 211.542 141.472 212.249C143.396 212.955 154.046 210.325 155.621 208.401C157.196 206.477 156.472 197.742 156.668 196.175C156.681 194.585 156.506 192.999 156.149 191.45V191.45Z" fill="#92E3A9" stroke="#263238" stroke-linecap="round" stroke-linejoin="round"/>
<path d="M160.908 191.45C161.167 191.171 161.363 190.84 161.483 190.479C161.604 190.117 161.646 189.735 161.606 189.356C161.427 188.13 160.21 186.734 161.776 184.818C163.343 182.903 169.438 183.243 173.312 189.535C177.186 195.826 177.501 211.542 175.585 212.249C173.67 212.955 163.002 210.325 161.427 208.401C159.852 206.477 160.576 197.742 160.38 196.175C160.374 194.585 160.551 193 160.908 191.45V191.45Z" fill="#92E3A9" stroke="#263238" stroke-linecap="round" stroke-linejoin="round"/>
<path d="M157.273 177.684H159.58" stroke="#263238" stroke-linecap="round" stroke-linejoin="round"/>
<path d="M157.273 181.941H159.58" stroke="#263238" stroke-linecap="round" stroke-linejoin="round"/>
<path d="M157.273 186.197H159.58" stroke="#263238" stroke-linecap="round" stroke-linejoin="round"/>
<path d="M157.273 190.463H159.58" stroke="#263238" stroke-linecap="round" stroke-linejoin="round"/>
<path d="M147.712 228.271C147.792 228.792 148.036 229.274 148.408 229.647C148.779 230.021 149.26 230.266 149.781 230.349C151.671 230.706 152.335 229.089 154.191 228.45C156.047 227.811 155.808 231.064 155.808 231.064H156.804C156.947 229.934 156.792 228.786 156.353 227.735C155.63 226.381 153.203 226.381 153.203 226.381C153.203 226.381 148.972 227.19 147.712 228.271Z" stroke="#263238" stroke-linecap="round" stroke-linejoin="round"/>
<path d="M175.892 213.117C175.892 213.117 176.036 214.999 174.564 215.535C173.091 216.071 172.563 215.935 172.29 216.735C172.018 217.536 171.226 222.746 167.353 223.282C163.479 223.819 161.87 222.346 161.87 222.346C161.87 222.346 158.133 225.819 155.996 226.356C153.859 226.892 151.739 227.156 150.113 228.229C148.475 229.301 146.729 230.197 144.903 230.902C143.438 231.43 143.702 233.039 141.829 232.102C139.956 231.166 140.629 229.293 140.901 228.092C141.174 226.892 142.102 225.683 141.429 222.482C140.756 219.281 140.629 217.272 141.429 214.599C141.99 212.911 143.038 211.426 144.441 210.333C145.844 209.239 147.539 208.584 149.313 208.452C153.859 207.915 161.606 210.589 162.006 210.725C162.406 210.861 162.806 209.022 165.616 209.388C168.425 209.754 170.954 210.989 172.163 211.091C173.372 211.193 175.594 210.972 175.892 213.117Z" fill="#92E3A9"/>
<path opacity="0.39" d="M175.892 213.117C175.892 213.117 176.036 214.999 174.564 215.535C173.091 216.071 172.563 215.935 172.29 216.735C172.018 217.536 171.226 222.746 167.353 223.282C163.479 223.819 161.87 222.346 161.87 222.346C161.87 222.346 158.133 225.819 155.996 226.356C153.859 226.892 151.739 227.156 150.113 228.229C148.475 229.301 146.729 230.197 144.903 230.902C143.438 231.43 143.702 233.039 141.829 232.102C139.956 231.166 140.629 229.293 140.901 228.092C141.174 226.892 142.102 225.683 141.429 222.482C140.756 219.281 140.629 217.272 141.429 214.599C141.99 212.911 143.038 211.426 144.441 210.333C145.844 209.239 147.539 208.584 149.313 208.452C153.859 207.915 161.606 210.589 162.006 210.725C162.406 210.861 162.806 209.022 165.616 209.388C168.425 209.754 170.954 210.989 172.163 211.091C173.372 211.193 175.594 210.972 175.892 213.117Z" fill="black"/>
<path d="M161.972 210.725C161.972 210.725 163.573 215.263 163.445 217.408C163.19 219.133 162.646 220.802 161.836 222.346" stroke="#263238" stroke-linecap="round" stroke-linejoin="round"/>
<path d="M175.892 213.117C175.892 213.117 176.036 214.999 174.564 215.535C173.091 216.071 172.563 215.935 172.29 216.735C172.018 217.536 171.226 222.746 167.353 223.282C163.479 223.819 161.87 222.346 161.87 222.346C161.87 222.346 158.133 225.819 155.996 226.356C153.859 226.892 151.739 227.156 150.113 228.229C148.475 229.301 146.729 230.197 144.903 230.902C143.438 231.43 143.702 233.039 141.829 232.102C139.956 231.166 140.629 229.293 140.901 228.092C141.174 226.892 142.102 225.683 141.429 222.482C140.756 219.281 140.629 217.272 141.429 214.599C141.99 212.911 143.038 211.426 144.441 210.333C145.844 209.239 147.539 208.584 149.313 208.452C153.859 207.915 161.606 210.589 162.006 210.725C162.406 210.861 162.806 209.022 165.616 209.388C168.425 209.754 170.954 210.989 172.163 211.091C173.372 211.193 175.594 210.972 175.892 213.117Z" stroke="#263238" stroke-miterlimit="10"/>
<path d="M160.457 201.888C160.457 203.778 161.521 207.43 162.585 208.613C163.649 209.797 164.118 207.081 168.485 206.485C172.852 205.889 177.101 210.503 176.147 216.761C175.194 223.018 165.65 234.937 157.715 236.112C149.781 237.287 148.155 227.735 147.21 227.028C146.265 226.322 144.494 234.58 144.494 234.58L140.952 233.166C140.952 233.166 143.43 223.955 144.732 222.184C146.035 220.413 149.091 221.009 149.925 223.487C150.76 225.964 152.871 226.322 155.349 223.725C157.826 221.128 159.716 214.36 158.541 212.742C157.366 211.125 156.89 201.292 156.89 201.292L156.634 196.184L158.388 194.379L160.346 196.184L160.457 201.888Z" fill="#808080" stroke="#263238" stroke-linecap="round" stroke-linejoin="round"/>
<path d="M146.869 245.545C147.537 245.628 148.173 245.878 148.718 246.272C149.262 246.667 149.698 247.193 149.985 247.801C150.836 249.844 152.25 251.036 154.404 250.491C155.713 250.148 156.858 249.348 157.63 248.235C157.63 248.235 158.167 248.448 160.542 249.308C162.917 250.168 163.232 251.785 163.232 251.785C163.232 251.785 163.556 252.867 168.289 250.168C173.023 247.469 174.249 240.59 173.244 235.21C172.239 229.829 172.061 226.271 169.26 226.058C166.459 225.845 161.504 227.599 154.94 227.147C148.376 226.696 148.129 224.261 146.188 226.296C144.247 228.331 144.281 230.91 144.817 235.414C145.354 239.918 144.715 245.869 146.869 245.545Z" fill="#92E3A9" stroke="#263238" stroke-linecap="round" stroke-linejoin="round"/>
<path d="M157.63 248.235C157.873 247.755 157.972 247.215 157.915 246.681C157.857 246.146 157.646 245.639 157.307 245.222C156.123 243.715 152.037 242.744 150.743 241.774C150.041 241.333 149.537 240.637 149.338 239.833" fill="#92E3A9"/>
<path d="M157.63 248.235C157.873 247.755 157.972 247.215 157.915 246.681C157.857 246.146 157.646 245.639 157.307 245.222C156.123 243.715 152.037 242.744 150.743 241.774C150.041 241.333 149.537 240.637 149.338 239.833" stroke="#263238" stroke-linecap="round" stroke-linejoin="round"/>
<path d="M152.999 242.31C153.435 242.014 153.929 241.813 154.449 241.721C154.968 241.628 155.501 241.646 156.013 241.774" fill="#92E3A9"/>
<path d="M152.999 242.31C153.435 242.014 153.929 241.813 154.449 241.721C154.968 241.628 155.501 241.646 156.013 241.774" stroke="#263238" stroke-linecap="round" stroke-linejoin="round"/>
<path d="M147.942 243.493C148.151 244.142 148.532 244.723 149.045 245.173C149.558 245.622 150.183 245.925 150.854 246.047C153.11 246.371 153.757 245.834 154.191 247.554" fill="#92E3A9"/>
<path d="M147.942 243.493C148.151 244.142 148.532 244.723 149.045 245.173C149.558 245.622 150.183 245.925 150.854 246.047C153.11 246.371 153.757 245.834 154.191 247.554" stroke="#263238" stroke-linecap="round" stroke-linejoin="round"/>
<path d="M147.295 237.364C147.295 237.364 147.406 236.07 149.125 236.929C150.845 237.789 150.53 238.547 152.36 238.87C154.191 239.194 158.064 239.194 159.171 240.479C159.48 240.849 159.674 241.299 159.732 241.777C159.789 242.254 159.707 242.738 159.495 243.17C159.495 243.17 159.708 241.884 161.538 243.817C163.368 245.749 163.59 246.507 163.59 246.507C163.59 246.507 165.633 244.362 167.353 245.222C167.6 244.696 167.816 244.155 168 243.604" fill="#92E3A9"/>
<path d="M147.295 237.364C147.295 237.364 147.406 236.07 149.125 236.929C150.845 237.789 150.53 238.547 152.36 238.87C154.191 239.194 158.064 239.194 159.171 240.479C159.48 240.849 159.674 241.299 159.732 241.777C159.789 242.254 159.707 242.738 159.495 243.17C159.495 243.17 159.708 241.884 161.538 243.817C163.368 245.749 163.59 246.507 163.59 246.507C163.59 246.507 165.633 244.362 167.353 245.222C167.6 244.696 167.816 244.155 168 243.604" stroke="#263238" stroke-linecap="round" stroke-linejoin="round"/>
<path d="M148.912 234.563C148.912 234.563 150.53 235.857 151.603 235.312C152.675 234.767 152.999 232.758 155.153 234.129C157.307 235.499 158.388 237.789 159.997 239.296C161.606 240.803 163.011 242.633 164.518 241.774C166.025 240.914 167.072 238.224 169.047 240.59" fill="#92E3A9"/>
<path d="M148.912 234.563C148.912 234.563 150.53 235.857 151.603 235.312C152.675 234.767 152.999 232.758 155.153 234.129C157.307 235.499 158.388 237.789 159.997 239.296C161.606 240.803 163.011 242.633 164.518 241.774C166.025 240.914 167.072 238.224 169.047 240.59" stroke="#263238" stroke-linecap="round" stroke-linejoin="round"/>
<path d="M164.203 229.063C165.199 230.496 165.788 232.174 165.905 233.916C165.794 235.558 165.064 237.098 163.862 238.223" fill="#92E3A9"/>
<path d="M164.203 229.063C165.199 230.496 165.788 232.174 165.905 233.916C165.794 235.558 165.064 237.098 163.862 238.223" stroke="#263238" stroke-linecap="round" stroke-linejoin="round"/>
<path d="M165.599 236.069C165.599 236.069 167.497 233.226 169.345 234.971Z" fill="#92E3A9"/>
<path d="M165.599 236.069C165.599 236.069 167.497 233.226 169.345 234.971" stroke="#263238" stroke-linecap="round" stroke-linejoin="round"/>
<path d="M159.997 239.296C160.651 238.87 161.176 238.274 161.518 237.572C161.86 236.871 162.005 236.089 161.938 235.312C161.863 234.583 161.631 233.879 161.26 233.247C160.888 232.615 160.385 232.071 159.784 231.651" fill="#92E3A9"/>
<path d="M159.997 239.296C160.651 238.87 161.176 238.274 161.518 237.572C161.86 236.871 162.005 236.089 161.938 235.312C161.863 234.583 161.631 233.879 161.26 233.247C160.888 232.615 160.385 232.071 159.784 231.651" stroke="#263238" stroke-linecap="round" stroke-linejoin="round"/>
<path d="M157.528 236.606C157.528 236.606 158.49 235.312 156.77 232.945C155.051 230.578 155.476 229.395 155.698 228.212" fill="#92E3A9"/>
<path d="M157.528 236.606C157.528 236.606 158.49 235.312 156.77 232.945C155.051 230.578 155.476 229.395 155.698 228.212" stroke="#263238" stroke-linecap="round" stroke-linejoin="round"/>
<path d="M148.351 228.212C148.2 228.743 148.199 229.307 148.35 229.839C148.5 230.371 148.795 230.851 149.202 231.225C150.598 232.298 151.679 230.255 153.833 231.651" fill="#92E3A9"/>
<path d="M148.351 228.212C148.2 228.743 148.199 229.307 148.35 229.839C148.5 230.371 148.795 230.851 149.202 231.225C150.598 232.298 151.679 230.255 153.833 231.651" stroke="#263238" stroke-linecap="round" stroke-linejoin="round"/>
<path d="M169.796 227.454C169.796 227.454 166.995 231.013 167.54 232.085Z" fill="#92E3A9"/>
<path d="M169.796 227.454C169.796 227.454 166.995 231.013 167.54 232.085" stroke="#263238" stroke-linecap="round" stroke-linejoin="round"/>
<path d="M171.839 228.637C173.264 228.637 174.419 227.482 174.419 226.058C174.419 224.633 173.264 223.478 171.839 223.478C170.415 223.478 169.26 224.633 169.26 226.058C169.26 227.482 170.415 228.637 171.839 228.637Z" fill="#92E3A9" stroke="#263238" stroke-linecap="round" stroke-linejoin="round"/>
<path d="M172.273 232.4C173.966 232.4 175.338 231.245 175.338 229.821C175.338 228.396 173.966 227.241 172.273 227.241C170.581 227.241 169.209 228.396 169.209 229.821C169.209 231.245 170.581 232.4 172.273 232.4Z" fill="#92E3A9" stroke="#263238" stroke-linecap="round" stroke-linejoin="round"/>
<path d="M175.415 233.72C175.704 235.116 174.564 236.529 172.903 236.878C171.243 237.227 169.634 236.367 169.345 234.971C169.055 233.575 170.196 232.162 171.899 231.813C173.601 231.464 175.125 232.323 175.415 233.72Z" fill="#92E3A9" stroke="#263238" stroke-linecap="round" stroke-linejoin="round"/>
<path d="M175.798 237.61C176.026 238.201 176.066 238.847 175.915 239.462C175.763 240.076 175.427 240.629 174.951 241.046C174.475 241.463 173.882 241.724 173.253 241.793C172.624 241.863 171.989 241.737 171.433 241.434C170.878 241.131 170.429 240.664 170.147 240.097C169.865 239.531 169.764 238.891 169.858 238.265C169.951 237.639 170.235 237.057 170.67 236.597C171.105 236.138 171.671 235.823 172.29 235.695C173.01 235.489 173.781 235.574 174.438 235.933C175.094 236.291 175.583 236.894 175.798 237.61V237.61Z" fill="#92E3A9" stroke="#263238" stroke-linecap="round" stroke-linejoin="round"/>
<path d="M175.875 242.353C176.094 242.938 176.128 243.576 175.973 244.181C175.818 244.787 175.481 245.33 175.007 245.738C174.534 246.146 173.947 246.399 173.326 246.463C172.704 246.527 172.078 246.399 171.531 246.097C170.984 245.794 170.544 245.331 170.268 244.77C169.993 244.209 169.896 243.577 169.991 242.959C170.086 242.342 170.368 241.768 170.799 241.315C171.23 240.863 171.789 240.553 172.401 240.428C173.117 240.226 173.884 240.314 174.534 240.675C175.185 241.035 175.667 241.638 175.875 242.353V242.353Z" fill="#92E3A9" stroke="#263238" stroke-linecap="round" stroke-linejoin="round"/>
<path d="M174.589 246.55C174.807 247.135 174.841 247.773 174.686 248.377C174.531 248.982 174.195 249.525 173.722 249.933C173.249 250.341 172.662 250.594 172.041 250.659C171.42 250.723 170.794 250.596 170.248 250.294C169.701 249.992 169.26 249.529 168.984 248.969C168.708 248.409 168.61 247.778 168.704 247.16C168.798 246.543 169.078 245.969 169.508 245.516C169.937 245.063 170.495 244.752 171.107 244.626C171.824 244.427 172.59 244.518 173.241 244.877C173.891 245.237 174.376 245.837 174.589 246.55V246.55Z" fill="#92E3A9" stroke="#263238" stroke-linecap="round" stroke-linejoin="round"/>
<path d="M173.082 249.453C173.303 250.039 173.338 250.678 173.182 251.285C173.027 251.892 172.69 252.436 172.215 252.845C171.741 253.253 171.152 253.506 170.529 253.569C169.906 253.632 169.279 253.502 168.732 253.197C168.185 252.892 167.745 252.426 167.472 251.863C167.198 251.3 167.104 250.666 167.203 250.048C167.301 249.429 167.587 248.856 168.022 248.406C168.457 247.955 169.02 247.649 169.634 247.529C170.346 247.338 171.105 247.433 171.748 247.792C172.392 248.151 172.87 248.747 173.082 249.453Z" fill="#92E3A9" stroke="#263238" stroke-linecap="round" stroke-linejoin="round"/>
<path d="M170.171 251.07C170.389 251.655 170.423 252.293 170.268 252.898C170.113 253.503 169.776 254.046 169.303 254.454C168.83 254.862 168.244 255.115 167.623 255.179C167.002 255.244 166.376 255.116 165.829 254.814C165.283 254.512 164.842 254.05 164.566 253.49C164.29 252.93 164.192 252.298 164.285 251.681C164.379 251.064 164.66 250.49 165.089 250.037C165.519 249.583 166.077 249.273 166.689 249.146C167.405 248.943 168.173 249.032 168.825 249.392C169.477 249.752 169.961 250.355 170.171 251.07V251.07Z" fill="#92E3A9" stroke="#263238" stroke-linecap="round" stroke-linejoin="round"/>
<path d="M167.267 252.364C167.486 252.949 167.52 253.587 167.365 254.192C167.21 254.797 166.873 255.34 166.4 255.748C165.927 256.156 165.341 256.409 164.72 256.473C164.099 256.538 163.473 256.41 162.926 256.108C162.379 255.806 161.938 255.344 161.663 254.784C161.387 254.224 161.289 253.592 161.382 252.975C161.476 252.358 161.756 251.784 162.186 251.331C162.616 250.877 163.174 250.567 163.785 250.44C164.502 250.237 165.27 250.326 165.922 250.686C166.574 251.046 167.058 251.649 167.267 252.364V252.364Z" fill="#92E3A9" stroke="#263238" stroke-linecap="round" stroke-linejoin="round"/>
<path d="M163.675 253.114C163.964 254.51 162.619 255.974 160.678 256.374C158.737 256.774 156.924 255.966 156.634 254.569C156.345 253.173 157.69 251.709 159.631 251.309C161.572 250.909 163.428 251.717 163.675 253.114Z" fill="#92E3A9" stroke="#263238" stroke-linecap="round" stroke-linejoin="round"/>
<path d="M168.076 228.739C169.501 228.739 170.656 227.584 170.656 226.16C170.656 224.735 169.501 223.58 168.076 223.58C166.652 223.58 165.497 224.735 165.497 226.16C165.497 227.584 166.652 228.739 168.076 228.739Z" fill="#92E3A9" stroke="#263238" stroke-linecap="round" stroke-linejoin="round"/>
<path d="M164.203 229.063C165.975 229.063 167.412 228.007 167.412 226.705C167.412 225.402 165.975 224.346 164.203 224.346C162.43 224.346 160.993 225.402 160.993 226.705C160.993 228.007 162.43 229.063 164.203 229.063Z" fill="#92E3A9" stroke="#263238" stroke-linecap="round" stroke-linejoin="round"/>
<path d="M148.827 226.287C148.863 226.816 148.739 227.342 148.472 227.799C148.205 228.256 147.806 228.622 147.328 228.849C146.85 229.077 146.315 229.155 145.792 229.075C145.268 228.994 144.782 228.758 144.394 228.397C144.007 228.036 143.738 227.567 143.62 227.05C143.503 226.534 143.544 225.995 143.737 225.502C143.931 225.009 144.268 224.586 144.705 224.287C145.142 223.989 145.659 223.828 146.188 223.827C146.864 223.804 147.522 224.05 148.016 224.512C148.511 224.973 148.803 225.611 148.827 226.287V226.287Z" fill="#92E3A9" stroke="#263238" stroke-linecap="round" stroke-linejoin="round"/>
<path d="M144.664 231.217C145.995 231.217 147.073 230.199 147.073 228.944C147.073 227.688 145.995 226.671 144.664 226.671C143.334 226.671 142.255 227.688 142.255 228.944C142.255 230.199 143.334 231.217 144.664 231.217Z" fill="#92E3A9" stroke="#263238" stroke-linecap="round" stroke-linejoin="round"/>
<path d="M147.116 232.204C147.142 232.686 147.022 233.164 146.773 233.577C146.524 233.99 146.157 234.318 145.719 234.52C145.281 234.722 144.792 234.788 144.317 234.709C143.841 234.63 143.4 234.411 143.05 234.079C142.701 233.746 142.459 233.317 142.356 232.846C142.253 232.375 142.294 231.884 142.474 231.436C142.653 230.989 142.962 230.605 143.362 230.335C143.762 230.065 144.233 229.922 144.715 229.923C145.023 229.915 145.329 229.968 145.616 230.078C145.903 230.188 146.165 230.354 146.388 230.566C146.611 230.778 146.79 231.032 146.915 231.313C147.04 231.594 147.108 231.897 147.116 232.204Z" fill="#92E3A9" stroke="#263238" stroke-linecap="round" stroke-linejoin="round"/>
<path d="M147.227 235.405C147.254 235.887 147.136 236.365 146.889 236.779C146.641 237.193 146.275 237.523 145.838 237.726C145.401 237.929 144.912 237.997 144.436 237.92C143.96 237.843 143.519 237.625 143.168 237.294C142.817 236.963 142.574 236.535 142.469 236.064C142.365 235.593 142.404 235.102 142.581 234.654C142.759 234.206 143.067 233.821 143.466 233.55C143.864 233.278 144.335 233.133 144.817 233.132C145.438 233.116 146.039 233.346 146.491 233.772C146.942 234.198 147.207 234.785 147.227 235.405Z" fill="#92E3A9" stroke="#263238" stroke-linecap="round" stroke-linejoin="round"/>
<path d="M147.337 238.743C147.363 239.225 147.243 239.703 146.994 240.116C146.744 240.529 146.377 240.858 145.938 241.059C145.5 241.261 145.011 241.326 144.535 241.247C144.059 241.167 143.618 240.947 143.269 240.614C142.919 240.281 142.678 239.851 142.576 239.379C142.475 238.907 142.517 238.416 142.697 237.968C142.878 237.521 143.189 237.138 143.59 236.869C143.99 236.601 144.463 236.458 144.945 236.461C145.564 236.45 146.162 236.683 146.61 237.11C147.058 237.537 147.32 238.124 147.337 238.743V238.743Z" fill="#92E3A9" stroke="#263238" stroke-linecap="round" stroke-linejoin="round"/>
<path d="M145.362 244.464C146.693 244.464 147.772 243.446 147.772 242.191C147.772 240.935 146.693 239.917 145.362 239.917C144.032 239.917 142.953 240.935 142.953 242.191C142.953 243.446 144.032 244.464 145.362 244.464Z" fill="#92E3A9" stroke="#263238" stroke-linecap="round" stroke-linejoin="round"/>
<path d="M162.985 226.909C162.985 228.271 161.504 229.369 159.682 229.369C157.86 229.369 156.387 228.271 156.387 226.909C156.387 225.547 157.86 224.449 159.682 224.449C161.504 224.449 162.985 225.547 162.985 226.909Z" fill="#92E3A9" stroke="#263238" stroke-linecap="round" stroke-linejoin="round"/>
<path d="M154.94 229.608C156.586 229.608 157.92 228.506 157.92 227.147C157.92 225.789 156.586 224.687 154.94 224.687C153.294 224.687 151.96 225.789 151.96 227.147C151.96 228.506 153.294 229.608 154.94 229.608Z" fill="#92E3A9" stroke="#263238" stroke-linecap="round" stroke-linejoin="round"/>
<path d="M152.812 226.722C152.849 227.252 152.726 227.782 152.459 228.241C152.191 228.701 151.792 229.069 151.312 229.298C150.832 229.527 150.294 229.607 149.769 229.526C149.243 229.445 148.754 229.208 148.365 228.846C147.976 228.483 147.705 228.012 147.588 227.493C147.471 226.975 147.512 226.433 147.707 225.938C147.902 225.443 148.242 225.019 148.681 224.72C149.121 224.421 149.641 224.261 150.172 224.261C150.848 224.238 151.506 224.484 152.001 224.946C152.496 225.407 152.787 226.046 152.812 226.722V226.722Z" fill="#92E3A9" stroke="#263238" stroke-linecap="round" stroke-linejoin="round"/>
<path d="M145.575 248.227C147 248.227 148.155 247.072 148.155 245.647C148.155 244.223 147 243.068 145.575 243.068C144.15 243.068 142.996 244.223 142.996 245.647C142.996 247.072 144.15 248.227 145.575 248.227Z" fill="#92E3A9" stroke="#263238" stroke-linecap="round" stroke-linejoin="round"/>
<path d="M156.668 254.569C156.458 255.066 156.349 255.6 156.349 256.14C156.349 256.68 156.458 257.214 156.668 257.711C157.315 259.754 156.566 261.474 157.102 262.768C157.639 264.062 158.933 264.275 159.367 263.619C159.801 262.964 159.469 261.142 159.682 259.856C159.947 258.67 160.294 257.504 160.721 256.366C160.721 256.366 157.426 256.808 156.668 254.569Z" fill="#92E3A9" stroke="#263238" stroke-linecap="round" stroke-linejoin="round"/>
<path d="M145.575 248.235C146.027 248.524 146.427 248.887 146.759 249.308C147.516 250.159 147.516 249.844 147.082 251.138C146.648 252.432 146.546 253.616 147.193 252.841C147.84 252.066 148.7 250.789 148.376 249.606C148.16 248.868 147.752 248.201 147.193 247.673L145.575 248.235Z" fill="#92E3A9" stroke="#263238" stroke-linecap="round" stroke-linejoin="round"/>
<path d="M150.53 129.714C150.53 129.714 153.135 132.191 155.102 132.319C156.356 132.38 157.61 132.186 158.788 131.749C160.452 132.227 162.211 132.271 163.896 131.876C166.314 131.178 165.999 127.747 165.999 127.747L158.686 125.261L150.53 129.714Z" fill="white" stroke="#263238" stroke-width="0.5" stroke-linecap="round" stroke-linejoin="round"/>
<path d="M152.752 141.434C153.79 141.608 154.857 141.412 155.766 140.88" stroke="#263238" stroke-width="0.5" stroke-linecap="round" stroke-linejoin="round"/>
<path d="M154.404 142.191C155.094 142.074 155.774 141.903 156.438 141.68" stroke="#263238" stroke-width="0.5" stroke-linecap="round" stroke-linejoin="round"/>
<path d="M160.695 141.553L162.806 142.013" stroke="#263238" stroke-width="0.5" stroke-linecap="round" stroke-linejoin="round"/>
<path d="M161.265 140.54C162.314 141.172 163.538 141.447 164.756 141.323" stroke="#263238" stroke-width="0.5" stroke-linecap="round" stroke-linejoin="round"/>
<path d="M154.659 140.029C154.659 140.029 157.213 140.88 157.213 144.992H159.767C159.767 144.992 160.15 141.587 161.93 139.586L162.628 138.888C161.968 138.351 161.215 137.941 160.406 137.679C158.754 137.041 159.009 137.168 157 137.62C155.527 137.952 154.208 139.714 154.208 139.714L154.659 140.029Z" fill="white" stroke="#263238" stroke-linecap="round" stroke-linejoin="round"/>
<path d="M158.567 125.096C158.567 125.096 157.239 123.632 155.962 123.887C154.685 124.143 149.866 127.446 148.912 128.782C148.2 129.941 147.9 131.306 148.061 132.656C148.189 132.98 148.376 133.354 148.376 133.354C148.376 133.354 147.167 134.435 147.993 136.76C148.819 139.084 150.215 140.063 151.398 140.318C152.497 140.602 153.659 140.513 154.702 140.063C155.336 139.672 155.95 139.249 156.54 138.794C156.909 138.822 157.28 138.774 157.629 138.654C157.979 138.534 158.301 138.344 158.575 138.096C158.901 138.444 159.318 138.694 159.778 138.817C160.238 138.941 160.724 138.933 161.18 138.794C161.589 139.383 162.144 139.857 162.79 140.168C163.436 140.48 164.151 140.62 164.867 140.574C165.958 140.494 166.996 140.069 167.83 139.36C168.664 138.652 169.251 137.696 169.506 136.632C169.784 135.418 169.653 134.145 169.132 133.014C169.225 131.036 168.592 129.092 167.353 127.548C165.25 124.875 162.713 124.56 161.436 124.143C160.159 123.725 158.567 125.096 158.567 125.096Z" fill="#FF0303" stroke="#263238" stroke-linecap="round" stroke-linejoin="round"/>
<path d="M158.533 138.062V125.096" stroke="#263238" stroke-width="0.5" stroke-linecap="round" stroke-linejoin="round"/>
<path d="M158.405 129.191C158.151 129.183 157.902 129.121 157.674 129.011C157.445 128.902 157.242 128.745 157.077 128.553C156.566 127.914 155.996 128.808 155.868 127.701C155.74 126.595 155.8 125.854 155.357 125.794C155.073 125.813 154.797 125.9 154.554 126.048C154.311 126.197 154.108 126.401 153.961 126.646" stroke="#263238" stroke-width="0.5" stroke-linecap="round" stroke-linejoin="round"/>
<path d="M155.928 126.492C156.27 126.226 156.499 125.84 156.566 125.411" stroke="#263238" stroke-width="0.5" stroke-linecap="round" stroke-linejoin="round"/>
<path d="M154.846 129.353L153.893 128.468L154.216 127.701" stroke="#263238" stroke-width="0.5" stroke-linecap="round" stroke-linejoin="round"/>
<path d="M153.893 128.468C153.592 128.704 153.335 128.992 153.135 129.319C153.02 129.54 152.934 129.774 152.88 130.017" stroke="#263238" stroke-width="0.5" stroke-linecap="round" stroke-linejoin="round"/>
<path d="M158.567 133.167C158.289 133.602 157.92 133.97 157.485 134.248C156.787 134.691 155.263 133.933 154.821 133.482C154.378 133.031 153.74 131.26 153.297 130.622C152.854 129.983 152.446 129.77 151.773 130.119C151.353 130.416 151.039 130.84 150.879 131.328" stroke="#263238" stroke-width="0.5" stroke-linecap="round" stroke-linejoin="round"/>
<path d="M157.264 130.945C157.264 130.945 156.881 131.703 156.753 132.026C156.626 132.35 156.498 131.073 155.902 130.434" stroke="#263238" stroke-width="0.5" stroke-linecap="round" stroke-linejoin="round"/>
<path d="M153.893 132.341C153.893 132.341 153.322 133.107 153.041 133.192" stroke="#263238" stroke-width="0.5" stroke-linecap="round" stroke-linejoin="round"/>
<path d="M153.459 135.329C153.377 135.4 153.282 135.452 153.179 135.484C153.076 135.516 152.967 135.526 152.86 135.514C152.753 135.502 152.65 135.468 152.556 135.414C152.463 135.361 152.382 135.288 152.318 135.202C151.747 134.563 151.552 134.35 151.041 134.35C150.649 134.375 150.265 134.462 149.9 134.606" stroke="#263238" stroke-width="0.5" stroke-linecap="round" stroke-linejoin="round"/>
<path d="M151.228 127.957C151.228 127.957 149.636 129.166 149.381 130.374C149.264 131.46 149.44 132.556 149.891 133.55C150.079 133.933 149.193 134.308 149.764 135.253C150.218 135.949 150.752 136.589 151.356 137.16C152.302 136.958 153.281 136.981 154.216 137.228C155.024 137.662 155.788 138.172 156.498 138.752" stroke="#263238" stroke-width="0.5" stroke-linecap="round" stroke-linejoin="round"/>
<path d="M151.356 137.168C151.077 137.244 150.832 137.411 150.659 137.643C150.486 137.874 150.396 138.157 150.402 138.445C150.275 139.586 151.254 139.969 152.369 140.225" stroke="#263238" stroke-width="0.5" stroke-linecap="round" stroke-linejoin="round"/>
<path d="M149.891 133.55C149.891 133.55 148.938 132.98 148.368 133.354" stroke="#263238" stroke-width="0.5" stroke-linecap="round" stroke-linejoin="round"/>
<path d="M147.925 136.215C147.925 136.215 148.683 137.109 149.381 137.109" stroke="#263238" stroke-width="0.5" stroke-linecap="round" stroke-linejoin="round"/>
<path d="M153.135 125.667C153.135 125.667 152.284 126.177 152.284 126.518C152.284 126.858 153.493 127.276 153.493 127.276" stroke="#263238" stroke-width="0.5" stroke-linecap="round" stroke-linejoin="round"/>
<path d="M152.752 127.19L152.113 128.272" stroke="#263238" stroke-width="0.5" stroke-linecap="round" stroke-linejoin="round"/>
<path d="M157.009 126.875C157.193 126.406 157.427 125.958 157.707 125.539C158.03 125.156 158.558 126.05 158.558 126.05C158.558 126.05 159.639 124.909 159.954 126.05" stroke="#263238" stroke-width="0.5" stroke-linecap="round" stroke-linejoin="round"/>
<path d="M157.707 125.539L157.264 124.841" stroke="#263238" stroke-width="0.5" stroke-linecap="round" stroke-linejoin="round"/>
<path d="M163.556 127.003C163.556 127.003 162.091 125.862 161.589 126.62C161.087 127.378 161.717 128.655 160.635 129.293C160.049 129.666 159.343 129.803 158.66 129.676" stroke="#263238" stroke-width="0.5" stroke-linecap="round" stroke-linejoin="round"/>
<path d="M159.997 131.83C159.997 131.83 160.125 132.026 160.695 131.643C161.265 131.26 161.138 130.792 161.717 130.306" stroke="#263238" stroke-width="0.5" stroke-linecap="round" stroke-linejoin="round"/>
<path d="M158.473 133.933C158.473 133.933 160.823 134.785 161.717 133.933C162.611 133.082 162.347 132.231 162.73 131.771C163.113 131.311 164.066 130.502 163.939 129.796C163.807 129.323 163.503 128.916 163.087 128.655" stroke="#263238" stroke-width="0.5" stroke-linecap="round" stroke-linejoin="round"/>
<path d="M163.939 129.796C164.129 129.684 164.341 129.616 164.56 129.595C164.779 129.575 165 129.602 165.207 129.676" stroke="#263238" stroke-width="0.5" stroke-linecap="round" stroke-linejoin="round"/>
<path d="M162.73 131.745C162.885 132.093 163.113 132.403 163.398 132.655C163.683 132.908 164.018 133.097 164.381 133.21" stroke="#263238" stroke-width="0.5" stroke-linecap="round" stroke-linejoin="round"/>
<path d="M167.625 131.643C167.797 132.68 167.753 133.74 167.497 134.759C167.055 135.968 166.731 136.087 166.731 136.087C165.737 136.022 164.74 136.176 163.811 136.538C162.67 137.109 161.717 137.168 161.257 137.994L160.814 138.846" stroke="#263238" stroke-width="0.5" stroke-linecap="round" stroke-linejoin="round"/>
<path d="M166.731 136.087C166.731 136.087 168.706 136.598 168.323 137.875" stroke="#263238" stroke-width="0.5" stroke-linecap="round" stroke-linejoin="round"/>
<path d="M168.264 136.794C168.264 136.794 168.894 136.47 168.894 135.142" stroke="#263238" stroke-width="0.5" stroke-linecap="round" stroke-linejoin="round"/>
<path d="M169.089 132.98L167.94 132.784" stroke="#263238" stroke-width="0.5" stroke-linecap="round" stroke-linejoin="round"/>
<path d="M166.161 127.769C166.379 127.792 166.583 127.889 166.738 128.044C166.893 128.199 166.99 128.403 167.012 128.621L167.14 129.378C167.14 129.378 168.408 129.762 168.034 130.715" stroke="#263238" stroke-width="0.5" stroke-linecap="round" stroke-linejoin="round"/>
<path d="M164.526 125.786C164.753 126.069 164.92 126.396 165.018 126.745C165.116 127.095 165.143 127.46 165.097 127.82" stroke="#263238" stroke-width="0.5" stroke-linecap="round" stroke-linejoin="round"/>
<path d="M161.019 124.934C161.642 124.825 162.285 124.911 162.858 125.181" stroke="#263238" stroke-width="0.5" stroke-linecap="round" stroke-linejoin="round"/>
<path d="M161.265 137.994C161.265 137.994 163.3 139.697 165.463 138.845" stroke="#263238" stroke-width="0.5" stroke-linecap="round" stroke-linejoin="round"/>
<path d="M165.02 137.747C165.258 137.682 165.507 137.667 165.751 137.703C165.995 137.739 166.229 137.825 166.438 137.956C166.647 138.088 166.827 138.261 166.965 138.465C167.103 138.67 167.198 138.901 167.242 139.143" stroke="#263238" stroke-width="0.5" stroke-linecap="round" stroke-linejoin="round"/>
<path d="M161.121 135.261C161.121 135.261 159.725 135.389 159.98 136.342" stroke="#263238" stroke-width="0.5" stroke-linecap="round" stroke-linejoin="round"/>
<path d="M165.148 132.026C165.148 132.026 165.65 131.958 166.416 130.945" stroke="#263238" stroke-width="0.5" stroke-linecap="round" stroke-linejoin="round"/>
<path d="M165.846 131.643L165.973 132.529" stroke="#263238" stroke-width="0.5" stroke-linecap="round" stroke-linejoin="round"/>
<path d="M154.846 136.002C155.011 136.232 155.22 136.425 155.461 136.572C155.703 136.718 155.971 136.814 156.251 136.853C156.542 136.91 156.842 136.899 157.128 136.823C157.414 136.746 157.679 136.605 157.903 136.411" stroke="#263238" stroke-width="0.5" stroke-linecap="round" stroke-linejoin="round"/>
<path d="M167.497 134.759C166.995 134.348 166.367 134.123 165.718 134.12" stroke="#263238" stroke-width="0.5" stroke-linecap="round" stroke-linejoin="round"/>
<path d="M152.113 131.643C151.892 131.771 151.702 131.945 151.555 132.154C151.408 132.363 151.308 132.601 151.262 132.852" stroke="#263238" stroke-width="0.5" stroke-linecap="round" stroke-linejoin="round"/>
<path d="M163.377 223.214C163.377 223.214 161.538 224.414 161.214 225.879C161.017 227.574 160.954 229.282 161.027 230.987L161.793 231.055C161.793 231.055 161.538 227.309 161.793 226.671C162.049 226.032 163.121 226.032 163.121 226.032C163.558 225.432 163.849 224.738 163.973 224.006C164.015 223.086 164.203 222.763 163.377 223.214Z" fill="white" stroke="#263238" stroke-width="0.5" stroke-linecap="round" stroke-linejoin="round"/>
<path d="M163.819 221.937C163.444 222.286 163.016 222.574 162.551 222.788C161.862 222.935 161.153 222.958 160.457 222.856L160.516 223.555C161.077 223.662 161.652 223.682 162.219 223.614C162.826 223.502 163.422 223.334 163.998 223.112C163.998 223.112 164.841 222.133 163.819 221.937Z" fill="white" stroke="#263238" stroke-width="0.5" stroke-linecap="round" stroke-linejoin="round"/>
<path d="M163.947 224.04L160.84 224.287L160.712 224.866C161.197 224.827 161.683 224.827 162.168 224.866C162.866 224.925 163.632 224.925 163.632 224.925C163.632 224.925 164.526 224.866 163.947 224.04Z" fill="white" stroke="#263238" stroke-width="0.5" stroke-linecap="round" stroke-linejoin="round"/>
<path d="M168.902 219.843C168.902 219.843 167.821 216.54 166.042 216.097C164.262 215.654 161.853 217.11 161.725 218.574C161.598 220.039 163.819 221.937 163.819 221.937C163.575 222.323 163.424 222.76 163.377 223.214C163.39 223.62 163.452 224.024 163.564 224.415C162.914 225.305 162.461 226.324 162.236 227.403C162.108 228.739 163.564 230.263 165.795 230.451C168.025 230.638 169.03 229.31 169.2 228.288C169.278 227.764 169.298 227.233 169.26 226.705C170.048 225.667 170.454 224.389 170.409 223.086C170.426 220.609 168.902 219.843 168.902 219.843Z" fill="#92E3A9"/>
<path opacity="0.58" d="M168.902 219.843C168.902 219.843 167.821 216.54 166.042 216.097C164.262 215.654 161.853 217.11 161.725 218.574C161.598 220.039 163.819 221.937 163.819 221.937C163.575 222.323 163.424 222.76 163.377 223.214C163.39 223.62 163.452 224.024 163.564 224.415C162.914 225.305 162.461 226.324 162.236 227.403C162.108 228.739 163.564 230.263 165.795 230.451C168.025 230.638 169.03 229.31 169.2 228.288C169.278 227.764 169.298 227.233 169.26 226.705C170.048 225.667 170.454 224.389 170.409 223.086C170.426 220.609 168.902 219.843 168.902 219.843Z" fill="white"/>
<path d="M167.225 220.737C167.509 220.528 167.774 220.294 168.017 220.039" stroke="#263238" stroke-width="0.5" stroke-linecap="round" stroke-linejoin="round"/>
<path d="M164.841 221.69C165.479 221.593 166.096 221.385 166.663 221.077" stroke="#263238" stroke-width="0.5" stroke-linecap="round" stroke-linejoin="round"/>
<path d="M164.33 224.61C164.33 224.61 167.565 224.287 168.842 226.194" stroke="#263238" stroke-width="0.5" stroke-linecap="round" stroke-linejoin="round"/>
<path d="M168.902 219.843C168.902 219.843 167.821 216.54 166.042 216.097C164.262 215.654 161.853 217.11 161.725 218.574C161.598 220.039 163.819 221.937 163.819 221.937C163.575 222.323 163.424 222.76 163.377 223.214C163.39 223.62 163.452 224.024 163.564 224.415C162.914 225.305 162.461 226.324 162.236 227.403C162.108 228.739 163.564 230.263 165.795 230.451C168.025 230.638 169.03 229.31 169.2 228.288C169.278 227.764 169.298 227.233 169.26 226.705C170.048 225.667 170.454 224.389 170.409 223.086C170.426 220.609 168.902 219.843 168.902 219.843Z" stroke="#263238" stroke-miterlimit="10"/>
<path d="M155.732 223.214C155.732 223.214 157.571 224.414 157.886 225.879C158.089 227.573 158.155 229.282 158.081 230.987L157.315 231.055C157.315 231.055 157.571 227.309 157.315 226.671C157.06 226.032 155.987 226.032 155.987 226.032C155.55 225.432 155.259 224.738 155.136 224.006C155.093 223.086 154.906 222.763 155.732 223.214Z" fill="white" stroke="#263238" stroke-width="0.5" stroke-linecap="round" stroke-linejoin="round"/>
<path d="M155.289 221.937C155.664 222.286 156.092 222.574 156.558 222.788C157.246 222.935 157.955 222.958 158.652 222.856L158.584 223.555C158.023 223.663 157.448 223.683 156.881 223.614C156.274 223.502 155.678 223.334 155.102 223.112C155.102 223.112 154.31 222.133 155.289 221.937Z" fill="white" stroke="#263238" stroke-width="0.5" stroke-linecap="round" stroke-linejoin="round"/>
<path d="M155.161 224.04L158.269 224.287L158.396 224.866C157.909 224.827 157.419 224.827 156.932 224.866C156.234 224.925 155.476 224.925 155.476 224.925C155.476 224.925 154.582 224.866 155.161 224.04Z" fill="white" stroke="#263238" stroke-width="0.5" stroke-linecap="round" stroke-linejoin="round"/>
<path d="M150.206 219.843C150.206 219.843 151.279 216.54 153.059 216.097C154.838 215.654 157.256 217.11 157.383 218.574C157.511 220.039 155.289 221.937 155.289 221.937C155.533 222.323 155.685 222.76 155.732 223.214C155.718 223.621 155.652 224.025 155.536 224.415C156.19 225.304 156.646 226.323 156.873 227.403C157 228.739 155.536 230.263 153.314 230.451C151.092 230.638 150.079 229.31 149.909 228.288C149.831 227.764 149.808 227.233 149.84 226.705C149.057 225.665 148.654 224.388 148.7 223.086C148.683 220.609 150.206 219.843 150.206 219.843Z" fill="#92E3A9"/>
<path opacity="0.58" d="M150.206 219.843C150.206 219.843 151.279 216.54 153.059 216.097C154.838 215.654 157.256 217.11 157.383 218.574C157.511 220.039 155.289 221.937 155.289 221.937C155.533 222.323 155.685 222.76 155.732 223.214C155.718 223.621 155.652 224.025 155.536 224.415C156.19 225.304 156.646 226.323 156.873 227.403C157 228.739 155.536 230.263 153.314 230.451C151.092 230.638 150.079 229.31 149.909 228.288C149.831 227.764 149.808 227.233 149.84 226.705C149.057 225.665 148.654 224.388 148.7 223.086C148.683 220.609 150.206 219.843 150.206 219.843Z" fill="white"/>
<path d="M151.884 220.737C151.598 220.53 151.332 220.297 151.092 220.039" stroke="#263238" stroke-width="0.5" stroke-linecap="round" stroke-linejoin="round"/>
<path d="M154.31 221.69C153.672 221.593 153.055 221.385 152.488 221.077" stroke="#263238" stroke-width="0.5" stroke-linecap="round" stroke-linejoin="round"/>
<path d="M154.778 224.61C154.778 224.61 151.535 224.287 150.266 226.194" stroke="#263238" stroke-width="0.5" stroke-linecap="round" stroke-linejoin="round"/>
<path d="M150.206 219.843C150.206 219.843 151.279 216.54 153.059 216.097C154.838 215.654 157.256 217.11 157.383 218.574C157.511 220.039 155.289 221.937 155.289 221.937C155.533 222.323 155.685 222.76 155.732 223.214C155.718 223.621 155.652 224.025 155.536 224.415C156.19 225.304 156.646 226.323 156.873 227.403C157 228.739 155.536 230.263 153.314 230.451C151.092 230.638 150.079 229.31 149.909 228.288C149.831 227.764 149.808 227.233 149.84 226.705C149.057 225.665 148.654 224.388 148.7 223.086C148.683 220.609 150.206 219.843 150.206 219.843Z" stroke="#263238" stroke-miterlimit="10"/>
<path d="M166.527 250.125C166.697 252.875 166.11 255.378 165.088 256.025C164.066 256.672 160.389 256.749 159.069 256.698C159.069 256.698 155.493 256.698 153.825 255.923C152.539 255.344 151.1 254.152 151.169 250.125H150.096C150.028 253.684 151.075 255.838 153.374 256.876C155.264 257.728 158.924 257.728 159.052 257.728C159.18 257.728 159.58 257.728 160.133 257.728C161.708 257.728 164.509 257.617 165.675 256.876C167.25 255.88 167.761 252.833 167.608 250.066L166.527 250.125Z" fill="#808080" stroke="#263238" stroke-linecap="round" stroke-linejoin="round"/>
<path d="M164.467 255.744C164.391 255.244 164.197 254.769 163.901 254.359C163.605 253.948 163.215 253.615 162.764 253.386C161.061 252.347 160.252 254.041 158.677 253.514C157.102 252.986 154.421 252.994 153.646 255.352C153.367 256.294 153.38 257.298 153.684 258.231C153.988 259.165 154.568 259.984 155.349 260.58C156.06 261.208 156.913 261.655 157.835 261.882C157.835 261.882 158.362 265.151 159.009 264.632C159.656 264.113 160.448 261.882 160.448 261.882C161.72 261.199 162.906 260.367 163.981 259.405C164.399 258.903 164.666 258.292 164.752 257.645C164.838 256.997 164.739 256.338 164.467 255.744V255.744Z" fill="#808080" stroke="#263238" stroke-linecap="round" stroke-linejoin="round"/>
<path d="M160.746 183.558C160.746 183.558 156.864 185.38 156.694 188.828C156.523 192.276 157.707 196.831 160.142 198.457C162.577 200.083 169.762 202.714 172.401 202.407C175.04 202.101 175.534 200.381 175.943 197.648C176.351 194.915 175.338 191.868 174.827 190.25C174.317 188.632 172.495 186.402 171.184 185.184C169.873 183.967 169.157 183.661 166.518 182.954C163.879 182.247 160.746 183.558 160.746 183.558Z" fill="#92E3A9"/>
<path opacity="0.58" d="M160.746 183.558C160.746 183.558 156.864 185.38 156.694 188.828C156.523 192.276 157.707 196.831 160.142 198.457C162.577 200.083 169.762 202.714 172.401 202.407C175.04 202.101 175.534 200.381 175.943 197.648C176.351 194.915 175.338 191.868 174.827 190.25C174.317 188.632 172.495 186.402 171.184 185.184C169.873 183.967 169.157 183.661 166.518 182.954C163.879 182.247 160.746 183.558 160.746 183.558Z" fill="white"/>
<path d="M160.746 183.558C160.746 183.558 156.864 185.38 156.694 188.828C156.523 192.276 157.707 196.831 160.142 198.457C162.577 200.083 169.762 202.714 172.401 202.407C175.04 202.101 175.534 200.381 175.943 197.648C176.351 194.915 175.338 191.868 174.827 190.25C174.317 188.632 172.495 186.402 171.184 185.184C169.873 183.967 169.157 183.661 166.518 182.954C163.879 182.247 160.746 183.558 160.746 183.558Z" stroke="#263238" stroke-miterlimit="10"/>
<path d="M162.875 186.802C162.875 186.802 160.848 186.504 160.746 183.558C160.644 180.613 163.683 177.284 163.683 177.284C163.385 176.623 163.047 175.98 162.67 175.36L161.759 173.734L163.275 173.129C163.721 173.564 164.128 174.037 164.492 174.543C164.799 175.053 165.403 176.245 165.403 176.245V173.691L167.029 173.589L167.531 176.526C167.531 176.526 167.233 175.82 169.558 176.628C171.882 177.437 172.801 179.77 172.903 181.592C172.879 183.105 172.641 184.606 172.197 186.053L168.791 183.499C168.791 183.499 169.098 179.651 167.574 179.957C166.05 180.264 166.263 181.779 165.25 184.01C164.237 186.24 162.875 186.802 162.875 186.802Z" fill="white" stroke="#263238" stroke-linecap="round" stroke-linejoin="round"/>
<path d="M164.526 185.38C164.526 185.38 166.552 180.613 168.579 179.906C169.862 179.386 171.251 179.179 172.631 179.302C173.346 179.404 173.644 180.715 173.644 182.034C173.644 183.354 171.72 182.741 170.605 183.958C169.49 185.176 169.694 187.364 169.694 187.364" fill="#92E3A9"/>
<path d="M164.526 185.38C164.526 185.38 166.552 180.613 168.579 179.906C169.862 179.386 171.251 179.179 172.631 179.302C173.346 179.404 173.644 180.715 173.644 182.034C173.644 183.354 171.72 182.741 170.605 183.958C169.49 185.176 169.694 187.364 169.694 187.364" stroke="#263238" stroke-linecap="round" stroke-linejoin="round"/>
<path d="M174.606 190.871C174.274 190.329 173.792 189.895 173.218 189.62L172.801 189.458C172.675 189.398 172.552 189.33 172.435 189.254C172.195 189.099 171.967 188.925 171.754 188.735C171.318 188.344 170.912 187.923 170.537 187.475L170 187.951C170.432 188.396 170.896 188.809 171.388 189.186L171.567 189.296C171.017 189.826 170.582 190.464 170.29 191.169C169.937 192.089 169.854 193.09 170.051 194.055C170.171 194.992 170.341 195.92 170.443 196.848C170.624 197.769 170.495 198.724 170.077 199.564C170.549 198.736 170.74 197.777 170.622 196.831C170.622 195.886 170.469 194.949 170.409 194.021C170.284 193.124 170.414 192.209 170.784 191.382C170.86 191.229 170.954 191.076 171.047 190.923C171.383 191.484 171.649 192.084 171.839 192.71C172.07 193.502 172.199 194.321 172.222 195.145C172.25 196.004 172.355 196.859 172.537 197.699C172.628 198.116 172.766 198.522 172.946 198.908C173.109 199.3 173.377 199.639 173.721 199.887C173.401 199.617 173.162 199.263 173.031 198.866C172.883 198.478 172.778 198.075 172.716 197.665C172.593 196.84 172.55 196.004 172.588 195.171C172.621 194.313 172.544 193.455 172.359 192.617C172.192 191.831 171.905 191.076 171.507 190.378C171.71 190.138 171.935 189.918 172.18 189.722V189.722C172.323 189.799 172.471 189.867 172.622 189.926L173.065 190.046C173.608 190.231 174.085 190.571 174.436 191.025C174.802 191.496 175.074 192.034 175.236 192.608C175.148 191.992 174.933 191.401 174.606 190.871V190.871Z" fill="#263238"/>
<path d="M163.377 191.663C162.951 191.467 162.575 191.176 162.279 190.812C162.06 190.523 161.912 190.188 161.844 189.833C162.127 189.577 162.381 189.292 162.602 188.981C163.206 188.21 163.54 187.262 163.556 186.283L162.517 186.878C162.422 187.455 162.198 188.002 161.861 188.479C161.506 189.016 161.082 189.506 160.601 189.935C159.931 190.501 159.21 191.006 158.448 191.442L157.732 191.825C157.562 191.918 157.383 192.004 157.205 192.089L157.741 191.97C157.77 192.416 157.847 192.859 157.971 193.289C158.147 193.92 158.435 194.514 158.822 195.043C159.2 195.552 159.619 196.031 160.074 196.473C160.518 196.921 161.009 197.321 161.538 197.665C161.052 197.27 160.61 196.825 160.218 196.337C159.823 195.861 159.462 195.357 159.137 194.83C158.825 194.305 158.609 193.728 158.499 193.127C158.401 192.672 158.367 192.205 158.396 191.74C158.66 191.655 158.916 191.561 159.171 191.459C159.825 191.193 160.447 190.856 161.027 190.454L161.274 190.267C161.418 190.583 161.617 190.871 161.861 191.118C162.237 191.507 162.702 191.799 163.215 191.97C164.146 192.324 165.043 192.76 165.897 193.272C165.107 192.66 164.264 192.122 163.377 191.663Z" fill="#263238"/>
</g>
<defs>
<filter id="filter0_d_24_284" x="0" y="0" width="648" height="508" filterUnits="userSpaceOnUse" color-interpolation-filters="sRGB">
<feFlood flood-opacity="0" result="BackgroundImageFix"/>
<feColorMatrix in="SourceAlpha" type="matrix" values="0 0 0 0 0 0 0 0 0 0 0 0 0 0 0 0 0 0 127 0" result="hardAlpha"/>
<feOffset dy="4"/>
<feGaussianBlur stdDeviation="2"/>
<feComposite in2="hardAlpha" operator="out"/>
<feColorMatrix type="matrix" values="0 0 0 0 0 0 0 0 0 0 0 0 0 0 0 0 0 0 0.25 0"/>
<feBlend mode="normal" in2="BackgroundImageFix" result="effect1_dropShadow_24_284"/>
<feBlend mode="normal" in="SourceGraphic" in2="effect1_dropShadow_24_284" result="shape"/>
</filter>
</defs>
</svg>
