<svg width="640" height="500" viewBox="0 0 640 500" fill="none" xmlns="http://www.w3.org/2000/svg">
<rect width="640" height="500" fill="white"/>
<g filter="url(#filter0_d_28_623)">
<path d="M349.253 133.431C340.908 140.647 335.724 150.65 334.753 161.412L334.604 166.287C334.87 176.997 339.321 187.216 347.067 194.904C354.813 202.592 365.285 207.182 376.391 207.758C387.497 208.334 398.419 204.854 406.978 198.012C415.536 191.169 421.1 181.469 422.559 170.848L422.952 165.989C423.145 157.688 420.812 149.513 416.24 142.473C411.669 135.433 405.059 129.835 397.226 126.369C389.392 122.904 380.677 121.722 372.154 122.969C363.631 124.216 355.674 127.838 349.262 133.388L349.253 133.431Z" fill="white"/>
<path d="M349.253 133.431C340.908 140.647 335.724 150.65 334.753 161.412L334.604 166.287C334.87 176.997 339.321 187.217 347.067 194.904C354.813 202.592 365.285 207.182 376.391 207.758C387.496 208.334 398.419 204.854 406.978 198.012C415.536 191.17 421.1 181.469 422.559 170.848L422.952 165.99C423.145 157.688 420.812 149.513 416.24 142.473C411.669 135.433 405.059 129.835 397.226 126.37C389.392 122.904 380.677 121.722 372.154 122.969C363.631 124.216 355.674 127.838 349.262 133.388L349.253 133.431Z" fill="white"/>
<path d="M346.749 130.742C338.312 138.041 332.83 147.981 331.273 158.802C329.717 169.622 332.186 180.623 338.243 189.858L331.496 202.661C331.242 203.142 331.145 203.686 331.218 204.221C331.291 204.756 331.53 205.258 331.903 205.66C332.277 206.062 332.769 206.345 333.313 206.474C333.857 206.602 334.429 206.569 334.953 206.379L348.896 201.302C356.049 206.789 364.682 210.191 373.776 211.109C382.87 212.026 392.047 210.419 400.225 206.478C408.403 202.537 415.24 196.426 419.932 188.866C424.623 181.305 426.973 172.61 426.704 163.806C426.434 155.001 423.558 146.455 418.413 139.173C413.267 131.892 406.068 126.179 397.664 122.708C389.26 119.238 380.001 118.154 370.978 119.585C361.955 121.016 353.546 124.902 346.74 130.785L346.749 130.742ZM411.681 136.696C419.177 144.736 423.206 155.229 422.943 166.033L422.55 170.891C421.07 181.494 415.499 191.17 406.945 197.993C398.392 204.816 387.485 208.286 376.395 207.711C365.306 207.136 354.848 202.559 347.105 194.891C339.361 187.223 334.9 177.026 334.61 166.332L334.744 161.455C335.493 153.185 338.735 145.306 344.073 138.788C349.41 132.27 356.61 127.398 364.785 124.771C372.961 122.145 381.755 121.878 390.086 124.005C398.417 126.131 405.92 130.558 411.672 136.739L411.681 136.696Z" fill="#FF9C06"/>
<path opacity="0.7" d="M346.749 130.742C338.312 138.041 332.83 147.981 331.273 158.802C329.717 169.622 332.186 180.623 338.243 189.858L331.496 202.661C331.242 203.142 331.145 203.686 331.218 204.221C331.291 204.756 331.53 205.258 331.903 205.66C332.277 206.062 332.769 206.345 333.313 206.474C333.857 206.602 334.429 206.569 334.953 206.379L348.896 201.302C356.049 206.789 364.682 210.191 373.776 211.109C382.87 212.026 392.047 210.419 400.225 206.478C408.403 202.537 415.24 196.426 419.932 188.866C424.623 181.305 426.973 172.61 426.704 163.806C426.434 155.001 423.558 146.455 418.413 139.173C413.267 131.892 406.068 126.179 397.664 122.708C389.26 119.238 380.001 118.154 370.978 119.585C361.955 121.016 353.546 124.902 346.74 130.785L346.749 130.742ZM411.681 136.696C419.177 144.736 423.206 155.229 422.943 166.033L422.55 170.891C421.07 181.494 415.499 191.17 406.945 197.993C398.392 204.816 387.485 208.286 376.395 207.711C365.306 207.136 354.848 202.559 347.105 194.891C339.361 187.223 334.9 177.026 334.61 166.332L334.744 161.455C335.493 153.185 338.735 145.306 344.073 138.788C349.41 132.27 356.61 127.398 364.785 124.771C372.961 122.145 381.755 121.878 390.086 124.005C398.417 126.131 405.92 130.558 411.672 136.739L411.681 136.696Z" fill="white"/>
<path d="M373.999 192.179C373.999 192.179 381.844 192.179 386.551 192.179" stroke="#263238" stroke-linecap="round" stroke-linejoin="round"/>
<path d="M370.161 155.181C369.343 155.376 368.575 155.724 367.9 156.203C367.225 156.682 366.657 157.283 366.229 157.971C365.31 159.544 364.802 161.302 364.749 163.099C363.502 164.387 362.726 166.021 362.537 167.76C362.282 170.565 362.043 168.921 362.282 170.565C362.521 172.209 361.056 174.291 361.55 176.598C361.851 178.012 362.435 179.358 363.269 180.565C363.676 182.098 364.431 183.529 365.481 184.758C366.354 185.591 367.352 186.297 368.442 186.854C368.442 186.854 368.935 187.789 371.387 188.257L373.854 188.724L374.347 178.936C375.498 179.453 376.767 179.691 378.04 179.63H380.491C381.351 179.948 382.289 180.031 383.197 179.871C384.298 179.699 385.369 179.385 386.38 178.936L386.619 188.724C386.619 188.724 390.566 187.322 391.792 185.708L393.017 184.079C393.714 183.974 394.381 183.733 394.975 183.373C395.57 183.012 396.079 182.539 396.471 181.983C397.223 180.778 397.644 179.414 397.697 178.016C398.299 177.447 398.731 176.736 398.946 175.957C399.162 175.177 399.154 174.357 398.923 173.582L398.19 170.791C398.211 168.64 397.795 166.505 396.965 164.502C395.723 162.406 396.471 163.793 395.723 162.406C394.701 160.625 393.552 158.911 392.285 157.278C391.209 155.744 389.777 154.465 388.099 153.537C386.317 152.662 375.732 150.973 370.161 155.181Z" fill="#FF0303" stroke="#263238" stroke-linecap="round" stroke-linejoin="round"/>
<path d="M380.04 146.214C380.04 146.214 377.022 137.822 374.826 138.371C372.629 138.92 368.047 143.077 368.047 143.077C368.047 143.077 366.83 133.133 365.613 135.564C364.396 137.995 365.36 142.104 366.103 145.492C366.846 148.88 367.557 148.41 368.047 149.868C368.536 151.327 369.516 155.201 369.516 155.201L371.713 156.158C371.713 156.158 372.692 160.048 373.672 163.435C374.652 166.823 377.085 169.976 380.498 169.709C381.836 169.733 383.138 169.281 384.17 168.435C385.201 167.59 385.894 166.406 386.124 165.098C386.614 162.683 389.047 156.126 389.047 156.126L391.496 157.35C391.496 157.35 391.007 149.837 391.986 148.378C392.966 146.92 395.147 144.739 395.147 142.559C395.147 140.379 396.126 134.56 394.894 135.768C393.661 136.975 391.971 143.281 391.971 143.281C391.971 143.281 388.81 136.411 385.65 138.105C382.489 139.799 380.04 146.214 380.04 146.214Z" fill="white" stroke="#263238" stroke-linecap="round" stroke-linejoin="round"/>
<path d="M373.999 195.633V188.724" stroke="#263238" stroke-linecap="round" stroke-linejoin="round"/>
<path d="M386.551 188.724V195.633" stroke="#263238" stroke-linecap="round" stroke-linejoin="round"/>
<path d="M373.999 185.633C373.999 185.633 381.989 188.932 386.551 185.27" stroke="#263238" stroke-linecap="round" stroke-linejoin="round"/>
<path d="M373.999 159.362C373.999 159.362 381.494 167.134 388.344 159.362" stroke="#263238" stroke-linecap="round" stroke-linejoin="round"/>
<path d="M372.206 155.55C372.206 155.55 373.121 156.455 375.263 155.323C377.404 154.192 378.221 154.293 378.221 154.293C379.128 154.757 380.233 154.996 381.359 154.972C382.47 154.866 383.534 154.596 384.481 154.18C384.481 154.18 387.129 156.115 387.946 155.889C388.658 155.724 389.392 155.611 390.137 155.55" fill="white"/>
<path d="M372.206 155.55C372.206 155.55 373.121 156.455 375.263 155.323C377.404 154.192 378.221 154.293 378.221 154.293C379.128 154.757 380.233 154.996 381.359 154.972C382.47 154.866 383.534 154.596 384.481 154.18C384.481 154.18 387.129 156.115 387.946 155.889C388.658 155.724 389.392 155.611 390.137 155.55" stroke="#263238" stroke-linecap="round" stroke-linejoin="round"/>
<path d="M375.792 155.908C375.792 155.908 377.652 158.924 380.403 159.329C383.154 159.734 386.551 156.299 386.551 156.299" stroke="#263238" stroke-linecap="round" stroke-linejoin="round"/>
<path d="M272.626 144.798C272.626 144.798 273.154 137.408 269.723 132.93C266.292 128.452 258.375 128.443 254.952 129.763C251.53 131.082 248.091 133.458 247.29 137.425C246.803 140.301 246.626 143.221 246.762 146.134C246.403 146.212 246.064 146.366 245.77 146.587C245.476 146.808 245.232 147.089 245.057 147.413C244.881 147.736 244.778 148.094 244.753 148.461C244.729 148.828 244.784 149.196 244.915 149.54C245.336 151.201 246.151 152.737 247.29 154.018C247.29 154.018 248.082 157.713 248.61 159.296C249.138 160.88 252.015 164.311 252.015 164.311C252.015 164.311 252.543 168.269 250.696 169.589C248.848 170.909 244.362 171.964 238.036 174.067C231.711 176.17 225.896 181.729 224.576 188.846C223.781 193.107 223.603 197.459 224.048 201.77L221.673 216.805C220.085 220.937 219.196 225.304 219.043 229.728C218.779 237.118 217.459 251.863 217.459 251.863C217.459 251.863 219.043 252.919 215.348 254.766C211.653 256.614 211.389 257.933 210.861 259.253C210.333 260.573 210.069 263.212 209.014 264.003C207.958 264.795 204.527 264.003 205.055 266.634C205.583 269.265 209.312 267.69 209.312 267.69L211.687 267.162V280.622C211.687 281.941 212.479 283.789 213.798 282.205C213.798 282.205 215.118 284.053 215.91 283.261L217.195 282.512C217.195 282.512 218.753 283.159 219.485 282.886C220.217 282.614 221.682 280.588 221.682 280.588C221.682 280.588 222.056 281.686 223.384 280.043C224.712 278.4 224.942 276.374 225.308 274.994C225.675 273.615 226.866 266.098 227.233 264.778C227.599 263.459 227.233 256.707 227.233 256.707L226.96 253.77C226.96 253.77 232.92 237.544 233.933 233.687C235.001 230.016 235.828 226.279 236.41 222.5C236.776 219.206 238.334 212.693 238.334 212.693L238.973 212.42C238.973 212.42 239.066 227.915 238.7 229.933C238.334 231.95 235.584 235.705 235.857 240.472C236.129 245.24 234.477 253.311 234.026 256.06C233.575 258.81 230.076 268.167 231.549 283.482C233.022 298.798 236.087 307.38 237.866 314.191C239.645 321.001 239.16 325.377 238.351 331.856C237.542 338.335 238.836 341.221 241.109 349.521C243.383 357.822 247.426 366.548 247.92 369.784C248.414 373.019 246.95 373.351 246.141 375.3C245.332 377.25 240.956 382.264 240.794 384.376C240.633 386.487 242.089 388.105 246.141 389.237C250.193 390.369 253.114 390.369 255.055 387.781C256.996 385.193 257.166 383.567 257.004 381.617C256.842 379.668 256.357 379.353 257.004 377.565C257.651 375.777 258.46 374.815 257.975 371.733C257.489 368.651 257.813 371.41 256.519 365.084C255.225 358.759 256.681 350.501 256.681 346.933C256.681 343.366 256.681 334.938 255.829 330.758C254.978 326.578 254.859 328.485 254.374 322.653C253.888 316.821 254.697 316.166 254.697 311.951C254.688 309.445 254.403 306.946 253.846 304.502C253.846 304.502 257.089 287.645 257.251 286.99C257.413 286.334 259.805 275.165 259.805 275.165C260.083 275.214 260.345 275.327 260.571 275.496C260.797 275.664 260.981 275.883 261.108 276.135C261.431 276.944 265.645 304.34 265.645 304.34C265.645 304.34 264.019 308.716 264.181 311.628C264.343 314.54 266.131 322.815 266.131 322.815C266.131 322.815 264.981 328.042 263.823 336.147C262.666 344.252 264.47 352.68 264.309 357.703C264.264 360.977 263.885 364.237 263.176 367.434C262.691 369.698 261.882 372.942 262.691 375.377L263.5 377.803C263.13 379.999 262.967 382.226 263.015 384.452C263.176 387.372 264.47 389.314 266.42 389.637C267.04 389.69 267.663 389.584 268.23 389.329C268.798 389.075 269.291 388.679 269.664 388.181C270.417 388.616 271.248 388.897 272.11 389.008C272.973 389.119 273.848 389.058 274.687 388.828C277.445 388.019 279.386 386.879 278.739 384.614C278.218 382.325 277.223 380.17 275.819 378.289C274.04 375.862 272.899 375.539 272.414 372.619C271.888 369.639 272.114 366.576 273.069 363.705C274.04 361.108 278.254 353.165 280.195 342.634C282.136 332.103 281.821 331.447 281.336 327.718C280.902 322.47 281.119 317.189 281.983 311.994C282.792 307.942 288.462 293.358 288.462 281.524C288.292 271.781 287.261 262.072 285.38 252.51C284.865 249.993 284.487 247.449 284.247 244.891C284.799 242.493 284.799 240.001 284.247 237.603C283.277 234.198 282.63 232.895 281.821 229.175C281.157 225.906 280.668 222.603 280.357 219.282V212.965C280.357 212.965 283.439 220.414 284.894 225.608C286.35 230.801 286.359 233.874 287.976 238.735C289.594 243.597 292.999 252.672 293.646 254.622C294.293 256.571 292.837 259.968 293.484 265.153C294.132 270.338 294.787 279.26 295.919 280.554C297.052 281.848 298.354 280.392 298.354 280.392C298.354 280.392 298.839 282.946 299.81 283.312C300.781 283.678 302.075 282.657 302.075 282.657C302.108 282.867 302.192 283.066 302.318 283.238C302.444 283.41 302.609 283.549 302.799 283.645C302.989 283.74 303.2 283.789 303.413 283.788C303.626 283.786 303.835 283.734 304.024 283.636C304.458 283.496 304.856 283.264 305.192 282.955C305.527 282.647 305.791 282.269 305.965 281.848C305.965 281.848 308.4 282.818 308.077 279.583C307.753 276.348 306.944 271.964 306.944 270.993C306.944 270.023 307.106 266.941 307.106 266.941C307.96 267.631 308.953 268.128 310.018 268.396C311.32 268.558 312.614 269.852 313.585 268.396C314.555 266.941 313.747 266.455 311.967 265.315C310.188 264.174 310.018 263.859 308.724 261.909C307.43 259.96 308.562 259.483 305.803 257.048C303.045 254.613 301.283 253.481 301.283 251.421C301.283 249.36 303.394 236.181 301.445 226.783C299.495 217.384 298.533 214.949 298.209 213.493C297.886 212.037 294.966 201.012 294.966 201.012C294.966 201.012 297.52 190.796 293.016 182.206C288.513 173.616 282.323 174.263 277.624 172.16C272.924 170.057 269.195 169.606 268.54 168.269C268.068 167.126 267.742 165.927 267.569 164.702C267.569 164.702 271.826 158.87 271.945 156.921L272.107 154.98C272.107 154.98 274.661 154.009 275.351 149.02C276.04 144.031 272.626 144.798 272.626 144.798Z" fill="white" stroke="#263238" stroke-width="0.5" stroke-linecap="round" stroke-linejoin="round"/>
<path d="M256.63 172.901C256.156 173.028 255.751 173.333 255.497 173.752C255.237 174.228 255.094 174.759 255.08 175.301C254.724 175.69 254.5 176.182 254.442 176.706C254.373 177.558 254.305 177.064 254.373 177.558C254.442 178.051 254.024 178.69 254.161 179.388C254.248 179.813 254.415 180.218 254.654 180.58C254.77 181.045 254.988 181.478 255.293 181.848C255.542 182.102 255.829 182.315 256.144 182.478C256.144 182.478 256.28 182.759 256.996 182.904L257.694 183.049L257.838 180.095C258.168 180.247 258.531 180.318 258.894 180.299H259.567C259.812 180.398 260.081 180.424 260.341 180.376C260.659 180.322 260.968 180.228 261.261 180.095L261.329 183.049C261.88 182.851 262.382 182.538 262.802 182.129L263.159 181.636C263.358 181.605 263.547 181.533 263.716 181.425C263.885 181.316 264.029 181.173 264.138 181.006C264.351 180.643 264.471 180.234 264.488 179.814C264.66 179.642 264.783 179.428 264.846 179.193C264.909 178.959 264.908 178.712 264.845 178.477L264.632 177.626C264.638 176.976 264.519 176.332 264.283 175.727C263.926 175.089 264.138 175.514 263.926 175.089C263.636 174.553 263.309 174.038 262.947 173.548C262.637 173.087 262.226 172.703 261.746 172.424C261.269 172.126 258.239 171.641 256.63 172.901Z" fill="#FF0303" stroke="#263238" stroke-linecap="round" stroke-linejoin="round"/>
<path d="M259.652 170.296C259.652 170.296 258.801 167.861 258.153 168.005C257.432 168.355 256.774 168.821 256.204 169.385C256.204 169.385 255.855 166.507 255.497 167.205C255.14 167.903 255.429 169.104 255.642 170.091C255.855 171.079 256.059 170.943 256.204 171.36C256.349 171.777 256.63 172.901 256.63 172.901L257.26 173.182C257.26 173.182 257.54 174.314 257.821 175.293C258.102 176.272 258.8 177.191 259.788 177.123C260.173 177.133 260.549 177.003 260.846 176.757C261.144 176.512 261.342 176.167 261.406 175.787C261.55 175.08 262.257 173.182 262.257 173.182L262.964 173.539C262.964 173.539 262.819 171.36 263.1 170.934C263.381 170.508 264.019 169.878 264.019 169.231C264.019 168.584 264.3 166.907 263.943 167.265C263.565 167.951 263.279 168.684 263.091 169.444C263.091 169.444 262.189 167.444 261.269 167.937C260.35 168.431 259.652 170.296 259.652 170.296Z" fill="white" stroke="#263238" stroke-linecap="round" stroke-linejoin="round"/>
<path d="M257.515 174.195C257.515 174.195 259.805 176.255 261.865 174.195" stroke="#263238" stroke-linecap="round" stroke-linejoin="round"/>
<path d="M257.26 173.182C257.26 173.182 257.515 173.548 258.111 173.088C258.707 172.628 258.962 172.679 258.962 172.679C259.207 172.865 259.507 172.961 259.814 172.952C260.118 172.908 260.408 172.797 260.665 172.628C260.665 172.628 261.397 173.411 261.627 173.318C261.826 173.25 262.031 173.205 262.24 173.182" fill="white"/>
<path d="M257.26 173.182C257.26 173.182 257.515 173.548 258.111 173.088C258.707 172.628 258.962 172.679 258.962 172.679C259.207 172.865 259.507 172.961 259.814 172.952C260.118 172.908 260.408 172.797 260.665 172.628C260.665 172.628 261.397 173.411 261.627 173.318C261.826 173.25 262.031 173.205 262.24 173.182" stroke="#263238" stroke-linecap="round" stroke-linejoin="round"/>
<path d="M258.111 173.097C258.111 173.097 258.656 174.152 259.482 174.288C260.307 174.425 261.321 173.233 261.321 173.233" stroke="#263238" stroke-linecap="round" stroke-linejoin="round"/>
<path d="M260.81 182.308H258.043V199.114L255.855 201.531L257.668 205.175L259.422 203.37L262.419 205.448L263.108 200.612L260.81 198.765V182.308Z" fill="white" stroke="#263238" stroke-linecap="round" stroke-linejoin="round"/>
<path d="M257.149 200.45C256.888 200.172 256.691 199.841 256.57 199.48C256.45 199.118 256.409 198.735 256.451 198.356C256.621 197.13 257.847 195.734 256.272 193.818C254.697 191.903 248.61 192.243 244.745 198.535C240.88 204.826 240.548 220.542 242.472 221.249C244.396 221.955 255.046 219.325 256.621 217.401C258.196 215.477 257.472 206.742 257.668 205.175C257.681 203.585 257.506 201.999 257.149 200.45V200.45Z" fill="#92E3A9" stroke="#263238" stroke-linecap="round" stroke-linejoin="round"/>
<path d="M261.908 200.45C262.167 200.171 262.363 199.84 262.483 199.479C262.604 199.117 262.646 198.735 262.606 198.356C262.427 197.13 261.21 195.734 262.776 193.818C264.343 191.903 270.438 192.243 274.312 198.535C278.186 204.826 278.501 220.542 276.585 221.249C274.67 221.955 264.002 219.325 262.427 217.401C260.852 215.477 261.576 206.742 261.38 205.175C261.374 203.585 261.551 202 261.908 200.45V200.45Z" fill="#92E3A9" stroke="#263238" stroke-linecap="round" stroke-linejoin="round"/>
<path d="M258.273 186.684H260.58" stroke="#263238" stroke-linecap="round" stroke-linejoin="round"/>
<path d="M258.273 190.941H260.58" stroke="#263238" stroke-linecap="round" stroke-linejoin="round"/>
<path d="M258.273 195.197H260.58" stroke="#263238" stroke-linecap="round" stroke-linejoin="round"/>
<path d="M258.273 199.463H260.58" stroke="#263238" stroke-linecap="round" stroke-linejoin="round"/>
<path d="M248.712 237.271C248.792 237.792 249.036 238.274 249.408 238.647C249.779 239.021 250.26 239.266 250.781 239.349C252.671 239.706 253.335 238.089 255.191 237.45C257.047 236.812 256.808 240.064 256.808 240.064H257.804C257.947 238.934 257.792 237.786 257.353 236.735C256.63 235.381 254.203 235.381 254.203 235.381C254.203 235.381 249.972 236.19 248.712 237.271Z" stroke="#263238" stroke-linecap="round" stroke-linejoin="round"/>
<path d="M276.892 222.117C276.892 222.117 277.036 223.999 275.564 224.535C274.091 225.071 273.563 224.935 273.29 225.735C273.018 226.536 272.226 231.746 268.353 232.282C264.479 232.819 262.87 231.346 262.87 231.346C262.87 231.346 259.133 234.819 256.996 235.356C254.859 235.892 252.739 236.156 251.113 237.229C249.475 238.301 247.729 239.197 245.903 239.902C244.438 240.43 244.702 242.039 242.829 241.102C240.956 240.166 241.629 238.293 241.901 237.092C242.174 235.892 243.102 234.683 242.429 231.482C241.756 228.281 241.629 226.272 242.429 223.599C242.99 221.911 244.038 220.426 245.441 219.333C246.844 218.239 248.539 217.584 250.313 217.452C254.859 216.915 262.606 219.589 263.006 219.725C263.406 219.861 263.806 218.022 266.616 218.388C269.425 218.754 271.954 219.989 273.163 220.091C274.372 220.193 276.594 219.972 276.892 222.117Z" fill="#92E3A9"/>
<path opacity="0.39" d="M276.892 222.117C276.892 222.117 277.036 223.999 275.564 224.535C274.091 225.071 273.563 224.935 273.29 225.735C273.018 226.536 272.226 231.746 268.353 232.282C264.479 232.819 262.87 231.346 262.87 231.346C262.87 231.346 259.133 234.819 256.996 235.356C254.859 235.892 252.739 236.156 251.113 237.229C249.475 238.301 247.729 239.197 245.903 239.902C244.438 240.43 244.702 242.039 242.829 241.102C240.956 240.166 241.629 238.293 241.901 237.092C242.174 235.892 243.102 234.683 242.429 231.482C241.756 228.281 241.629 226.272 242.429 223.599C242.99 221.911 244.038 220.426 245.441 219.333C246.844 218.239 248.539 217.584 250.313 217.452C254.859 216.915 262.606 219.589 263.006 219.725C263.406 219.861 263.806 218.022 266.616 218.388C269.425 218.754 271.954 219.989 273.163 220.091C274.372 220.193 276.594 219.972 276.892 222.117Z" fill="black"/>
<path d="M262.972 219.725C262.972 219.725 264.573 224.263 264.445 226.408C264.19 228.133 263.646 229.802 262.836 231.346" stroke="#263238" stroke-linecap="round" stroke-linejoin="round"/>
<path d="M276.892 222.117C276.892 222.117 277.036 223.999 275.564 224.535C274.091 225.071 273.563 224.935 273.29 225.735C273.018 226.536 272.226 231.746 268.353 232.282C264.479 232.819 262.87 231.346 262.87 231.346C262.87 231.346 259.133 234.819 256.996 235.356C254.859 235.892 252.739 236.156 251.113 237.229C249.475 238.301 247.729 239.197 245.903 239.902C244.438 240.43 244.702 242.039 242.829 241.102C240.956 240.166 241.629 238.293 241.901 237.092C242.174 235.892 243.102 234.683 242.429 231.482C241.756 228.281 241.629 226.272 242.429 223.599C242.99 221.911 244.038 220.426 245.441 219.333C246.844 218.239 248.539 217.584 250.313 217.452C254.859 216.915 262.606 219.589 263.006 219.725C263.406 219.861 263.806 218.022 266.616 218.388C269.425 218.754 271.954 219.989 273.163 220.091C274.372 220.193 276.594 219.972 276.892 222.117Z" stroke="#263238" stroke-miterlimit="10"/>
<path d="M261.457 210.888C261.457 212.778 262.521 216.43 263.585 217.613C264.649 218.797 265.118 216.081 269.485 215.485C273.852 214.889 278.101 219.503 277.147 225.761C276.194 232.018 266.65 243.937 258.715 245.112C250.781 246.287 249.155 236.735 248.21 236.028C247.265 235.322 245.494 243.58 245.494 243.58L241.952 242.166C241.952 242.166 244.43 232.955 245.732 231.184C247.035 229.413 250.091 230.009 250.925 232.487C251.76 234.964 253.871 235.322 256.349 232.725C258.826 230.128 260.716 223.36 259.541 221.742C258.366 220.125 257.89 210.292 257.89 210.292L257.634 205.184L259.388 203.379L261.346 205.184L261.457 210.888Z" fill="#808080" stroke="#263238" stroke-linecap="round" stroke-linejoin="round"/>
<path d="M247.869 254.545C248.537 254.628 249.173 254.878 249.718 255.272C250.262 255.667 250.698 256.193 250.985 256.801C251.836 258.844 253.25 260.036 255.404 259.491C256.713 259.148 257.858 258.348 258.63 257.235C258.63 257.235 259.167 257.448 261.542 258.308C263.917 259.168 264.232 260.785 264.232 260.785C264.232 260.785 264.556 261.867 269.289 259.168C274.023 256.469 275.249 249.59 274.244 244.21C273.239 238.829 273.061 235.271 270.26 235.058C267.459 234.845 262.504 236.599 255.94 236.147C249.376 235.696 249.129 233.261 247.188 235.296C245.247 237.331 245.281 239.91 245.817 244.414C246.354 248.918 245.715 254.869 247.869 254.545Z" fill="#92E3A9" stroke="#263238" stroke-linecap="round" stroke-linejoin="round"/>
<path d="M258.63 257.235C258.873 256.755 258.972 256.215 258.915 255.681C258.857 255.146 258.646 254.639 258.307 254.222C257.123 252.715 253.037 251.744 251.743 250.774C251.041 250.333 250.537 249.637 250.338 248.832" fill="#92E3A9"/>
<path d="M258.63 257.235C258.873 256.755 258.972 256.215 258.915 255.681C258.857 255.146 258.646 254.639 258.307 254.222C257.123 252.715 253.037 251.744 251.743 250.774C251.041 250.333 250.537 249.637 250.338 248.832" stroke="#263238" stroke-linecap="round" stroke-linejoin="round"/>
<path d="M253.999 251.31C254.435 251.014 254.929 250.813 255.449 250.721C255.968 250.628 256.501 250.646 257.013 250.774" fill="#92E3A9"/>
<path d="M253.999 251.31C254.435 251.014 254.929 250.813 255.449 250.721C255.968 250.628 256.501 250.646 257.013 250.774" stroke="#263238" stroke-linecap="round" stroke-linejoin="round"/>
<path d="M248.942 252.493C249.151 253.142 249.532 253.723 250.045 254.173C250.558 254.622 251.183 254.925 251.854 255.047C254.11 255.371 254.757 254.834 255.191 256.554" fill="#92E3A9"/>
<path d="M248.942 252.493C249.151 253.142 249.532 253.723 250.045 254.173C250.558 254.622 251.183 254.925 251.854 255.047C254.11 255.371 254.757 254.834 255.191 256.554" stroke="#263238" stroke-linecap="round" stroke-linejoin="round"/>
<path d="M248.295 246.364C248.295 246.364 248.406 245.069 250.125 245.929C251.845 246.789 251.53 247.547 253.36 247.87C255.191 248.194 259.064 248.194 260.171 249.479C260.48 249.849 260.674 250.299 260.732 250.777C260.789 251.254 260.707 251.738 260.495 252.17C260.495 252.17 260.708 250.884 262.538 252.817C264.368 254.749 264.59 255.507 264.59 255.507C264.59 255.507 266.633 253.362 268.353 254.221C268.6 253.696 268.816 253.155 269 252.604" fill="#92E3A9"/>
<path d="M248.295 246.364C248.295 246.364 248.406 245.069 250.125 245.929C251.845 246.789 251.53 247.547 253.36 247.87C255.191 248.194 259.064 248.194 260.171 249.479C260.48 249.849 260.674 250.299 260.732 250.777C260.789 251.254 260.707 251.738 260.495 252.17C260.495 252.17 260.708 250.884 262.538 252.817C264.368 254.749 264.59 255.507 264.59 255.507C264.59 255.507 266.633 253.362 268.353 254.221C268.6 253.696 268.816 253.155 269 252.604" stroke="#263238" stroke-linecap="round" stroke-linejoin="round"/>
<path d="M249.912 243.563C249.912 243.563 251.53 244.857 252.603 244.312C253.675 243.767 253.999 241.758 256.153 243.128C258.307 244.499 259.388 246.789 260.997 248.296C262.606 249.803 264.011 251.633 265.518 250.774C267.025 249.914 268.072 247.223 270.047 249.59" fill="#92E3A9"/>
<path d="M249.912 243.563C249.912 243.563 251.53 244.857 252.603 244.312C253.675 243.767 253.999 241.758 256.153 243.128C258.307 244.499 259.388 246.789 260.997 248.296C262.606 249.803 264.011 251.633 265.518 250.774C267.025 249.914 268.072 247.223 270.047 249.59" stroke="#263238" stroke-linecap="round" stroke-linejoin="round"/>
<path d="M265.203 238.063C266.199 239.496 266.788 241.174 266.905 242.916C266.794 244.558 266.064 246.098 264.862 247.223" fill="#92E3A9"/>
<path d="M265.203 238.063C266.199 239.496 266.788 241.174 266.905 242.916C266.794 244.558 266.064 246.098 264.862 247.223" stroke="#263238" stroke-linecap="round" stroke-linejoin="round"/>
<path d="M266.599 245.069C266.599 245.069 268.497 242.226 270.345 243.971Z" fill="#92E3A9"/>
<path d="M266.599 245.069C266.599 245.069 268.497 242.226 270.345 243.971" stroke="#263238" stroke-linecap="round" stroke-linejoin="round"/>
<path d="M260.997 248.296C261.651 247.87 262.176 247.274 262.518 246.572C262.86 245.871 263.005 245.089 262.938 244.312C262.863 243.583 262.631 242.879 262.26 242.247C261.888 241.615 261.385 241.071 260.784 240.651" fill="#92E3A9"/>
<path d="M260.997 248.296C261.651 247.87 262.176 247.274 262.518 246.572C262.86 245.871 263.005 245.089 262.938 244.312C262.863 243.583 262.631 242.879 262.26 242.247C261.888 241.615 261.385 241.071 260.784 240.651" stroke="#263238" stroke-linecap="round" stroke-linejoin="round"/>
<path d="M258.528 245.606C258.528 245.606 259.49 244.312 257.77 241.945C256.051 239.578 256.476 238.395 256.698 237.212" fill="#92E3A9"/>
<path d="M258.528 245.606C258.528 245.606 259.49 244.312 257.77 241.945C256.051 239.578 256.476 238.395 256.698 237.212" stroke="#263238" stroke-linecap="round" stroke-linejoin="round"/>
<path d="M249.351 237.212C249.2 237.743 249.199 238.307 249.35 238.839C249.5 239.371 249.795 239.851 250.202 240.225C251.598 241.298 252.679 239.255 254.833 240.651" fill="#92E3A9"/>
<path d="M249.351 237.212C249.2 237.743 249.199 238.307 249.35 238.839C249.5 239.371 249.795 239.851 250.202 240.225C251.598 241.298 252.679 239.255 254.833 240.651" stroke="#263238" stroke-linecap="round" stroke-linejoin="round"/>
<path d="M270.796 236.454C270.796 236.454 267.995 240.013 268.54 241.085Z" fill="#92E3A9"/>
<path d="M270.796 236.454C270.796 236.454 267.995 240.013 268.54 241.085" stroke="#263238" stroke-linecap="round" stroke-linejoin="round"/>
<path d="M272.839 237.637C274.264 237.637 275.419 236.482 275.419 235.058C275.419 233.633 274.264 232.478 272.839 232.478C271.415 232.478 270.26 233.633 270.26 235.058C270.26 236.482 271.415 237.637 272.839 237.637Z" fill="#92E3A9" stroke="#263238" stroke-linecap="round" stroke-linejoin="round"/>
<path d="M273.273 241.4C274.966 241.4 276.338 240.245 276.338 238.821C276.338 237.396 274.966 236.241 273.273 236.241C271.581 236.241 270.209 237.396 270.209 238.821C270.209 240.245 271.581 241.4 273.273 241.4Z" fill="#92E3A9" stroke="#263238" stroke-linecap="round" stroke-linejoin="round"/>
<path d="M276.415 242.72C276.704 244.116 275.564 245.529 273.903 245.878C272.243 246.227 270.634 245.367 270.345 243.971C270.055 242.575 271.196 241.162 272.899 240.813C274.601 240.464 276.125 241.324 276.415 242.72Z" fill="#92E3A9" stroke="#263238" stroke-linecap="round" stroke-linejoin="round"/>
<path d="M276.798 246.61C277.026 247.201 277.066 247.847 276.915 248.462C276.763 249.076 276.427 249.629 275.951 250.046C275.475 250.463 274.882 250.724 274.253 250.794C273.624 250.863 272.989 250.737 272.433 250.434C271.878 250.131 271.429 249.664 271.147 249.097C270.865 248.531 270.764 247.891 270.858 247.265C270.951 246.639 271.235 246.057 271.67 245.597C272.105 245.138 272.671 244.823 273.29 244.695C274.01 244.489 274.781 244.574 275.438 244.933C276.094 245.291 276.583 245.894 276.798 246.61V246.61Z" fill="#92E3A9" stroke="#263238" stroke-linecap="round" stroke-linejoin="round"/>
<path d="M276.875 251.353C277.094 251.938 277.128 252.576 276.973 253.181C276.818 253.787 276.481 254.33 276.007 254.738C275.534 255.146 274.947 255.399 274.326 255.463C273.704 255.527 273.078 255.399 272.531 255.097C271.984 254.794 271.544 254.331 271.268 253.77C270.993 253.209 270.896 252.577 270.991 251.959C271.086 251.342 271.368 250.768 271.799 250.315C272.23 249.863 272.789 249.553 273.401 249.428C274.117 249.226 274.884 249.314 275.534 249.675C276.185 250.035 276.667 250.638 276.875 251.353V251.353Z" fill="#92E3A9" stroke="#263238" stroke-linecap="round" stroke-linejoin="round"/>
<path d="M275.589 255.55C275.807 256.135 275.841 256.773 275.686 257.377C275.531 257.982 275.195 258.525 274.722 258.933C274.249 259.341 273.662 259.594 273.041 259.659C272.42 259.723 271.794 259.596 271.248 259.294C270.701 258.992 270.26 258.529 269.984 257.969C269.708 257.409 269.61 256.778 269.704 256.16C269.798 255.543 270.078 254.969 270.508 254.516C270.937 254.063 271.495 253.752 272.107 253.626C272.824 253.427 273.59 253.518 274.241 253.877C274.891 254.237 275.376 254.837 275.589 255.55V255.55Z" fill="#92E3A9" stroke="#263238" stroke-linecap="round" stroke-linejoin="round"/>
<path d="M274.082 258.453C274.303 259.039 274.338 259.678 274.182 260.285C274.027 260.892 273.69 261.436 273.215 261.845C272.741 262.253 272.152 262.506 271.529 262.569C270.906 262.632 270.279 262.502 269.732 262.197C269.185 261.892 268.745 261.426 268.472 260.863C268.198 260.3 268.105 259.666 268.203 259.048C268.301 258.429 268.587 257.856 269.022 257.406C269.457 256.955 270.02 256.649 270.634 256.529C271.346 256.338 272.105 256.433 272.748 256.792C273.392 257.151 273.87 257.747 274.082 258.453Z" fill="#92E3A9" stroke="#263238" stroke-linecap="round" stroke-linejoin="round"/>
<path d="M271.171 260.07C271.389 260.655 271.423 261.293 271.268 261.898C271.113 262.503 270.776 263.046 270.303 263.454C269.83 263.862 269.244 264.115 268.623 264.179C268.002 264.244 267.376 264.116 266.829 263.814C266.282 263.512 265.842 263.05 265.566 262.49C265.29 261.93 265.192 261.298 265.285 260.681C265.379 260.064 265.66 259.49 266.089 259.037C266.519 258.583 267.077 258.273 267.689 258.146C268.405 257.943 269.173 258.032 269.825 258.392C270.477 258.752 270.961 259.355 271.171 260.07V260.07Z" fill="#92E3A9" stroke="#263238" stroke-linecap="round" stroke-linejoin="round"/>
<path d="M268.267 261.364C268.486 261.949 268.52 262.587 268.365 263.192C268.21 263.797 267.873 264.34 267.4 264.748C266.927 265.156 266.341 265.409 265.72 265.473C265.099 265.538 264.473 265.41 263.926 265.108C263.379 264.806 262.938 264.344 262.663 263.784C262.387 263.224 262.289 262.592 262.382 261.975C262.476 261.358 262.756 260.784 263.186 260.331C263.616 259.877 264.174 259.567 264.785 259.44C265.502 259.237 266.27 259.326 266.922 259.686C267.574 260.046 268.058 260.649 268.267 261.364V261.364Z" fill="#92E3A9" stroke="#263238" stroke-linecap="round" stroke-linejoin="round"/>
<path d="M264.675 262.114C264.964 263.51 263.619 264.974 261.678 265.374C259.737 265.774 257.924 264.966 257.634 263.569C257.345 262.173 258.69 260.709 260.631 260.309C262.572 259.909 264.428 260.717 264.675 262.114Z" fill="#92E3A9" stroke="#263238" stroke-linecap="round" stroke-linejoin="round"/>
<path d="M269.076 237.739C270.501 237.739 271.656 236.584 271.656 235.16C271.656 233.735 270.501 232.58 269.076 232.58C267.652 232.58 266.497 233.735 266.497 235.16C266.497 236.584 267.652 237.739 269.076 237.739Z" fill="#92E3A9" stroke="#263238" stroke-linecap="round" stroke-linejoin="round"/>
<path d="M265.203 238.063C266.975 238.063 268.412 237.007 268.412 235.705C268.412 234.402 266.975 233.346 265.203 233.346C263.43 233.346 261.993 234.402 261.993 235.705C261.993 237.007 263.43 238.063 265.203 238.063Z" fill="#92E3A9" stroke="#263238" stroke-linecap="round" stroke-linejoin="round"/>
<path d="M249.827 235.287C249.863 235.816 249.739 236.342 249.472 236.799C249.205 237.256 248.806 237.622 248.328 237.849C247.85 238.077 247.315 238.155 246.792 238.075C246.268 237.994 245.782 237.758 245.394 237.397C245.007 237.036 244.738 236.567 244.62 236.05C244.503 235.534 244.544 234.995 244.737 234.502C244.931 234.009 245.268 233.586 245.705 233.287C246.142 232.989 246.659 232.828 247.188 232.827C247.864 232.804 248.522 233.05 249.017 233.511C249.511 233.973 249.803 234.611 249.827 235.287V235.287Z" fill="#92E3A9" stroke="#263238" stroke-linecap="round" stroke-linejoin="round"/>
<path d="M245.664 240.217C246.995 240.217 248.073 239.199 248.073 237.944C248.073 236.688 246.995 235.671 245.664 235.671C244.334 235.671 243.255 236.688 243.255 237.944C243.255 239.199 244.334 240.217 245.664 240.217Z" fill="#92E3A9" stroke="#263238" stroke-linecap="round" stroke-linejoin="round"/>
<path d="M248.116 241.204C248.142 241.686 248.022 242.164 247.773 242.577C247.524 242.99 247.157 243.318 246.719 243.52C246.281 243.722 245.792 243.788 245.317 243.709C244.841 243.63 244.4 243.411 244.05 243.079C243.701 242.746 243.459 242.317 243.356 241.846C243.253 241.375 243.294 240.884 243.474 240.436C243.653 239.989 243.962 239.605 244.362 239.335C244.762 239.065 245.233 238.922 245.715 238.923C246.023 238.915 246.329 238.968 246.616 239.078C246.903 239.188 247.165 239.354 247.388 239.566C247.611 239.778 247.79 240.032 247.915 240.313C248.04 240.594 248.108 240.897 248.116 241.204Z" fill="#92E3A9" stroke="#263238" stroke-linecap="round" stroke-linejoin="round"/>
<path d="M248.227 244.405C248.254 244.887 248.136 245.365 247.889 245.779C247.641 246.193 247.275 246.523 246.838 246.726C246.401 246.929 245.912 246.997 245.436 246.92C244.96 246.843 244.519 246.625 244.168 246.294C243.817 245.963 243.574 245.535 243.469 245.064C243.365 244.593 243.404 244.102 243.581 243.654C243.759 243.206 244.067 242.821 244.466 242.55C244.864 242.278 245.335 242.133 245.817 242.132C246.438 242.116 247.039 242.346 247.491 242.772C247.942 243.198 248.207 243.785 248.227 244.405Z" fill="#92E3A9" stroke="#263238" stroke-linecap="round" stroke-linejoin="round"/>
<path d="M248.337 247.743C248.363 248.225 248.243 248.703 247.994 249.116C247.744 249.529 247.377 249.858 246.938 250.059C246.5 250.261 246.011 250.326 245.535 250.247C245.059 250.167 244.618 249.947 244.269 249.614C243.919 249.281 243.678 248.851 243.576 248.379C243.475 247.907 243.517 247.416 243.697 246.968C243.878 246.521 244.189 246.138 244.59 245.869C244.99 245.601 245.463 245.458 245.945 245.461C246.564 245.45 247.162 245.683 247.61 246.11C248.058 246.537 248.32 247.124 248.337 247.743V247.743Z" fill="#92E3A9" stroke="#263238" stroke-linecap="round" stroke-linejoin="round"/>
<path d="M246.362 253.464C247.693 253.464 248.772 252.446 248.772 251.191C248.772 249.935 247.693 248.918 246.362 248.918C245.032 248.918 243.953 249.935 243.953 251.191C243.953 252.446 245.032 253.464 246.362 253.464Z" fill="#92E3A9" stroke="#263238" stroke-linecap="round" stroke-linejoin="round"/>
<path d="M263.985 235.909C263.985 237.271 262.504 238.369 260.682 238.369C258.86 238.369 257.387 237.271 257.387 235.909C257.387 234.547 258.86 233.449 260.682 233.449C262.504 233.449 263.985 234.547 263.985 235.909Z" fill="#92E3A9" stroke="#263238" stroke-linecap="round" stroke-linejoin="round"/>
<path d="M255.94 238.608C257.586 238.608 258.92 237.506 258.92 236.147C258.92 234.789 257.586 233.687 255.94 233.687C254.294 233.687 252.96 234.789 252.96 236.147C252.96 237.506 254.294 238.608 255.94 238.608Z" fill="#92E3A9" stroke="#263238" stroke-linecap="round" stroke-linejoin="round"/>
<path d="M253.812 235.722C253.849 236.252 253.726 236.782 253.459 237.241C253.191 237.701 252.792 238.069 252.312 238.298C251.832 238.527 251.294 238.607 250.769 238.526C250.243 238.445 249.754 238.208 249.365 237.846C248.976 237.483 248.705 237.012 248.588 236.493C248.471 235.975 248.512 235.433 248.707 234.938C248.902 234.443 249.242 234.019 249.681 233.72C250.121 233.421 250.641 233.261 251.172 233.261C251.848 233.238 252.506 233.484 253.001 233.946C253.496 234.407 253.787 235.046 253.812 235.722V235.722Z" fill="#92E3A9" stroke="#263238" stroke-linecap="round" stroke-linejoin="round"/>
<path d="M246.575 257.227C248 257.227 249.155 256.072 249.155 254.647C249.155 253.223 248 252.068 246.575 252.068C245.15 252.068 243.996 253.223 243.996 254.647C243.996 256.072 245.15 257.227 246.575 257.227Z" fill="#92E3A9" stroke="#263238" stroke-linecap="round" stroke-linejoin="round"/>
<path d="M257.668 263.569C257.458 264.066 257.349 264.6 257.349 265.14C257.349 265.68 257.458 266.214 257.668 266.711C258.315 268.754 257.566 270.474 258.102 271.768C258.639 273.062 259.933 273.275 260.367 272.619C260.801 271.964 260.469 270.142 260.682 268.856C260.947 267.67 261.294 266.504 261.721 265.366C261.721 265.366 258.426 265.808 257.668 263.569Z" fill="#92E3A9" stroke="#263238" stroke-linecap="round" stroke-linejoin="round"/>
<path d="M246.575 257.235C247.027 257.524 247.427 257.887 247.759 258.308C248.516 259.159 248.516 258.844 248.082 260.138C247.648 261.432 247.546 262.616 248.193 261.841C248.84 261.066 249.7 259.789 249.376 258.606C249.16 257.868 248.752 257.201 248.193 256.673L246.575 257.235Z" fill="#92E3A9" stroke="#263238" stroke-linecap="round" stroke-linejoin="round"/>
<path d="M251.53 148.714C251.53 148.714 254.135 151.191 256.102 151.319C257.356 151.38 258.61 151.186 259.788 150.749C261.452 151.227 263.211 151.271 264.896 150.876C267.314 150.178 266.999 146.747 266.999 146.747L259.686 144.261L251.53 148.714Z" fill="white" stroke="#263238" stroke-width="0.5" stroke-linecap="round" stroke-linejoin="round"/>
<path d="M253.752 150.434C254.79 150.608 255.857 150.412 256.766 149.88" stroke="#263238" stroke-width="0.5" stroke-linecap="round" stroke-linejoin="round"/>
<path d="M255.404 151.191C256.094 151.074 256.774 150.903 257.438 150.68" stroke="#263238" stroke-width="0.5" stroke-linecap="round" stroke-linejoin="round"/>
<path d="M261.695 150.553L263.806 151.012" stroke="#263238" stroke-width="0.5" stroke-linecap="round" stroke-linejoin="round"/>
<path d="M262.265 149.54C263.314 150.172 264.538 150.447 265.756 150.323" stroke="#263238" stroke-width="0.5" stroke-linecap="round" stroke-linejoin="round"/>
<path d="M255.659 149.029C255.659 149.029 258.213 149.88 258.213 153.992H260.767C260.767 153.992 261.15 150.587 262.93 148.586L263.628 147.888C262.968 147.351 262.215 146.941 261.406 146.679C259.754 146.041 260.009 146.168 258 146.62C256.527 146.952 255.208 148.714 255.208 148.714L255.659 149.029Z" fill="white" stroke="#263238" stroke-linecap="round" stroke-linejoin="round"/>
<path d="M259.567 134.096C259.567 134.096 258.239 132.632 256.962 132.887C255.685 133.143 250.866 136.446 249.912 137.782C249.2 138.941 248.9 140.306 249.061 141.656C249.189 141.98 249.376 142.354 249.376 142.354C249.376 142.354 248.167 143.435 248.993 145.76C249.819 148.084 251.215 149.063 252.398 149.318C253.497 149.602 254.659 149.513 255.702 149.063C256.336 148.672 256.95 148.249 257.54 147.794C257.909 147.822 258.28 147.774 258.629 147.654C258.979 147.534 259.301 147.344 259.575 147.096C259.901 147.444 260.318 147.694 260.778 147.817C261.238 147.941 261.724 147.933 262.18 147.794C262.589 148.383 263.144 148.857 263.79 149.168C264.436 149.48 265.151 149.62 265.867 149.574C266.958 149.494 267.996 149.069 268.83 148.36C269.664 147.652 270.251 146.696 270.506 145.632C270.784 144.418 270.653 143.145 270.132 142.014C270.225 140.036 269.592 138.092 268.353 136.548C266.25 133.875 263.713 133.56 262.436 133.143C261.159 132.725 259.567 134.096 259.567 134.096Z" fill="#92E3A9" stroke="#263238" stroke-linecap="round" stroke-linejoin="round"/>
<path d="M259.533 147.062V134.096" stroke="#263238" stroke-width="0.5" stroke-linecap="round" stroke-linejoin="round"/>
<path d="M259.405 138.191C259.151 138.183 258.902 138.121 258.674 138.011C258.445 137.902 258.242 137.745 258.077 137.553C257.566 136.914 256.996 137.808 256.868 136.701C256.74 135.595 256.8 134.854 256.357 134.794C256.073 134.813 255.797 134.9 255.554 135.048C255.311 135.196 255.108 135.401 254.961 135.646" stroke="#263238" stroke-width="0.5" stroke-linecap="round" stroke-linejoin="round"/>
<path d="M256.928 135.492C257.27 135.226 257.499 134.84 257.566 134.411" stroke="#263238" stroke-width="0.5" stroke-linecap="round" stroke-linejoin="round"/>
<path d="M255.846 138.353L254.893 137.467L255.216 136.701" stroke="#263238" stroke-width="0.5" stroke-linecap="round" stroke-linejoin="round"/>
<path d="M254.893 137.468C254.592 137.704 254.335 137.992 254.135 138.319C254.02 138.54 253.934 138.774 253.88 139.017" stroke="#263238" stroke-width="0.5" stroke-linecap="round" stroke-linejoin="round"/>
<path d="M259.567 142.167C259.289 142.602 258.92 142.97 258.485 143.248C257.787 143.691 256.263 142.933 255.821 142.482C255.378 142.031 254.74 140.26 254.297 139.622C253.854 138.983 253.446 138.77 252.773 139.119C252.353 139.416 252.039 139.84 251.879 140.328" stroke="#263238" stroke-width="0.5" stroke-linecap="round" stroke-linejoin="round"/>
<path d="M258.264 139.945C258.264 139.945 257.881 140.703 257.753 141.026C257.626 141.35 257.498 140.073 256.902 139.434" stroke="#263238" stroke-width="0.5" stroke-linecap="round" stroke-linejoin="round"/>
<path d="M254.893 141.341C254.893 141.341 254.322 142.107 254.041 142.193" stroke="#263238" stroke-width="0.5" stroke-linecap="round" stroke-linejoin="round"/>
<path d="M254.459 144.329C254.377 144.4 254.282 144.452 254.179 144.484C254.076 144.516 253.967 144.526 253.86 144.514C253.753 144.502 253.65 144.468 253.556 144.414C253.463 144.361 253.382 144.288 253.318 144.202C252.747 143.563 252.552 143.35 252.041 143.35C251.649 143.375 251.265 143.462 250.9 143.606" stroke="#263238" stroke-width="0.5" stroke-linecap="round" stroke-linejoin="round"/>
<path d="M252.228 136.957C252.228 136.957 250.636 138.166 250.381 139.374C250.264 140.46 250.44 141.556 250.891 142.55C251.079 142.933 250.193 143.308 250.764 144.253C251.218 144.949 251.752 145.589 252.356 146.16C253.302 145.958 254.281 145.981 255.216 146.228C256.024 146.662 256.788 147.172 257.498 147.752" stroke="#263238" stroke-width="0.5" stroke-linecap="round" stroke-linejoin="round"/>
<path d="M252.356 146.168C252.077 146.244 251.832 146.411 251.659 146.643C251.486 146.874 251.396 147.157 251.402 147.445C251.275 148.586 252.254 148.969 253.369 149.225" stroke="#263238" stroke-width="0.5" stroke-linecap="round" stroke-linejoin="round"/>
<path d="M250.891 142.55C250.891 142.55 249.938 141.98 249.368 142.354" stroke="#263238" stroke-width="0.5" stroke-linecap="round" stroke-linejoin="round"/>
<path d="M248.925 145.215C248.925 145.215 249.683 146.109 250.381 146.109" stroke="#263238" stroke-width="0.5" stroke-linecap="round" stroke-linejoin="round"/>
<path d="M254.135 134.667C254.135 134.667 253.284 135.177 253.284 135.518C253.284 135.858 254.493 136.276 254.493 136.276" stroke="#263238" stroke-width="0.5" stroke-linecap="round" stroke-linejoin="round"/>
<path d="M253.752 136.19L253.113 137.272" stroke="#263238" stroke-width="0.5" stroke-linecap="round" stroke-linejoin="round"/>
<path d="M258.009 135.875C258.193 135.406 258.427 134.958 258.707 134.539C259.03 134.156 259.558 135.05 259.558 135.05C259.558 135.05 260.639 133.909 260.954 135.05" stroke="#263238" stroke-width="0.5" stroke-linecap="round" stroke-linejoin="round"/>
<path d="M258.707 134.539L258.264 133.841" stroke="#263238" stroke-width="0.5" stroke-linecap="round" stroke-linejoin="round"/>
<path d="M264.556 136.003C264.556 136.003 263.091 134.862 262.589 135.62C262.087 136.378 262.717 137.655 261.635 138.293C261.049 138.666 260.343 138.803 259.66 138.676" stroke="#263238" stroke-width="0.5" stroke-linecap="round" stroke-linejoin="round"/>
<path d="M260.997 140.83C260.997 140.83 261.125 141.026 261.695 140.643C262.265 140.26 262.138 139.792 262.717 139.306" stroke="#263238" stroke-width="0.5" stroke-linecap="round" stroke-linejoin="round"/>
<path d="M259.473 142.933C259.473 142.933 261.823 143.785 262.717 142.933C263.611 142.082 263.347 141.23 263.73 140.771C264.113 140.311 265.066 139.502 264.939 138.796C264.807 138.323 264.503 137.916 264.087 137.655" stroke="#263238" stroke-width="0.5" stroke-linecap="round" stroke-linejoin="round"/>
<path d="M264.939 138.796C265.129 138.684 265.341 138.616 265.56 138.595C265.779 138.575 266 138.602 266.207 138.676" stroke="#263238" stroke-width="0.5" stroke-linecap="round" stroke-linejoin="round"/>
<path d="M263.73 140.745C263.885 141.093 264.113 141.403 264.398 141.655C264.683 141.908 265.018 142.097 265.381 142.21" stroke="#263238" stroke-width="0.5" stroke-linecap="round" stroke-linejoin="round"/>
<path d="M268.625 140.643C268.797 141.68 268.753 142.74 268.497 143.759C268.055 144.968 267.731 145.087 267.731 145.087C266.736 145.022 265.74 145.176 264.811 145.538C263.67 146.109 262.717 146.168 262.257 146.994L261.814 147.846" stroke="#263238" stroke-width="0.5" stroke-linecap="round" stroke-linejoin="round"/>
<path d="M267.731 145.087C267.731 145.087 269.706 145.598 269.323 146.875" stroke="#263238" stroke-width="0.5" stroke-linecap="round" stroke-linejoin="round"/>
<path d="M269.264 145.794C269.264 145.794 269.894 145.47 269.894 144.142" stroke="#263238" stroke-width="0.5" stroke-linecap="round" stroke-linejoin="round"/>
<path d="M270.089 141.98L268.94 141.784" stroke="#263238" stroke-width="0.5" stroke-linecap="round" stroke-linejoin="round"/>
<path d="M267.161 136.769C267.379 136.792 267.583 136.889 267.738 137.044C267.893 137.199 267.99 137.403 268.012 137.621L268.14 138.378C268.14 138.378 269.408 138.762 269.034 139.715" stroke="#263238" stroke-width="0.5" stroke-linecap="round" stroke-linejoin="round"/>
<path d="M265.526 134.786C265.753 135.069 265.92 135.396 266.018 135.745C266.116 136.095 266.143 136.46 266.097 136.82" stroke="#263238" stroke-width="0.5" stroke-linecap="round" stroke-linejoin="round"/>
<path d="M262.019 133.934C262.642 133.825 263.285 133.911 263.858 134.181" stroke="#263238" stroke-width="0.5" stroke-linecap="round" stroke-linejoin="round"/>
<path d="M262.265 146.994C262.265 146.994 264.3 148.697 266.463 147.845" stroke="#263238" stroke-width="0.5" stroke-linecap="round" stroke-linejoin="round"/>
<path d="M266.02 146.747C266.258 146.682 266.507 146.667 266.751 146.703C266.995 146.739 267.229 146.825 267.438 146.956C267.647 147.088 267.827 147.261 267.965 147.465C268.103 147.67 268.198 147.901 268.242 148.143" stroke="#263238" stroke-width="0.5" stroke-linecap="round" stroke-linejoin="round"/>
<path d="M262.121 144.261C262.121 144.261 260.724 144.389 260.98 145.342" stroke="#263238" stroke-width="0.5" stroke-linecap="round" stroke-linejoin="round"/>
<path d="M266.148 141.026C266.148 141.026 266.65 140.958 267.416 139.945" stroke="#263238" stroke-width="0.5" stroke-linecap="round" stroke-linejoin="round"/>
<path d="M266.846 140.643L266.973 141.529" stroke="#263238" stroke-width="0.5" stroke-linecap="round" stroke-linejoin="round"/>
<path d="M255.846 145.002C256.011 145.232 256.22 145.425 256.461 145.572C256.703 145.718 256.971 145.814 257.251 145.853C257.542 145.91 257.842 145.899 258.128 145.823C258.414 145.746 258.679 145.605 258.903 145.411" stroke="#263238" stroke-width="0.5" stroke-linecap="round" stroke-linejoin="round"/>
<path d="M268.497 143.759C267.995 143.348 267.367 143.123 266.718 143.12" stroke="#263238" stroke-width="0.5" stroke-linecap="round" stroke-linejoin="round"/>
<path d="M253.113 140.643C252.892 140.771 252.702 140.945 252.555 141.154C252.408 141.363 252.308 141.601 252.262 141.852" stroke="#263238" stroke-width="0.5" stroke-linecap="round" stroke-linejoin="round"/>
<path d="M264.377 232.214C264.377 232.214 262.538 233.414 262.214 234.879C262.017 236.574 261.954 238.282 262.027 239.987L262.793 240.055C262.793 240.055 262.538 236.309 262.793 235.671C263.049 235.032 264.121 235.032 264.121 235.032C264.558 234.432 264.849 233.738 264.973 233.006C265.015 232.086 265.203 231.763 264.377 232.214Z" fill="white" stroke="#263238" stroke-width="0.5" stroke-linecap="round" stroke-linejoin="round"/>
<path d="M264.819 230.937C264.444 231.286 264.016 231.574 263.551 231.788C262.862 231.935 262.153 231.958 261.457 231.857L261.516 232.555C262.077 232.662 262.652 232.682 263.219 232.614C263.826 232.502 264.422 232.334 264.998 232.112C264.998 232.112 265.841 231.133 264.819 230.937Z" fill="white" stroke="#263238" stroke-width="0.5" stroke-linecap="round" stroke-linejoin="round"/>
<path d="M264.947 233.04L261.84 233.287L261.712 233.866C262.197 233.827 262.683 233.827 263.168 233.866C263.866 233.925 264.632 233.925 264.632 233.925C264.632 233.925 265.526 233.866 264.947 233.04Z" fill="white" stroke="#263238" stroke-width="0.5" stroke-linecap="round" stroke-linejoin="round"/>
<path d="M269.902 228.843C269.902 228.843 268.821 225.54 267.042 225.097C265.262 224.654 262.853 226.11 262.725 227.574C262.598 229.039 264.819 230.937 264.819 230.937C264.575 231.323 264.424 231.76 264.377 232.214C264.39 232.621 264.452 233.024 264.564 233.415C263.914 234.305 263.461 235.324 263.236 236.403C263.108 237.739 264.564 239.263 266.795 239.451C269.025 239.638 270.03 238.31 270.2 237.288C270.278 236.764 270.298 236.233 270.26 235.705C271.048 234.667 271.454 233.389 271.409 232.086C271.426 229.609 269.902 228.843 269.902 228.843Z" fill="#92E3A9"/>
<path opacity="0.58" d="M269.902 228.843C269.902 228.843 268.821 225.54 267.042 225.097C265.262 224.654 262.853 226.11 262.725 227.574C262.598 229.039 264.819 230.937 264.819 230.937C264.575 231.323 264.424 231.76 264.377 232.214C264.39 232.621 264.452 233.024 264.564 233.415C263.914 234.305 263.461 235.324 263.236 236.403C263.108 237.739 264.564 239.263 266.795 239.451C269.025 239.638 270.03 238.31 270.2 237.288C270.278 236.764 270.298 236.233 270.26 235.705C271.048 234.667 271.454 233.389 271.409 232.086C271.426 229.609 269.902 228.843 269.902 228.843Z" fill="white"/>
<path d="M268.225 229.737C268.509 229.528 268.774 229.295 269.017 229.039" stroke="#263238" stroke-width="0.5" stroke-linecap="round" stroke-linejoin="round"/>
<path d="M265.841 230.69C266.479 230.593 267.096 230.385 267.663 230.077" stroke="#263238" stroke-width="0.5" stroke-linecap="round" stroke-linejoin="round"/>
<path d="M265.33 233.61C265.33 233.61 268.565 233.287 269.842 235.194" stroke="#263238" stroke-width="0.5" stroke-linecap="round" stroke-linejoin="round"/>
<path d="M269.902 228.843C269.902 228.843 268.821 225.54 267.042 225.097C265.262 224.654 262.853 226.11 262.725 227.574C262.598 229.039 264.819 230.937 264.819 230.937C264.575 231.323 264.424 231.76 264.377 232.214C264.39 232.621 264.452 233.024 264.564 233.415C263.914 234.305 263.461 235.324 263.236 236.403C263.108 237.739 264.564 239.263 266.795 239.451C269.025 239.638 270.03 238.31 270.2 237.288C270.278 236.764 270.298 236.233 270.26 235.705C271.048 234.667 271.454 233.389 271.409 232.086C271.426 229.609 269.902 228.843 269.902 228.843Z" stroke="#263238" stroke-miterlimit="10"/>
<path d="M256.732 232.214C256.732 232.214 258.571 233.414 258.886 234.879C259.089 236.573 259.155 238.282 259.081 239.987L258.315 240.055C258.315 240.055 258.571 236.309 258.315 235.671C258.06 235.032 256.987 235.032 256.987 235.032C256.55 234.432 256.259 233.738 256.136 233.006C256.093 232.086 255.906 231.763 256.732 232.214Z" fill="white" stroke="#263238" stroke-width="0.5" stroke-linecap="round" stroke-linejoin="round"/>
<path d="M256.289 230.937C256.664 231.286 257.092 231.574 257.558 231.788C258.246 231.935 258.955 231.958 259.652 231.857L259.584 232.555C259.023 232.663 258.448 232.683 257.881 232.614C257.274 232.502 256.678 232.334 256.102 232.112C256.102 232.112 255.31 231.133 256.289 230.937Z" fill="white" stroke="#263238" stroke-width="0.5" stroke-linecap="round" stroke-linejoin="round"/>
<path d="M256.161 233.04L259.269 233.287L259.396 233.866C258.909 233.827 258.419 233.827 257.932 233.866C257.234 233.925 256.476 233.925 256.476 233.925C256.476 233.925 255.582 233.866 256.161 233.04Z" fill="white" stroke="#263238" stroke-width="0.5" stroke-linecap="round" stroke-linejoin="round"/>
<path d="M251.206 228.843C251.206 228.843 252.279 225.54 254.059 225.097C255.838 224.654 258.256 226.11 258.383 227.574C258.511 229.039 256.289 230.937 256.289 230.937C256.533 231.323 256.685 231.76 256.732 232.214C256.718 232.621 256.652 233.025 256.536 233.415C257.19 234.304 257.646 235.323 257.873 236.403C258 237.739 256.536 239.263 254.314 239.451C252.092 239.638 251.079 238.31 250.909 237.288C250.831 236.764 250.808 236.233 250.84 235.705C250.057 234.665 249.654 233.388 249.7 232.086C249.683 229.609 251.206 228.843 251.206 228.843Z" fill="#92E3A9"/>
<path opacity="0.58" d="M251.206 228.843C251.206 228.843 252.279 225.54 254.059 225.097C255.838 224.654 258.256 226.11 258.383 227.574C258.511 229.039 256.289 230.937 256.289 230.937C256.533 231.323 256.685 231.76 256.732 232.214C256.718 232.621 256.652 233.025 256.536 233.415C257.19 234.304 257.646 235.323 257.873 236.403C258 237.739 256.536 239.263 254.314 239.451C252.092 239.638 251.079 238.31 250.909 237.288C250.831 236.764 250.808 236.233 250.84 235.705C250.057 234.665 249.654 233.388 249.7 232.086C249.683 229.609 251.206 228.843 251.206 228.843Z" fill="white"/>
<path d="M252.884 229.737C252.598 229.53 252.332 229.297 252.092 229.039" stroke="#263238" stroke-width="0.5" stroke-linecap="round" stroke-linejoin="round"/>
<path d="M255.31 230.69C254.672 230.593 254.055 230.385 253.488 230.077" stroke="#263238" stroke-width="0.5" stroke-linecap="round" stroke-linejoin="round"/>
<path d="M255.778 233.61C255.778 233.61 252.535 233.287 251.266 235.194" stroke="#263238" stroke-width="0.5" stroke-linecap="round" stroke-linejoin="round"/>
<path d="M251.206 228.843C251.206 228.843 252.279 225.54 254.059 225.097C255.838 224.654 258.256 226.11 258.383 227.574C258.511 229.039 256.289 230.937 256.289 230.937C256.533 231.323 256.685 231.76 256.732 232.214C256.718 232.621 256.652 233.025 256.536 233.415C257.19 234.304 257.646 235.323 257.873 236.403C258 237.739 256.536 239.263 254.314 239.451C252.092 239.638 251.079 238.31 250.909 237.288C250.831 236.764 250.808 236.233 250.84 235.705C250.057 234.665 249.654 233.388 249.7 232.086C249.683 229.609 251.206 228.843 251.206 228.843Z" stroke="#263238" stroke-miterlimit="10"/>
<path d="M267.527 259.125C267.697 261.875 267.11 264.378 266.088 265.025C265.066 265.672 261.389 265.749 260.069 265.698C260.069 265.698 256.493 265.698 254.825 264.923C253.539 264.344 252.1 263.152 252.169 259.125H251.096C251.028 262.684 252.075 264.838 254.374 265.876C256.264 266.728 259.924 266.728 260.052 266.728C260.18 266.728 260.58 266.728 261.133 266.728C262.708 266.728 265.509 266.617 266.675 265.876C268.25 264.88 268.761 261.833 268.608 259.066L267.527 259.125Z" fill="#808080" stroke="#263238" stroke-linecap="round" stroke-linejoin="round"/>
<path d="M265.467 264.744C265.391 264.244 265.197 263.769 264.901 263.359C264.605 262.948 264.215 262.615 263.764 262.386C262.061 261.347 261.252 263.041 259.677 262.514C258.102 261.986 255.421 261.994 254.646 264.352C254.367 265.294 254.38 266.298 254.684 267.231C254.988 268.165 255.568 268.984 256.349 269.58C257.06 270.208 257.913 270.655 258.835 270.882C258.835 270.882 259.362 274.151 260.009 273.632C260.656 273.113 261.448 270.882 261.448 270.882C262.72 270.199 263.906 269.367 264.981 268.405C265.399 267.903 265.666 267.292 265.752 266.645C265.838 265.997 265.739 265.338 265.467 264.744V264.744Z" fill="#808080" stroke="#263238" stroke-linecap="round" stroke-linejoin="round"/>
<path d="M261.746 192.558C261.746 192.558 257.864 194.38 257.694 197.828C257.523 201.276 258.707 205.831 261.142 207.457C263.577 209.083 270.762 211.714 273.401 211.407C276.04 211.101 276.534 209.381 276.943 206.648C277.351 203.915 276.338 200.868 275.827 199.25C275.317 197.632 273.495 195.402 272.184 194.184C270.873 192.967 270.157 192.661 267.518 191.954C264.879 191.247 261.746 192.558 261.746 192.558Z" fill="#92E3A9"/>
<path opacity="0.58" d="M261.746 192.558C261.746 192.558 257.864 194.38 257.694 197.828C257.523 201.276 258.707 205.831 261.142 207.457C263.577 209.083 270.762 211.714 273.401 211.407C276.04 211.101 276.534 209.381 276.943 206.648C277.351 203.915 276.338 200.868 275.827 199.25C275.317 197.632 273.495 195.402 272.184 194.184C270.873 192.967 270.157 192.661 267.518 191.954C264.879 191.247 261.746 192.558 261.746 192.558Z" fill="white"/>
<path d="M261.746 192.558C261.746 192.558 257.864 194.38 257.694 197.828C257.523 201.276 258.707 205.831 261.142 207.457C263.577 209.083 270.762 211.714 273.401 211.407C276.04 211.101 276.534 209.381 276.943 206.648C277.351 203.915 276.338 200.868 275.827 199.25C275.317 197.632 273.495 195.402 272.184 194.184C270.873 192.967 270.157 192.661 267.518 191.954C264.879 191.247 261.746 192.558 261.746 192.558Z" stroke="#263238" stroke-miterlimit="10"/>
<path d="M263.875 195.802C263.875 195.802 261.848 195.504 261.746 192.558C261.644 189.613 264.683 186.284 264.683 186.284C264.385 185.623 264.047 184.98 263.67 184.36L262.759 182.734L264.275 182.129C264.721 182.564 265.128 183.037 265.492 183.543C265.799 184.053 266.403 185.245 266.403 185.245V182.691L268.029 182.589L268.531 185.526C268.531 185.526 268.233 184.82 270.558 185.628C272.882 186.437 273.801 188.77 273.903 190.592C273.879 192.105 273.641 193.606 273.197 195.053L269.791 192.499C269.791 192.499 270.098 188.651 268.574 188.957C267.05 189.264 267.263 190.779 266.25 193.01C265.237 195.24 263.875 195.802 263.875 195.802Z" fill="white" stroke="#263238" stroke-linecap="round" stroke-linejoin="round"/>
<path d="M265.526 194.38C265.526 194.38 267.552 189.613 269.579 188.906C270.862 188.386 272.251 188.179 273.631 188.302C274.346 188.404 274.644 189.715 274.644 191.034C274.644 192.354 272.72 191.741 271.605 192.958C270.49 194.176 270.694 196.364 270.694 196.364" fill="#92E3A9"/>
<path d="M265.526 194.38C265.526 194.38 267.552 189.613 269.579 188.906C270.862 188.386 272.251 188.179 273.631 188.302C274.346 188.404 274.644 189.715 274.644 191.034C274.644 192.354 272.72 191.741 271.605 192.958C270.49 194.176 270.694 196.364 270.694 196.364" stroke="#263238" stroke-linecap="round" stroke-linejoin="round"/>
<path d="M275.606 199.871C275.274 199.329 274.792 198.895 274.218 198.62L273.801 198.458C273.675 198.398 273.552 198.33 273.435 198.254C273.195 198.099 272.967 197.925 272.754 197.735C272.318 197.344 271.912 196.923 271.537 196.475L271 196.951C271.432 197.396 271.896 197.809 272.388 198.186L272.567 198.296C272.017 198.826 271.582 199.464 271.29 200.169C270.937 201.089 270.854 202.09 271.051 203.055C271.171 203.992 271.341 204.92 271.443 205.848C271.624 206.769 271.495 207.724 271.077 208.564C271.549 207.736 271.74 206.777 271.622 205.831C271.622 204.886 271.469 203.949 271.409 203.021C271.284 202.124 271.414 201.209 271.784 200.382C271.86 200.229 271.954 200.076 272.047 199.922C272.383 200.484 272.649 201.084 272.839 201.71C273.07 202.502 273.199 203.321 273.222 204.145C273.25 205.004 273.355 205.859 273.537 206.699C273.628 207.116 273.766 207.521 273.946 207.908C274.109 208.3 274.377 208.639 274.721 208.887C274.401 208.617 274.162 208.263 274.031 207.866C273.883 207.478 273.778 207.075 273.716 206.665C273.593 205.84 273.55 205.004 273.588 204.171C273.621 203.313 273.544 202.455 273.359 201.617C273.192 200.831 272.905 200.075 272.507 199.378C272.71 199.138 272.935 198.918 273.18 198.722V198.722C273.323 198.799 273.471 198.867 273.622 198.926L274.065 199.046C274.608 199.231 275.085 199.571 275.436 200.025C275.802 200.496 276.074 201.034 276.236 201.608C276.148 200.992 275.933 200.401 275.606 199.871V199.871Z" fill="#263238"/>
<path d="M264.377 200.663C263.951 200.467 263.575 200.176 263.279 199.812C263.06 199.523 262.912 199.188 262.844 198.833C263.127 198.577 263.381 198.292 263.602 197.981C264.206 197.21 264.54 196.262 264.556 195.283L263.517 195.879C263.422 196.455 263.198 197.002 262.861 197.479C262.506 198.016 262.082 198.506 261.601 198.935C260.931 199.501 260.21 200.006 259.448 200.442L258.732 200.825C258.562 200.919 258.383 201.004 258.205 201.089L258.741 200.97C258.77 201.416 258.847 201.859 258.971 202.289C259.147 202.92 259.435 203.514 259.822 204.043C260.2 204.552 260.619 205.031 261.074 205.473C261.518 205.921 262.009 206.321 262.538 206.665C262.052 206.27 261.61 205.825 261.218 205.337C260.823 204.861 260.462 204.357 260.137 203.83C259.825 203.305 259.609 202.728 259.499 202.127C259.401 201.672 259.367 201.205 259.396 200.74C259.66 200.655 259.916 200.561 260.171 200.459C260.825 200.193 261.447 199.856 262.027 199.454L262.274 199.267C262.418 199.583 262.617 199.871 262.861 200.118C263.237 200.507 263.702 200.799 264.215 200.97C265.146 201.324 266.043 201.76 266.897 202.272C266.107 201.661 265.264 201.122 264.377 200.663Z" fill="#263238"/>
</g>
<defs>
<filter id="filter0_d_28_623" x="200.75" y="118.971" width="229.974" height="279.238" filterUnits="userSpaceOnUse" color-interpolation-filters="sRGB">
<feFlood flood-opacity="0" result="BackgroundImageFix"/>
<feColorMatrix in="SourceAlpha" type="matrix" values="0 0 0 0 0 0 0 0 0 0 0 0 0 0 0 0 0 0 127 0" result="hardAlpha"/>
<feOffset dy="4"/>
<feGaussianBlur stdDeviation="2"/>
<feComposite in2="hardAlpha" operator="out"/>
<feColorMatrix type="matrix" values="0 0 0 0 0 0 0 0 0 0 0 0 0 0 0 0 0 0 0.25 0"/>
<feBlend mode="normal" in2="BackgroundImageFix" result="effect1_dropShadow_28_623"/>
<feBlend mode="normal" in="SourceGraphic" in2="effect1_dropShadow_28_623" result="shape"/>
</filter>
</defs>
</svg>
