<svg width="648" height="508" viewBox="0 0 648 508" fill="none" xmlns="http://www.w3.org/2000/svg">
<g filter="url(#filter0_d_24_3)">
<rect width="640" height="500" transform="translate(4)" fill="white"/>
<path d="M282.626 135.798C282.626 135.798 283.154 128.408 279.723 123.93C276.292 119.452 268.375 119.443 264.952 120.763C261.53 122.082 258.091 124.458 257.29 128.425C256.803 131.301 256.626 134.221 256.762 137.134C256.403 137.212 256.064 137.366 255.77 137.587C255.476 137.808 255.232 138.089 255.057 138.413C254.881 138.736 254.778 139.094 254.753 139.461C254.729 139.828 254.784 140.196 254.915 140.54C255.336 142.201 256.151 143.737 257.29 145.018C257.29 145.018 258.082 148.713 258.61 150.296C259.138 151.88 262.015 155.311 262.015 155.311C262.015 155.311 262.543 159.269 260.696 160.589C258.848 161.909 254.362 162.964 248.036 165.067C241.711 167.17 235.896 172.729 234.576 179.846C233.781 184.107 233.603 188.459 234.048 192.77L231.673 207.805C230.085 211.937 229.196 216.304 229.043 220.728C228.779 228.118 227.459 242.863 227.459 242.863C227.459 242.863 229.043 243.919 225.348 245.766C221.653 247.614 221.389 248.933 220.861 250.253C220.333 251.573 220.069 254.212 219.014 255.003C217.958 255.795 214.527 255.003 215.055 257.634C215.583 260.265 219.312 258.69 219.312 258.69L221.687 258.162V271.622C221.687 272.941 222.479 274.789 223.798 273.205C223.798 273.205 225.118 275.053 225.91 274.261L227.195 273.512C227.195 273.512 228.753 274.159 229.485 273.886C230.217 273.614 231.682 271.588 231.682 271.588C231.682 271.588 232.056 272.686 233.384 271.043C234.712 269.4 234.942 267.374 235.308 265.994C235.675 264.615 236.866 257.098 237.233 255.778C237.599 254.459 237.233 247.707 237.233 247.707L236.96 244.77C236.96 244.77 242.92 228.544 243.933 224.687C245.001 221.016 245.828 217.279 246.41 213.5C246.776 210.206 248.334 203.693 248.334 203.693L248.973 203.42C248.973 203.42 249.066 218.915 248.7 220.933C248.334 222.95 245.584 226.705 245.857 231.472C246.129 236.24 244.477 244.311 244.026 247.06C243.575 249.81 240.076 259.167 241.549 274.482C243.022 289.798 246.087 298.38 247.866 305.191C249.645 312.001 249.16 316.377 248.351 322.856C247.542 329.335 248.836 332.221 251.109 340.521C253.383 348.822 257.426 357.548 257.92 360.784C258.414 364.019 256.95 364.351 256.141 366.3C255.332 368.25 250.956 373.264 250.794 375.376C250.633 377.487 252.089 379.105 256.141 380.237C260.193 381.369 263.114 381.369 265.055 378.781C266.996 376.193 267.166 374.567 267.004 372.617C266.842 370.668 266.357 370.353 267.004 368.565C267.651 366.777 268.46 365.815 267.975 362.733C267.489 359.651 267.813 362.41 266.519 356.084C265.225 349.759 266.681 341.501 266.681 337.933C266.681 334.366 266.681 325.938 265.829 321.758C264.978 317.578 264.859 319.485 264.374 313.653C263.888 307.821 264.697 307.166 264.697 302.951C264.688 300.445 264.403 297.946 263.846 295.502C263.846 295.502 267.089 278.645 267.251 277.99C267.413 277.334 269.805 266.165 269.805 266.165C270.083 266.214 270.345 266.327 270.571 266.496C270.797 266.664 270.981 266.883 271.108 267.135C271.431 267.944 275.645 295.34 275.645 295.34C275.645 295.34 274.019 299.716 274.181 302.628C274.343 305.54 276.131 313.815 276.131 313.815C276.131 313.815 274.981 319.042 273.823 327.147C272.666 335.252 274.47 343.68 274.309 348.703C274.264 351.977 273.885 355.237 273.176 358.434C272.691 360.698 271.882 363.942 272.691 366.377L273.5 368.803C273.13 370.999 272.967 373.226 273.015 375.452C273.176 378.372 274.47 380.314 276.42 380.637C277.04 380.69 277.663 380.584 278.23 380.329C278.798 380.075 279.291 379.679 279.664 379.181C280.417 379.616 281.248 379.897 282.11 380.008C282.973 380.119 283.848 380.058 284.687 379.828C287.445 379.019 289.386 377.879 288.739 375.614C288.218 373.325 287.223 371.17 285.819 369.289C284.04 366.862 282.899 366.539 282.414 363.619C281.888 360.639 282.114 357.576 283.069 354.705C284.04 352.108 288.254 344.165 290.195 333.634C292.136 323.103 291.821 322.447 291.336 318.718C290.902 313.47 291.119 308.189 291.983 302.994C292.792 298.942 298.462 284.358 298.462 272.524C298.292 262.781 297.261 253.072 295.38 243.51C294.865 240.993 294.487 238.449 294.247 235.891C294.799 233.493 294.799 231.001 294.247 228.603C293.277 225.198 292.63 223.895 291.821 220.175C291.157 216.906 290.668 213.603 290.357 210.282V203.965C290.357 203.965 293.439 211.414 294.894 216.608C296.35 221.801 296.359 224.874 297.976 229.735C299.594 234.597 302.999 243.672 303.646 245.622C304.293 247.571 302.837 250.968 303.484 256.153C304.132 261.338 304.787 270.26 305.919 271.554C307.052 272.848 308.354 271.392 308.354 271.392C308.354 271.392 308.839 273.946 309.81 274.312C310.781 274.678 312.075 273.657 312.075 273.657C312.108 273.867 312.192 274.066 312.318 274.238C312.444 274.41 312.609 274.549 312.799 274.645C312.989 274.74 313.2 274.789 313.413 274.788C313.626 274.786 313.835 274.734 314.024 274.636C314.458 274.496 314.856 274.264 315.192 273.955C315.527 273.647 315.791 273.269 315.965 272.848C315.965 272.848 318.4 273.818 318.077 270.583C317.753 267.348 316.944 262.964 316.944 261.993C316.944 261.023 317.106 257.941 317.106 257.941C317.96 258.631 318.953 259.128 320.018 259.396C321.32 259.558 322.614 260.852 323.585 259.396C324.555 257.941 323.747 257.455 321.967 256.315C320.188 255.174 320.018 254.859 318.724 252.909C317.43 250.96 318.562 250.483 315.803 248.048C313.045 245.613 311.283 244.481 311.283 242.421C311.283 240.36 313.394 227.181 311.445 217.783C309.495 208.384 308.533 205.949 308.209 204.493C307.886 203.037 304.966 192.012 304.966 192.012C304.966 192.012 307.52 181.796 303.016 173.206C298.513 164.616 292.323 165.263 287.624 163.16C282.924 161.057 279.195 160.606 278.54 159.269C278.068 158.126 277.742 156.927 277.569 155.702C277.569 155.702 281.826 149.87 281.945 147.921L282.107 145.98C282.107 145.98 284.661 145.009 285.351 140.02C286.04 135.031 282.626 135.798 282.626 135.798Z" fill="white" stroke="#263238" stroke-width="0.5" stroke-linecap="round" stroke-linejoin="round"/>
<path d="M266.63 163.901C266.156 164.028 265.751 164.333 265.497 164.752C265.237 165.228 265.094 165.759 265.08 166.301C264.724 166.69 264.5 167.182 264.442 167.706C264.373 168.558 264.305 168.064 264.373 168.558C264.442 169.051 264.024 169.69 264.161 170.388C264.248 170.813 264.415 171.218 264.654 171.58C264.77 172.045 264.989 172.478 265.293 172.848C265.542 173.102 265.829 173.315 266.144 173.478C266.144 173.478 266.28 173.759 266.996 173.904L267.694 174.049L267.838 171.095C268.169 171.247 268.531 171.318 268.894 171.299H269.567C269.812 171.398 270.081 171.424 270.341 171.376C270.659 171.322 270.968 171.228 271.261 171.095L271.329 174.049C271.88 173.851 272.382 173.538 272.802 173.129L273.159 172.636C273.358 172.605 273.547 172.533 273.716 172.425C273.885 172.316 274.029 172.173 274.138 172.006C274.351 171.643 274.471 171.234 274.488 170.814C274.66 170.642 274.783 170.428 274.846 170.193C274.909 169.959 274.908 169.712 274.845 169.477L274.632 168.626C274.638 167.976 274.519 167.332 274.283 166.727C273.926 166.089 274.138 166.514 273.926 166.089C273.636 165.553 273.309 165.038 272.947 164.548C272.637 164.087 272.226 163.703 271.746 163.424C271.269 163.126 268.239 162.641 266.63 163.901Z" fill="#808080" stroke="#263238" stroke-linecap="round" stroke-linejoin="round"/>
<path d="M269.652 161.296C269.652 161.296 268.801 158.861 268.153 159.005C267.432 159.355 266.774 159.821 266.204 160.385C266.204 160.385 265.855 157.507 265.497 158.205C265.14 158.903 265.429 160.104 265.642 161.091C265.855 162.079 266.059 161.943 266.204 162.36C266.349 162.777 266.63 163.901 266.63 163.901L267.26 164.182C267.26 164.182 267.541 165.314 267.821 166.293C268.102 167.272 268.8 168.192 269.788 168.123C270.173 168.133 270.549 168.003 270.846 167.757C271.144 167.512 271.342 167.167 271.406 166.787C271.55 166.08 272.257 164.182 272.257 164.182L272.964 164.539C272.964 164.539 272.819 162.36 273.1 161.934C273.381 161.508 274.019 160.878 274.019 160.231C274.019 159.584 274.3 157.907 273.943 158.265C273.565 158.951 273.279 159.684 273.091 160.444C273.091 160.444 272.189 158.444 271.269 158.937C270.35 159.431 269.652 161.296 269.652 161.296Z" fill="white" stroke="#263238" stroke-linecap="round" stroke-linejoin="round"/>
<path d="M267.515 165.195C267.515 165.195 269.805 167.255 271.865 165.195" stroke="#263238" stroke-linecap="round" stroke-linejoin="round"/>
<path d="M267.26 164.182C267.26 164.182 267.515 164.548 268.111 164.088C268.707 163.628 268.962 163.679 268.962 163.679C269.207 163.865 269.507 163.961 269.814 163.952C270.118 163.908 270.408 163.797 270.665 163.628C270.665 163.628 271.397 164.411 271.627 164.318C271.826 164.25 272.031 164.205 272.24 164.182" fill="white"/>
<path d="M267.26 164.182C267.26 164.182 267.515 164.548 268.111 164.088C268.707 163.628 268.962 163.679 268.962 163.679C269.207 163.865 269.507 163.961 269.814 163.952C270.118 163.908 270.408 163.797 270.665 163.628C270.665 163.628 271.397 164.411 271.627 164.318C271.826 164.25 272.031 164.205 272.24 164.182" stroke="#263238" stroke-linecap="round" stroke-linejoin="round"/>
<path d="M268.111 164.097C268.111 164.097 268.656 165.152 269.482 165.288C270.307 165.425 271.321 164.233 271.321 164.233" stroke="#263238" stroke-linecap="round" stroke-linejoin="round"/>
<path d="M270.81 173.308H268.043V190.114L265.855 192.531L267.668 196.175L269.422 194.37L272.419 196.448L273.108 191.612L270.81 189.765V173.308Z" fill="white" stroke="#263238" stroke-linecap="round" stroke-linejoin="round"/>
<path d="M267.149 191.45C266.888 191.172 266.691 190.841 266.57 190.48C266.45 190.118 266.409 189.735 266.451 189.356C266.621 188.13 267.847 186.734 266.272 184.818C264.697 182.903 258.61 183.243 254.745 189.535C250.88 195.826 250.548 211.542 252.472 212.249C254.396 212.955 265.046 210.325 266.621 208.401C268.196 206.477 267.472 197.742 267.668 196.175C267.681 194.585 267.506 192.999 267.149 191.45V191.45Z" fill="#92E3A9" stroke="#263238" stroke-linecap="round" stroke-linejoin="round"/>
<path d="M271.908 191.45C272.167 191.171 272.363 190.84 272.483 190.479C272.604 190.117 272.646 189.735 272.606 189.356C272.427 188.13 271.21 186.734 272.776 184.818C274.343 182.903 280.438 183.243 284.312 189.535C288.186 195.826 288.501 211.542 286.585 212.249C284.67 212.955 274.002 210.325 272.427 208.401C270.852 206.477 271.576 197.742 271.38 196.175C271.374 194.585 271.551 193 271.908 191.45V191.45Z" fill="#92E3A9" stroke="#263238" stroke-linecap="round" stroke-linejoin="round"/>
<path d="M268.273 177.684H270.58" stroke="#263238" stroke-linecap="round" stroke-linejoin="round"/>
<path d="M268.273 181.941H270.58" stroke="#263238" stroke-linecap="round" stroke-linejoin="round"/>
<path d="M268.273 186.197H270.58" stroke="#263238" stroke-linecap="round" stroke-linejoin="round"/>
<path d="M268.273 190.463H270.58" stroke="#263238" stroke-linecap="round" stroke-linejoin="round"/>
<path d="M258.712 228.271C258.792 228.792 259.036 229.274 259.408 229.647C259.779 230.021 260.26 230.266 260.781 230.349C262.671 230.706 263.335 229.089 265.191 228.45C267.047 227.811 266.808 231.064 266.808 231.064H267.804C267.947 229.934 267.792 228.786 267.353 227.735C266.63 226.381 264.203 226.381 264.203 226.381C264.203 226.381 259.972 227.19 258.712 228.271Z" stroke="#263238" stroke-linecap="round" stroke-linejoin="round"/>
<path d="M286.892 213.117C286.892 213.117 287.036 214.999 285.564 215.535C284.091 216.071 283.563 215.935 283.29 216.735C283.018 217.536 282.226 222.746 278.353 223.282C274.479 223.819 272.87 222.346 272.87 222.346C272.87 222.346 269.133 225.819 266.996 226.356C264.859 226.892 262.739 227.156 261.113 228.229C259.475 229.301 257.729 230.197 255.903 230.902C254.438 231.43 254.702 233.039 252.829 232.102C250.956 231.166 251.629 229.293 251.901 228.092C252.174 226.892 253.102 225.683 252.429 222.482C251.756 219.281 251.629 217.272 252.429 214.599C252.99 212.911 254.038 211.426 255.441 210.333C256.844 209.239 258.539 208.584 260.313 208.452C264.859 207.915 272.606 210.589 273.006 210.725C273.406 210.861 273.806 209.022 276.616 209.388C279.425 209.754 281.954 210.989 283.163 211.091C284.372 211.193 286.594 210.972 286.892 213.117Z" fill="#92E3A9"/>
<path opacity="0.39" d="M286.892 213.117C286.892 213.117 287.036 214.999 285.564 215.535C284.091 216.071 283.563 215.935 283.29 216.735C283.018 217.536 282.226 222.746 278.353 223.282C274.479 223.819 272.87 222.346 272.87 222.346C272.87 222.346 269.133 225.819 266.996 226.356C264.859 226.892 262.739 227.156 261.113 228.229C259.475 229.301 257.729 230.197 255.903 230.902C254.438 231.43 254.702 233.039 252.829 232.102C250.956 231.166 251.629 229.293 251.901 228.092C252.174 226.892 253.102 225.683 252.429 222.482C251.756 219.281 251.629 217.272 252.429 214.599C252.99 212.911 254.038 211.426 255.441 210.333C256.844 209.239 258.539 208.584 260.313 208.452C264.859 207.915 272.606 210.589 273.006 210.725C273.406 210.861 273.806 209.022 276.616 209.388C279.425 209.754 281.954 210.989 283.163 211.091C284.372 211.193 286.594 210.972 286.892 213.117Z" fill="black"/>
<path d="M272.972 210.725C272.972 210.725 274.573 215.263 274.445 217.408C274.19 219.133 273.646 220.802 272.836 222.346" stroke="#263238" stroke-linecap="round" stroke-linejoin="round"/>
<path d="M286.892 213.117C286.892 213.117 287.036 214.999 285.564 215.535C284.091 216.071 283.563 215.935 283.29 216.735C283.018 217.536 282.226 222.746 278.353 223.282C274.479 223.819 272.87 222.346 272.87 222.346C272.87 222.346 269.133 225.819 266.996 226.356C264.859 226.892 262.739 227.156 261.113 228.229C259.475 229.301 257.729 230.197 255.903 230.902C254.438 231.43 254.702 233.039 252.829 232.102C250.956 231.166 251.629 229.293 251.901 228.092C252.174 226.892 253.102 225.683 252.429 222.482C251.756 219.281 251.629 217.272 252.429 214.599C252.99 212.911 254.038 211.426 255.441 210.333C256.844 209.239 258.539 208.584 260.313 208.452C264.859 207.915 272.606 210.589 273.006 210.725C273.406 210.861 273.806 209.022 276.616 209.388C279.425 209.754 281.954 210.989 283.163 211.091C284.372 211.193 286.594 210.972 286.892 213.117Z" stroke="#263238" stroke-miterlimit="10"/>
<path d="M271.457 201.888C271.457 203.778 272.521 207.43 273.585 208.613C274.649 209.797 275.118 207.081 279.485 206.485C283.852 205.889 288.101 210.503 287.147 216.761C286.194 223.018 276.65 234.937 268.715 236.112C260.781 237.287 259.155 227.735 258.21 227.028C257.265 226.322 255.494 234.58 255.494 234.58L251.952 233.166C251.952 233.166 254.43 223.955 255.732 222.184C257.035 220.413 260.091 221.009 260.925 223.487C261.76 225.964 263.871 226.322 266.349 223.725C268.826 221.128 270.716 214.36 269.541 212.742C268.366 211.125 267.89 201.292 267.89 201.292L267.634 196.184L269.388 194.379L271.346 196.184L271.457 201.888Z" fill="#808080" stroke="#263238" stroke-linecap="round" stroke-linejoin="round"/>
<path d="M257.869 245.545C258.537 245.628 259.173 245.878 259.718 246.272C260.262 246.667 260.698 247.193 260.985 247.801C261.836 249.844 263.25 251.036 265.404 250.491C266.713 250.148 267.858 249.348 268.63 248.235C268.63 248.235 269.167 248.448 271.542 249.308C273.917 250.168 274.232 251.785 274.232 251.785C274.232 251.785 274.556 252.867 279.289 250.168C284.023 247.469 285.249 240.59 284.244 235.21C283.239 229.829 283.061 226.271 280.26 226.058C277.459 225.845 272.504 227.599 265.94 227.147C259.376 226.696 259.129 224.261 257.188 226.296C255.247 228.331 255.281 230.91 255.817 235.414C256.354 239.918 255.715 245.869 257.869 245.545Z" fill="#92E3A9" stroke="#263238" stroke-linecap="round" stroke-linejoin="round"/>
<path d="M268.63 248.235C268.873 247.755 268.972 247.215 268.915 246.681C268.857 246.146 268.646 245.639 268.307 245.222C267.123 243.715 263.037 242.744 261.743 241.774C261.041 241.333 260.537 240.637 260.338 239.833" fill="#92E3A9"/>
<path d="M268.63 248.235C268.873 247.755 268.972 247.215 268.915 246.681C268.857 246.146 268.646 245.639 268.307 245.222C267.123 243.715 263.037 242.744 261.743 241.774C261.041 241.333 260.537 240.637 260.338 239.833" stroke="#263238" stroke-linecap="round" stroke-linejoin="round"/>
<path d="M263.999 242.31C264.435 242.014 264.929 241.813 265.449 241.721C265.968 241.628 266.501 241.646 267.013 241.774" fill="#92E3A9"/>
<path d="M263.999 242.31C264.435 242.014 264.929 241.813 265.449 241.721C265.968 241.628 266.501 241.646 267.013 241.774" stroke="#263238" stroke-linecap="round" stroke-linejoin="round"/>
<path d="M258.942 243.493C259.151 244.142 259.532 244.723 260.045 245.173C260.558 245.622 261.183 245.925 261.854 246.047C264.11 246.371 264.757 245.834 265.191 247.554" fill="#92E3A9"/>
<path d="M258.942 243.493C259.151 244.142 259.532 244.723 260.045 245.173C260.558 245.622 261.183 245.925 261.854 246.047C264.11 246.371 264.757 245.834 265.191 247.554" stroke="#263238" stroke-linecap="round" stroke-linejoin="round"/>
<path d="M258.295 237.364C258.295 237.364 258.406 236.07 260.125 236.929C261.845 237.789 261.53 238.547 263.36 238.87C265.191 239.194 269.064 239.194 270.171 240.479C270.48 240.849 270.674 241.299 270.732 241.777C270.789 242.254 270.707 242.738 270.495 243.17C270.495 243.17 270.708 241.884 272.538 243.817C274.368 245.749 274.59 246.507 274.59 246.507C274.59 246.507 276.633 244.362 278.353 245.222C278.6 244.696 278.816 244.155 279 243.604" fill="#92E3A9"/>
<path d="M258.295 237.364C258.295 237.364 258.406 236.07 260.125 236.929C261.845 237.789 261.53 238.547 263.36 238.87C265.191 239.194 269.064 239.194 270.171 240.479C270.48 240.849 270.674 241.299 270.732 241.777C270.789 242.254 270.707 242.738 270.495 243.17C270.495 243.17 270.708 241.884 272.538 243.817C274.368 245.749 274.59 246.507 274.59 246.507C274.59 246.507 276.633 244.362 278.353 245.222C278.6 244.696 278.816 244.155 279 243.604" stroke="#263238" stroke-linecap="round" stroke-linejoin="round"/>
<path d="M259.912 234.563C259.912 234.563 261.53 235.857 262.603 235.312C263.675 234.767 263.999 232.758 266.153 234.129C268.307 235.499 269.388 237.789 270.997 239.296C272.606 240.803 274.011 242.633 275.518 241.774C277.025 240.914 278.072 238.224 280.047 240.59" fill="#92E3A9"/>
<path d="M259.912 234.563C259.912 234.563 261.53 235.857 262.603 235.312C263.675 234.767 263.999 232.758 266.153 234.129C268.307 235.499 269.388 237.789 270.997 239.296C272.606 240.803 274.011 242.633 275.518 241.774C277.025 240.914 278.072 238.224 280.047 240.59" stroke="#263238" stroke-linecap="round" stroke-linejoin="round"/>
<path d="M275.203 229.063C276.199 230.496 276.788 232.174 276.905 233.916C276.794 235.558 276.064 237.098 274.862 238.223" fill="#92E3A9"/>
<path d="M275.203 229.063C276.199 230.496 276.788 232.174 276.905 233.916C276.794 235.558 276.064 237.098 274.862 238.223" stroke="#263238" stroke-linecap="round" stroke-linejoin="round"/>
<path d="M276.599 236.069C276.599 236.069 278.497 233.226 280.345 234.971Z" fill="#92E3A9"/>
<path d="M276.599 236.069C276.599 236.069 278.497 233.226 280.345 234.971" stroke="#263238" stroke-linecap="round" stroke-linejoin="round"/>
<path d="M270.997 239.296C271.651 238.87 272.176 238.274 272.518 237.572C272.86 236.871 273.005 236.089 272.938 235.312C272.863 234.583 272.631 233.879 272.26 233.247C271.888 232.615 271.385 232.071 270.784 231.651" fill="#92E3A9"/>
<path d="M270.997 239.296C271.651 238.87 272.176 238.274 272.518 237.572C272.86 236.871 273.005 236.089 272.938 235.312C272.863 234.583 272.631 233.879 272.26 233.247C271.888 232.615 271.385 232.071 270.784 231.651" stroke="#263238" stroke-linecap="round" stroke-linejoin="round"/>
<path d="M268.528 236.606C268.528 236.606 269.49 235.312 267.77 232.945C266.051 230.578 266.476 229.395 266.698 228.212" fill="#92E3A9"/>
<path d="M268.528 236.606C268.528 236.606 269.49 235.312 267.77 232.945C266.051 230.578 266.476 229.395 266.698 228.212" stroke="#263238" stroke-linecap="round" stroke-linejoin="round"/>
<path d="M259.351 228.212C259.2 228.743 259.199 229.307 259.35 229.839C259.5 230.371 259.795 230.851 260.202 231.225C261.598 232.298 262.679 230.255 264.833 231.651" fill="#92E3A9"/>
<path d="M259.351 228.212C259.2 228.743 259.199 229.307 259.35 229.839C259.5 230.371 259.795 230.851 260.202 231.225C261.598 232.298 262.679 230.255 264.833 231.651" stroke="#263238" stroke-linecap="round" stroke-linejoin="round"/>
<path d="M280.796 227.454C280.796 227.454 277.995 231.013 278.54 232.085Z" fill="#92E3A9"/>
<path d="M280.796 227.454C280.796 227.454 277.995 231.013 278.54 232.085" stroke="#263238" stroke-linecap="round" stroke-linejoin="round"/>
<path d="M282.839 228.637C284.264 228.637 285.419 227.482 285.419 226.058C285.419 224.633 284.264 223.478 282.839 223.478C281.415 223.478 280.26 224.633 280.26 226.058C280.26 227.482 281.415 228.637 282.839 228.637Z" fill="#92E3A9" stroke="#263238" stroke-linecap="round" stroke-linejoin="round"/>
<path d="M283.273 232.4C284.966 232.4 286.338 231.245 286.338 229.821C286.338 228.396 284.966 227.241 283.273 227.241C281.581 227.241 280.209 228.396 280.209 229.821C280.209 231.245 281.581 232.4 283.273 232.4Z" fill="#92E3A9" stroke="#263238" stroke-linecap="round" stroke-linejoin="round"/>
<path d="M286.415 233.72C286.704 235.116 285.564 236.529 283.903 236.878C282.243 237.227 280.634 236.367 280.345 234.971C280.055 233.575 281.196 232.162 282.899 231.813C284.601 231.464 286.125 232.323 286.415 233.72Z" fill="#92E3A9" stroke="#263238" stroke-linecap="round" stroke-linejoin="round"/>
<path d="M286.798 237.61C287.026 238.201 287.066 238.847 286.915 239.462C286.763 240.076 286.427 240.629 285.951 241.046C285.475 241.463 284.882 241.724 284.253 241.793C283.624 241.863 282.989 241.737 282.433 241.434C281.878 241.131 281.429 240.664 281.147 240.097C280.865 239.531 280.764 238.891 280.858 238.265C280.951 237.639 281.235 237.057 281.67 236.597C282.105 236.138 282.671 235.823 283.29 235.695C284.01 235.489 284.781 235.574 285.438 235.933C286.094 236.291 286.583 236.894 286.798 237.61V237.61Z" fill="#92E3A9" stroke="#263238" stroke-linecap="round" stroke-linejoin="round"/>
<path d="M286.875 242.353C287.094 242.938 287.128 243.576 286.973 244.181C286.818 244.787 286.481 245.33 286.007 245.738C285.534 246.146 284.947 246.399 284.326 246.463C283.704 246.527 283.078 246.399 282.531 246.097C281.984 245.794 281.544 245.331 281.268 244.77C280.993 244.209 280.896 243.577 280.991 242.959C281.086 242.342 281.368 241.768 281.799 241.315C282.23 240.863 282.789 240.553 283.401 240.428C284.117 240.226 284.884 240.314 285.534 240.675C286.185 241.035 286.667 241.638 286.875 242.353V242.353Z" fill="#92E3A9" stroke="#263238" stroke-linecap="round" stroke-linejoin="round"/>
<path d="M285.589 246.55C285.807 247.135 285.841 247.773 285.686 248.377C285.531 248.982 285.195 249.525 284.722 249.933C284.249 250.341 283.662 250.594 283.041 250.659C282.42 250.723 281.794 250.596 281.248 250.294C280.701 249.992 280.26 249.529 279.984 248.969C279.708 248.409 279.61 247.778 279.704 247.16C279.798 246.543 280.078 245.969 280.508 245.516C280.937 245.063 281.495 244.752 282.107 244.626C282.824 244.427 283.59 244.518 284.241 244.877C284.891 245.237 285.376 245.837 285.589 246.55V246.55Z" fill="#92E3A9" stroke="#263238" stroke-linecap="round" stroke-linejoin="round"/>
<path d="M284.082 249.453C284.303 250.039 284.338 250.678 284.182 251.285C284.027 251.892 283.69 252.436 283.215 252.845C282.741 253.253 282.152 253.506 281.529 253.569C280.906 253.632 280.279 253.502 279.732 253.197C279.185 252.892 278.745 252.426 278.472 251.863C278.198 251.3 278.105 250.666 278.203 250.048C278.301 249.429 278.587 248.856 279.022 248.406C279.457 247.955 280.02 247.649 280.634 247.529C281.346 247.338 282.105 247.433 282.748 247.792C283.392 248.151 283.87 248.747 284.082 249.453Z" fill="#92E3A9" stroke="#263238" stroke-linecap="round" stroke-linejoin="round"/>
<path d="M281.171 251.07C281.389 251.655 281.423 252.293 281.268 252.898C281.113 253.503 280.776 254.046 280.303 254.454C279.83 254.862 279.244 255.115 278.623 255.179C278.002 255.244 277.376 255.116 276.829 254.814C276.282 254.512 275.842 254.05 275.566 253.49C275.29 252.93 275.192 252.298 275.285 251.681C275.379 251.064 275.66 250.49 276.089 250.037C276.519 249.583 277.077 249.273 277.689 249.146C278.405 248.943 279.173 249.032 279.825 249.392C280.477 249.752 280.961 250.355 281.171 251.07V251.07Z" fill="#92E3A9" stroke="#263238" stroke-linecap="round" stroke-linejoin="round"/>
<path d="M278.267 252.364C278.486 252.949 278.52 253.587 278.365 254.192C278.21 254.797 277.873 255.34 277.4 255.748C276.927 256.156 276.341 256.409 275.72 256.473C275.099 256.538 274.473 256.41 273.926 256.108C273.379 255.806 272.938 255.344 272.663 254.784C272.387 254.224 272.289 253.592 272.382 252.975C272.476 252.358 272.756 251.784 273.186 251.331C273.616 250.877 274.174 250.567 274.785 250.44C275.502 250.237 276.27 250.326 276.922 250.686C277.574 251.046 278.058 251.649 278.267 252.364V252.364Z" fill="#92E3A9" stroke="#263238" stroke-linecap="round" stroke-linejoin="round"/>
<path d="M274.675 253.114C274.964 254.51 273.619 255.974 271.678 256.374C269.737 256.774 267.924 255.966 267.634 254.569C267.345 253.173 268.69 251.709 270.631 251.309C272.572 250.909 274.428 251.717 274.675 253.114Z" fill="#92E3A9" stroke="#263238" stroke-linecap="round" stroke-linejoin="round"/>
<path d="M279.076 228.739C280.501 228.739 281.656 227.584 281.656 226.16C281.656 224.735 280.501 223.58 279.076 223.58C277.652 223.58 276.497 224.735 276.497 226.16C276.497 227.584 277.652 228.739 279.076 228.739Z" fill="#92E3A9" stroke="#263238" stroke-linecap="round" stroke-linejoin="round"/>
<path d="M275.203 229.063C276.975 229.063 278.412 228.007 278.412 226.705C278.412 225.402 276.975 224.346 275.203 224.346C273.43 224.346 271.993 225.402 271.993 226.705C271.993 228.007 273.43 229.063 275.203 229.063Z" fill="#92E3A9" stroke="#263238" stroke-linecap="round" stroke-linejoin="round"/>
<path d="M259.827 226.287C259.863 226.816 259.739 227.342 259.472 227.799C259.205 228.256 258.806 228.622 258.328 228.849C257.85 229.077 257.315 229.155 256.792 229.075C256.268 228.994 255.782 228.758 255.394 228.397C255.007 228.036 254.738 227.567 254.62 227.05C254.503 226.534 254.544 225.995 254.737 225.502C254.931 225.009 255.268 224.586 255.705 224.287C256.142 223.989 256.659 223.828 257.188 223.827C257.864 223.804 258.522 224.05 259.017 224.512C259.511 224.973 259.803 225.611 259.827 226.287V226.287Z" fill="#92E3A9" stroke="#263238" stroke-linecap="round" stroke-linejoin="round"/>
<path d="M255.664 231.217C256.995 231.217 258.073 230.199 258.073 228.944C258.073 227.688 256.995 226.671 255.664 226.671C254.334 226.671 253.255 227.688 253.255 228.944C253.255 230.199 254.334 231.217 255.664 231.217Z" fill="#92E3A9" stroke="#263238" stroke-linecap="round" stroke-linejoin="round"/>
<path d="M258.116 232.204C258.142 232.686 258.022 233.164 257.773 233.577C257.524 233.99 257.157 234.318 256.719 234.52C256.281 234.722 255.792 234.788 255.317 234.709C254.841 234.63 254.4 234.411 254.05 234.079C253.701 233.746 253.459 233.317 253.356 232.846C253.253 232.375 253.294 231.884 253.474 231.436C253.653 230.989 253.962 230.605 254.362 230.335C254.762 230.065 255.233 229.922 255.715 229.923C256.023 229.915 256.329 229.968 256.616 230.078C256.903 230.188 257.165 230.354 257.388 230.566C257.611 230.778 257.79 231.032 257.915 231.313C258.04 231.594 258.108 231.897 258.116 232.204Z" fill="#92E3A9" stroke="#263238" stroke-linecap="round" stroke-linejoin="round"/>
<path d="M258.227 235.405C258.254 235.887 258.136 236.365 257.889 236.779C257.641 237.193 257.275 237.523 256.838 237.726C256.401 237.929 255.912 237.997 255.436 237.92C254.96 237.843 254.519 237.625 254.168 237.294C253.817 236.963 253.574 236.535 253.469 236.064C253.365 235.593 253.404 235.102 253.581 234.654C253.759 234.206 254.067 233.821 254.466 233.55C254.864 233.278 255.335 233.133 255.817 233.132C256.438 233.116 257.039 233.346 257.491 233.772C257.942 234.198 258.207 234.785 258.227 235.405Z" fill="#92E3A9" stroke="#263238" stroke-linecap="round" stroke-linejoin="round"/>
<path d="M258.337 238.743C258.363 239.225 258.243 239.703 257.994 240.116C257.744 240.529 257.377 240.858 256.938 241.059C256.5 241.261 256.011 241.326 255.535 241.247C255.059 241.167 254.618 240.947 254.269 240.614C253.919 240.281 253.678 239.851 253.576 239.379C253.475 238.907 253.517 238.416 253.697 237.968C253.878 237.521 254.189 237.138 254.59 236.869C254.99 236.601 255.463 236.458 255.945 236.461C256.564 236.45 257.162 236.683 257.61 237.11C258.058 237.537 258.32 238.124 258.337 238.743V238.743Z" fill="#92E3A9" stroke="#263238" stroke-linecap="round" stroke-linejoin="round"/>
<path d="M256.362 244.464C257.693 244.464 258.772 243.446 258.772 242.191C258.772 240.935 257.693 239.917 256.362 239.917C255.032 239.917 253.953 240.935 253.953 242.191C253.953 243.446 255.032 244.464 256.362 244.464Z" fill="#92E3A9" stroke="#263238" stroke-linecap="round" stroke-linejoin="round"/>
<path d="M273.985 226.909C273.985 228.271 272.504 229.369 270.682 229.369C268.86 229.369 267.387 228.271 267.387 226.909C267.387 225.547 268.86 224.449 270.682 224.449C272.504 224.449 273.985 225.547 273.985 226.909Z" fill="#92E3A9" stroke="#263238" stroke-linecap="round" stroke-linejoin="round"/>
<path d="M265.94 229.608C267.586 229.608 268.92 228.506 268.92 227.147C268.92 225.789 267.586 224.687 265.94 224.687C264.294 224.687 262.96 225.789 262.96 227.147C262.96 228.506 264.294 229.608 265.94 229.608Z" fill="#92E3A9" stroke="#263238" stroke-linecap="round" stroke-linejoin="round"/>
<path d="M263.812 226.722C263.849 227.252 263.726 227.782 263.459 228.241C263.191 228.701 262.792 229.069 262.312 229.298C261.832 229.527 261.294 229.607 260.769 229.526C260.243 229.445 259.754 229.208 259.365 228.846C258.976 228.483 258.705 228.012 258.588 227.493C258.471 226.975 258.512 226.433 258.707 225.938C258.902 225.443 259.242 225.019 259.681 224.72C260.121 224.421 260.641 224.261 261.172 224.261C261.848 224.238 262.506 224.484 263.001 224.946C263.496 225.407 263.787 226.046 263.812 226.722V226.722Z" fill="#92E3A9" stroke="#263238" stroke-linecap="round" stroke-linejoin="round"/>
<path d="M256.575 248.227C258 248.227 259.155 247.072 259.155 245.647C259.155 244.223 258 243.068 256.575 243.068C255.15 243.068 253.996 244.223 253.996 245.647C253.996 247.072 255.15 248.227 256.575 248.227Z" fill="#92E3A9" stroke="#263238" stroke-linecap="round" stroke-linejoin="round"/>
<path d="M267.668 254.569C267.458 255.066 267.349 255.6 267.349 256.14C267.349 256.68 267.458 257.214 267.668 257.711C268.315 259.754 267.566 261.474 268.102 262.768C268.639 264.062 269.933 264.275 270.367 263.619C270.801 262.964 270.469 261.142 270.682 259.856C270.947 258.67 271.294 257.504 271.721 256.366C271.721 256.366 268.426 256.808 267.668 254.569Z" fill="#92E3A9" stroke="#263238" stroke-linecap="round" stroke-linejoin="round"/>
<path d="M256.575 248.235C257.027 248.524 257.427 248.887 257.759 249.308C258.516 250.159 258.516 249.844 258.082 251.138C257.648 252.432 257.546 253.616 258.193 252.841C258.84 252.066 259.7 250.789 259.376 249.606C259.16 248.868 258.752 248.201 258.193 247.673L256.575 248.235Z" fill="#92E3A9" stroke="#263238" stroke-linecap="round" stroke-linejoin="round"/>
<path d="M261.53 139.714C261.53 139.714 264.135 142.191 266.102 142.319C267.356 142.38 268.61 142.186 269.788 141.749C271.452 142.227 273.211 142.271 274.896 141.876C277.314 141.178 276.999 137.747 276.999 137.747L269.686 135.261L261.53 139.714Z" fill="white" stroke="#263238" stroke-width="0.5" stroke-linecap="round" stroke-linejoin="round"/>
<path d="M263.752 141.434C264.79 141.608 265.857 141.412 266.766 140.88" stroke="#263238" stroke-width="0.5" stroke-linecap="round" stroke-linejoin="round"/>
<path d="M265.404 142.191C266.094 142.074 266.774 141.903 267.438 141.68" stroke="#263238" stroke-width="0.5" stroke-linecap="round" stroke-linejoin="round"/>
<path d="M271.695 141.553L273.806 142.013" stroke="#263238" stroke-width="0.5" stroke-linecap="round" stroke-linejoin="round"/>
<path d="M272.265 140.54C273.314 141.172 274.538 141.447 275.756 141.323" stroke="#263238" stroke-width="0.5" stroke-linecap="round" stroke-linejoin="round"/>
<path d="M265.659 140.029C265.659 140.029 268.213 140.88 268.213 144.992H270.767C270.767 144.992 271.15 141.587 272.93 139.586L273.628 138.888C272.968 138.351 272.215 137.941 271.406 137.679C269.754 137.041 270.009 137.168 268 137.62C266.527 137.952 265.208 139.714 265.208 139.714L265.659 140.029Z" fill="white" stroke="#263238" stroke-linecap="round" stroke-linejoin="round"/>
<path d="M269.567 125.096C269.567 125.096 268.239 123.632 266.962 123.887C265.685 124.143 260.866 127.446 259.912 128.782C259.2 129.941 258.9 131.306 259.061 132.656C259.189 132.98 259.376 133.354 259.376 133.354C259.376 133.354 258.167 134.435 258.993 136.76C259.819 139.084 261.215 140.063 262.398 140.318C263.497 140.602 264.659 140.513 265.702 140.063C266.336 139.672 266.95 139.249 267.54 138.794C267.909 138.822 268.28 138.774 268.629 138.654C268.979 138.534 269.301 138.344 269.575 138.096C269.901 138.444 270.318 138.694 270.778 138.817C271.238 138.941 271.724 138.933 272.18 138.794C272.589 139.383 273.144 139.857 273.79 140.168C274.436 140.48 275.151 140.62 275.867 140.574C276.958 140.494 277.996 140.069 278.83 139.36C279.664 138.652 280.251 137.696 280.506 136.632C280.784 135.418 280.653 134.145 280.132 133.014C280.225 131.036 279.592 129.092 278.353 127.548C276.25 124.875 273.713 124.56 272.436 124.143C271.159 123.725 269.567 125.096 269.567 125.096Z" fill="#92E3A9" stroke="#263238" stroke-linecap="round" stroke-linejoin="round"/>
<path d="M269.533 138.062V125.096" stroke="#263238" stroke-width="0.5" stroke-linecap="round" stroke-linejoin="round"/>
<path d="M269.405 129.191C269.151 129.183 268.902 129.121 268.674 129.011C268.445 128.902 268.242 128.745 268.077 128.553C267.566 127.914 266.996 128.808 266.868 127.701C266.74 126.595 266.8 125.854 266.357 125.794C266.073 125.813 265.797 125.9 265.554 126.048C265.311 126.197 265.108 126.401 264.961 126.646" stroke="#263238" stroke-width="0.5" stroke-linecap="round" stroke-linejoin="round"/>
<path d="M266.928 126.492C267.27 126.226 267.499 125.84 267.566 125.411" stroke="#263238" stroke-width="0.5" stroke-linecap="round" stroke-linejoin="round"/>
<path d="M265.846 129.353L264.893 128.468L265.216 127.701" stroke="#263238" stroke-width="0.5" stroke-linecap="round" stroke-linejoin="round"/>
<path d="M264.893 128.468C264.592 128.704 264.335 128.992 264.135 129.319C264.02 129.54 263.934 129.774 263.88 130.017" stroke="#263238" stroke-width="0.5" stroke-linecap="round" stroke-linejoin="round"/>
<path d="M269.567 133.167C269.289 133.602 268.92 133.97 268.485 134.248C267.787 134.691 266.263 133.933 265.821 133.482C265.378 133.031 264.74 131.26 264.297 130.622C263.854 129.983 263.446 129.77 262.773 130.119C262.353 130.416 262.039 130.84 261.879 131.328" stroke="#263238" stroke-width="0.5" stroke-linecap="round" stroke-linejoin="round"/>
<path d="M268.264 130.945C268.264 130.945 267.881 131.703 267.753 132.026C267.626 132.35 267.498 131.073 266.902 130.434" stroke="#263238" stroke-width="0.5" stroke-linecap="round" stroke-linejoin="round"/>
<path d="M264.893 132.341C264.893 132.341 264.322 133.107 264.041 133.192" stroke="#263238" stroke-width="0.5" stroke-linecap="round" stroke-linejoin="round"/>
<path d="M264.459 135.329C264.377 135.4 264.282 135.452 264.179 135.484C264.076 135.516 263.967 135.526 263.86 135.514C263.753 135.502 263.65 135.468 263.556 135.414C263.463 135.361 263.382 135.288 263.318 135.202C262.747 134.563 262.552 134.35 262.041 134.35C261.649 134.375 261.265 134.462 260.9 134.606" stroke="#263238" stroke-width="0.5" stroke-linecap="round" stroke-linejoin="round"/>
<path d="M262.228 127.957C262.228 127.957 260.636 129.166 260.381 130.374C260.264 131.46 260.44 132.556 260.891 133.55C261.079 133.933 260.193 134.308 260.764 135.253C261.218 135.949 261.752 136.589 262.356 137.16C263.302 136.958 264.281 136.981 265.216 137.228C266.024 137.662 266.788 138.172 267.498 138.752" stroke="#263238" stroke-width="0.5" stroke-linecap="round" stroke-linejoin="round"/>
<path d="M262.356 137.168C262.077 137.244 261.832 137.411 261.659 137.643C261.486 137.874 261.396 138.157 261.402 138.445C261.275 139.586 262.254 139.969 263.369 140.225" stroke="#263238" stroke-width="0.5" stroke-linecap="round" stroke-linejoin="round"/>
<path d="M260.891 133.55C260.891 133.55 259.938 132.98 259.368 133.354" stroke="#263238" stroke-width="0.5" stroke-linecap="round" stroke-linejoin="round"/>
<path d="M258.925 136.215C258.925 136.215 259.683 137.109 260.381 137.109" stroke="#263238" stroke-width="0.5" stroke-linecap="round" stroke-linejoin="round"/>
<path d="M264.135 125.667C264.135 125.667 263.284 126.177 263.284 126.518C263.284 126.858 264.493 127.276 264.493 127.276" stroke="#263238" stroke-width="0.5" stroke-linecap="round" stroke-linejoin="round"/>
<path d="M263.752 127.19L263.113 128.272" stroke="#263238" stroke-width="0.5" stroke-linecap="round" stroke-linejoin="round"/>
<path d="M268.009 126.875C268.193 126.406 268.427 125.958 268.707 125.539C269.03 125.156 269.558 126.05 269.558 126.05C269.558 126.05 270.639 124.909 270.954 126.05" stroke="#263238" stroke-width="0.5" stroke-linecap="round" stroke-linejoin="round"/>
<path d="M268.707 125.539L268.264 124.841" stroke="#263238" stroke-width="0.5" stroke-linecap="round" stroke-linejoin="round"/>
<path d="M274.556 127.003C274.556 127.003 273.091 125.862 272.589 126.62C272.087 127.378 272.717 128.655 271.635 129.293C271.049 129.666 270.343 129.803 269.66 129.676" stroke="#263238" stroke-width="0.5" stroke-linecap="round" stroke-linejoin="round"/>
<path d="M270.997 131.83C270.997 131.83 271.125 132.026 271.695 131.643C272.265 131.26 272.138 130.792 272.717 130.306" stroke="#263238" stroke-width="0.5" stroke-linecap="round" stroke-linejoin="round"/>
<path d="M269.473 133.933C269.473 133.933 271.823 134.785 272.717 133.933C273.611 133.082 273.347 132.231 273.73 131.771C274.113 131.311 275.066 130.502 274.939 129.796C274.807 129.323 274.503 128.916 274.087 128.655" stroke="#263238" stroke-width="0.5" stroke-linecap="round" stroke-linejoin="round"/>
<path d="M274.939 129.796C275.129 129.684 275.341 129.616 275.56 129.595C275.779 129.575 276 129.602 276.207 129.676" stroke="#263238" stroke-width="0.5" stroke-linecap="round" stroke-linejoin="round"/>
<path d="M273.73 131.745C273.885 132.093 274.113 132.403 274.398 132.655C274.683 132.908 275.018 133.097 275.381 133.21" stroke="#263238" stroke-width="0.5" stroke-linecap="round" stroke-linejoin="round"/>
<path d="M278.625 131.643C278.797 132.68 278.753 133.74 278.497 134.759C278.055 135.968 277.731 136.087 277.731 136.087C276.736 136.022 275.74 136.176 274.811 136.538C273.67 137.109 272.717 137.168 272.257 137.994L271.814 138.846" stroke="#263238" stroke-width="0.5" stroke-linecap="round" stroke-linejoin="round"/>
<path d="M277.731 136.087C277.731 136.087 279.706 136.598 279.323 137.875" stroke="#263238" stroke-width="0.5" stroke-linecap="round" stroke-linejoin="round"/>
<path d="M279.264 136.794C279.264 136.794 279.894 136.47 279.894 135.142" stroke="#263238" stroke-width="0.5" stroke-linecap="round" stroke-linejoin="round"/>
<path d="M280.089 132.98L278.94 132.784" stroke="#263238" stroke-width="0.5" stroke-linecap="round" stroke-linejoin="round"/>
<path d="M277.161 127.769C277.379 127.792 277.583 127.889 277.738 128.044C277.893 128.199 277.99 128.403 278.012 128.621L278.14 129.378C278.14 129.378 279.408 129.762 279.034 130.715" stroke="#263238" stroke-width="0.5" stroke-linecap="round" stroke-linejoin="round"/>
<path d="M275.526 125.786C275.753 126.069 275.92 126.396 276.018 126.745C276.116 127.095 276.143 127.46 276.097 127.82" stroke="#263238" stroke-width="0.5" stroke-linecap="round" stroke-linejoin="round"/>
<path d="M272.019 124.934C272.642 124.825 273.285 124.911 273.858 125.181" stroke="#263238" stroke-width="0.5" stroke-linecap="round" stroke-linejoin="round"/>
<path d="M272.265 137.994C272.265 137.994 274.3 139.697 276.463 138.845" stroke="#263238" stroke-width="0.5" stroke-linecap="round" stroke-linejoin="round"/>
<path d="M276.02 137.747C276.258 137.682 276.507 137.667 276.751 137.703C276.995 137.739 277.229 137.825 277.438 137.956C277.647 138.088 277.827 138.261 277.965 138.465C278.103 138.67 278.198 138.901 278.242 139.143" stroke="#263238" stroke-width="0.5" stroke-linecap="round" stroke-linejoin="round"/>
<path d="M272.121 135.261C272.121 135.261 270.724 135.389 270.98 136.342" stroke="#263238" stroke-width="0.5" stroke-linecap="round" stroke-linejoin="round"/>
<path d="M276.148 132.026C276.148 132.026 276.65 131.958 277.416 130.945" stroke="#263238" stroke-width="0.5" stroke-linecap="round" stroke-linejoin="round"/>
<path d="M276.846 131.643L276.973 132.529" stroke="#263238" stroke-width="0.5" stroke-linecap="round" stroke-linejoin="round"/>
<path d="M265.846 136.002C266.011 136.232 266.22 136.425 266.461 136.572C266.703 136.718 266.971 136.814 267.251 136.853C267.542 136.91 267.842 136.899 268.128 136.823C268.414 136.746 268.679 136.605 268.903 136.411" stroke="#263238" stroke-width="0.5" stroke-linecap="round" stroke-linejoin="round"/>
<path d="M278.497 134.759C277.995 134.348 277.367 134.123 276.718 134.12" stroke="#263238" stroke-width="0.5" stroke-linecap="round" stroke-linejoin="round"/>
<path d="M263.113 131.643C262.892 131.771 262.702 131.945 262.555 132.154C262.408 132.363 262.308 132.601 262.262 132.852" stroke="#263238" stroke-width="0.5" stroke-linecap="round" stroke-linejoin="round"/>
<path d="M274.377 223.214C274.377 223.214 272.538 224.414 272.214 225.879C272.017 227.574 271.954 229.282 272.027 230.987L272.793 231.055C272.793 231.055 272.538 227.309 272.793 226.671C273.049 226.032 274.121 226.032 274.121 226.032C274.558 225.432 274.849 224.738 274.973 224.006C275.015 223.086 275.203 222.763 274.377 223.214Z" fill="white" stroke="#263238" stroke-width="0.5" stroke-linecap="round" stroke-linejoin="round"/>
<path d="M274.819 221.937C274.444 222.286 274.016 222.574 273.551 222.788C272.862 222.935 272.153 222.958 271.457 222.856L271.516 223.555C272.077 223.662 272.652 223.682 273.219 223.614C273.826 223.502 274.422 223.334 274.998 223.112C274.998 223.112 275.841 222.133 274.819 221.937Z" fill="white" stroke="#263238" stroke-width="0.5" stroke-linecap="round" stroke-linejoin="round"/>
<path d="M274.947 224.04L271.84 224.287L271.712 224.866C272.197 224.827 272.683 224.827 273.168 224.866C273.866 224.925 274.632 224.925 274.632 224.925C274.632 224.925 275.526 224.866 274.947 224.04Z" fill="white" stroke="#263238" stroke-width="0.5" stroke-linecap="round" stroke-linejoin="round"/>
<path d="M279.902 219.843C279.902 219.843 278.821 216.54 277.042 216.097C275.262 215.654 272.853 217.11 272.725 218.574C272.598 220.039 274.819 221.937 274.819 221.937C274.575 222.323 274.424 222.76 274.377 223.214C274.39 223.62 274.452 224.024 274.564 224.415C273.914 225.305 273.461 226.324 273.236 227.403C273.108 228.739 274.564 230.263 276.795 230.451C279.025 230.638 280.03 229.31 280.2 228.288C280.278 227.764 280.298 227.233 280.26 226.705C281.048 225.667 281.454 224.389 281.409 223.086C281.426 220.609 279.902 219.843 279.902 219.843Z" fill="#92E3A9"/>
<path opacity="0.58" d="M279.902 219.843C279.902 219.843 278.821 216.54 277.042 216.097C275.262 215.654 272.853 217.11 272.725 218.574C272.598 220.039 274.819 221.937 274.819 221.937C274.575 222.323 274.424 222.76 274.377 223.214C274.39 223.62 274.452 224.024 274.564 224.415C273.914 225.305 273.461 226.324 273.236 227.403C273.108 228.739 274.564 230.263 276.795 230.451C279.025 230.638 280.03 229.31 280.2 228.288C280.278 227.764 280.298 227.233 280.26 226.705C281.048 225.667 281.454 224.389 281.409 223.086C281.426 220.609 279.902 219.843 279.902 219.843Z" fill="white"/>
<path d="M278.225 220.737C278.509 220.528 278.774 220.294 279.017 220.039" stroke="#263238" stroke-width="0.5" stroke-linecap="round" stroke-linejoin="round"/>
<path d="M275.841 221.69C276.479 221.593 277.096 221.385 277.663 221.077" stroke="#263238" stroke-width="0.5" stroke-linecap="round" stroke-linejoin="round"/>
<path d="M275.33 224.61C275.33 224.61 278.565 224.287 279.842 226.194" stroke="#263238" stroke-width="0.5" stroke-linecap="round" stroke-linejoin="round"/>
<path d="M279.902 219.843C279.902 219.843 278.821 216.54 277.042 216.097C275.262 215.654 272.853 217.11 272.725 218.574C272.598 220.039 274.819 221.937 274.819 221.937C274.575 222.323 274.424 222.76 274.377 223.214C274.39 223.62 274.452 224.024 274.564 224.415C273.914 225.305 273.461 226.324 273.236 227.403C273.108 228.739 274.564 230.263 276.795 230.451C279.025 230.638 280.03 229.31 280.2 228.288C280.278 227.764 280.298 227.233 280.26 226.705C281.048 225.667 281.454 224.389 281.409 223.086C281.426 220.609 279.902 219.843 279.902 219.843Z" stroke="#263238" stroke-miterlimit="10"/>
<path d="M266.732 223.214C266.732 223.214 268.571 224.414 268.886 225.879C269.089 227.573 269.155 229.282 269.081 230.987L268.315 231.055C268.315 231.055 268.571 227.309 268.315 226.671C268.06 226.032 266.987 226.032 266.987 226.032C266.55 225.432 266.259 224.738 266.136 224.006C266.093 223.086 265.906 222.763 266.732 223.214Z" fill="white" stroke="#263238" stroke-width="0.5" stroke-linecap="round" stroke-linejoin="round"/>
<path d="M266.289 221.937C266.664 222.286 267.092 222.574 267.558 222.788C268.246 222.935 268.955 222.958 269.652 222.856L269.584 223.555C269.023 223.663 268.448 223.683 267.881 223.614C267.274 223.502 266.678 223.334 266.102 223.112C266.102 223.112 265.31 222.133 266.289 221.937Z" fill="white" stroke="#263238" stroke-width="0.5" stroke-linecap="round" stroke-linejoin="round"/>
<path d="M266.161 224.04L269.269 224.287L269.396 224.866C268.909 224.827 268.419 224.827 267.932 224.866C267.234 224.925 266.476 224.925 266.476 224.925C266.476 224.925 265.582 224.866 266.161 224.04Z" fill="white" stroke="#263238" stroke-width="0.5" stroke-linecap="round" stroke-linejoin="round"/>
<path d="M261.206 219.843C261.206 219.843 262.279 216.54 264.059 216.097C265.838 215.654 268.256 217.11 268.383 218.574C268.511 220.039 266.289 221.937 266.289 221.937C266.533 222.323 266.685 222.76 266.732 223.214C266.718 223.621 266.652 224.025 266.536 224.415C267.19 225.304 267.646 226.323 267.873 227.403C268 228.739 266.536 230.263 264.314 230.451C262.092 230.638 261.079 229.31 260.909 228.288C260.831 227.764 260.808 227.233 260.84 226.705C260.057 225.665 259.654 224.388 259.7 223.086C259.683 220.609 261.206 219.843 261.206 219.843Z" fill="#92E3A9"/>
<path opacity="0.58" d="M261.206 219.843C261.206 219.843 262.279 216.54 264.059 216.097C265.838 215.654 268.256 217.11 268.383 218.574C268.511 220.039 266.289 221.937 266.289 221.937C266.533 222.323 266.685 222.76 266.732 223.214C266.718 223.621 266.652 224.025 266.536 224.415C267.19 225.304 267.646 226.323 267.873 227.403C268 228.739 266.536 230.263 264.314 230.451C262.092 230.638 261.079 229.31 260.909 228.288C260.831 227.764 260.808 227.233 260.84 226.705C260.057 225.665 259.654 224.388 259.7 223.086C259.683 220.609 261.206 219.843 261.206 219.843Z" fill="white"/>
<path d="M262.884 220.737C262.598 220.53 262.332 220.297 262.092 220.039" stroke="#263238" stroke-width="0.5" stroke-linecap="round" stroke-linejoin="round"/>
<path d="M265.31 221.69C264.672 221.593 264.055 221.385 263.488 221.077" stroke="#263238" stroke-width="0.5" stroke-linecap="round" stroke-linejoin="round"/>
<path d="M265.778 224.61C265.778 224.61 262.535 224.287 261.266 226.194" stroke="#263238" stroke-width="0.5" stroke-linecap="round" stroke-linejoin="round"/>
<path d="M261.206 219.843C261.206 219.843 262.279 216.54 264.059 216.097C265.838 215.654 268.256 217.11 268.383 218.574C268.511 220.039 266.289 221.937 266.289 221.937C266.533 222.323 266.685 222.76 266.732 223.214C266.718 223.621 266.652 224.025 266.536 224.415C267.19 225.304 267.646 226.323 267.873 227.403C268 228.739 266.536 230.263 264.314 230.451C262.092 230.638 261.079 229.31 260.909 228.288C260.831 227.764 260.808 227.233 260.84 226.705C260.057 225.665 259.654 224.388 259.7 223.086C259.683 220.609 261.206 219.843 261.206 219.843Z" stroke="#263238" stroke-miterlimit="10"/>
<path d="M277.527 250.125C277.697 252.875 277.11 255.378 276.088 256.025C275.066 256.672 271.389 256.749 270.069 256.698C270.069 256.698 266.493 256.698 264.825 255.923C263.539 255.344 262.1 254.152 262.169 250.125H261.096C261.028 253.684 262.075 255.838 264.374 256.876C266.264 257.728 269.924 257.728 270.052 257.728C270.18 257.728 270.58 257.728 271.133 257.728C272.708 257.728 275.509 257.617 276.675 256.876C278.25 255.88 278.761 252.833 278.608 250.066L277.527 250.125Z" fill="#808080" stroke="#263238" stroke-linecap="round" stroke-linejoin="round"/>
<path d="M275.467 255.744C275.391 255.244 275.197 254.769 274.901 254.359C274.605 253.948 274.215 253.615 273.764 253.386C272.061 252.347 271.252 254.041 269.677 253.514C268.102 252.986 265.421 252.994 264.646 255.352C264.367 256.294 264.38 257.298 264.684 258.231C264.988 259.165 265.568 259.984 266.349 260.58C267.06 261.208 267.913 261.655 268.835 261.882C268.835 261.882 269.362 265.151 270.009 264.632C270.656 264.113 271.448 261.882 271.448 261.882C272.72 261.199 273.906 260.367 274.981 259.405C275.399 258.903 275.666 258.292 275.752 257.645C275.838 256.997 275.739 256.338 275.467 255.744V255.744Z" fill="#808080" stroke="#263238" stroke-linecap="round" stroke-linejoin="round"/>
<path d="M271.746 183.558C271.746 183.558 267.864 185.38 267.694 188.828C267.523 192.276 268.707 196.831 271.142 198.457C273.577 200.083 280.762 202.714 283.401 202.407C286.04 202.101 286.534 200.381 286.943 197.648C287.351 194.915 286.338 191.868 285.827 190.25C285.317 188.632 283.495 186.402 282.184 185.184C280.873 183.967 280.157 183.661 277.518 182.954C274.879 182.247 271.746 183.558 271.746 183.558Z" fill="#92E3A9"/>
<path opacity="0.58" d="M271.746 183.558C271.746 183.558 267.864 185.38 267.694 188.828C267.523 192.276 268.707 196.831 271.142 198.457C273.577 200.083 280.762 202.714 283.401 202.407C286.04 202.101 286.534 200.381 286.943 197.648C287.351 194.915 286.338 191.868 285.827 190.25C285.317 188.632 283.495 186.402 282.184 185.184C280.873 183.967 280.157 183.661 277.518 182.954C274.879 182.247 271.746 183.558 271.746 183.558Z" fill="white"/>
<path d="M271.746 183.558C271.746 183.558 267.864 185.38 267.694 188.828C267.523 192.276 268.707 196.831 271.142 198.457C273.577 200.083 280.762 202.714 283.401 202.407C286.04 202.101 286.534 200.381 286.943 197.648C287.351 194.915 286.338 191.868 285.827 190.25C285.317 188.632 283.495 186.402 282.184 185.184C280.873 183.967 280.157 183.661 277.518 182.954C274.879 182.247 271.746 183.558 271.746 183.558Z" stroke="#263238" stroke-miterlimit="10"/>
<path d="M273.875 186.802C273.875 186.802 271.848 186.504 271.746 183.558C271.644 180.613 274.683 177.284 274.683 177.284C274.385 176.623 274.047 175.98 273.67 175.36L272.759 173.734L274.275 173.129C274.721 173.564 275.128 174.037 275.492 174.543C275.799 175.053 276.403 176.245 276.403 176.245V173.691L278.029 173.589L278.531 176.526C278.531 176.526 278.233 175.82 280.558 176.628C282.882 177.437 283.801 179.77 283.903 181.592C283.879 183.105 283.641 184.606 283.197 186.053L279.791 183.499C279.791 183.499 280.098 179.651 278.574 179.957C277.05 180.264 277.263 181.779 276.25 184.01C275.237 186.24 273.875 186.802 273.875 186.802Z" fill="white" stroke="#263238" stroke-linecap="round" stroke-linejoin="round"/>
<path d="M275.526 185.38C275.526 185.38 277.552 180.613 279.579 179.906C280.862 179.386 282.251 179.179 283.631 179.302C284.346 179.404 284.644 180.715 284.644 182.034C284.644 183.354 282.72 182.741 281.605 183.958C280.49 185.176 280.694 187.364 280.694 187.364" fill="#92E3A9"/>
<path d="M275.526 185.38C275.526 185.38 277.552 180.613 279.579 179.906C280.862 179.386 282.251 179.179 283.631 179.302C284.346 179.404 284.644 180.715 284.644 182.034C284.644 183.354 282.72 182.741 281.605 183.958C280.49 185.176 280.694 187.364 280.694 187.364" stroke="#263238" stroke-linecap="round" stroke-linejoin="round"/>
<path d="M285.606 190.871C285.274 190.329 284.792 189.895 284.218 189.62L283.801 189.458C283.675 189.398 283.552 189.33 283.435 189.254C283.195 189.099 282.967 188.925 282.754 188.735C282.318 188.344 281.912 187.923 281.537 187.475L281 187.951C281.432 188.396 281.896 188.809 282.388 189.186L282.567 189.296C282.017 189.826 281.582 190.464 281.29 191.169C280.937 192.089 280.854 193.09 281.051 194.055C281.171 194.992 281.341 195.92 281.443 196.848C281.624 197.769 281.495 198.724 281.077 199.564C281.549 198.736 281.74 197.777 281.622 196.831C281.622 195.886 281.469 194.949 281.409 194.021C281.284 193.124 281.414 192.209 281.784 191.382C281.86 191.229 281.954 191.076 282.047 190.923C282.383 191.484 282.649 192.084 282.839 192.71C283.07 193.502 283.199 194.321 283.222 195.145C283.25 196.004 283.355 196.859 283.537 197.699C283.628 198.116 283.766 198.522 283.946 198.908C284.109 199.3 284.377 199.639 284.721 199.887C284.401 199.617 284.162 199.263 284.031 198.866C283.883 198.478 283.778 198.075 283.716 197.665C283.593 196.84 283.55 196.004 283.588 195.171C283.621 194.313 283.544 193.455 283.359 192.617C283.192 191.831 282.905 191.076 282.507 190.378C282.71 190.138 282.935 189.918 283.18 189.722V189.722C283.323 189.799 283.471 189.867 283.622 189.926L284.065 190.046C284.608 190.231 285.085 190.571 285.436 191.025C285.802 191.496 286.074 192.034 286.236 192.608C286.148 191.992 285.933 191.401 285.606 190.871V190.871Z" fill="#263238"/>
<path d="M274.377 191.663C273.951 191.467 273.575 191.176 273.279 190.812C273.06 190.523 272.912 190.188 272.844 189.833C273.127 189.577 273.381 189.292 273.602 188.981C274.206 188.21 274.54 187.262 274.556 186.283L273.517 186.878C273.422 187.455 273.198 188.002 272.861 188.479C272.506 189.016 272.082 189.506 271.601 189.935C270.931 190.501 270.21 191.006 269.448 191.442L268.732 191.825C268.562 191.918 268.383 192.004 268.205 192.089L268.741 191.97C268.77 192.416 268.847 192.859 268.971 193.289C269.147 193.92 269.435 194.514 269.822 195.043C270.2 195.552 270.619 196.031 271.074 196.473C271.518 196.921 272.009 197.321 272.538 197.665C272.052 197.27 271.61 196.825 271.218 196.337C270.823 195.861 270.462 195.357 270.137 194.83C269.825 194.305 269.609 193.728 269.499 193.127C269.401 192.672 269.367 192.205 269.396 191.74C269.66 191.655 269.916 191.561 270.171 191.459C270.825 191.193 271.447 190.856 272.027 190.454L272.274 190.267C272.418 190.583 272.617 190.871 272.861 191.118C273.237 191.507 273.702 191.799 274.215 191.97C275.146 192.324 276.043 192.76 276.897 193.272C276.107 192.66 275.264 192.122 274.377 191.663Z" fill="#263238"/>
</g>
<defs>
<filter id="filter0_d_24_3" x="0" y="0" width="648" height="508" filterUnits="userSpaceOnUse" color-interpolation-filters="sRGB">
<feFlood flood-opacity="0" result="BackgroundImageFix"/>
<feColorMatrix in="SourceAlpha" type="matrix" values="0 0 0 0 0 0 0 0 0 0 0 0 0 0 0 0 0 0 127 0" result="hardAlpha"/>
<feOffset dy="4"/>
<feGaussianBlur stdDeviation="2"/>
<feComposite in2="hardAlpha" operator="out"/>
<feColorMatrix type="matrix" values="0 0 0 0 0 0 0 0 0 0 0 0 0 0 0 0 0 0 0.25 0"/>
<feBlend mode="normal" in2="BackgroundImageFix" result="effect1_dropShadow_24_3"/>
<feBlend mode="normal" in="SourceGraphic" in2="effect1_dropShadow_24_3" result="shape"/>
</filter>
</defs>
</svg>
