<svg width="648" height="508" viewBox="0 0 648 508" fill="none" xmlns="http://www.w3.org/2000/svg">
<g filter="url(#filter0_d_24_284)">
<g clip-path="url(#clip0_24_284)" filter="url(#filter1_d_24_284)">
<rect width="640" height="500" transform="translate(4)" fill="white"/>
<g filter="url(#filter2_d_24_284)">
<path d="M276.626 144.798C276.626 144.798 277.154 137.408 273.723 132.93C270.292 128.452 262.375 128.443 258.952 129.763C255.53 131.082 252.091 133.458 251.29 137.425C250.803 140.301 250.626 143.221 250.762 146.134C250.403 146.212 250.064 146.366 249.77 146.587C249.476 146.808 249.232 147.089 249.057 147.413C248.881 147.736 248.778 148.094 248.753 148.461C248.729 148.828 248.784 149.196 248.915 149.54C249.336 151.201 250.151 152.737 251.29 154.018C251.29 154.018 252.082 157.713 252.61 159.296C253.138 160.88 256.015 164.311 256.015 164.311C256.015 164.311 256.543 168.269 254.696 169.589C252.848 170.909 248.362 171.964 242.036 174.067C235.711 176.17 229.896 181.729 228.576 188.846C227.781 193.107 227.603 197.459 228.048 201.77L225.673 216.805C224.085 220.937 223.196 225.304 223.043 229.728C222.779 237.118 221.459 251.863 221.459 251.863C221.459 251.863 223.043 252.919 219.348 254.766C215.653 256.614 215.389 257.933 214.861 259.253C214.333 260.573 214.069 263.212 213.014 264.003C211.958 264.795 208.527 264.003 209.055 266.634C209.583 269.265 213.312 267.69 213.312 267.69L215.687 267.162V280.622C215.687 281.941 216.479 283.789 217.798 282.205C217.798 282.205 219.118 284.053 219.91 283.261L221.195 282.512C221.195 282.512 222.753 283.159 223.485 282.886C224.217 282.614 225.682 280.588 225.682 280.588C225.682 280.588 226.056 281.686 227.384 280.043C228.712 278.4 228.942 276.374 229.308 274.994C229.675 273.615 230.866 266.098 231.233 264.778C231.599 263.459 231.233 256.707 231.233 256.707L230.96 253.77C230.96 253.77 236.92 237.544 237.933 233.687C239.001 230.016 239.828 226.279 240.41 222.5C240.776 219.206 242.334 212.693 242.334 212.693L242.973 212.42C242.973 212.42 243.066 227.915 242.7 229.933C242.334 231.95 239.584 235.705 239.857 240.472C240.129 245.24 238.477 253.311 238.026 256.06C237.575 258.81 234.076 268.167 235.549 283.482C237.022 298.798 240.087 307.38 241.866 314.191C243.645 321.001 243.16 325.377 242.351 331.856C241.542 338.335 242.836 341.221 245.109 349.521C247.383 357.822 251.426 366.548 251.92 369.784C252.414 373.019 250.95 373.351 250.141 375.3C249.332 377.25 244.956 382.264 244.794 384.376C244.633 386.487 246.089 388.105 250.141 389.237C254.193 390.369 257.114 390.369 259.055 387.781C260.996 385.193 261.166 383.567 261.004 381.617C260.842 379.668 260.357 379.353 261.004 377.565C261.651 375.777 262.46 374.815 261.975 371.733C261.489 368.651 261.813 371.41 260.519 365.084C259.225 358.759 260.681 350.501 260.681 346.933C260.681 343.366 260.681 334.938 259.829 330.758C258.978 326.578 258.859 328.485 258.374 322.653C257.888 316.821 258.697 316.166 258.697 311.951C258.688 309.445 258.403 306.946 257.846 304.502C257.846 304.502 261.089 287.645 261.251 286.99C261.413 286.334 263.805 275.165 263.805 275.165C264.083 275.214 264.345 275.327 264.571 275.496C264.797 275.664 264.981 275.883 265.108 276.135C265.431 276.944 269.645 304.34 269.645 304.34C269.645 304.34 268.019 308.716 268.181 311.628C268.343 314.54 270.131 322.815 270.131 322.815C270.131 322.815 268.981 328.042 267.823 336.147C266.666 344.252 268.47 352.68 268.309 357.703C268.264 360.977 267.885 364.237 267.176 367.434C266.691 369.698 265.882 372.942 266.691 375.377L267.5 377.803C267.13 379.999 266.967 382.226 267.015 384.452C267.176 387.372 268.47 389.314 270.42 389.637C271.04 389.69 271.663 389.584 272.23 389.329C272.798 389.075 273.291 388.679 273.664 388.181C274.417 388.616 275.248 388.897 276.11 389.008C276.973 389.119 277.848 389.058 278.687 388.828C281.445 388.019 283.386 386.879 282.739 384.614C282.218 382.325 281.223 380.17 279.819 378.289C278.04 375.862 276.899 375.539 276.414 372.619C275.888 369.639 276.114 366.576 277.069 363.705C278.04 361.108 282.254 353.165 284.195 342.634C286.136 332.103 285.821 331.447 285.336 327.718C284.902 322.47 285.119 317.189 285.983 311.994C286.792 307.942 292.462 293.358 292.462 281.524C292.292 271.781 291.261 262.072 289.38 252.51C288.865 249.993 288.487 247.449 288.247 244.891C288.799 242.493 288.799 240.001 288.247 237.603C287.277 234.198 286.63 232.895 285.821 229.175C285.157 225.906 284.668 222.603 284.357 219.282V212.965C284.357 212.965 287.439 220.414 288.894 225.608C290.35 230.801 290.359 233.874 291.976 238.735C293.594 243.597 296.999 252.672 297.646 254.622C298.293 256.571 296.837 259.968 297.484 265.153C298.132 270.338 298.787 279.26 299.919 280.554C301.052 281.848 302.354 280.392 302.354 280.392C302.354 280.392 302.839 282.946 303.81 283.312C304.781 283.678 306.075 282.657 306.075 282.657C306.108 282.867 306.192 283.066 306.318 283.238C306.444 283.41 306.609 283.549 306.799 283.645C306.989 283.74 307.2 283.789 307.413 283.788C307.626 283.786 307.835 283.734 308.024 283.636C308.458 283.496 308.856 283.264 309.192 282.955C309.527 282.647 309.791 282.269 309.965 281.848C309.965 281.848 312.4 282.818 312.077 279.583C311.753 276.348 310.944 271.964 310.944 270.993C310.944 270.023 311.106 266.941 311.106 266.941C311.96 267.631 312.953 268.128 314.018 268.396C315.32 268.558 316.614 269.852 317.585 268.396C318.555 266.941 317.747 266.455 315.967 265.315C314.188 264.174 314.018 263.859 312.724 261.909C311.43 259.96 312.562 259.483 309.803 257.048C307.045 254.613 305.283 253.481 305.283 251.421C305.283 249.36 307.394 236.181 305.445 226.783C303.495 217.384 302.533 214.949 302.209 213.493C301.886 212.037 298.966 201.012 298.966 201.012C298.966 201.012 301.52 190.796 297.016 182.206C292.513 173.616 286.323 174.263 281.624 172.16C276.924 170.057 273.195 169.606 272.54 168.269C272.068 167.126 271.742 165.927 271.569 164.702C271.569 164.702 275.826 158.87 275.945 156.921L276.107 154.98C276.107 154.98 278.661 154.009 279.351 149.02C280.04 144.031 276.626 144.798 276.626 144.798Z" fill="white" stroke="#263238" stroke-width="0.5" stroke-linecap="round" stroke-linejoin="round"/>
<path d="M260.63 172.901C260.156 173.028 259.751 173.333 259.497 173.752C259.237 174.228 259.094 174.759 259.08 175.301C258.724 175.69 258.5 176.182 258.442 176.706C258.373 177.558 258.305 177.064 258.373 177.558C258.442 178.051 258.024 178.69 258.161 179.388C258.248 179.813 258.415 180.218 258.654 180.58C258.77 181.045 258.988 181.478 259.293 181.848C259.542 182.102 259.829 182.315 260.144 182.478C260.144 182.478 260.28 182.759 260.996 182.904L261.694 183.049L261.838 180.095C262.168 180.247 262.531 180.318 262.894 180.299H263.567C263.812 180.398 264.081 180.424 264.341 180.376C264.659 180.322 264.968 180.228 265.261 180.095L265.329 183.049C265.88 182.851 266.382 182.538 266.802 182.129L267.159 181.636C267.358 181.605 267.547 181.533 267.716 181.425C267.885 181.316 268.029 181.173 268.138 181.006C268.351 180.643 268.471 180.234 268.488 179.814C268.66 179.642 268.783 179.428 268.846 179.193C268.909 178.959 268.908 178.712 268.845 178.477L268.632 177.626C268.638 176.976 268.519 176.332 268.283 175.727C267.926 175.089 268.138 175.514 267.926 175.089C267.636 174.553 267.309 174.038 266.947 173.548C266.637 173.087 266.226 172.703 265.746 172.424C265.269 172.126 262.239 171.641 260.63 172.901Z" fill="#92E3A9" stroke="#263238" stroke-linecap="round" stroke-linejoin="round"/>
<path d="M263.652 170.296C263.652 170.296 262.801 167.861 262.153 168.005C261.432 168.355 260.774 168.821 260.204 169.385C260.204 169.385 259.855 166.507 259.497 167.205C259.14 167.903 259.429 169.104 259.642 170.091C259.855 171.079 260.059 170.943 260.204 171.36C260.349 171.777 260.63 172.901 260.63 172.901L261.26 173.182C261.26 173.182 261.54 174.314 261.821 175.293C262.102 176.272 262.8 177.192 263.788 177.123C264.173 177.133 264.549 177.003 264.846 176.757C265.144 176.512 265.342 176.167 265.406 175.787C265.55 175.08 266.257 173.182 266.257 173.182L266.964 173.539C266.964 173.539 266.819 171.36 267.1 170.934C267.381 170.508 268.019 169.878 268.019 169.231C268.019 168.584 268.3 166.907 267.943 167.265C267.565 167.951 267.279 168.684 267.091 169.444C267.091 169.444 266.189 167.444 265.269 167.937C264.35 168.431 263.652 170.296 263.652 170.296Z" fill="white" stroke="#263238" stroke-linecap="round" stroke-linejoin="round"/>
<path d="M261.515 174.195C261.515 174.195 263.805 176.255 265.865 174.195" stroke="#263238" stroke-linecap="round" stroke-linejoin="round"/>
<path d="M261.26 173.182C261.26 173.182 261.515 173.548 262.111 173.088C262.707 172.628 262.962 172.679 262.962 172.679C263.207 172.865 263.507 172.961 263.814 172.952C264.118 172.908 264.408 172.797 264.665 172.628C264.665 172.628 265.397 173.411 265.627 173.318C265.826 173.25 266.031 173.205 266.24 173.182" fill="white"/>
<path d="M261.26 173.182C261.26 173.182 261.515 173.548 262.111 173.088C262.707 172.628 262.962 172.679 262.962 172.679C263.207 172.865 263.507 172.961 263.814 172.952C264.118 172.908 264.408 172.797 264.665 172.628C264.665 172.628 265.397 173.411 265.627 173.318C265.826 173.25 266.031 173.205 266.24 173.182" stroke="#263238" stroke-linecap="round" stroke-linejoin="round"/>
<path d="M262.111 173.097C262.111 173.097 262.656 174.152 263.482 174.288C264.307 174.425 265.321 173.233 265.321 173.233" stroke="#263238" stroke-linecap="round" stroke-linejoin="round"/>
<path d="M264.81 182.308H262.043V199.114L259.855 201.531L261.668 205.175L263.422 203.37L266.419 205.448L267.108 200.612L264.81 198.765V182.308Z" fill="white" stroke="#263238" stroke-linecap="round" stroke-linejoin="round"/>
<path d="M261.149 200.45C260.888 200.172 260.691 199.841 260.57 199.48C260.45 199.118 260.409 198.735 260.451 198.356C260.621 197.13 261.847 195.734 260.272 193.818C258.697 191.903 252.61 192.243 248.745 198.535C244.88 204.826 244.548 220.542 246.472 221.249C248.396 221.955 259.046 219.325 260.621 217.401C262.196 215.477 261.472 206.742 261.668 205.175C261.681 203.585 261.506 201.999 261.149 200.45V200.45Z" fill="#92E3A9" stroke="#263238" stroke-linecap="round" stroke-linejoin="round"/>
<path d="M265.908 200.45C266.167 200.171 266.363 199.84 266.483 199.479C266.604 199.117 266.646 198.735 266.606 198.356C266.427 197.13 265.21 195.734 266.776 193.818C268.343 191.903 274.438 192.243 278.312 198.535C282.186 204.826 282.501 220.542 280.585 221.249C278.67 221.955 268.002 219.325 266.427 217.401C264.852 215.477 265.576 206.742 265.38 205.175C265.374 203.585 265.551 202 265.908 200.45V200.45Z" fill="#92E3A9" stroke="#263238" stroke-linecap="round" stroke-linejoin="round"/>
<path d="M262.273 186.684H264.58" stroke="#263238" stroke-linecap="round" stroke-linejoin="round"/>
<path d="M262.273 190.941H264.58" stroke="#263238" stroke-linecap="round" stroke-linejoin="round"/>
<path d="M262.273 195.197H264.58" stroke="#263238" stroke-linecap="round" stroke-linejoin="round"/>
<path d="M262.273 199.463H264.58" stroke="#263238" stroke-linecap="round" stroke-linejoin="round"/>
<path d="M252.712 237.271C252.792 237.792 253.036 238.274 253.408 238.647C253.779 239.021 254.26 239.266 254.781 239.349C256.671 239.706 257.335 238.089 259.191 237.45C261.047 236.811 260.808 240.064 260.808 240.064H261.804C261.947 238.934 261.792 237.786 261.353 236.735C260.63 235.381 258.203 235.381 258.203 235.381C258.203 235.381 253.972 236.19 252.712 237.271Z" stroke="#263238" stroke-linecap="round" stroke-linejoin="round"/>
<path d="M280.892 222.117C280.892 222.117 281.036 223.999 279.564 224.535C278.091 225.071 277.563 224.935 277.29 225.735C277.018 226.536 276.226 231.746 272.353 232.282C268.479 232.819 266.87 231.346 266.87 231.346C266.87 231.346 263.133 234.819 260.996 235.356C258.859 235.892 256.739 236.156 255.113 237.229C253.475 238.301 251.729 239.197 249.903 239.902C248.438 240.43 248.702 242.039 246.829 241.102C244.956 240.166 245.629 238.293 245.901 237.092C246.174 235.892 247.102 234.683 246.429 231.482C245.756 228.281 245.629 226.272 246.429 223.599C246.99 221.911 248.038 220.426 249.441 219.333C250.844 218.239 252.539 217.584 254.313 217.452C258.859 216.915 266.606 219.589 267.006 219.725C267.406 219.861 267.806 218.022 270.616 218.388C273.425 218.754 275.954 219.989 277.163 220.091C278.372 220.193 280.594 219.972 280.892 222.117Z" fill="#92E3A9"/>
<path opacity="0.39" d="M280.892 222.117C280.892 222.117 281.036 223.999 279.564 224.535C278.091 225.071 277.563 224.935 277.29 225.735C277.018 226.536 276.226 231.746 272.353 232.282C268.479 232.819 266.87 231.346 266.87 231.346C266.87 231.346 263.133 234.819 260.996 235.356C258.859 235.892 256.739 236.156 255.113 237.229C253.475 238.301 251.729 239.197 249.903 239.902C248.438 240.43 248.702 242.039 246.829 241.102C244.956 240.166 245.629 238.293 245.901 237.092C246.174 235.892 247.102 234.683 246.429 231.482C245.756 228.281 245.629 226.272 246.429 223.599C246.99 221.911 248.038 220.426 249.441 219.333C250.844 218.239 252.539 217.584 254.313 217.452C258.859 216.915 266.606 219.589 267.006 219.725C267.406 219.861 267.806 218.022 270.616 218.388C273.425 218.754 275.954 219.989 277.163 220.091C278.372 220.193 280.594 219.972 280.892 222.117Z" fill="black"/>
<path d="M266.972 219.725C266.972 219.725 268.573 224.263 268.445 226.408C268.19 228.133 267.646 229.802 266.836 231.346" stroke="#263238" stroke-linecap="round" stroke-linejoin="round"/>
<path d="M280.892 222.117C280.892 222.117 281.036 223.999 279.564 224.535C278.091 225.071 277.563 224.935 277.29 225.735C277.018 226.536 276.226 231.746 272.353 232.282C268.479 232.819 266.87 231.346 266.87 231.346C266.87 231.346 263.133 234.819 260.996 235.356C258.859 235.892 256.739 236.156 255.113 237.229C253.475 238.301 251.729 239.197 249.903 239.902C248.438 240.43 248.702 242.039 246.829 241.102C244.956 240.166 245.629 238.293 245.901 237.092C246.174 235.892 247.102 234.683 246.429 231.482C245.756 228.281 245.629 226.272 246.429 223.599C246.99 221.911 248.038 220.426 249.441 219.333C250.844 218.239 252.539 217.584 254.313 217.452C258.859 216.915 266.606 219.589 267.006 219.725C267.406 219.861 267.806 218.022 270.616 218.388C273.425 218.754 275.954 219.989 277.163 220.091C278.372 220.193 280.594 219.972 280.892 222.117Z" stroke="#263238" stroke-miterlimit="10"/>
<path d="M265.457 210.888C265.457 212.778 266.521 216.43 267.585 217.613C268.649 218.797 269.118 216.081 273.485 215.485C277.852 214.889 282.101 219.503 281.147 225.761C280.194 232.018 270.65 243.937 262.715 245.112C254.781 246.287 253.155 236.735 252.21 236.028C251.265 235.322 249.494 243.58 249.494 243.58L245.952 242.166C245.952 242.166 248.43 232.955 249.732 231.184C251.035 229.413 254.091 230.009 254.925 232.487C255.76 234.964 257.871 235.322 260.349 232.725C262.826 230.128 264.716 223.36 263.541 221.742C262.366 220.125 261.89 210.292 261.89 210.292L261.634 205.184L263.388 203.379L265.346 205.184L265.457 210.888Z" fill="#808080" stroke="#263238" stroke-linecap="round" stroke-linejoin="round"/>
<path d="M251.869 254.545C252.537 254.628 253.173 254.878 253.718 255.272C254.262 255.667 254.698 256.193 254.985 256.801C255.836 258.844 257.25 260.036 259.404 259.491C260.713 259.148 261.858 258.348 262.63 257.235C262.63 257.235 263.167 257.448 265.542 258.308C267.917 259.168 268.232 260.785 268.232 260.785C268.232 260.785 268.556 261.867 273.289 259.168C278.023 256.469 279.249 249.59 278.244 244.21C277.239 238.829 277.061 235.271 274.26 235.058C271.459 234.845 266.504 236.599 259.94 236.147C253.376 235.696 253.129 233.261 251.188 235.296C249.247 237.331 249.281 239.91 249.817 244.414C250.354 248.918 249.715 254.869 251.869 254.545Z" fill="#92E3A9" stroke="#263238" stroke-linecap="round" stroke-linejoin="round"/>
<path d="M262.63 257.235C262.873 256.755 262.972 256.215 262.915 255.681C262.857 255.146 262.646 254.639 262.307 254.222C261.123 252.715 257.037 251.744 255.743 250.774C255.041 250.333 254.537 249.637 254.338 248.833" fill="#92E3A9"/>
<path d="M262.63 257.235C262.873 256.755 262.972 256.215 262.915 255.681C262.857 255.146 262.646 254.639 262.307 254.222C261.123 252.715 257.037 251.744 255.743 250.774C255.041 250.333 254.537 249.637 254.338 248.833" stroke="#263238" stroke-linecap="round" stroke-linejoin="round"/>
<path d="M257.999 251.31C258.435 251.014 258.929 250.813 259.449 250.721C259.968 250.628 260.501 250.646 261.013 250.774" fill="#92E3A9"/>
<path d="M257.999 251.31C258.435 251.014 258.929 250.813 259.449 250.721C259.968 250.628 260.501 250.646 261.013 250.774" stroke="#263238" stroke-linecap="round" stroke-linejoin="round"/>
<path d="M252.942 252.493C253.151 253.142 253.532 253.723 254.045 254.173C254.558 254.622 255.183 254.925 255.854 255.047C258.11 255.371 258.757 254.834 259.191 256.554" fill="#92E3A9"/>
<path d="M252.942 252.493C253.151 253.142 253.532 253.723 254.045 254.173C254.558 254.622 255.183 254.925 255.854 255.047C258.11 255.371 258.757 254.834 259.191 256.554" stroke="#263238" stroke-linecap="round" stroke-linejoin="round"/>
<path d="M252.295 246.364C252.295 246.364 252.406 245.07 254.125 245.929C255.845 246.789 255.53 247.547 257.36 247.87C259.191 248.194 263.064 248.194 264.171 249.479C264.48 249.849 264.674 250.299 264.732 250.777C264.789 251.254 264.707 251.738 264.495 252.17C264.495 252.17 264.708 250.884 266.538 252.817C268.368 254.749 268.59 255.507 268.59 255.507C268.59 255.507 270.633 253.362 272.353 254.222C272.6 253.696 272.816 253.155 273 252.604" fill="#92E3A9"/>
<path d="M252.295 246.364C252.295 246.364 252.406 245.07 254.125 245.929C255.845 246.789 255.53 247.547 257.36 247.87C259.191 248.194 263.064 248.194 264.171 249.479C264.48 249.849 264.674 250.299 264.732 250.777C264.789 251.254 264.707 251.738 264.495 252.17C264.495 252.17 264.708 250.884 266.538 252.817C268.368 254.749 268.59 255.507 268.59 255.507C268.59 255.507 270.633 253.362 272.353 254.222C272.6 253.696 272.816 253.155 273 252.604" stroke="#263238" stroke-linecap="round" stroke-linejoin="round"/>
<path d="M253.912 243.563C253.912 243.563 255.53 244.857 256.603 244.312C257.675 243.767 257.999 241.758 260.153 243.129C262.307 244.499 263.388 246.789 264.997 248.296C266.606 249.803 268.011 251.633 269.518 250.774C271.025 249.914 272.072 247.224 274.047 249.59" fill="#92E3A9"/>
<path d="M253.912 243.563C253.912 243.563 255.53 244.857 256.603 244.312C257.675 243.767 257.999 241.758 260.153 243.129C262.307 244.499 263.388 246.789 264.997 248.296C266.606 249.803 268.011 251.633 269.518 250.774C271.025 249.914 272.072 247.224 274.047 249.59" stroke="#263238" stroke-linecap="round" stroke-linejoin="round"/>
<path d="M269.203 238.063C270.199 239.496 270.788 241.174 270.905 242.916C270.794 244.558 270.064 246.098 268.862 247.223" fill="#92E3A9"/>
<path d="M269.203 238.063C270.199 239.496 270.788 241.174 270.905 242.916C270.794 244.558 270.064 246.098 268.862 247.223" stroke="#263238" stroke-linecap="round" stroke-linejoin="round"/>
<path d="M270.599 245.069C270.599 245.069 272.497 242.226 274.345 243.971Z" fill="#92E3A9"/>
<path d="M270.599 245.069C270.599 245.069 272.497 242.226 274.345 243.971" stroke="#263238" stroke-linecap="round" stroke-linejoin="round"/>
<path d="M264.997 248.296C265.651 247.87 266.176 247.274 266.518 246.572C266.86 245.871 267.005 245.089 266.938 244.312C266.863 243.583 266.631 242.879 266.26 242.247C265.888 241.615 265.385 241.071 264.784 240.651" fill="#92E3A9"/>
<path d="M264.997 248.296C265.651 247.87 266.176 247.274 266.518 246.572C266.86 245.871 267.005 245.089 266.938 244.312C266.863 243.583 266.631 242.879 266.26 242.247C265.888 241.615 265.385 241.071 264.784 240.651" stroke="#263238" stroke-linecap="round" stroke-linejoin="round"/>
<path d="M262.528 245.606C262.528 245.606 263.49 244.312 261.77 241.945C260.051 239.578 260.476 238.395 260.698 237.212" fill="#92E3A9"/>
<path d="M262.528 245.606C262.528 245.606 263.49 244.312 261.77 241.945C260.051 239.578 260.476 238.395 260.698 237.212" stroke="#263238" stroke-linecap="round" stroke-linejoin="round"/>
<path d="M253.351 237.212C253.2 237.743 253.199 238.307 253.35 238.839C253.5 239.371 253.795 239.851 254.202 240.225C255.598 241.298 256.679 239.255 258.833 240.651" fill="#92E3A9"/>
<path d="M253.351 237.212C253.2 237.743 253.199 238.307 253.35 238.839C253.5 239.371 253.795 239.851 254.202 240.225C255.598 241.298 256.679 239.255 258.833 240.651" stroke="#263238" stroke-linecap="round" stroke-linejoin="round"/>
<path d="M274.796 236.454C274.796 236.454 271.995 240.013 272.54 241.085Z" fill="#92E3A9"/>
<path d="M274.796 236.454C274.796 236.454 271.995 240.013 272.54 241.085" stroke="#263238" stroke-linecap="round" stroke-linejoin="round"/>
<path d="M276.839 237.637C278.264 237.637 279.419 236.482 279.419 235.058C279.419 233.633 278.264 232.478 276.839 232.478C275.415 232.478 274.26 233.633 274.26 235.058C274.26 236.482 275.415 237.637 276.839 237.637Z" fill="#92E3A9" stroke="#263238" stroke-linecap="round" stroke-linejoin="round"/>
<path d="M277.273 241.4C278.966 241.4 280.338 240.245 280.338 238.821C280.338 237.396 278.966 236.241 277.273 236.241C275.581 236.241 274.209 237.396 274.209 238.821C274.209 240.245 275.581 241.4 277.273 241.4Z" fill="#92E3A9" stroke="#263238" stroke-linecap="round" stroke-linejoin="round"/>
<path d="M280.415 242.72C280.704 244.116 279.564 245.529 277.903 245.878C276.243 246.227 274.634 245.367 274.345 243.971C274.055 242.575 275.196 241.162 276.899 240.813C278.601 240.464 280.125 241.323 280.415 242.72Z" fill="#92E3A9" stroke="#263238" stroke-linecap="round" stroke-linejoin="round"/>
<path d="M280.798 246.61C281.026 247.201 281.066 247.847 280.915 248.462C280.763 249.076 280.427 249.629 279.951 250.046C279.475 250.463 278.882 250.724 278.253 250.793C277.624 250.863 276.989 250.737 276.433 250.434C275.878 250.131 275.429 249.664 275.147 249.097C274.865 248.531 274.764 247.891 274.858 247.265C274.951 246.639 275.235 246.057 275.67 245.597C276.105 245.138 276.671 244.823 277.29 244.695C278.01 244.489 278.781 244.574 279.438 244.933C280.094 245.291 280.583 245.894 280.798 246.61V246.61Z" fill="#92E3A9" stroke="#263238" stroke-linecap="round" stroke-linejoin="round"/>
<path d="M280.875 251.353C281.094 251.938 281.128 252.576 280.973 253.181C280.818 253.787 280.481 254.33 280.007 254.738C279.534 255.146 278.947 255.399 278.326 255.463C277.704 255.527 277.078 255.399 276.531 255.097C275.984 254.794 275.544 254.331 275.268 253.77C274.993 253.209 274.896 252.577 274.991 251.959C275.086 251.342 275.368 250.768 275.799 250.315C276.23 249.863 276.789 249.553 277.401 249.428C278.117 249.226 278.884 249.314 279.534 249.675C280.185 250.035 280.667 250.638 280.875 251.353V251.353Z" fill="#92E3A9" stroke="#263238" stroke-linecap="round" stroke-linejoin="round"/>
<path d="M279.589 255.55C279.807 256.135 279.841 256.773 279.686 257.377C279.531 257.982 279.195 258.525 278.722 258.933C278.249 259.341 277.662 259.594 277.041 259.659C276.42 259.723 275.794 259.596 275.248 259.294C274.701 258.992 274.26 258.529 273.984 257.969C273.708 257.409 273.61 256.778 273.704 256.16C273.798 255.543 274.078 254.969 274.508 254.516C274.937 254.063 275.495 253.752 276.107 253.626C276.824 253.427 277.59 253.518 278.241 253.877C278.891 254.237 279.376 254.837 279.589 255.55V255.55Z" fill="#92E3A9" stroke="#263238" stroke-linecap="round" stroke-linejoin="round"/>
<path d="M278.082 258.453C278.303 259.039 278.338 259.678 278.182 260.285C278.027 260.892 277.69 261.436 277.215 261.845C276.741 262.253 276.152 262.506 275.529 262.569C274.906 262.632 274.279 262.502 273.732 262.197C273.185 261.892 272.745 261.426 272.472 260.863C272.198 260.3 272.105 259.666 272.203 259.048C272.301 258.429 272.587 257.856 273.022 257.406C273.457 256.955 274.02 256.649 274.634 256.529C275.346 256.338 276.105 256.433 276.748 256.792C277.392 257.151 277.87 257.747 278.082 258.453Z" fill="#92E3A9" stroke="#263238" stroke-linecap="round" stroke-linejoin="round"/>
<path d="M275.171 260.07C275.389 260.655 275.423 261.293 275.268 261.898C275.113 262.503 274.776 263.046 274.303 263.454C273.83 263.862 273.244 264.115 272.623 264.179C272.002 264.244 271.376 264.116 270.829 263.814C270.282 263.512 269.842 263.05 269.566 262.49C269.29 261.93 269.192 261.298 269.285 260.681C269.379 260.064 269.66 259.49 270.089 259.037C270.519 258.583 271.077 258.273 271.689 258.146C272.405 257.943 273.173 258.032 273.825 258.392C274.477 258.752 274.961 259.355 275.171 260.07V260.07Z" fill="#92E3A9" stroke="#263238" stroke-linecap="round" stroke-linejoin="round"/>
<path d="M272.267 261.364C272.486 261.949 272.52 262.587 272.365 263.192C272.21 263.797 271.873 264.34 271.4 264.748C270.927 265.156 270.341 265.409 269.72 265.473C269.099 265.538 268.473 265.41 267.926 265.108C267.379 264.806 266.938 264.344 266.663 263.784C266.387 263.224 266.289 262.592 266.382 261.975C266.476 261.358 266.756 260.784 267.186 260.331C267.616 259.877 268.174 259.567 268.785 259.44C269.502 259.237 270.27 259.326 270.922 259.686C271.574 260.046 272.058 260.649 272.267 261.364V261.364Z" fill="#92E3A9" stroke="#263238" stroke-linecap="round" stroke-linejoin="round"/>
<path d="M268.675 262.114C268.964 263.51 267.619 264.974 265.678 265.374C263.737 265.774 261.924 264.966 261.634 263.569C261.345 262.173 262.69 260.709 264.631 260.309C266.572 259.909 268.428 260.717 268.675 262.114Z" fill="#92E3A9" stroke="#263238" stroke-linecap="round" stroke-linejoin="round"/>
<path d="M273.076 237.739C274.501 237.739 275.656 236.584 275.656 235.16C275.656 233.735 274.501 232.58 273.076 232.58C271.652 232.58 270.497 233.735 270.497 235.16C270.497 236.584 271.652 237.739 273.076 237.739Z" fill="#92E3A9" stroke="#263238" stroke-linecap="round" stroke-linejoin="round"/>
<path d="M269.203 238.063C270.975 238.063 272.412 237.007 272.412 235.705C272.412 234.402 270.975 233.346 269.203 233.346C267.43 233.346 265.993 234.402 265.993 235.705C265.993 237.007 267.43 238.063 269.203 238.063Z" fill="#92E3A9" stroke="#263238" stroke-linecap="round" stroke-linejoin="round"/>
<path d="M253.827 235.287C253.863 235.816 253.739 236.342 253.472 236.799C253.205 237.256 252.806 237.622 252.328 237.849C251.85 238.077 251.315 238.155 250.792 238.075C250.268 237.994 249.782 237.758 249.394 237.397C249.007 237.036 248.738 236.567 248.62 236.05C248.503 235.534 248.544 234.995 248.737 234.502C248.931 234.009 249.268 233.586 249.705 233.287C250.142 232.989 250.659 232.828 251.188 232.827C251.864 232.804 252.522 233.05 253.017 233.512C253.511 233.973 253.803 234.611 253.827 235.287V235.287Z" fill="#92E3A9" stroke="#263238" stroke-linecap="round" stroke-linejoin="round"/>
<path d="M249.664 240.217C250.995 240.217 252.073 239.199 252.073 237.944C252.073 236.688 250.995 235.671 249.664 235.671C248.334 235.671 247.255 236.688 247.255 237.944C247.255 239.199 248.334 240.217 249.664 240.217Z" fill="#92E3A9" stroke="#263238" stroke-linecap="round" stroke-linejoin="round"/>
<path d="M252.116 241.204C252.142 241.686 252.022 242.164 251.773 242.577C251.524 242.99 251.157 243.318 250.719 243.52C250.281 243.722 249.792 243.788 249.317 243.709C248.841 243.63 248.4 243.411 248.05 243.079C247.701 242.746 247.459 242.317 247.356 241.846C247.253 241.375 247.294 240.884 247.474 240.436C247.653 239.989 247.962 239.605 248.362 239.335C248.762 239.065 249.233 238.922 249.715 238.923C250.023 238.915 250.329 238.968 250.616 239.078C250.903 239.188 251.165 239.354 251.388 239.566C251.611 239.778 251.79 240.032 251.915 240.313C252.04 240.594 252.108 240.897 252.116 241.204Z" fill="#92E3A9" stroke="#263238" stroke-linecap="round" stroke-linejoin="round"/>
<path d="M252.227 244.405C252.254 244.887 252.136 245.365 251.889 245.779C251.641 246.193 251.275 246.523 250.838 246.726C250.401 246.929 249.912 246.997 249.436 246.92C248.96 246.843 248.519 246.625 248.168 246.294C247.817 245.963 247.574 245.535 247.469 245.064C247.365 244.593 247.404 244.102 247.581 243.654C247.759 243.206 248.067 242.821 248.466 242.55C248.864 242.278 249.335 242.133 249.817 242.132C250.438 242.116 251.039 242.346 251.491 242.772C251.942 243.198 252.207 243.785 252.227 244.405Z" fill="#92E3A9" stroke="#263238" stroke-linecap="round" stroke-linejoin="round"/>
<path d="M252.337 247.743C252.363 248.225 252.243 248.703 251.994 249.116C251.744 249.529 251.377 249.858 250.938 250.059C250.5 250.261 250.011 250.326 249.535 250.247C249.059 250.167 248.618 249.947 248.269 249.614C247.919 249.281 247.678 248.851 247.576 248.379C247.475 247.907 247.517 247.416 247.697 246.968C247.878 246.521 248.189 246.138 248.59 245.869C248.99 245.601 249.463 245.458 249.945 245.461C250.564 245.45 251.162 245.683 251.61 246.11C252.058 246.537 252.32 247.124 252.337 247.743V247.743Z" fill="#92E3A9" stroke="#263238" stroke-linecap="round" stroke-linejoin="round"/>
<path d="M250.362 253.464C251.693 253.464 252.772 252.446 252.772 251.191C252.772 249.935 251.693 248.917 250.362 248.917C249.032 248.917 247.953 249.935 247.953 251.191C247.953 252.446 249.032 253.464 250.362 253.464Z" fill="#92E3A9" stroke="#263238" stroke-linecap="round" stroke-linejoin="round"/>
<path d="M267.985 235.909C267.985 237.271 266.504 238.369 264.682 238.369C262.86 238.369 261.387 237.271 261.387 235.909C261.387 234.547 262.86 233.449 264.682 233.449C266.504 233.449 267.985 234.547 267.985 235.909Z" fill="#92E3A9" stroke="#263238" stroke-linecap="round" stroke-linejoin="round"/>
<path d="M259.94 238.608C261.586 238.608 262.92 237.506 262.92 236.147C262.92 234.789 261.586 233.687 259.94 233.687C258.294 233.687 256.96 234.789 256.96 236.147C256.96 237.506 258.294 238.608 259.94 238.608Z" fill="#92E3A9" stroke="#263238" stroke-linecap="round" stroke-linejoin="round"/>
<path d="M257.812 235.722C257.849 236.252 257.726 236.782 257.459 237.241C257.191 237.701 256.792 238.069 256.312 238.298C255.832 238.527 255.294 238.607 254.769 238.526C254.243 238.445 253.754 238.208 253.365 237.846C252.976 237.483 252.705 237.012 252.588 236.493C252.471 235.975 252.512 235.433 252.707 234.938C252.902 234.443 253.242 234.019 253.681 233.72C254.121 233.421 254.641 233.261 255.172 233.261C255.848 233.238 256.506 233.484 257.001 233.946C257.496 234.407 257.787 235.046 257.812 235.722V235.722Z" fill="#92E3A9" stroke="#263238" stroke-linecap="round" stroke-linejoin="round"/>
<path d="M250.575 257.227C252 257.227 253.155 256.072 253.155 254.647C253.155 253.223 252 252.068 250.575 252.068C249.15 252.068 247.996 253.223 247.996 254.647C247.996 256.072 249.15 257.227 250.575 257.227Z" fill="#92E3A9" stroke="#263238" stroke-linecap="round" stroke-linejoin="round"/>
<path d="M261.668 263.569C261.458 264.066 261.349 264.6 261.349 265.14C261.349 265.68 261.458 266.214 261.668 266.711C262.315 268.754 261.566 270.474 262.102 271.768C262.639 273.062 263.933 273.275 264.367 272.619C264.801 271.964 264.469 270.142 264.682 268.856C264.947 267.67 265.294 266.504 265.721 265.366C265.721 265.366 262.426 265.808 261.668 263.569Z" fill="#92E3A9" stroke="#263238" stroke-linecap="round" stroke-linejoin="round"/>
<path d="M250.575 257.235C251.027 257.524 251.427 257.887 251.759 258.308C252.516 259.159 252.516 258.844 252.082 260.138C251.648 261.432 251.546 262.616 252.193 261.841C252.84 261.066 253.7 259.789 253.376 258.606C253.16 257.868 252.752 257.201 252.193 256.673L250.575 257.235Z" fill="#92E3A9" stroke="#263238" stroke-linecap="round" stroke-linejoin="round"/>
<path d="M255.53 148.714C255.53 148.714 258.135 151.191 260.102 151.319C261.356 151.38 262.61 151.186 263.788 150.749C265.452 151.227 267.211 151.271 268.896 150.876C271.314 150.178 270.999 146.747 270.999 146.747L263.686 144.261L255.53 148.714Z" fill="white" stroke="#263238" stroke-width="0.5" stroke-linecap="round" stroke-linejoin="round"/>
<path d="M257.752 150.434C258.79 150.608 259.857 150.412 260.766 149.88" stroke="#263238" stroke-width="0.5" stroke-linecap="round" stroke-linejoin="round"/>
<path d="M259.404 151.191C260.094 151.074 260.774 150.903 261.438 150.68" stroke="#263238" stroke-width="0.5" stroke-linecap="round" stroke-linejoin="round"/>
<path d="M265.695 150.553L267.806 151.013" stroke="#263238" stroke-width="0.5" stroke-linecap="round" stroke-linejoin="round"/>
<path d="M266.265 149.54C267.314 150.172 268.538 150.447 269.756 150.323" stroke="#263238" stroke-width="0.5" stroke-linecap="round" stroke-linejoin="round"/>
<path d="M259.659 149.029C259.659 149.029 262.213 149.88 262.213 153.992H264.767C264.767 153.992 265.15 150.587 266.93 148.586L267.628 147.888C266.968 147.351 266.215 146.941 265.406 146.679C263.754 146.041 264.009 146.168 262 146.62C260.527 146.952 259.208 148.714 259.208 148.714L259.659 149.029Z" fill="white" stroke="#263238" stroke-linecap="round" stroke-linejoin="round"/>
<path d="M263.567 134.096C263.567 134.096 262.239 132.632 260.962 132.887C259.685 133.143 254.866 136.446 253.912 137.782C253.2 138.941 252.9 140.306 253.061 141.656C253.189 141.98 253.376 142.354 253.376 142.354C253.376 142.354 252.167 143.435 252.993 145.76C253.819 148.084 255.215 149.063 256.398 149.318C257.497 149.602 258.659 149.513 259.702 149.063C260.336 148.672 260.95 148.249 261.54 147.794C261.909 147.822 262.28 147.774 262.629 147.654C262.979 147.534 263.301 147.344 263.575 147.096C263.901 147.444 264.318 147.694 264.778 147.817C265.238 147.941 265.724 147.933 266.18 147.794C266.589 148.383 267.144 148.857 267.79 149.168C268.436 149.48 269.151 149.62 269.867 149.574C270.958 149.494 271.996 149.069 272.83 148.36C273.664 147.652 274.251 146.696 274.506 145.632C274.784 144.418 274.653 143.145 274.132 142.014C274.225 140.036 273.592 138.092 272.353 136.548C270.25 133.875 267.713 133.56 266.436 133.143C265.159 132.725 263.567 134.096 263.567 134.096Z" fill="#FF0303" stroke="#263238" stroke-linecap="round" stroke-linejoin="round"/>
<path d="M263.533 147.062V134.096" stroke="#263238" stroke-width="0.5" stroke-linecap="round" stroke-linejoin="round"/>
<path d="M263.405 138.191C263.151 138.183 262.902 138.121 262.674 138.011C262.445 137.902 262.242 137.745 262.077 137.553C261.566 136.914 260.996 137.808 260.868 136.701C260.74 135.595 260.8 134.854 260.357 134.794C260.073 134.813 259.797 134.9 259.554 135.048C259.311 135.197 259.108 135.401 258.961 135.646" stroke="#263238" stroke-width="0.5" stroke-linecap="round" stroke-linejoin="round"/>
<path d="M260.928 135.492C261.27 135.226 261.499 134.84 261.566 134.411" stroke="#263238" stroke-width="0.5" stroke-linecap="round" stroke-linejoin="round"/>
<path d="M259.846 138.353L258.893 137.468L259.216 136.701" stroke="#263238" stroke-width="0.5" stroke-linecap="round" stroke-linejoin="round"/>
<path d="M258.893 137.468C258.592 137.704 258.335 137.992 258.135 138.319C258.02 138.54 257.934 138.774 257.88 139.017" stroke="#263238" stroke-width="0.5" stroke-linecap="round" stroke-linejoin="round"/>
<path d="M263.567 142.167C263.289 142.602 262.92 142.97 262.485 143.248C261.787 143.691 260.263 142.933 259.821 142.482C259.378 142.031 258.74 140.26 258.297 139.622C257.854 138.983 257.446 138.77 256.773 139.119C256.353 139.416 256.039 139.84 255.879 140.328" stroke="#263238" stroke-width="0.5" stroke-linecap="round" stroke-linejoin="round"/>
<path d="M262.264 139.945C262.264 139.945 261.881 140.703 261.753 141.026C261.626 141.35 261.498 140.073 260.902 139.434" stroke="#263238" stroke-width="0.5" stroke-linecap="round" stroke-linejoin="round"/>
<path d="M258.893 141.341C258.893 141.341 258.322 142.107 258.041 142.192" stroke="#263238" stroke-width="0.5" stroke-linecap="round" stroke-linejoin="round"/>
<path d="M258.459 144.329C258.377 144.4 258.282 144.452 258.179 144.484C258.076 144.516 257.967 144.526 257.86 144.514C257.753 144.502 257.65 144.468 257.556 144.414C257.463 144.361 257.382 144.288 257.318 144.202C256.747 143.563 256.552 143.35 256.041 143.35C255.649 143.375 255.265 143.462 254.9 143.606" stroke="#263238" stroke-width="0.5" stroke-linecap="round" stroke-linejoin="round"/>
<path d="M256.228 136.957C256.228 136.957 254.636 138.166 254.381 139.374C254.264 140.46 254.44 141.556 254.891 142.55C255.079 142.933 254.193 143.308 254.764 144.253C255.218 144.949 255.752 145.589 256.356 146.16C257.302 145.958 258.281 145.981 259.216 146.228C260.024 146.662 260.788 147.172 261.498 147.752" stroke="#263238" stroke-width="0.5" stroke-linecap="round" stroke-linejoin="round"/>
<path d="M256.356 146.168C256.077 146.244 255.832 146.411 255.659 146.643C255.486 146.874 255.396 147.157 255.402 147.445C255.275 148.586 256.254 148.969 257.369 149.225" stroke="#263238" stroke-width="0.5" stroke-linecap="round" stroke-linejoin="round"/>
<path d="M254.891 142.55C254.891 142.55 253.938 141.98 253.368 142.354" stroke="#263238" stroke-width="0.5" stroke-linecap="round" stroke-linejoin="round"/>
<path d="M252.925 145.215C252.925 145.215 253.683 146.109 254.381 146.109" stroke="#263238" stroke-width="0.5" stroke-linecap="round" stroke-linejoin="round"/>
<path d="M258.135 134.667C258.135 134.667 257.284 135.177 257.284 135.518C257.284 135.858 258.493 136.276 258.493 136.276" stroke="#263238" stroke-width="0.5" stroke-linecap="round" stroke-linejoin="round"/>
<path d="M257.752 136.19L257.113 137.272" stroke="#263238" stroke-width="0.5" stroke-linecap="round" stroke-linejoin="round"/>
<path d="M262.009 135.875C262.193 135.406 262.427 134.958 262.707 134.539C263.03 134.156 263.558 135.05 263.558 135.05C263.558 135.05 264.639 133.909 264.954 135.05" stroke="#263238" stroke-width="0.5" stroke-linecap="round" stroke-linejoin="round"/>
<path d="M262.707 134.539L262.264 133.841" stroke="#263238" stroke-width="0.5" stroke-linecap="round" stroke-linejoin="round"/>
<path d="M268.556 136.003C268.556 136.003 267.091 134.862 266.589 135.62C266.087 136.378 266.717 137.655 265.635 138.293C265.049 138.666 264.343 138.803 263.66 138.676" stroke="#263238" stroke-width="0.5" stroke-linecap="round" stroke-linejoin="round"/>
<path d="M264.997 140.83C264.997 140.83 265.125 141.026 265.695 140.643C266.265 140.26 266.138 139.792 266.717 139.306" stroke="#263238" stroke-width="0.5" stroke-linecap="round" stroke-linejoin="round"/>
<path d="M263.473 142.933C263.473 142.933 265.823 143.785 266.717 142.933C267.611 142.082 267.347 141.231 267.73 140.771C268.113 140.311 269.066 139.502 268.939 138.796C268.807 138.323 268.503 137.916 268.087 137.655" stroke="#263238" stroke-width="0.5" stroke-linecap="round" stroke-linejoin="round"/>
<path d="M268.939 138.796C269.129 138.684 269.341 138.616 269.56 138.595C269.779 138.575 270 138.602 270.207 138.676" stroke="#263238" stroke-width="0.5" stroke-linecap="round" stroke-linejoin="round"/>
<path d="M267.73 140.745C267.885 141.093 268.113 141.403 268.398 141.655C268.683 141.908 269.018 142.097 269.381 142.21" stroke="#263238" stroke-width="0.5" stroke-linecap="round" stroke-linejoin="round"/>
<path d="M272.625 140.643C272.797 141.68 272.753 142.74 272.497 143.759C272.055 144.968 271.731 145.087 271.731 145.087C270.736 145.022 269.74 145.176 268.811 145.538C267.67 146.109 266.717 146.168 266.257 146.994L265.814 147.846" stroke="#263238" stroke-width="0.5" stroke-linecap="round" stroke-linejoin="round"/>
<path d="M271.731 145.087C271.731 145.087 273.706 145.598 273.323 146.875" stroke="#263238" stroke-width="0.5" stroke-linecap="round" stroke-linejoin="round"/>
<path d="M273.264 145.794C273.264 145.794 273.894 145.47 273.894 144.142" stroke="#263238" stroke-width="0.5" stroke-linecap="round" stroke-linejoin="round"/>
<path d="M274.089 141.98L272.94 141.784" stroke="#263238" stroke-width="0.5" stroke-linecap="round" stroke-linejoin="round"/>
<path d="M271.161 136.769C271.379 136.792 271.583 136.889 271.738 137.044C271.893 137.199 271.99 137.403 272.012 137.621L272.14 138.378C272.14 138.378 273.408 138.762 273.034 139.715" stroke="#263238" stroke-width="0.5" stroke-linecap="round" stroke-linejoin="round"/>
<path d="M269.526 134.786C269.753 135.069 269.92 135.396 270.018 135.745C270.116 136.095 270.143 136.46 270.097 136.82" stroke="#263238" stroke-width="0.5" stroke-linecap="round" stroke-linejoin="round"/>
<path d="M266.019 133.934C266.642 133.825 267.285 133.911 267.858 134.181" stroke="#263238" stroke-width="0.5" stroke-linecap="round" stroke-linejoin="round"/>
<path d="M266.265 146.994C266.265 146.994 268.3 148.697 270.463 147.845" stroke="#263238" stroke-width="0.5" stroke-linecap="round" stroke-linejoin="round"/>
<path d="M270.02 146.747C270.258 146.682 270.507 146.667 270.751 146.703C270.995 146.739 271.229 146.825 271.438 146.956C271.647 147.088 271.827 147.261 271.965 147.465C272.103 147.67 272.198 147.901 272.242 148.143" stroke="#263238" stroke-width="0.5" stroke-linecap="round" stroke-linejoin="round"/>
<path d="M266.121 144.261C266.121 144.261 264.724 144.389 264.98 145.342" stroke="#263238" stroke-width="0.5" stroke-linecap="round" stroke-linejoin="round"/>
<path d="M270.148 141.026C270.148 141.026 270.65 140.958 271.416 139.945" stroke="#263238" stroke-width="0.5" stroke-linecap="round" stroke-linejoin="round"/>
<path d="M270.846 140.643L270.973 141.529" stroke="#263238" stroke-width="0.5" stroke-linecap="round" stroke-linejoin="round"/>
<path d="M259.846 145.002C260.011 145.232 260.22 145.425 260.461 145.572C260.703 145.718 260.971 145.814 261.251 145.853C261.542 145.91 261.842 145.899 262.128 145.823C262.414 145.746 262.679 145.605 262.903 145.411" stroke="#263238" stroke-width="0.5" stroke-linecap="round" stroke-linejoin="round"/>
<path d="M272.497 143.759C271.995 143.348 271.367 143.123 270.718 143.12" stroke="#263238" stroke-width="0.5" stroke-linecap="round" stroke-linejoin="round"/>
<path d="M257.113 140.643C256.892 140.771 256.702 140.945 256.555 141.154C256.408 141.363 256.308 141.601 256.262 141.852" stroke="#263238" stroke-width="0.5" stroke-linecap="round" stroke-linejoin="round"/>
<path d="M268.377 232.214C268.377 232.214 266.538 233.414 266.214 234.879C266.017 236.574 265.954 238.282 266.027 239.987L266.793 240.055C266.793 240.055 266.538 236.309 266.793 235.671C267.049 235.032 268.121 235.032 268.121 235.032C268.558 234.432 268.849 233.738 268.973 233.006C269.015 232.086 269.203 231.763 268.377 232.214Z" fill="white" stroke="#263238" stroke-width="0.5" stroke-linecap="round" stroke-linejoin="round"/>
<path d="M268.819 230.937C268.444 231.286 268.016 231.574 267.551 231.788C266.862 231.935 266.153 231.958 265.457 231.856L265.516 232.555C266.077 232.662 266.652 232.682 267.219 232.614C267.826 232.502 268.422 232.334 268.998 232.112C268.998 232.112 269.841 231.133 268.819 230.937Z" fill="white" stroke="#263238" stroke-width="0.5" stroke-linecap="round" stroke-linejoin="round"/>
<path d="M268.947 233.04L265.84 233.287L265.712 233.866C266.197 233.827 266.683 233.827 267.168 233.866C267.866 233.925 268.632 233.925 268.632 233.925C268.632 233.925 269.526 233.866 268.947 233.04Z" fill="white" stroke="#263238" stroke-width="0.5" stroke-linecap="round" stroke-linejoin="round"/>
<path d="M273.902 228.843C273.902 228.843 272.821 225.54 271.042 225.097C269.262 224.654 266.853 226.11 266.725 227.574C266.598 229.039 268.819 230.937 268.819 230.937C268.575 231.323 268.424 231.76 268.377 232.214C268.39 232.62 268.452 233.024 268.564 233.415C267.914 234.305 267.461 235.324 267.236 236.403C267.108 237.739 268.564 239.263 270.795 239.451C273.025 239.638 274.03 238.31 274.2 237.288C274.278 236.764 274.298 236.233 274.26 235.705C275.048 234.667 275.454 233.389 275.409 232.086C275.426 229.609 273.902 228.843 273.902 228.843Z" fill="#92E3A9"/>
<path opacity="0.58" d="M273.902 228.843C273.902 228.843 272.821 225.54 271.042 225.097C269.262 224.654 266.853 226.11 266.725 227.574C266.598 229.039 268.819 230.937 268.819 230.937C268.575 231.323 268.424 231.76 268.377 232.214C268.39 232.62 268.452 233.024 268.564 233.415C267.914 234.305 267.461 235.324 267.236 236.403C267.108 237.739 268.564 239.263 270.795 239.451C273.025 239.638 274.03 238.31 274.2 237.288C274.278 236.764 274.298 236.233 274.26 235.705C275.048 234.667 275.454 233.389 275.409 232.086C275.426 229.609 273.902 228.843 273.902 228.843Z" fill="white"/>
<path d="M272.225 229.737C272.509 229.528 272.774 229.294 273.017 229.039" stroke="#263238" stroke-width="0.5" stroke-linecap="round" stroke-linejoin="round"/>
<path d="M269.841 230.69C270.479 230.593 271.096 230.385 271.663 230.077" stroke="#263238" stroke-width="0.5" stroke-linecap="round" stroke-linejoin="round"/>
<path d="M269.33 233.61C269.33 233.61 272.565 233.287 273.842 235.194" stroke="#263238" stroke-width="0.5" stroke-linecap="round" stroke-linejoin="round"/>
<path d="M273.902 228.843C273.902 228.843 272.821 225.54 271.042 225.097C269.262 224.654 266.853 226.11 266.725 227.574C266.598 229.039 268.819 230.937 268.819 230.937C268.575 231.323 268.424 231.76 268.377 232.214C268.39 232.62 268.452 233.024 268.564 233.415C267.914 234.305 267.461 235.324 267.236 236.403C267.108 237.739 268.564 239.263 270.795 239.451C273.025 239.638 274.03 238.31 274.2 237.288C274.278 236.764 274.298 236.233 274.26 235.705C275.048 234.667 275.454 233.389 275.409 232.086C275.426 229.609 273.902 228.843 273.902 228.843Z" stroke="#263238" stroke-miterlimit="10"/>
<path d="M260.732 232.214C260.732 232.214 262.571 233.414 262.886 234.879C263.089 236.573 263.155 238.282 263.081 239.987L262.315 240.055C262.315 240.055 262.571 236.309 262.315 235.671C262.06 235.032 260.987 235.032 260.987 235.032C260.55 234.432 260.259 233.738 260.136 233.006C260.093 232.086 259.906 231.763 260.732 232.214Z" fill="white" stroke="#263238" stroke-width="0.5" stroke-linecap="round" stroke-linejoin="round"/>
<path d="M260.289 230.937C260.664 231.286 261.092 231.574 261.558 231.788C262.246 231.935 262.955 231.958 263.652 231.856L263.584 232.555C263.023 232.663 262.448 232.683 261.881 232.614C261.274 232.502 260.678 232.334 260.102 232.112C260.102 232.112 259.31 231.133 260.289 230.937Z" fill="white" stroke="#263238" stroke-width="0.5" stroke-linecap="round" stroke-linejoin="round"/>
<path d="M260.161 233.04L263.269 233.287L263.396 233.866C262.909 233.827 262.419 233.827 261.932 233.866C261.234 233.925 260.476 233.925 260.476 233.925C260.476 233.925 259.582 233.866 260.161 233.04Z" fill="white" stroke="#263238" stroke-width="0.5" stroke-linecap="round" stroke-linejoin="round"/>
<path d="M255.206 228.843C255.206 228.843 256.279 225.54 258.059 225.097C259.838 224.654 262.256 226.11 262.383 227.574C262.511 229.039 260.289 230.937 260.289 230.937C260.533 231.323 260.685 231.76 260.732 232.214C260.718 232.621 260.652 233.025 260.536 233.415C261.19 234.304 261.646 235.323 261.873 236.403C262 237.739 260.536 239.263 258.314 239.451C256.092 239.638 255.079 238.31 254.909 237.288C254.831 236.764 254.808 236.233 254.84 235.705C254.057 234.665 253.654 233.388 253.7 232.086C253.683 229.609 255.206 228.843 255.206 228.843Z" fill="#92E3A9"/>
<path opacity="0.58" d="M255.206 228.843C255.206 228.843 256.279 225.54 258.059 225.097C259.838 224.654 262.256 226.11 262.383 227.574C262.511 229.039 260.289 230.937 260.289 230.937C260.533 231.323 260.685 231.76 260.732 232.214C260.718 232.621 260.652 233.025 260.536 233.415C261.19 234.304 261.646 235.323 261.873 236.403C262 237.739 260.536 239.263 258.314 239.451C256.092 239.638 255.079 238.31 254.909 237.288C254.831 236.764 254.808 236.233 254.84 235.705C254.057 234.665 253.654 233.388 253.7 232.086C253.683 229.609 255.206 228.843 255.206 228.843Z" fill="white"/>
<path d="M256.884 229.737C256.598 229.53 256.332 229.297 256.092 229.039" stroke="#263238" stroke-width="0.5" stroke-linecap="round" stroke-linejoin="round"/>
<path d="M259.31 230.69C258.672 230.593 258.055 230.385 257.488 230.077" stroke="#263238" stroke-width="0.5" stroke-linecap="round" stroke-linejoin="round"/>
<path d="M259.778 233.61C259.778 233.61 256.535 233.287 255.266 235.194" stroke="#263238" stroke-width="0.5" stroke-linecap="round" stroke-linejoin="round"/>
<path d="M255.206 228.843C255.206 228.843 256.279 225.54 258.059 225.097C259.838 224.654 262.256 226.11 262.383 227.574C262.511 229.039 260.289 230.937 260.289 230.937C260.533 231.323 260.685 231.76 260.732 232.214C260.718 232.621 260.652 233.025 260.536 233.415C261.19 234.304 261.646 235.323 261.873 236.403C262 237.739 260.536 239.263 258.314 239.451C256.092 239.638 255.079 238.31 254.909 237.288C254.831 236.764 254.808 236.233 254.84 235.705C254.057 234.665 253.654 233.388 253.7 232.086C253.683 229.609 255.206 228.843 255.206 228.843Z" stroke="#263238" stroke-miterlimit="10"/>
<path d="M271.527 259.125C271.697 261.875 271.11 264.378 270.088 265.025C269.066 265.672 265.389 265.749 264.069 265.698C264.069 265.698 260.493 265.698 258.825 264.923C257.539 264.344 256.1 263.152 256.169 259.125H255.096C255.028 262.684 256.075 264.838 258.374 265.876C260.264 266.728 263.924 266.728 264.052 266.728C264.18 266.728 264.58 266.728 265.133 266.728C266.708 266.728 269.509 266.617 270.675 265.876C272.25 264.88 272.761 261.833 272.608 259.066L271.527 259.125Z" fill="#808080" stroke="#263238" stroke-linecap="round" stroke-linejoin="round"/>
<path d="M269.467 264.744C269.391 264.244 269.197 263.769 268.901 263.359C268.605 262.948 268.215 262.615 267.764 262.386C266.061 261.347 265.252 263.041 263.677 262.514C262.102 261.986 259.421 261.994 258.646 264.352C258.367 265.294 258.38 266.298 258.684 267.231C258.988 268.165 259.568 268.984 260.349 269.58C261.06 270.208 261.913 270.655 262.835 270.882C262.835 270.882 263.362 274.151 264.009 273.632C264.656 273.113 265.448 270.882 265.448 270.882C266.72 270.199 267.906 269.367 268.981 268.405C269.399 267.903 269.666 267.292 269.752 266.645C269.838 265.997 269.739 265.338 269.467 264.744V264.744Z" fill="#808080" stroke="#263238" stroke-linecap="round" stroke-linejoin="round"/>
<path d="M265.746 192.558C265.746 192.558 261.864 194.38 261.694 197.828C261.523 201.276 262.707 205.831 265.142 207.457C267.577 209.083 274.762 211.714 277.401 211.407C280.04 211.101 280.534 209.381 280.943 206.648C281.351 203.915 280.338 200.868 279.827 199.25C279.317 197.632 277.495 195.402 276.184 194.184C274.873 192.967 274.157 192.661 271.518 191.954C268.879 191.247 265.746 192.558 265.746 192.558Z" fill="#92E3A9"/>
<path opacity="0.58" d="M265.746 192.558C265.746 192.558 261.864 194.38 261.694 197.828C261.523 201.276 262.707 205.831 265.142 207.457C267.577 209.083 274.762 211.714 277.401 211.407C280.04 211.101 280.534 209.381 280.943 206.648C281.351 203.915 280.338 200.868 279.827 199.25C279.317 197.632 277.495 195.402 276.184 194.184C274.873 192.967 274.157 192.661 271.518 191.954C268.879 191.247 265.746 192.558 265.746 192.558Z" fill="white"/>
<path d="M265.746 192.558C265.746 192.558 261.864 194.38 261.694 197.828C261.523 201.276 262.707 205.831 265.142 207.457C267.577 209.083 274.762 211.714 277.401 211.407C280.04 211.101 280.534 209.381 280.943 206.648C281.351 203.915 280.338 200.868 279.827 199.25C279.317 197.632 277.495 195.402 276.184 194.184C274.873 192.967 274.157 192.661 271.518 191.954C268.879 191.247 265.746 192.558 265.746 192.558Z" stroke="#263238" stroke-miterlimit="10"/>
<path d="M267.875 195.802C267.875 195.802 265.848 195.504 265.746 192.558C265.644 189.613 268.683 186.284 268.683 186.284C268.385 185.623 268.047 184.98 267.67 184.36L266.759 182.734L268.275 182.129C268.721 182.564 269.128 183.037 269.492 183.543C269.799 184.053 270.403 185.245 270.403 185.245V182.691L272.029 182.589L272.531 185.526C272.531 185.526 272.233 184.82 274.558 185.628C276.882 186.437 277.801 188.77 277.903 190.592C277.879 192.105 277.641 193.606 277.197 195.053L273.791 192.499C273.791 192.499 274.098 188.651 272.574 188.957C271.05 189.264 271.263 190.779 270.25 193.01C269.237 195.24 267.875 195.802 267.875 195.802Z" fill="white" stroke="#263238" stroke-linecap="round" stroke-linejoin="round"/>
<path d="M269.526 194.38C269.526 194.38 271.552 189.613 273.579 188.906C274.862 188.386 276.251 188.179 277.631 188.302C278.346 188.404 278.644 189.715 278.644 191.034C278.644 192.354 276.72 191.741 275.605 192.958C274.49 194.176 274.694 196.364 274.694 196.364" fill="#92E3A9"/>
<path d="M269.526 194.38C269.526 194.38 271.552 189.613 273.579 188.906C274.862 188.386 276.251 188.179 277.631 188.302C278.346 188.404 278.644 189.715 278.644 191.034C278.644 192.354 276.72 191.741 275.605 192.958C274.49 194.176 274.694 196.364 274.694 196.364" stroke="#263238" stroke-linecap="round" stroke-linejoin="round"/>
<path d="M279.606 199.871C279.274 199.329 278.792 198.895 278.218 198.62L277.801 198.458C277.675 198.398 277.552 198.33 277.435 198.254C277.195 198.099 276.967 197.925 276.754 197.735C276.318 197.344 275.912 196.923 275.537 196.475L275 196.951C275.432 197.396 275.896 197.809 276.388 198.186L276.567 198.296C276.017 198.826 275.582 199.464 275.29 200.169C274.937 201.089 274.854 202.09 275.051 203.055C275.171 203.992 275.341 204.92 275.443 205.848C275.624 206.769 275.495 207.724 275.077 208.564C275.549 207.736 275.74 206.777 275.622 205.831C275.622 204.886 275.469 203.949 275.409 203.021C275.284 202.124 275.414 201.209 275.784 200.382C275.86 200.229 275.954 200.076 276.047 199.923C276.383 200.484 276.649 201.084 276.839 201.71C277.07 202.502 277.199 203.321 277.222 204.145C277.25 205.004 277.355 205.859 277.537 206.699C277.628 207.116 277.766 207.522 277.946 207.908C278.109 208.3 278.377 208.639 278.721 208.887C278.401 208.617 278.162 208.263 278.031 207.866C277.883 207.478 277.778 207.075 277.716 206.665C277.593 205.84 277.55 205.004 277.588 204.171C277.621 203.313 277.544 202.455 277.359 201.617C277.192 200.831 276.905 200.076 276.507 199.378C276.71 199.138 276.935 198.918 277.18 198.722V198.722C277.323 198.799 277.471 198.867 277.622 198.926L278.065 199.046C278.608 199.231 279.085 199.571 279.436 200.025C279.802 200.496 280.074 201.034 280.236 201.608C280.148 200.992 279.933 200.401 279.606 199.871V199.871Z" fill="#263238"/>
<path d="M268.377 200.663C267.951 200.467 267.575 200.176 267.279 199.812C267.06 199.523 266.912 199.188 266.844 198.833C267.127 198.577 267.381 198.292 267.602 197.981C268.206 197.21 268.54 196.262 268.556 195.283L267.517 195.878C267.422 196.455 267.198 197.002 266.861 197.479C266.506 198.016 266.082 198.506 265.601 198.935C264.931 199.501 264.21 200.006 263.448 200.442L262.732 200.825C262.562 200.918 262.383 201.004 262.205 201.089L262.741 200.97C262.77 201.416 262.847 201.859 262.971 202.289C263.147 202.92 263.435 203.514 263.822 204.043C264.2 204.552 264.619 205.031 265.074 205.473C265.518 205.921 266.009 206.321 266.538 206.665C266.052 206.27 265.61 205.825 265.218 205.337C264.823 204.861 264.462 204.357 264.137 203.83C263.825 203.305 263.609 202.728 263.499 202.127C263.401 201.672 263.367 201.205 263.396 200.74C263.66 200.655 263.916 200.561 264.171 200.459C264.825 200.193 265.447 199.856 266.027 199.454L266.274 199.267C266.418 199.583 266.617 199.871 266.861 200.118C267.237 200.507 267.702 200.799 268.215 200.97C269.146 201.324 270.043 201.76 270.897 202.272C270.107 201.66 269.264 201.122 268.377 200.663Z" fill="#263238"/>
</g>
<path d="M353.253 133.431C344.908 140.647 339.724 150.65 338.753 161.412L338.604 166.287C338.87 176.997 343.321 187.216 351.067 194.904C358.813 202.592 369.285 207.182 380.391 207.758C391.497 208.334 402.419 204.854 410.978 198.012C419.536 191.169 425.1 181.469 426.559 170.848L426.952 165.989C427.145 157.688 424.812 149.513 420.24 142.473C415.669 135.433 409.059 129.835 401.226 126.369C393.392 122.904 384.677 121.722 376.154 122.969C367.631 124.216 359.674 127.838 353.262 133.388L353.253 133.431Z" fill="white"/>
<path d="M353.253 133.431C344.908 140.647 339.724 150.65 338.753 161.412L338.604 166.287C338.87 176.997 343.321 187.217 351.067 194.904C358.813 202.592 369.285 207.182 380.391 207.758C391.496 208.334 402.419 204.854 410.978 198.012C419.536 191.17 425.1 181.469 426.559 170.849L426.952 165.99C427.145 157.688 424.812 149.513 420.24 142.473C415.669 135.433 409.059 129.835 401.226 126.37C393.392 122.904 384.677 121.722 376.154 122.969C367.631 124.216 359.674 127.838 353.262 133.388L353.253 133.431Z" fill="white"/>
<path d="M350.749 130.742C342.312 138.041 336.83 147.981 335.273 158.802C333.717 169.622 336.186 180.623 342.243 189.858L335.496 202.661C335.242 203.142 335.145 203.686 335.218 204.221C335.291 204.756 335.53 205.258 335.903 205.66C336.277 206.062 336.769 206.345 337.313 206.474C337.857 206.602 338.429 206.569 338.953 206.379L352.896 201.302C360.049 206.789 368.682 210.192 377.776 211.109C386.87 212.026 396.047 210.419 404.225 206.478C412.403 202.537 419.24 196.426 423.932 188.866C428.623 181.305 430.973 172.61 430.704 163.806C430.434 155.001 427.558 146.455 422.413 139.173C417.267 131.892 410.068 126.179 401.664 122.708C393.26 119.238 384.001 118.154 374.978 119.585C365.955 121.016 357.546 124.902 350.74 130.785L350.749 130.742ZM415.681 136.696C423.177 144.736 427.206 155.229 426.943 166.033L426.55 170.891C425.07 181.494 419.499 191.17 410.945 197.993C402.392 204.816 391.485 208.286 380.395 207.711C369.306 207.136 358.848 202.559 351.105 194.891C343.361 187.223 338.9 177.026 338.61 166.333L338.744 161.455C339.493 153.185 342.735 145.306 348.073 138.788C353.41 132.27 360.61 127.398 368.785 124.771C376.961 122.145 385.755 121.878 394.086 124.005C402.417 126.131 409.92 130.558 415.672 136.739L415.681 136.696Z" fill="#FF9C06"/>
<path opacity="0.7" d="M350.749 130.742C342.312 138.041 336.83 147.981 335.273 158.802C333.717 169.622 336.186 180.623 342.243 189.858L335.496 202.661C335.242 203.142 335.145 203.686 335.218 204.221C335.291 204.756 335.53 205.258 335.903 205.66C336.277 206.062 336.769 206.345 337.313 206.474C337.857 206.602 338.429 206.569 338.953 206.379L352.896 201.302C360.049 206.789 368.682 210.192 377.776 211.109C386.87 212.026 396.047 210.419 404.225 206.478C412.403 202.537 419.24 196.426 423.932 188.866C428.623 181.305 430.973 172.61 430.704 163.806C430.434 155.001 427.558 146.455 422.413 139.173C417.267 131.892 410.068 126.179 401.664 122.708C393.26 119.238 384.001 118.154 374.978 119.585C365.955 121.016 357.546 124.902 350.74 130.785L350.749 130.742ZM415.681 136.696C423.177 144.736 427.206 155.229 426.943 166.033L426.55 170.891C425.07 181.494 419.499 191.17 410.945 197.993C402.392 204.816 391.485 208.286 380.395 207.711C369.306 207.136 358.848 202.559 351.105 194.891C343.361 187.223 338.9 177.026 338.61 166.333L338.744 161.455C339.493 153.185 342.735 145.306 348.073 138.788C353.41 132.27 360.61 127.398 368.785 124.771C376.961 122.145 385.755 121.878 394.086 124.005C402.417 126.131 409.92 130.558 415.672 136.739L415.681 136.696Z" fill="white"/>
<path d="M367.39 182.904C370.13 183.348 372.944 182.853 375.345 181.505" stroke="#263238" stroke-width="0.5" stroke-linecap="round" stroke-linejoin="round"/>
<path d="M371.755 184.857C373.584 184.553 375.387 184.118 377.149 183.555" stroke="#263238" stroke-width="0.5" stroke-linecap="round" stroke-linejoin="round"/>
<path d="M388.407 183.23L394.003 184.385" stroke="#263238" stroke-width="0.5" stroke-linecap="round" stroke-linejoin="round"/>
<path d="M389.924 180.626C392.694 182.247 395.937 182.95 399.16 182.627" stroke="#263238" stroke-width="0.5" stroke-linecap="round" stroke-linejoin="round"/>
<path d="M372.429 179.341C372.429 179.341 379.171 181.44 379.171 192H385.912C385.912 192 386.907 183.23 391.626 178.202L393.48 176.412C391.73 175.037 389.729 173.988 387.581 173.32C383.216 171.693 383.89 172.019 378.665 173.158C374.772 174.02 371.266 178.527 371.266 178.527L372.429 179.341Z" fill="white" stroke="#263238" stroke-linecap="round" stroke-linejoin="round"/>
<path d="M382.693 141.168C382.693 141.168 379.154 137.425 375.8 138.076C372.446 138.727 359.654 147.172 357.126 150.589C355.261 153.56 354.489 157.051 354.935 160.498C355.272 161.312 355.778 162.288 355.778 162.288C355.778 162.288 352.576 165.038 354.767 170.896C356.958 176.754 360.648 179.341 363.682 179.975C366.591 180.692 369.664 180.47 372.429 179.341C374.452 178.202 377.317 176.086 377.317 176.086C377.317 176.086 379.491 176.575 382.693 174.297C383.554 175.188 384.656 175.828 385.874 176.145C387.093 176.461 388.379 176.441 389.587 176.086C390.671 177.59 392.139 178.798 393.848 179.593C395.558 180.389 397.451 180.744 399.345 180.626C402.23 180.417 404.973 179.332 407.18 177.525C409.387 175.719 410.945 173.284 411.631 170.57C412.359 167.461 412.003 164.206 410.62 161.312C410.872 156.252 409.193 151.279 405.901 147.335C400.356 140.517 393.631 139.703 390.261 138.564C386.89 137.425 382.693 141.168 382.693 141.168Z" fill="#FF0303" stroke="#263238" stroke-linecap="round" stroke-linejoin="round"/>
<path d="M382.693 174.297V141.168" stroke="#263238" stroke-width="0.5" stroke-linecap="round" stroke-linejoin="round"/>
<path d="M382.356 151.565C381.682 151.543 381.021 151.386 380.412 151.107C379.803 150.827 379.26 150.429 378.817 149.938C377.486 148.311 375.969 150.589 375.632 147.66C375.295 144.731 375.463 142.958 374.284 142.779C373.52 142.839 372.784 143.079 372.138 143.475C371.492 143.872 370.956 144.415 370.576 145.057" stroke="#263238" stroke-width="0.5" stroke-linecap="round" stroke-linejoin="round"/>
<path d="M375.8 144.747C376.703 144.063 377.305 143.075 377.485 141.981" stroke="#263238" stroke-width="0.5" stroke-linecap="round" stroke-linejoin="round"/>
<path d="M372.935 152.053L370.407 149.775L371.25 147.823" stroke="#263238" stroke-width="0.5" stroke-linecap="round" stroke-linejoin="round"/>
<path d="M370.407 149.775C369.62 150.366 368.942 151.081 368.402 151.891C368.103 152.459 367.877 153.06 367.727 153.68" stroke="#263238" stroke-width="0.5" stroke-linecap="round" stroke-linejoin="round"/>
<path d="M382.693 161.8C381.945 162.898 380.97 163.834 379.828 164.55C377.974 165.689 373.946 163.736 372.766 162.597C371.587 161.458 369.901 156.918 368.738 155.291C367.575 153.664 366.379 153.029 364.693 153.99C363.584 154.749 362.756 155.833 362.334 157.081" stroke="#263238" stroke-width="0.5" stroke-linecap="round" stroke-linejoin="round"/>
<path d="M379.323 156.105C379.323 156.105 378.311 158.058 377.974 158.871C377.637 159.685 377.317 156.431 375.8 154.803" stroke="#263238" stroke-width="0.5" stroke-linecap="round" stroke-linejoin="round"/>
<path d="M370.407 159.685C370.407 159.685 368.907 161.637 368.233 161.8" stroke="#263238" stroke-width="0.5" stroke-linecap="round" stroke-linejoin="round"/>
<path d="M369.312 167.316C369.097 167.498 368.845 167.634 368.572 167.717C368.3 167.799 368.013 167.826 367.729 167.795C367.445 167.765 367.171 167.677 366.924 167.539C366.677 167.4 366.463 167.214 366.295 166.991C364.778 165.363 364.272 164.875 362.924 164.875C361.889 164.937 360.871 165.156 359.907 165.526" stroke="#263238" stroke-width="0.5" stroke-linecap="round" stroke-linejoin="round"/>
<path d="M363.345 148.474C363.345 148.474 359.149 151.565 358.474 154.641C358.141 157.421 358.608 160.236 359.823 162.776C360.312 163.753 357.969 164.729 359.486 167.17C360.678 168.953 362.087 170.592 363.682 172.051C363.682 172.051 368.738 171.091 371.25 172.214C373.395 173.329 375.426 174.636 377.317 176.119" stroke="#263238" stroke-width="0.5" stroke-linecap="round" stroke-linejoin="round"/>
<path d="M363.682 171.986C362.941 172.17 362.286 172.593 361.827 173.185C361.367 173.776 361.13 174.501 361.154 175.24C360.817 178.169 363.514 179.145 366.379 179.78" stroke="#263238" stroke-width="0.5" stroke-linecap="round" stroke-linejoin="round"/>
<path d="M359.823 162.76C359.823 162.76 357.295 161.312 355.778 162.288" stroke="#263238" stroke-width="0.5" stroke-linecap="round" stroke-linejoin="round"/>
<path d="M354.598 169.594C354.598 169.594 356.621 171.856 358.475 171.856" stroke="#263238" stroke-width="0.5" stroke-linecap="round" stroke-linejoin="round"/>
<path d="M368.402 142.697C368.402 142.697 366.042 143.999 366.042 144.975C366.042 145.951 369.227 146.911 369.227 146.911" stroke="#263238" stroke-width="0.5" stroke-linecap="round" stroke-linejoin="round"/>
<path d="M367.39 146.521L365.705 149.287" stroke="#263238" stroke-width="0.5" stroke-linecap="round" stroke-linejoin="round"/>
<path d="M378.649 145.707C379.136 144.512 379.757 143.371 380.503 142.307C381.345 141.33 382.862 143.608 382.862 143.608C382.862 143.608 385.727 140.679 386.57 143.608" stroke="#263238" stroke-width="0.5" stroke-linecap="round" stroke-linejoin="round"/>
<path d="M380.502 142.307L379.323 140.517" stroke="#263238" stroke-width="0.5" stroke-linecap="round" stroke-linejoin="round"/>
<path d="M395.974 146.033C395.974 146.033 392.115 143.12 390.766 145.073C389.418 147.025 391.103 150.263 388.238 151.89C386.698 152.852 384.832 153.202 383.03 152.867" stroke="#263238" stroke-width="0.5" stroke-linecap="round" stroke-linejoin="round"/>
<path d="M386.57 158.383C386.57 158.383 386.89 158.871 388.407 157.895C389.924 156.918 389.587 155.617 391.104 154.478" stroke="#263238" stroke-width="0.5" stroke-linecap="round" stroke-linejoin="round"/>
<path d="M382.525 163.736C382.525 163.736 388.744 165.852 391.104 163.736C393.463 161.621 392.789 159.359 393.8 158.22C394.812 157.081 397.323 154.966 396.986 153.192C396.616 151.965 395.779 150.919 394.643 150.263" stroke="#263238" stroke-width="0.5" stroke-linecap="round" stroke-linejoin="round"/>
<path d="M396.985 153.192C397.488 152.903 398.051 152.724 398.633 152.668C399.216 152.611 399.804 152.679 400.356 152.867" stroke="#263238" stroke-width="0.5" stroke-linecap="round" stroke-linejoin="round"/>
<path d="M393.8 158.22C394.211 159.107 394.813 159.9 395.566 160.545C396.318 161.19 397.204 161.674 398.165 161.963" stroke="#263238" stroke-width="0.5" stroke-linecap="round" stroke-linejoin="round"/>
<path d="M406.744 157.895C407.206 160.541 407.091 163.251 406.407 165.851C405.227 168.943 404.401 169.268 404.401 169.268C401.762 169.094 399.115 169.483 396.648 170.407C393.632 171.856 391.104 172.035 389.907 174.134L388.727 176.249" stroke="#263238" stroke-width="0.5" stroke-linecap="round" stroke-linejoin="round"/>
<path d="M404.401 169.268C404.401 169.268 409.609 170.57 408.598 173.808" stroke="#263238" stroke-width="0.5" stroke-linecap="round" stroke-linejoin="round"/>
<path d="M408.429 171.058C408.429 171.058 410.115 170.245 410.115 166.828" stroke="#263238" stroke-width="0.5" stroke-linecap="round" stroke-linejoin="round"/>
<path d="M410.62 161.312L407.587 160.824" stroke="#263238" stroke-width="0.5" stroke-linecap="round" stroke-linejoin="round"/>
<path d="M402.884 147.985C403.437 148.059 403.949 148.306 404.341 148.689C404.734 149.071 404.986 149.567 405.058 150.101L405.395 152.053C405.395 152.053 408.766 153.03 407.755 155.454" stroke="#263238" stroke-width="0.5" stroke-linecap="round" stroke-linejoin="round"/>
<path d="M398.503 142.958C399.102 143.681 399.545 144.513 399.805 145.405C400.066 146.296 400.139 147.229 400.019 148.148" stroke="#263238" stroke-width="0.5" stroke-linecap="round" stroke-linejoin="round"/>
<path d="M389.25 140.679C390.91 140.405 392.616 140.632 394.137 141.33" stroke="#263238" stroke-width="0.5" stroke-linecap="round" stroke-linejoin="round"/>
<path d="M389.924 174.134C389.924 174.134 395.317 178.527 401.03 176.249" stroke="#263238" stroke-width="0.5" stroke-linecap="round" stroke-linejoin="round"/>
<path d="M399.85 173.483C400.481 173.317 401.141 173.28 401.787 173.373C402.434 173.466 403.053 173.688 403.606 174.025C404.159 174.361 404.634 174.805 405 175.328C405.366 175.851 405.615 176.442 405.732 177.063" stroke="#263238" stroke-width="0.5" stroke-linecap="round" stroke-linejoin="round"/>
<path d="M389.536 167.104C389.536 167.104 385.845 167.43 386.519 169.871" stroke="#263238" stroke-width="0.5" stroke-linecap="round" stroke-linejoin="round"/>
<path d="M400.188 158.871C400.188 158.871 401.536 158.708 403.559 156.105" stroke="#263238" stroke-width="0.5" stroke-linecap="round" stroke-linejoin="round"/>
<path d="M402.042 157.895L402.379 160.173" stroke="#263238" stroke-width="0.5" stroke-linecap="round" stroke-linejoin="round"/>
<path d="M372.935 169.106C373.375 169.679 373.929 170.16 374.567 170.521C375.204 170.882 375.91 171.114 376.643 171.205C377.411 171.357 378.205 171.335 378.962 171.14C379.72 170.945 380.42 170.583 381.008 170.082" stroke="#263238" stroke-width="0.5" stroke-linecap="round" stroke-linejoin="round"/>
<path d="M406.39 165.852C405.064 164.802 403.403 164.227 401.688 164.224" stroke="#263238" stroke-width="0.5" stroke-linecap="round" stroke-linejoin="round"/>
<path d="M365.705 157.895C365.131 158.227 364.638 158.676 364.26 159.209C363.882 159.743 363.627 160.349 363.514 160.986" stroke="#263238" stroke-width="0.5" stroke-linecap="round" stroke-linejoin="round"/>
</g>
</g>
<defs>
<filter id="filter0_d_24_284" x="0" y="0" width="648" height="508" filterUnits="userSpaceOnUse" color-interpolation-filters="sRGB">
<feFlood flood-opacity="0" result="BackgroundImageFix"/>
<feColorMatrix in="SourceAlpha" type="matrix" values="0 0 0 0 0 0 0 0 0 0 0 0 0 0 0 0 0 0 127 0" result="hardAlpha"/>
<feOffset dy="4"/>
<feGaussianBlur stdDeviation="2"/>
<feComposite in2="hardAlpha" operator="out"/>
<feColorMatrix type="matrix" values="0 0 0 0 0 0 0 0 0 0 0 0 0 0 0 0 0 0 0.25 0"/>
<feBlend mode="normal" in2="BackgroundImageFix" result="effect1_dropShadow_24_284"/>
<feBlend mode="normal" in="SourceGraphic" in2="effect1_dropShadow_24_284" result="shape"/>
</filter>
<filter id="filter1_d_24_284" x="0" y="0" width="648" height="508" filterUnits="userSpaceOnUse" color-interpolation-filters="sRGB">
<feFlood flood-opacity="0" result="BackgroundImageFix"/>
<feColorMatrix in="SourceAlpha" type="matrix" values="0 0 0 0 0 0 0 0 0 0 0 0 0 0 0 0 0 0 127 0" result="hardAlpha"/>
<feOffset dy="4"/>
<feGaussianBlur stdDeviation="2"/>
<feComposite in2="hardAlpha" operator="out"/>
<feColorMatrix type="matrix" values="0 0 0 0 0 0 0 0 0 0 0 0 0 0 0 0 0 0 0.25 0"/>
<feBlend mode="normal" in2="BackgroundImageFix" result="effect1_dropShadow_24_284"/>
<feBlend mode="normal" in="SourceGraphic" in2="effect1_dropShadow_24_284" result="shape"/>
</filter>
<filter id="filter2_d_24_284" x="204.75" y="128.75" width="117.5" height="269.459" filterUnits="userSpaceOnUse" color-interpolation-filters="sRGB">
<feFlood flood-opacity="0" result="BackgroundImageFix"/>
<feColorMatrix in="SourceAlpha" type="matrix" values="0 0 0 0 0 0 0 0 0 0 0 0 0 0 0 0 0 0 127 0" result="hardAlpha"/>
<feOffset dy="4"/>
<feGaussianBlur stdDeviation="2"/>
<feComposite in2="hardAlpha" operator="out"/>
<feColorMatrix type="matrix" values="0 0 0 0 0 0 0 0 0 0 0 0 0 0 0 0 0 0 0.25 0"/>
<feBlend mode="normal" in2="BackgroundImageFix" result="effect1_dropShadow_24_284"/>
<feBlend mode="normal" in="SourceGraphic" in2="effect1_dropShadow_24_284" result="shape"/>
</filter>
<clipPath id="clip0_24_284">
<rect width="640" height="500" fill="white" transform="translate(4)"/>
</clipPath>
</defs>
</svg>
