<svg width="400" height="400" viewBox="0 0 400 400" fill="none" xmlns="http://www.w3.org/2000/svg">
<path d="M213.626 85.7976C213.626 85.7976 214.154 78.4079 210.723 73.9298C207.292 69.4517 199.375 69.4432 195.952 70.7628C192.53 72.0824 189.091 74.4577 188.29 78.4249C187.803 81.3008 187.626 84.2206 187.762 87.1342C187.403 87.2119 187.064 87.3664 186.77 87.5871C186.476 87.8078 186.232 88.0894 186.057 88.4128C185.881 88.7362 185.778 89.0936 185.753 89.4607C185.729 89.8278 185.784 90.1958 185.915 90.5396C186.336 92.2011 187.151 93.737 188.29 95.0177C188.29 95.0177 189.082 98.7126 189.61 100.296C190.138 101.88 193.015 105.311 193.015 105.311C193.015 105.311 193.543 109.269 191.696 110.589C189.848 111.909 185.362 112.964 179.036 115.067C172.711 117.17 166.896 122.729 165.576 129.846C164.781 134.107 164.603 138.459 165.048 142.77L162.673 157.805C161.085 161.937 160.196 166.304 160.043 170.728C159.779 178.118 158.459 192.863 158.459 192.863C158.459 192.863 160.043 193.919 156.348 195.766C152.653 197.614 152.389 198.933 151.861 200.253C151.333 201.573 151.069 204.212 150.014 205.003C148.958 205.795 145.527 205.003 146.055 207.634C146.583 210.265 150.312 208.69 150.312 208.69L152.687 208.162V221.622C152.687 222.941 153.479 224.789 154.798 223.205C154.798 223.205 156.118 225.053 156.91 224.261L158.195 223.512C158.195 223.512 159.753 224.159 160.485 223.886C161.217 223.614 162.682 221.588 162.682 221.588C162.682 221.588 163.056 222.686 164.384 221.043C165.712 219.4 165.942 217.374 166.308 215.994C166.675 214.615 167.866 207.098 168.233 205.778C168.599 204.459 168.233 197.707 168.233 197.707L167.96 194.77C167.96 194.77 173.92 178.544 174.933 174.687C176.001 171.016 176.828 167.279 177.41 163.5C177.776 160.206 179.334 153.693 179.334 153.693L179.973 153.42C179.973 153.42 180.066 168.915 179.7 170.933C179.334 172.95 176.584 176.705 176.857 181.472C177.129 186.24 175.477 194.311 175.026 197.06C174.575 199.81 171.076 209.167 172.549 224.482C174.022 239.798 177.087 248.38 178.866 255.191C180.645 262.001 180.16 266.377 179.351 272.856C178.542 279.335 179.836 282.221 182.109 290.521C184.383 298.822 188.426 307.548 188.92 310.784C189.414 314.019 187.95 314.351 187.141 316.3C186.332 318.25 181.956 323.264 181.794 325.376C181.633 327.487 183.089 329.105 187.141 330.237C191.193 331.369 194.114 331.369 196.055 328.781C197.996 326.193 198.166 324.567 198.004 322.617C197.842 320.668 197.357 320.353 198.004 318.565C198.651 316.777 199.46 315.815 198.975 312.733C198.489 309.651 198.813 312.41 197.519 306.084C196.225 299.759 197.681 291.501 197.681 287.933C197.681 284.366 197.681 275.938 196.829 271.758C195.978 267.578 195.859 269.485 195.374 263.653C194.888 257.821 195.697 257.166 195.697 252.951C195.688 250.445 195.403 247.946 194.846 245.502C194.846 245.502 198.089 228.645 198.251 227.99C198.413 227.334 200.805 216.165 200.805 216.165C201.083 216.214 201.345 216.327 201.571 216.496C201.797 216.664 201.981 216.883 202.108 217.135C202.431 217.944 206.645 245.34 206.645 245.34C206.645 245.34 205.019 249.716 205.181 252.628C205.343 255.54 207.131 263.815 207.131 263.815C207.131 263.815 205.981 269.042 204.823 277.147C203.666 285.252 205.47 293.68 205.309 298.703C205.264 301.977 204.885 305.237 204.176 308.434C203.691 310.698 202.882 313.942 203.691 316.377L204.5 318.803C204.13 320.999 203.967 323.226 204.015 325.452C204.176 328.372 205.47 330.314 207.42 330.637C208.04 330.69 208.663 330.584 209.23 330.329C209.798 330.075 210.291 329.679 210.664 329.181C211.417 329.616 212.248 329.897 213.11 330.008C213.973 330.119 214.848 330.058 215.687 329.828C218.445 329.019 220.386 327.879 219.739 325.614C219.218 323.325 218.223 321.17 216.819 319.289C215.04 316.862 213.899 316.539 213.414 313.619C212.888 310.639 213.114 307.576 214.069 304.705C215.04 302.108 219.254 294.165 221.195 283.634C223.136 273.103 222.821 272.447 222.336 268.718C221.902 263.47 222.119 258.189 222.983 252.994C223.792 248.942 229.462 234.358 229.462 222.524C229.292 212.781 228.261 203.072 226.38 193.51C225.865 190.993 225.487 188.449 225.247 185.891C225.799 183.493 225.799 181.001 225.247 178.603C224.277 175.198 223.63 173.895 222.821 170.175C222.157 166.906 221.668 163.603 221.357 160.282V153.965C221.357 153.965 224.439 161.414 225.894 166.608C227.35 171.801 227.359 174.874 228.976 179.735C230.594 184.597 233.999 193.672 234.646 195.622C235.293 197.571 233.837 200.968 234.484 206.153C235.132 211.338 235.787 220.26 236.919 221.554C238.052 222.848 239.354 221.392 239.354 221.392C239.354 221.392 239.839 223.946 240.81 224.312C241.781 224.678 243.075 223.657 243.075 223.657C243.108 223.867 243.192 224.066 243.318 224.238C243.444 224.41 243.609 224.549 243.799 224.645C243.989 224.74 244.2 224.789 244.413 224.788C244.626 224.786 244.835 224.734 245.024 224.636C245.458 224.496 245.856 224.264 246.192 223.955C246.527 223.647 246.791 223.269 246.965 222.848C246.965 222.848 249.4 223.818 249.077 220.583C248.753 217.348 247.944 212.964 247.944 211.993C247.944 211.023 248.106 207.941 248.106 207.941C248.96 208.631 249.953 209.128 251.018 209.396C252.32 209.558 253.614 210.852 254.585 209.396C255.555 207.941 254.747 207.455 252.967 206.315C251.188 205.174 251.018 204.859 249.724 202.909C248.43 200.96 249.562 200.483 246.803 198.048C244.045 195.613 242.283 194.481 242.283 192.421C242.283 190.36 244.394 177.181 242.445 167.783C240.495 158.384 239.533 155.949 239.209 154.493C238.886 153.037 235.966 142.012 235.966 142.012C235.966 142.012 238.52 131.796 234.016 123.206C229.513 114.616 223.323 115.263 218.624 113.16C213.924 111.057 210.195 110.606 209.54 109.269C209.068 108.126 208.742 106.927 208.569 105.702C208.569 105.702 212.826 99.8704 212.945 97.9208L213.107 95.9798C213.107 95.9798 215.661 95.0092 216.351 90.0203C217.04 85.0314 213.626 85.7976 213.626 85.7976Z" fill="#3E3C9F" stroke="#263238" stroke-width="0.5" stroke-linecap="round" stroke-linejoin="round"/>
</svg>
