<svg width="400" height="400" viewBox="0 0 400 400" fill="none" xmlns="http://www.w3.org/2000/svg">
<path d="M212.626 85.7976C212.626 85.7976 213.154 78.4079 209.723 73.9298C206.292 69.4517 198.375 69.4432 194.952 70.7628C191.53 72.0824 188.091 74.4577 187.29 78.4249C186.803 81.3008 186.626 84.2206 186.762 87.1342C186.403 87.2119 186.064 87.3664 185.77 87.5871C185.476 87.8078 185.232 88.0894 185.057 88.4128C184.881 88.7362 184.778 89.0936 184.753 89.4607C184.729 89.8278 184.784 90.1958 184.915 90.5396C185.336 92.2011 186.151 93.737 187.29 95.0177C187.29 95.0177 188.082 98.7126 188.61 100.296C189.138 101.88 192.015 105.311 192.015 105.311C192.015 105.311 192.543 109.269 190.696 110.589C188.848 111.909 184.362 112.964 178.036 115.067C171.711 117.17 165.896 122.729 164.576 129.846C163.781 134.107 163.603 138.459 164.048 142.77L161.673 157.805C160.085 161.937 159.196 166.304 159.043 170.728C158.779 178.118 157.459 192.863 157.459 192.863C157.459 192.863 159.043 193.919 155.348 195.766C151.653 197.614 151.389 198.933 150.861 200.253C150.333 201.573 150.069 204.212 149.014 205.003C147.958 205.795 144.527 205.003 145.055 207.634C145.583 210.265 149.312 208.69 149.312 208.69L151.687 208.162V221.622C151.687 222.941 152.479 224.789 153.798 223.205C153.798 223.205 155.118 225.053 155.91 224.261L157.195 223.512C157.195 223.512 158.753 224.159 159.485 223.886C160.217 223.614 161.682 221.588 161.682 221.588C161.682 221.588 162.056 222.686 163.384 221.043C164.712 219.4 164.942 217.374 165.308 215.994C165.675 214.615 166.866 207.098 167.233 205.778C167.599 204.459 167.233 197.707 167.233 197.707L166.96 194.77C166.96 194.77 172.92 178.544 173.933 174.687C175.001 171.016 175.828 167.279 176.41 163.5C176.776 160.206 178.334 153.693 178.334 153.693L178.973 153.42C178.973 153.42 179.066 168.915 178.7 170.933C178.334 172.95 175.584 176.705 175.857 181.472C176.129 186.24 174.477 194.311 174.026 197.06C173.575 199.81 170.076 209.167 171.549 224.482C173.022 239.798 176.087 248.38 177.866 255.191C179.645 262.001 179.16 266.377 178.351 272.856C177.542 279.335 178.836 282.221 181.109 290.521C183.383 298.822 187.426 307.548 187.92 310.784C188.414 314.019 186.95 314.351 186.141 316.3C185.332 318.25 180.956 323.264 180.794 325.376C180.633 327.487 182.089 329.105 186.141 330.237C190.193 331.369 193.114 331.369 195.055 328.781C196.996 326.193 197.166 324.567 197.004 322.617C196.842 320.668 196.357 320.353 197.004 318.565C197.651 316.777 198.46 315.815 197.975 312.733C197.489 309.651 197.813 312.41 196.519 306.084C195.225 299.759 196.681 291.501 196.681 287.933C196.681 284.366 196.681 275.938 195.829 271.758C194.978 267.578 194.859 269.485 194.374 263.653C193.888 257.821 194.697 257.166 194.697 252.951C194.688 250.445 194.403 247.946 193.846 245.502C193.846 245.502 197.089 228.645 197.251 227.99C197.413 227.334 199.805 216.165 199.805 216.165C200.083 216.214 200.345 216.327 200.571 216.496C200.797 216.664 200.981 216.883 201.108 217.135C201.431 217.944 205.645 245.34 205.645 245.34C205.645 245.34 204.019 249.716 204.181 252.628C204.343 255.54 206.131 263.815 206.131 263.815C206.131 263.815 204.981 269.042 203.823 277.147C202.666 285.252 204.47 293.68 204.309 298.703C204.264 301.977 203.885 305.237 203.176 308.434C202.691 310.698 201.882 313.942 202.691 316.377L203.5 318.803C203.13 320.999 202.967 323.226 203.015 325.452C203.176 328.372 204.47 330.314 206.42 330.637C207.04 330.69 207.663 330.584 208.23 330.329C208.798 330.075 209.291 329.68 209.664 329.181C210.417 329.616 211.248 329.897 212.11 330.008C212.973 330.119 213.848 330.058 214.687 329.828C217.445 329.019 219.386 327.879 218.739 325.614C218.218 323.325 217.223 321.17 215.819 319.289C214.04 316.862 212.899 316.539 212.414 313.619C211.888 310.639 212.114 307.576 213.069 304.705C214.04 302.108 218.254 294.165 220.195 283.634C222.136 273.103 221.821 272.447 221.336 268.718C220.902 263.47 221.119 258.189 221.983 252.994C222.792 248.942 228.462 234.358 228.462 222.524C228.292 212.781 227.261 203.072 225.38 193.51C224.865 190.993 224.487 188.449 224.247 185.891C224.799 183.493 224.799 181.001 224.247 178.603C223.277 175.198 222.63 173.895 221.821 170.175C221.157 166.906 220.668 163.603 220.357 160.282V153.965C220.357 153.965 223.439 161.414 224.894 166.608C226.35 171.801 226.359 174.874 227.976 179.735C229.594 184.597 232.999 193.672 233.646 195.622C234.293 197.571 232.837 200.968 233.484 206.153C234.132 211.338 234.787 220.26 235.919 221.554C237.052 222.848 238.354 221.392 238.354 221.392C238.354 221.392 238.839 223.946 239.81 224.312C240.781 224.678 242.075 223.657 242.075 223.657C242.108 223.867 242.192 224.066 242.318 224.238C242.444 224.41 242.609 224.549 242.799 224.645C242.989 224.74 243.2 224.789 243.413 224.788C243.626 224.786 243.835 224.734 244.024 224.636C244.458 224.496 244.856 224.264 245.192 223.955C245.527 223.647 245.791 223.269 245.965 222.848C245.965 222.848 248.4 223.818 248.077 220.583C247.753 217.348 246.944 212.964 246.944 211.993C246.944 211.023 247.106 207.941 247.106 207.941C247.96 208.631 248.953 209.128 250.018 209.396C251.32 209.558 252.614 210.852 253.585 209.396C254.555 207.941 253.747 207.455 251.967 206.315C250.188 205.174 250.018 204.859 248.724 202.909C247.43 200.96 248.562 200.483 245.803 198.048C243.045 195.613 241.283 194.481 241.283 192.421C241.283 190.36 243.394 177.181 241.445 167.783C239.495 158.384 238.533 155.949 238.209 154.493C237.886 153.037 234.966 142.012 234.966 142.012C234.966 142.012 237.52 131.796 233.016 123.206C228.513 114.616 222.323 115.263 217.624 113.16C212.924 111.057 209.195 110.606 208.54 109.269C208.068 108.126 207.742 106.927 207.569 105.702C207.569 105.702 211.826 99.8704 211.945 97.9208L212.107 95.9798C212.107 95.9798 214.661 95.0092 215.351 90.0203C216.04 85.0314 212.626 85.7976 212.626 85.7976Z" fill="#EBE8CF" stroke="#263238" stroke-width="0.5" stroke-linecap="round" stroke-linejoin="round"/>
<path d="M196.63 113.901C196.156 114.028 195.751 114.333 195.497 114.752C195.237 115.228 195.094 115.759 195.08 116.301C194.724 116.69 194.5 117.182 194.442 117.706C194.373 118.558 194.305 118.064 194.373 118.558C194.442 119.051 194.024 119.69 194.161 120.388C194.248 120.813 194.415 121.218 194.654 121.58C194.77 122.045 194.988 122.478 195.293 122.848C195.542 123.102 195.829 123.315 196.144 123.478C196.144 123.478 196.28 123.759 196.996 123.904L197.694 124.049L197.838 121.095C198.168 121.247 198.531 121.318 198.894 121.299H199.567C199.812 121.398 200.081 121.424 200.341 121.376C200.659 121.322 200.968 121.228 201.261 121.095L201.329 124.049C201.88 123.851 202.382 123.538 202.802 123.129L203.159 122.636C203.358 122.605 203.547 122.533 203.716 122.425C203.885 122.316 204.029 122.173 204.138 122.006C204.351 121.643 204.471 121.234 204.488 120.814C204.66 120.642 204.783 120.428 204.846 120.193C204.909 119.959 204.908 119.712 204.845 119.477L204.632 118.626C204.638 117.976 204.519 117.332 204.283 116.727C203.926 116.089 204.138 116.514 203.926 116.089C203.636 115.553 203.309 115.038 202.947 114.548C202.637 114.087 202.226 113.703 201.746 113.424C201.269 113.126 198.239 112.641 196.63 113.901Z" fill="#808080" stroke="#263238" stroke-linecap="round" stroke-linejoin="round"/>
<path d="M199.652 111.296C199.652 111.296 198.801 108.861 198.154 109.005C197.432 109.355 196.774 109.821 196.204 110.385C196.204 110.385 195.855 107.507 195.497 108.205C195.14 108.903 195.429 110.104 195.642 111.091C195.855 112.079 196.059 111.943 196.204 112.36C196.349 112.777 196.63 113.901 196.63 113.901L197.26 114.182C197.26 114.182 197.541 115.314 197.821 116.293C198.102 117.272 198.801 118.191 199.788 118.123C200.173 118.133 200.549 118.003 200.846 117.757C201.144 117.512 201.342 117.167 201.406 116.787C201.55 116.08 202.257 114.182 202.257 114.182L202.964 114.539C202.964 114.539 202.819 112.36 203.1 111.934C203.381 111.508 204.019 110.878 204.019 110.231C204.019 109.584 204.3 107.907 203.943 108.265C203.565 108.951 203.279 109.684 203.091 110.444C203.091 110.444 202.189 108.444 201.269 108.937C200.35 109.431 199.652 111.296 199.652 111.296Z" fill="white" stroke="#263238" stroke-linecap="round" stroke-linejoin="round"/>
<path d="M197.515 115.195C197.515 115.195 199.805 117.255 201.865 115.195" stroke="#263238" stroke-linecap="round" stroke-linejoin="round"/>
<path d="M197.26 114.182C197.26 114.182 197.515 114.548 198.111 114.088C198.707 113.628 198.962 113.679 198.962 113.679C199.207 113.865 199.507 113.961 199.814 113.952C200.118 113.908 200.408 113.797 200.665 113.628C200.665 113.628 201.397 114.411 201.627 114.318C201.826 114.25 202.031 114.205 202.24 114.182" fill="white"/>
<path d="M197.26 114.182C197.26 114.182 197.515 114.548 198.111 114.088C198.707 113.628 198.962 113.679 198.962 113.679C199.207 113.865 199.507 113.961 199.814 113.952C200.118 113.908 200.408 113.797 200.665 113.628C200.665 113.628 201.397 114.411 201.627 114.318C201.826 114.25 202.031 114.205 202.24 114.182" stroke="#263238" stroke-linecap="round" stroke-linejoin="round"/>
<path d="M198.111 114.096C198.111 114.096 198.656 115.152 199.482 115.288C200.307 115.425 201.321 114.233 201.321 114.233" stroke="#263238" stroke-linecap="round" stroke-linejoin="round"/>
<path d="M200.81 123.308H198.043V140.114L195.855 142.531L197.668 146.175L199.422 144.37L202.419 146.448L203.108 141.612L200.81 139.765V123.308Z" fill="white" stroke="#263238" stroke-linecap="round" stroke-linejoin="round"/>
<path d="M197.149 141.45C196.888 141.172 196.691 140.841 196.57 140.48C196.45 140.118 196.409 139.735 196.451 139.356C196.621 138.13 197.847 136.734 196.272 134.818C194.697 132.903 188.61 133.243 184.745 139.535C180.88 145.826 180.548 161.542 182.472 162.249C184.396 162.955 195.046 160.325 196.621 158.401C198.196 156.477 197.472 147.742 197.668 146.175C197.681 144.585 197.506 142.999 197.149 141.45V141.45Z" fill="#92E3A9" stroke="#263238" stroke-linecap="round" stroke-linejoin="round"/>
<path d="M201.908 141.45C202.167 141.171 202.363 140.84 202.483 140.479C202.604 140.117 202.646 139.735 202.606 139.356C202.427 138.13 201.21 136.734 202.776 134.818C204.343 132.903 210.438 133.243 214.312 139.535C218.186 145.826 218.501 161.542 216.585 162.249C214.67 162.955 204.002 160.325 202.427 158.401C200.852 156.477 201.576 147.742 201.38 146.175C201.374 144.585 201.551 143 201.908 141.45V141.45Z" fill="#92E3A9" stroke="#263238" stroke-linecap="round" stroke-linejoin="round"/>
<path d="M198.273 127.684H200.58" stroke="#263238" stroke-linecap="round" stroke-linejoin="round"/>
<path d="M198.273 131.941H200.58" stroke="#263238" stroke-linecap="round" stroke-linejoin="round"/>
<path d="M198.273 136.197H200.58" stroke="#263238" stroke-linecap="round" stroke-linejoin="round"/>
<path d="M198.273 140.463H200.58" stroke="#263238" stroke-linecap="round" stroke-linejoin="round"/>
<path d="M188.712 178.271C188.792 178.792 189.036 179.274 189.408 179.647C189.779 180.021 190.26 180.266 190.781 180.349C192.671 180.706 193.335 179.089 195.191 178.45C197.047 177.811 196.808 181.064 196.808 181.064H197.804C197.947 179.934 197.792 178.786 197.353 177.735C196.63 176.381 194.203 176.381 194.203 176.381C194.203 176.381 189.972 177.19 188.712 178.271Z" stroke="#263238" stroke-linecap="round" stroke-linejoin="round"/>
<path d="M216.892 163.117C216.892 163.117 217.036 164.999 215.564 165.535C214.091 166.071 213.563 165.935 213.29 166.735C213.018 167.536 212.226 172.746 208.353 173.282C204.479 173.819 202.87 172.346 202.87 172.346C202.87 172.346 199.132 175.819 196.996 176.356C194.859 176.892 192.739 177.156 191.113 178.229C189.475 179.301 187.729 180.197 185.903 180.902C184.438 181.43 184.702 183.039 182.829 182.102C180.956 181.166 181.629 179.293 181.901 178.092C182.174 176.892 183.102 175.683 182.429 172.482C181.756 169.281 181.629 167.272 182.429 164.599C182.99 162.911 184.038 161.426 185.441 160.333C186.844 159.239 188.539 158.584 190.313 158.452C194.859 157.915 202.606 160.589 203.006 160.725C203.406 160.861 203.806 159.022 206.616 159.388C209.425 159.754 211.954 160.989 213.163 161.091C214.372 161.193 216.594 160.972 216.892 163.117Z" fill="#92E3A9"/>
<path opacity="0.39" d="M216.892 163.117C216.892 163.117 217.036 164.999 215.564 165.535C214.091 166.071 213.563 165.935 213.29 166.735C213.018 167.536 212.226 172.746 208.353 173.282C204.479 173.819 202.87 172.346 202.87 172.346C202.87 172.346 199.132 175.819 196.996 176.356C194.859 176.892 192.739 177.156 191.113 178.229C189.475 179.301 187.729 180.197 185.903 180.902C184.438 181.43 184.702 183.039 182.829 182.102C180.956 181.166 181.629 179.293 181.901 178.092C182.174 176.892 183.102 175.683 182.429 172.482C181.756 169.281 181.629 167.272 182.429 164.599C182.99 162.911 184.038 161.426 185.441 160.333C186.844 159.239 188.539 158.584 190.313 158.452C194.859 157.915 202.606 160.589 203.006 160.725C203.406 160.861 203.806 159.022 206.616 159.388C209.425 159.754 211.954 160.989 213.163 161.091C214.372 161.193 216.594 160.972 216.892 163.117Z" fill="black"/>
<path d="M202.972 160.725C202.972 160.725 204.573 165.263 204.445 167.408C204.19 169.133 203.646 170.802 202.836 172.346" stroke="#263238" stroke-linecap="round" stroke-linejoin="round"/>
<path d="M216.892 163.117C216.892 163.117 217.036 164.999 215.564 165.535C214.091 166.071 213.563 165.935 213.29 166.735C213.018 167.536 212.226 172.746 208.353 173.282C204.479 173.819 202.87 172.346 202.87 172.346C202.87 172.346 199.132 175.819 196.996 176.356C194.859 176.892 192.739 177.156 191.113 178.229C189.475 179.301 187.729 180.197 185.903 180.902C184.438 181.43 184.702 183.039 182.829 182.102C180.956 181.166 181.629 179.293 181.901 178.092C182.174 176.892 183.102 175.683 182.429 172.482C181.756 169.281 181.629 167.272 182.429 164.599C182.99 162.911 184.038 161.426 185.441 160.333C186.844 159.239 188.539 158.584 190.313 158.452C194.859 157.915 202.606 160.589 203.006 160.725C203.406 160.861 203.806 159.022 206.616 159.388C209.425 159.754 211.954 160.989 213.163 161.091C214.372 161.193 216.594 160.972 216.892 163.117Z" stroke="#263238" stroke-miterlimit="10"/>
<path d="M201.457 151.888C201.457 153.778 202.521 157.43 203.585 158.613C204.649 159.797 205.117 157.081 209.485 156.485C213.852 155.889 218.101 160.503 217.147 166.761C216.194 173.018 206.65 184.937 198.715 186.112C190.781 187.287 189.155 177.735 188.21 177.028C187.265 176.322 185.494 184.58 185.494 184.58L181.952 183.166C181.952 183.166 184.43 173.955 185.732 172.184C187.035 170.413 190.091 171.009 190.925 173.487C191.76 175.964 193.871 176.322 196.349 173.725C198.826 171.128 200.716 164.36 199.541 162.742C198.366 161.125 197.89 151.292 197.89 151.292L197.634 146.184L199.388 144.379L201.346 146.184L201.457 151.888Z" fill="#808080" stroke="#263238" stroke-linecap="round" stroke-linejoin="round"/>
<path d="M187.869 195.545C188.537 195.628 189.173 195.878 189.718 196.272C190.262 196.667 190.698 197.193 190.985 197.801C191.836 199.844 193.25 201.036 195.404 200.491C196.713 200.148 197.858 199.348 198.63 198.235C198.63 198.235 199.167 198.448 201.542 199.308C203.917 200.168 204.232 201.785 204.232 201.785C204.232 201.785 204.556 202.867 209.289 200.168C214.023 197.469 215.249 190.59 214.244 185.21C213.239 179.829 213.061 176.271 210.26 176.058C207.459 175.845 202.504 177.599 195.94 177.147C189.376 176.696 189.129 174.261 187.188 176.296C185.247 178.331 185.281 180.91 185.817 185.414C186.354 189.918 185.715 195.869 187.869 195.545Z" fill="#92E3A9" stroke="#263238" stroke-linecap="round" stroke-linejoin="round"/>
<path d="M198.63 198.235C198.873 197.755 198.972 197.215 198.915 196.68C198.857 196.146 198.646 195.639 198.307 195.221C197.123 193.715 193.037 192.744 191.743 191.774C191.041 191.333 190.537 190.637 190.338 189.832" fill="#92E3A9"/>
<path d="M198.63 198.235C198.873 197.755 198.972 197.215 198.915 196.68C198.857 196.146 198.646 195.639 198.307 195.221C197.123 193.715 193.037 192.744 191.743 191.774C191.041 191.333 190.537 190.637 190.338 189.832" stroke="#263238" stroke-linecap="round" stroke-linejoin="round"/>
<path d="M193.999 192.31C194.435 192.014 194.929 191.813 195.449 191.721C195.968 191.628 196.501 191.646 197.013 191.774" fill="#92E3A9"/>
<path d="M193.999 192.31C194.435 192.014 194.929 191.813 195.449 191.721C195.968 191.628 196.501 191.646 197.013 191.774" stroke="#263238" stroke-linecap="round" stroke-linejoin="round"/>
<path d="M188.942 193.493C189.151 194.142 189.532 194.723 190.045 195.173C190.558 195.622 191.183 195.925 191.853 196.047C194.11 196.371 194.757 195.834 195.191 197.554" fill="#92E3A9"/>
<path d="M188.942 193.493C189.151 194.142 189.532 194.723 190.045 195.173C190.558 195.622 191.183 195.925 191.853 196.047C194.11 196.371 194.757 195.834 195.191 197.554" stroke="#263238" stroke-linecap="round" stroke-linejoin="round"/>
<path d="M188.295 187.363C188.295 187.363 188.406 186.069 190.125 186.929C191.845 187.789 191.53 188.547 193.36 188.87C195.191 189.194 199.064 189.194 200.171 190.479C200.48 190.849 200.674 191.299 200.732 191.777C200.789 192.254 200.707 192.738 200.495 193.17C200.495 193.17 200.708 191.884 202.538 193.817C204.368 195.749 204.59 196.507 204.59 196.507C204.59 196.507 206.633 194.362 208.353 195.221C208.6 194.696 208.816 194.155 209 193.604" fill="#92E3A9"/>
<path d="M188.295 187.363C188.295 187.363 188.406 186.069 190.125 186.929C191.845 187.789 191.53 188.547 193.36 188.87C195.191 189.194 199.064 189.194 200.171 190.479C200.48 190.849 200.674 191.299 200.732 191.777C200.789 192.254 200.707 192.738 200.495 193.17C200.495 193.17 200.708 191.884 202.538 193.817C204.368 195.749 204.59 196.507 204.59 196.507C204.59 196.507 206.633 194.362 208.353 195.221C208.6 194.696 208.816 194.155 209 193.604" stroke="#263238" stroke-linecap="round" stroke-linejoin="round"/>
<path d="M189.912 184.563C189.912 184.563 191.53 185.857 192.603 185.312C193.675 184.767 193.999 182.758 196.153 184.128C198.307 185.499 199.388 187.789 200.997 189.296C202.606 190.803 204.011 192.633 205.518 191.774C207.025 190.914 208.072 188.223 210.047 190.59" fill="#92E3A9"/>
<path d="M189.912 184.563C189.912 184.563 191.53 185.857 192.603 185.312C193.675 184.767 193.999 182.758 196.153 184.128C198.307 185.499 199.388 187.789 200.997 189.296C202.606 190.803 204.011 192.633 205.518 191.774C207.025 190.914 208.072 188.223 210.047 190.59" stroke="#263238" stroke-linecap="round" stroke-linejoin="round"/>
<path d="M205.203 179.063C206.199 180.496 206.788 182.174 206.905 183.916C206.794 185.558 206.064 187.098 204.862 188.223" fill="#92E3A9"/>
<path d="M205.203 179.063C206.199 180.496 206.788 182.174 206.905 183.916C206.794 185.558 206.064 187.098 204.862 188.223" stroke="#263238" stroke-linecap="round" stroke-linejoin="round"/>
<path d="M206.599 186.069C206.599 186.069 208.497 183.226 210.345 184.971Z" fill="#92E3A9"/>
<path d="M206.599 186.069C206.599 186.069 208.497 183.226 210.345 184.971" stroke="#263238" stroke-linecap="round" stroke-linejoin="round"/>
<path d="M200.997 189.296C201.651 188.87 202.176 188.274 202.518 187.572C202.86 186.871 203.005 186.089 202.938 185.312C202.863 184.583 202.631 183.879 202.26 183.247C201.888 182.615 201.385 182.071 200.784 181.651" fill="#92E3A9"/>
<path d="M200.997 189.296C201.651 188.87 202.176 188.274 202.518 187.572C202.86 186.871 203.005 186.089 202.938 185.312C202.863 184.583 202.631 183.879 202.26 183.247C201.888 182.615 201.385 182.071 200.784 181.651" stroke="#263238" stroke-linecap="round" stroke-linejoin="round"/>
<path d="M198.528 186.606C198.528 186.606 199.49 185.312 197.77 182.945C196.051 180.578 196.476 179.395 196.698 178.212" fill="#92E3A9"/>
<path d="M198.528 186.606C198.528 186.606 199.49 185.312 197.77 182.945C196.051 180.578 196.476 179.395 196.698 178.212" stroke="#263238" stroke-linecap="round" stroke-linejoin="round"/>
<path d="M189.351 178.212C189.2 178.743 189.199 179.307 189.35 179.839C189.5 180.371 189.795 180.851 190.202 181.225C191.598 182.298 192.679 180.255 194.833 181.651" fill="#92E3A9"/>
<path d="M189.351 178.212C189.2 178.743 189.199 179.307 189.35 179.839C189.5 180.371 189.795 180.851 190.202 181.225C191.598 182.298 192.679 180.255 194.833 181.651" stroke="#263238" stroke-linecap="round" stroke-linejoin="round"/>
<path d="M210.796 177.454C210.796 177.454 207.995 181.012 208.54 182.085Z" fill="#92E3A9"/>
<path d="M210.796 177.454C210.796 177.454 207.995 181.012 208.54 182.085" stroke="#263238" stroke-linecap="round" stroke-linejoin="round"/>
<path d="M212.839 178.637C214.264 178.637 215.419 177.482 215.419 176.058C215.419 174.633 214.264 173.478 212.839 173.478C211.415 173.478 210.26 174.633 210.26 176.058C210.26 177.482 211.415 178.637 212.839 178.637Z" fill="#92E3A9" stroke="#263238" stroke-linecap="round" stroke-linejoin="round"/>
<path d="M213.273 182.4C214.966 182.4 216.338 181.245 216.338 179.821C216.338 178.396 214.966 177.241 213.273 177.241C211.581 177.241 210.209 178.396 210.209 179.821C210.209 181.245 211.581 182.4 213.273 182.4Z" fill="#92E3A9" stroke="#263238" stroke-linecap="round" stroke-linejoin="round"/>
<path d="M216.415 183.72C216.704 185.116 215.564 186.529 213.903 186.878C212.243 187.227 210.634 186.367 210.345 184.971C210.055 183.575 211.196 182.162 212.899 181.813C214.601 181.464 216.125 182.323 216.415 183.72Z" fill="#92E3A9" stroke="#263238" stroke-linecap="round" stroke-linejoin="round"/>
<path d="M216.798 187.61C217.026 188.201 217.066 188.847 216.915 189.462C216.763 190.076 216.427 190.629 215.951 191.046C215.475 191.463 214.882 191.724 214.253 191.793C213.624 191.863 212.989 191.737 212.433 191.434C211.878 191.131 211.429 190.664 211.147 190.097C210.865 189.531 210.764 188.891 210.858 188.265C210.951 187.639 211.235 187.057 211.67 186.597C212.105 186.138 212.671 185.823 213.29 185.695C214.01 185.489 214.781 185.574 215.438 185.933C216.094 186.291 216.583 186.894 216.798 187.61V187.61Z" fill="#92E3A9" stroke="#263238" stroke-linecap="round" stroke-linejoin="round"/>
<path d="M216.875 192.353C217.094 192.938 217.128 193.576 216.973 194.181C216.818 194.787 216.481 195.33 216.007 195.738C215.534 196.146 214.947 196.399 214.326 196.463C213.704 196.527 213.078 196.399 212.531 196.097C211.984 195.794 211.544 195.331 211.268 194.77C210.993 194.209 210.896 193.577 210.991 192.959C211.086 192.342 211.368 191.768 211.799 191.315C212.23 190.863 212.789 190.553 213.401 190.428C214.117 190.226 214.884 190.314 215.534 190.675C216.185 191.035 216.667 191.638 216.875 192.353V192.353Z" fill="#92E3A9" stroke="#263238" stroke-linecap="round" stroke-linejoin="round"/>
<path d="M215.589 196.55C215.807 197.135 215.841 197.773 215.686 198.377C215.531 198.982 215.195 199.525 214.722 199.933C214.249 200.341 213.662 200.594 213.041 200.659C212.42 200.723 211.794 200.596 211.248 200.294C210.701 199.992 210.26 199.529 209.984 198.969C209.708 198.409 209.61 197.778 209.704 197.16C209.798 196.543 210.078 195.969 210.508 195.516C210.937 195.063 211.495 194.752 212.107 194.626C212.824 194.427 213.59 194.518 214.241 194.877C214.891 195.237 215.376 195.837 215.589 196.55V196.55Z" fill="#92E3A9" stroke="#263238" stroke-linecap="round" stroke-linejoin="round"/>
<path d="M214.082 199.453C214.302 200.039 214.337 200.678 214.182 201.285C214.027 201.892 213.69 202.436 213.215 202.845C212.741 203.253 212.152 203.506 211.529 203.569C210.906 203.632 210.279 203.502 209.732 203.197C209.185 202.892 208.745 202.426 208.472 201.863C208.198 201.3 208.104 200.666 208.203 200.048C208.301 199.429 208.587 198.856 209.022 198.406C209.457 197.955 210.02 197.649 210.634 197.529C211.346 197.338 212.105 197.433 212.748 197.792C213.392 198.151 213.87 198.747 214.082 199.453Z" fill="#92E3A9" stroke="#263238" stroke-linecap="round" stroke-linejoin="round"/>
<path d="M211.171 201.07C211.389 201.655 211.423 202.293 211.268 202.898C211.113 203.503 210.776 204.046 210.303 204.454C209.83 204.862 209.244 205.115 208.623 205.179C208.002 205.244 207.376 205.116 206.829 204.814C206.283 204.512 205.842 204.05 205.566 203.49C205.29 202.93 205.192 202.298 205.286 201.681C205.379 201.064 205.66 200.49 206.089 200.037C206.519 199.583 207.077 199.273 207.689 199.146C208.405 198.943 209.173 199.032 209.825 199.392C210.477 199.752 210.961 200.355 211.171 201.07V201.07Z" fill="#92E3A9" stroke="#263238" stroke-linecap="round" stroke-linejoin="round"/>
<path d="M208.267 202.364C208.486 202.949 208.52 203.587 208.365 204.192C208.21 204.797 207.873 205.34 207.4 205.748C206.927 206.156 206.341 206.409 205.72 206.473C205.099 206.538 204.473 206.41 203.926 206.108C203.379 205.806 202.938 205.344 202.663 204.784C202.387 204.224 202.289 203.592 202.382 202.975C202.476 202.358 202.756 201.784 203.186 201.331C203.616 200.877 204.174 200.567 204.785 200.44C205.502 200.237 206.27 200.326 206.922 200.686C207.574 201.046 208.058 201.649 208.267 202.364V202.364Z" fill="#92E3A9" stroke="#263238" stroke-linecap="round" stroke-linejoin="round"/>
<path d="M204.675 203.114C204.964 204.51 203.619 205.974 201.678 206.374C199.737 206.774 197.924 205.966 197.634 204.569C197.345 203.173 198.69 201.709 200.631 201.309C202.572 200.909 204.428 201.717 204.675 203.114Z" fill="#92E3A9" stroke="#263238" stroke-linecap="round" stroke-linejoin="round"/>
<path d="M209.076 178.739C210.501 178.739 211.656 177.584 211.656 176.16C211.656 174.735 210.501 173.58 209.076 173.58C207.652 173.58 206.497 174.735 206.497 176.16C206.497 177.584 207.652 178.739 209.076 178.739Z" fill="#92E3A9" stroke="#263238" stroke-linecap="round" stroke-linejoin="round"/>
<path d="M205.203 179.063C206.975 179.063 208.412 178.007 208.412 176.705C208.412 175.402 206.975 174.346 205.203 174.346C203.43 174.346 201.993 175.402 201.993 176.705C201.993 178.007 203.43 179.063 205.203 179.063Z" fill="#92E3A9" stroke="#263238" stroke-linecap="round" stroke-linejoin="round"/>
<path d="M189.827 176.287C189.863 176.816 189.739 177.342 189.472 177.799C189.205 178.256 188.806 178.622 188.328 178.849C187.85 179.077 187.315 179.155 186.792 179.075C186.268 178.994 185.782 178.758 185.394 178.397C185.007 178.036 184.738 177.567 184.62 177.05C184.503 176.534 184.544 175.995 184.737 175.502C184.931 175.009 185.268 174.586 185.705 174.287C186.142 173.989 186.659 173.828 187.188 173.827C187.864 173.804 188.522 174.05 189.016 174.511C189.511 174.973 189.803 175.611 189.827 176.287V176.287Z" fill="#92E3A9" stroke="#263238" stroke-linecap="round" stroke-linejoin="round"/>
<path d="M185.664 181.217C186.995 181.217 188.073 180.199 188.073 178.944C188.073 177.688 186.995 176.671 185.664 176.671C184.334 176.671 183.255 177.688 183.255 178.944C183.255 180.199 184.334 181.217 185.664 181.217Z" fill="#92E3A9" stroke="#263238" stroke-linecap="round" stroke-linejoin="round"/>
<path d="M188.116 182.204C188.142 182.686 188.022 183.164 187.773 183.577C187.524 183.99 187.157 184.318 186.719 184.52C186.281 184.722 185.792 184.788 185.317 184.709C184.841 184.63 184.4 184.411 184.05 184.079C183.701 183.746 183.459 183.317 183.356 182.846C183.253 182.375 183.294 181.884 183.474 181.436C183.653 180.989 183.962 180.605 184.362 180.335C184.762 180.065 185.233 179.922 185.715 179.923C186.023 179.915 186.329 179.968 186.616 180.078C186.903 180.188 187.165 180.354 187.388 180.566C187.611 180.778 187.79 181.032 187.915 181.313C188.04 181.594 188.108 181.897 188.116 182.204Z" fill="#92E3A9" stroke="#263238" stroke-linecap="round" stroke-linejoin="round"/>
<path d="M188.227 185.405C188.254 185.887 188.136 186.365 187.889 186.779C187.641 187.193 187.275 187.523 186.838 187.726C186.401 187.929 185.912 187.997 185.436 187.92C184.96 187.843 184.519 187.625 184.168 187.294C183.817 186.963 183.574 186.535 183.469 186.064C183.365 185.593 183.404 185.102 183.581 184.654C183.759 184.206 184.067 183.821 184.466 183.55C184.864 183.278 185.335 183.133 185.817 183.132C186.438 183.116 187.039 183.346 187.491 183.772C187.942 184.198 188.207 184.785 188.227 185.405Z" fill="#92E3A9" stroke="#263238" stroke-linecap="round" stroke-linejoin="round"/>
<path d="M188.337 188.743C188.363 189.225 188.243 189.703 187.994 190.116C187.744 190.529 187.377 190.858 186.938 191.059C186.5 191.261 186.011 191.326 185.535 191.247C185.059 191.167 184.618 190.947 184.269 190.614C183.92 190.281 183.678 189.851 183.577 189.379C183.475 188.907 183.517 188.416 183.697 187.968C183.878 187.521 184.189 187.138 184.59 186.869C184.99 186.601 185.463 186.458 185.945 186.461C186.564 186.45 187.162 186.683 187.61 187.11C188.058 187.537 188.32 188.124 188.337 188.743V188.743Z" fill="#92E3A9" stroke="#263238" stroke-linecap="round" stroke-linejoin="round"/>
<path d="M186.362 194.464C187.693 194.464 188.772 193.446 188.772 192.191C188.772 190.935 187.693 189.917 186.362 189.917C185.032 189.917 183.953 190.935 183.953 192.191C183.953 193.446 185.032 194.464 186.362 194.464Z" fill="#92E3A9" stroke="#263238" stroke-linecap="round" stroke-linejoin="round"/>
<path d="M203.985 176.909C203.985 178.271 202.504 179.369 200.682 179.369C198.86 179.369 197.387 178.271 197.387 176.909C197.387 175.547 198.86 174.449 200.682 174.449C202.504 174.449 203.985 175.547 203.985 176.909Z" fill="#92E3A9" stroke="#263238" stroke-linecap="round" stroke-linejoin="round"/>
<path d="M195.94 179.608C197.586 179.608 198.92 178.506 198.92 177.147C198.92 175.789 197.586 174.687 195.94 174.687C194.294 174.687 192.96 175.789 192.96 177.147C192.96 178.506 194.294 179.608 195.94 179.608Z" fill="#92E3A9" stroke="#263238" stroke-linecap="round" stroke-linejoin="round"/>
<path d="M193.812 176.722C193.849 177.252 193.726 177.781 193.459 178.241C193.191 178.701 192.792 179.069 192.312 179.298C191.832 179.527 191.294 179.607 190.769 179.526C190.243 179.445 189.754 179.208 189.365 178.846C188.976 178.483 188.705 178.012 188.588 177.493C188.471 176.974 188.512 176.433 188.707 175.938C188.902 175.443 189.242 175.019 189.681 174.72C190.121 174.421 190.641 174.261 191.172 174.261C191.848 174.238 192.506 174.484 193.001 174.946C193.496 175.407 193.787 176.046 193.812 176.722V176.722Z" fill="#92E3A9" stroke="#263238" stroke-linecap="round" stroke-linejoin="round"/>
<path d="M186.575 198.227C188 198.227 189.155 197.072 189.155 195.647C189.155 194.223 188 193.068 186.575 193.068C185.15 193.068 183.996 194.223 183.996 195.647C183.996 197.072 185.15 198.227 186.575 198.227Z" fill="#92E3A9" stroke="#263238" stroke-linecap="round" stroke-linejoin="round"/>
<path d="M197.668 204.569C197.458 205.066 197.349 205.6 197.349 206.14C197.349 206.68 197.458 207.214 197.668 207.711C198.315 209.754 197.566 211.474 198.102 212.768C198.639 214.062 199.933 214.275 200.367 213.619C200.801 212.964 200.469 211.142 200.682 209.856C200.947 208.67 201.294 207.504 201.721 206.366C201.721 206.366 198.426 206.808 197.668 204.569Z" fill="#92E3A9" stroke="#263238" stroke-linecap="round" stroke-linejoin="round"/>
<path d="M186.575 198.235C187.027 198.524 187.427 198.887 187.759 199.308C188.516 200.159 188.516 199.844 188.082 201.138C187.648 202.432 187.546 203.616 188.193 202.841C188.84 202.066 189.7 200.789 189.376 199.606C189.16 198.868 188.752 198.201 188.193 197.673L186.575 198.235Z" fill="#92E3A9" stroke="#263238" stroke-linecap="round" stroke-linejoin="round"/>
<path d="M191.53 89.7138C191.53 89.7138 194.135 92.1913 196.102 92.319C197.356 92.3796 198.61 92.1856 199.788 91.7486C201.452 92.2269 203.211 92.2708 204.896 91.8763C207.314 91.1782 206.999 87.7472 206.999 87.7472L199.686 85.2613L191.53 89.7138Z" fill="white" stroke="#263238" stroke-width="0.5" stroke-linecap="round" stroke-linejoin="round"/>
<path d="M193.752 91.4335C194.79 91.6077 195.857 91.4119 196.766 90.8801" stroke="#263238" stroke-width="0.5" stroke-linecap="round" stroke-linejoin="round"/>
<path d="M195.404 92.1912C196.094 92.0738 196.774 91.903 197.438 91.6804" stroke="#263238" stroke-width="0.5" stroke-linecap="round" stroke-linejoin="round"/>
<path d="M201.695 91.5527L203.806 92.0125" stroke="#263238" stroke-width="0.5" stroke-linecap="round" stroke-linejoin="round"/>
<path d="M202.266 90.5396C203.314 91.1717 204.538 91.4465 205.756 91.3229" stroke="#263238" stroke-width="0.5" stroke-linecap="round" stroke-linejoin="round"/>
<path d="M195.659 90.0289C195.659 90.0289 198.213 90.8802 198.213 94.9922H200.767C200.767 94.9922 201.15 91.5868 202.93 89.5862L203.628 88.8881C202.968 88.3512 202.215 87.9413 201.406 87.6791C199.754 87.0406 200.009 87.1683 198 87.6195C196.527 87.9516 195.208 89.7139 195.208 89.7139L195.659 90.0289Z" fill="white" stroke="#263238" stroke-linecap="round" stroke-linejoin="round"/>
<path d="M199.567 75.0961C199.567 75.0961 198.239 73.6318 196.962 73.8872C195.685 74.1426 190.866 77.4458 189.912 78.7825C189.2 79.9409 188.9 81.3059 189.061 82.6561C189.189 82.9796 189.376 83.3542 189.376 83.3542C189.376 83.3542 188.167 84.4354 188.993 86.7596C189.819 89.0838 191.215 90.0628 192.398 90.3183C193.497 90.6025 194.659 90.5126 195.702 90.0628C196.336 89.6722 196.95 89.2488 197.54 88.7943C197.909 88.8217 198.28 88.7739 198.629 88.6539C198.979 88.5339 199.301 88.3442 199.575 88.0962C199.901 88.4441 200.318 88.6938 200.778 88.8172C201.238 88.9406 201.724 88.9326 202.18 88.7943C202.589 89.3833 203.144 89.8566 203.79 90.1683C204.436 90.4801 205.151 90.6197 205.867 90.5736C206.958 90.4937 207.996 90.0687 208.83 89.3601C209.664 88.6516 210.251 87.6961 210.506 86.6319C210.784 85.4175 210.653 84.1454 210.132 83.0137C210.225 81.0358 209.592 79.0921 208.353 77.548C206.25 74.8748 203.713 74.5598 202.436 74.1426C201.159 73.7255 199.567 75.0961 199.567 75.0961Z" fill="#FF0303" stroke="#263238" stroke-linecap="round" stroke-linejoin="round"/>
<path d="M199.533 88.0622V75.0961" stroke="#263238" stroke-width="0.5" stroke-linecap="round" stroke-linejoin="round"/>
<path d="M199.405 79.1911C199.151 79.1825 198.902 79.1214 198.674 79.0114C198.445 78.9015 198.242 78.7453 198.077 78.5526C197.566 77.9141 196.996 78.808 196.868 77.7013C196.74 76.5945 196.8 75.8538 196.357 75.7943C196.073 75.8128 195.797 75.8999 195.554 76.0482C195.311 76.1964 195.108 76.4014 194.961 76.6456" stroke="#263238" stroke-width="0.5" stroke-linecap="round" stroke-linejoin="round"/>
<path d="M196.928 76.4923C197.27 76.2265 197.499 75.8397 197.566 75.4111" stroke="#263238" stroke-width="0.5" stroke-linecap="round" stroke-linejoin="round"/>
<path d="M195.846 79.3529L194.893 78.4674L195.216 77.7012" stroke="#263238" stroke-width="0.5" stroke-linecap="round" stroke-linejoin="round"/>
<path d="M194.893 78.4676C194.592 78.7042 194.335 78.9924 194.135 79.3189C194.02 79.5397 193.934 79.7743 193.88 80.017" stroke="#263238" stroke-width="0.5" stroke-linecap="round" stroke-linejoin="round"/>
<path d="M199.567 83.1671C199.289 83.6015 198.92 83.9705 198.485 84.2483C197.787 84.691 196.263 83.9333 195.821 83.4821C195.378 83.0308 194.74 81.26 194.297 80.6215C193.854 79.983 193.445 79.7702 192.773 80.1192C192.353 80.4157 192.039 80.8396 191.879 81.3281" stroke="#263238" stroke-width="0.5" stroke-linecap="round" stroke-linejoin="round"/>
<path d="M198.264 80.945C198.264 80.945 197.881 81.7027 197.753 82.0262C197.626 82.3497 197.498 81.0727 196.902 80.4341" stroke="#263238" stroke-width="0.5" stroke-linecap="round" stroke-linejoin="round"/>
<path d="M194.893 82.3411C194.893 82.3411 194.322 83.1073 194.042 83.1925" stroke="#263238" stroke-width="0.5" stroke-linecap="round" stroke-linejoin="round"/>
<path d="M194.459 85.3293C194.377 85.3996 194.282 85.4523 194.179 85.4841C194.076 85.5159 193.967 85.5261 193.86 85.5142C193.753 85.5022 193.65 85.4682 193.556 85.4144C193.463 85.3607 193.382 85.2882 193.318 85.2016C192.747 84.5631 192.552 84.3502 192.041 84.3502C191.649 84.3754 191.265 84.4616 190.9 84.6056" stroke="#263238" stroke-width="0.5" stroke-linecap="round" stroke-linejoin="round"/>
<path d="M192.228 77.9567C192.228 77.9567 190.636 79.1656 190.381 80.3745C190.264 81.4596 190.44 82.5562 190.891 83.55C191.079 83.9331 190.193 84.3077 190.764 85.2527C191.218 85.9485 191.752 86.5886 192.356 87.1597C193.302 86.9581 194.281 86.9814 195.216 87.2279C196.024 87.6617 196.788 88.172 197.498 88.7518" stroke="#263238" stroke-width="0.5" stroke-linecap="round" stroke-linejoin="round"/>
<path d="M192.356 87.1683C192.077 87.2442 191.832 87.4112 191.659 87.6426C191.486 87.874 191.396 88.1566 191.402 88.4453C191.275 89.5861 192.254 89.9692 193.369 90.2246" stroke="#263238" stroke-width="0.5" stroke-linecap="round" stroke-linejoin="round"/>
<path d="M190.891 83.55C190.891 83.55 189.938 82.9796 189.368 83.3542" stroke="#263238" stroke-width="0.5" stroke-linecap="round" stroke-linejoin="round"/>
<path d="M188.925 86.2148C188.925 86.2148 189.683 87.1088 190.381 87.1088" stroke="#263238" stroke-width="0.5" stroke-linecap="round" stroke-linejoin="round"/>
<path d="M194.135 75.6665C194.135 75.6665 193.284 76.1773 193.284 76.5179C193.284 76.8584 194.493 77.2756 194.493 77.2756" stroke="#263238" stroke-width="0.5" stroke-linecap="round" stroke-linejoin="round"/>
<path d="M193.752 77.1904L193.113 78.2716" stroke="#263238" stroke-width="0.5" stroke-linecap="round" stroke-linejoin="round"/>
<path d="M198.009 76.8754C198.193 76.4061 198.427 75.958 198.707 75.5388C199.03 75.1557 199.558 76.0496 199.558 76.0496C199.558 76.0496 200.639 74.9088 200.954 76.0496" stroke="#263238" stroke-width="0.5" stroke-linecap="round" stroke-linejoin="round"/>
<path d="M198.707 75.5389L198.264 74.8408" stroke="#263238" stroke-width="0.5" stroke-linecap="round" stroke-linejoin="round"/>
<path d="M204.556 77.0031C204.556 77.0031 203.091 75.8623 202.589 76.62C202.087 77.3777 202.717 78.6547 201.635 79.2933C201.049 79.6659 200.343 79.8027 199.66 79.6764" stroke="#263238" stroke-width="0.5" stroke-linecap="round" stroke-linejoin="round"/>
<path d="M200.997 81.8303C200.997 81.8303 201.125 82.0261 201.695 81.643C202.265 81.2599 202.138 80.7917 202.717 80.3064" stroke="#263238" stroke-width="0.5" stroke-linecap="round" stroke-linejoin="round"/>
<path d="M199.473 83.9332C199.473 83.9332 201.823 84.7845 202.717 83.9332C203.611 83.0818 203.347 82.2304 203.73 81.7707C204.113 81.311 205.066 80.5022 204.939 79.7956C204.807 79.3227 204.503 78.916 204.087 78.6548" stroke="#263238" stroke-width="0.5" stroke-linecap="round" stroke-linejoin="round"/>
<path d="M204.939 79.7956C205.129 79.6843 205.341 79.6159 205.56 79.5954C205.779 79.5748 206 79.6024 206.207 79.6764" stroke="#263238" stroke-width="0.5" stroke-linecap="round" stroke-linejoin="round"/>
<path d="M203.73 81.7452C203.885 82.0925 204.113 82.4027 204.398 82.6552C204.683 82.9077 205.018 83.0966 205.381 83.2096" stroke="#263238" stroke-width="0.5" stroke-linecap="round" stroke-linejoin="round"/>
<path d="M208.625 81.6431C208.797 82.6795 208.753 83.7402 208.497 84.7591C208.055 85.968 207.731 86.0872 207.731 86.0872C206.736 86.0221 205.74 86.1761 204.811 86.5384C203.67 87.1088 202.717 87.1684 202.257 87.9942L201.814 88.8455" stroke="#263238" stroke-width="0.5" stroke-linecap="round" stroke-linejoin="round"/>
<path d="M207.731 86.0871C207.731 86.0871 209.706 86.5979 209.323 87.8749" stroke="#263238" stroke-width="0.5" stroke-linecap="round" stroke-linejoin="round"/>
<path d="M209.264 86.7937C209.264 86.7937 209.894 86.4702 209.894 85.1421" stroke="#263238" stroke-width="0.5" stroke-linecap="round" stroke-linejoin="round"/>
<path d="M210.089 82.9796L208.94 82.7838" stroke="#263238" stroke-width="0.5" stroke-linecap="round" stroke-linejoin="round"/>
<path d="M207.161 77.7694C207.379 77.7918 207.583 77.8886 207.738 78.0437C207.893 78.1988 207.99 78.4026 208.012 78.6208L208.14 79.3785C208.14 79.3785 209.408 79.7616 209.034 80.7151" stroke="#263238" stroke-width="0.5" stroke-linecap="round" stroke-linejoin="round"/>
<path d="M205.526 75.7857C205.753 76.0693 205.92 76.3956 206.018 76.7451C206.116 77.0947 206.143 77.4604 206.097 77.8204" stroke="#263238" stroke-width="0.5" stroke-linecap="round" stroke-linejoin="round"/>
<path d="M202.019 74.9344C202.642 74.8247 203.285 74.9109 203.858 75.1813" stroke="#263238" stroke-width="0.5" stroke-linecap="round" stroke-linejoin="round"/>
<path d="M202.266 87.9941C202.266 87.9941 204.3 89.6968 206.463 88.8454" stroke="#263238" stroke-width="0.5" stroke-linecap="round" stroke-linejoin="round"/>
<path d="M206.02 87.7472C206.258 87.6818 206.507 87.6666 206.751 87.7026C206.995 87.7386 207.229 87.825 207.438 87.9563C207.647 88.0876 207.827 88.2609 207.965 88.4653C208.103 88.6697 208.198 88.9006 208.242 89.1434" stroke="#263238" stroke-width="0.5" stroke-linecap="round" stroke-linejoin="round"/>
<path d="M202.121 85.2613C202.121 85.2613 200.725 85.389 200.98 86.3425" stroke="#263238" stroke-width="0.5" stroke-linecap="round" stroke-linejoin="round"/>
<path d="M206.148 82.0262C206.148 82.0262 206.65 81.9581 207.416 80.9449" stroke="#263238" stroke-width="0.5" stroke-linecap="round" stroke-linejoin="round"/>
<path d="M206.846 81.6431L206.973 82.5285" stroke="#263238" stroke-width="0.5" stroke-linecap="round" stroke-linejoin="round"/>
<path d="M195.846 86.002C196.011 86.2315 196.22 86.4254 196.461 86.5717C196.703 86.7181 196.971 86.8139 197.251 86.8533C197.542 86.9099 197.842 86.8994 198.128 86.8227C198.414 86.746 198.679 86.605 198.903 86.4106" stroke="#263238" stroke-width="0.5" stroke-linecap="round" stroke-linejoin="round"/>
<path d="M208.497 84.7589C207.995 84.3481 207.367 84.1227 206.718 84.1204" stroke="#263238" stroke-width="0.5" stroke-linecap="round" stroke-linejoin="round"/>
<path d="M193.113 81.6431C192.892 81.7709 192.702 81.9452 192.555 82.154C192.408 82.3627 192.308 82.6009 192.262 82.852" stroke="#263238" stroke-width="0.5" stroke-linecap="round" stroke-linejoin="round"/>
<path d="M204.377 173.214C204.377 173.214 202.538 174.414 202.214 175.879C202.017 177.574 201.954 179.282 202.027 180.987L202.793 181.055C202.793 181.055 202.538 177.309 202.793 176.671C203.049 176.032 204.121 176.032 204.121 176.032C204.558 175.432 204.849 174.738 204.973 174.006C205.015 173.086 205.203 172.763 204.377 173.214Z" fill="white" stroke="#263238" stroke-width="0.5" stroke-linecap="round" stroke-linejoin="round"/>
<path d="M204.82 171.937C204.444 172.286 204.016 172.574 203.551 172.788C202.862 172.935 202.153 172.958 201.457 172.856L201.516 173.555C202.077 173.662 202.652 173.682 203.219 173.614C203.826 173.502 204.422 173.334 204.998 173.112C204.998 173.112 205.841 172.133 204.82 171.937Z" fill="white" stroke="#263238" stroke-width="0.5" stroke-linecap="round" stroke-linejoin="round"/>
<path d="M204.947 174.04L201.84 174.287L201.712 174.866C202.197 174.827 202.683 174.827 203.168 174.866C203.866 174.925 204.632 174.925 204.632 174.925C204.632 174.925 205.526 174.866 204.947 174.04Z" fill="white" stroke="#263238" stroke-width="0.5" stroke-linecap="round" stroke-linejoin="round"/>
<path d="M209.902 169.843C209.902 169.843 208.821 166.54 207.042 166.097C205.262 165.654 202.853 167.11 202.725 168.574C202.598 170.039 204.819 171.937 204.819 171.937C204.575 172.323 204.424 172.76 204.377 173.214C204.39 173.62 204.452 174.024 204.564 174.415C203.914 175.305 203.461 176.324 203.236 177.403C203.108 178.739 204.564 180.263 206.795 180.451C209.025 180.638 210.03 179.31 210.2 178.288C210.278 177.764 210.298 177.233 210.26 176.705C211.048 175.667 211.454 174.389 211.409 173.086C211.426 170.609 209.902 169.843 209.902 169.843Z" fill="#92E3A9"/>
<path opacity="0.58" d="M209.902 169.843C209.902 169.843 208.821 166.54 207.042 166.097C205.262 165.654 202.853 167.11 202.725 168.574C202.598 170.039 204.819 171.937 204.819 171.937C204.575 172.323 204.424 172.76 204.377 173.214C204.39 173.62 204.452 174.024 204.564 174.415C203.914 175.305 203.461 176.324 203.236 177.403C203.108 178.739 204.564 180.263 206.795 180.451C209.025 180.638 210.03 179.31 210.2 178.288C210.278 177.764 210.298 177.233 210.26 176.705C211.048 175.667 211.454 174.389 211.409 173.086C211.426 170.609 209.902 169.843 209.902 169.843Z" fill="white"/>
<path d="M208.225 170.737C208.509 170.528 208.774 170.294 209.017 170.039" stroke="#263238" stroke-width="0.5" stroke-linecap="round" stroke-linejoin="round"/>
<path d="M205.841 171.69C206.479 171.593 207.096 171.385 207.663 171.077" stroke="#263238" stroke-width="0.5" stroke-linecap="round" stroke-linejoin="round"/>
<path d="M205.33 174.61C205.33 174.61 208.565 174.287 209.842 176.194" stroke="#263238" stroke-width="0.5" stroke-linecap="round" stroke-linejoin="round"/>
<path d="M209.902 169.843C209.902 169.843 208.821 166.54 207.042 166.097C205.262 165.654 202.853 167.11 202.725 168.574C202.598 170.039 204.819 171.937 204.819 171.937C204.575 172.323 204.424 172.76 204.377 173.214C204.39 173.62 204.452 174.024 204.564 174.415C203.914 175.305 203.461 176.324 203.236 177.403C203.108 178.739 204.564 180.263 206.795 180.451C209.025 180.638 210.03 179.31 210.2 178.288C210.278 177.764 210.298 177.233 210.26 176.705C211.048 175.667 211.454 174.389 211.409 173.086C211.426 170.609 209.902 169.843 209.902 169.843Z" stroke="#263238" stroke-miterlimit="10"/>
<path d="M196.732 173.214C196.732 173.214 198.571 174.414 198.886 175.879C199.089 177.573 199.155 179.282 199.081 180.987L198.315 181.055C198.315 181.055 198.571 177.309 198.315 176.671C198.06 176.032 196.987 176.032 196.987 176.032C196.551 175.432 196.259 174.738 196.136 174.006C196.093 173.086 195.906 172.763 196.732 173.214Z" fill="white" stroke="#263238" stroke-width="0.5" stroke-linecap="round" stroke-linejoin="round"/>
<path d="M196.289 171.937C196.664 172.286 197.092 172.574 197.558 172.788C198.246 172.935 198.955 172.958 199.652 172.856L199.584 173.555C199.023 173.663 198.448 173.683 197.881 173.614C197.274 173.502 196.678 173.334 196.102 173.112C196.102 173.112 195.31 172.133 196.289 171.937Z" fill="white" stroke="#263238" stroke-width="0.5" stroke-linecap="round" stroke-linejoin="round"/>
<path d="M196.161 174.04L199.269 174.287L199.396 174.866C198.909 174.827 198.419 174.827 197.932 174.866C197.234 174.925 196.476 174.925 196.476 174.925C196.476 174.925 195.582 174.866 196.161 174.04Z" fill="white" stroke="#263238" stroke-width="0.5" stroke-linecap="round" stroke-linejoin="round"/>
<path d="M191.206 169.843C191.206 169.843 192.279 166.54 194.059 166.097C195.838 165.654 198.256 167.11 198.383 168.574C198.511 170.039 196.289 171.937 196.289 171.937C196.533 172.323 196.685 172.76 196.732 173.214C196.718 173.621 196.652 174.025 196.536 174.415C197.19 175.304 197.646 176.323 197.873 177.403C198 178.739 196.536 180.263 194.314 180.451C192.092 180.638 191.079 179.31 190.909 178.288C190.831 177.764 190.808 177.233 190.84 176.705C190.057 175.665 189.654 174.388 189.7 173.086C189.683 170.609 191.206 169.843 191.206 169.843Z" fill="#92E3A9"/>
<path opacity="0.58" d="M191.206 169.843C191.206 169.843 192.279 166.54 194.059 166.097C195.838 165.654 198.256 167.11 198.383 168.574C198.511 170.039 196.289 171.937 196.289 171.937C196.533 172.323 196.685 172.76 196.732 173.214C196.718 173.621 196.652 174.025 196.536 174.415C197.19 175.304 197.646 176.323 197.873 177.403C198 178.739 196.536 180.263 194.314 180.451C192.092 180.638 191.079 179.31 190.909 178.288C190.831 177.764 190.808 177.233 190.84 176.705C190.057 175.665 189.654 174.388 189.7 173.086C189.683 170.609 191.206 169.843 191.206 169.843Z" fill="white"/>
<path d="M192.884 170.737C192.598 170.53 192.332 170.297 192.092 170.039" stroke="#263238" stroke-width="0.5" stroke-linecap="round" stroke-linejoin="round"/>
<path d="M195.31 171.69C194.672 171.593 194.055 171.385 193.488 171.077" stroke="#263238" stroke-width="0.5" stroke-linecap="round" stroke-linejoin="round"/>
<path d="M195.778 174.61C195.778 174.61 192.535 174.287 191.266 176.194" stroke="#263238" stroke-width="0.5" stroke-linecap="round" stroke-linejoin="round"/>
<path d="M191.206 169.843C191.206 169.843 192.279 166.54 194.059 166.097C195.838 165.654 198.256 167.11 198.383 168.574C198.511 170.039 196.289 171.937 196.289 171.937C196.533 172.323 196.685 172.76 196.732 173.214C196.718 173.621 196.652 174.025 196.536 174.415C197.19 175.304 197.646 176.323 197.873 177.403C198 178.739 196.536 180.263 194.314 180.451C192.092 180.638 191.079 179.31 190.909 178.288C190.831 177.764 190.808 177.233 190.84 176.705C190.057 175.665 189.654 174.388 189.7 173.086C189.683 170.609 191.206 169.843 191.206 169.843Z" stroke="#263238" stroke-miterlimit="10"/>
<path d="M207.527 200.125C207.697 202.875 207.11 205.378 206.088 206.025C205.066 206.672 201.389 206.749 200.069 206.698C200.069 206.698 196.493 206.698 194.825 205.923C193.539 205.344 192.1 204.152 192.168 200.125H191.096C191.028 203.684 192.075 205.838 194.373 206.876C196.263 207.728 199.924 207.728 200.052 207.728C200.18 207.728 200.58 207.728 201.133 207.728C202.708 207.728 205.509 207.617 206.675 206.876C208.25 205.88 208.761 202.833 208.608 200.066L207.527 200.125Z" fill="#808080" stroke="#263238" stroke-linecap="round" stroke-linejoin="round"/>
<path d="M205.467 205.744C205.391 205.244 205.197 204.769 204.901 204.359C204.605 203.948 204.215 203.615 203.764 203.386C202.061 202.347 201.252 204.041 199.677 203.514C198.102 202.986 195.421 202.994 194.646 205.352C194.367 206.294 194.38 207.298 194.684 208.231C194.988 209.165 195.568 209.984 196.349 210.58C197.06 211.208 197.913 211.655 198.835 211.882C198.835 211.882 199.362 215.151 200.009 214.632C200.656 214.113 201.448 211.882 201.448 211.882C202.72 211.199 203.906 210.367 204.981 209.405C205.399 208.903 205.666 208.292 205.752 207.645C205.838 206.997 205.739 206.338 205.467 205.744V205.744Z" fill="#808080" stroke="#263238" stroke-linecap="round" stroke-linejoin="round"/>
<path d="M201.746 133.558C201.746 133.558 197.864 135.38 197.694 138.828C197.523 142.276 198.707 146.831 201.142 148.457C203.577 150.083 210.762 152.714 213.401 152.407C216.04 152.101 216.534 150.381 216.943 147.648C217.351 144.915 216.338 141.868 215.827 140.25C215.317 138.632 213.495 136.402 212.184 135.184C210.873 133.967 210.157 133.661 207.518 132.954C204.879 132.247 201.746 133.558 201.746 133.558Z" fill="#92E3A9"/>
<path opacity="0.58" d="M201.746 133.558C201.746 133.558 197.864 135.38 197.694 138.828C197.523 142.276 198.707 146.831 201.142 148.457C203.577 150.083 210.762 152.714 213.401 152.407C216.04 152.101 216.534 150.381 216.943 147.648C217.351 144.915 216.338 141.868 215.827 140.25C215.317 138.632 213.495 136.402 212.184 135.184C210.873 133.967 210.157 133.661 207.518 132.954C204.879 132.247 201.746 133.558 201.746 133.558Z" fill="white"/>
<path d="M201.746 133.558C201.746 133.558 197.864 135.38 197.694 138.828C197.523 142.276 198.707 146.831 201.142 148.457C203.577 150.083 210.762 152.714 213.401 152.407C216.04 152.101 216.534 150.381 216.943 147.648C217.351 144.915 216.338 141.868 215.827 140.25C215.317 138.632 213.495 136.402 212.184 135.184C210.873 133.967 210.157 133.661 207.518 132.954C204.879 132.247 201.746 133.558 201.746 133.558Z" stroke="#263238" stroke-miterlimit="10"/>
<path d="M203.875 136.802C203.875 136.802 201.848 136.504 201.746 133.558C201.644 130.613 204.683 127.284 204.683 127.284C204.385 126.623 204.047 125.98 203.67 125.36L202.759 123.734L204.275 123.129C204.721 123.564 205.128 124.037 205.492 124.543C205.799 125.053 206.403 126.245 206.403 126.245V123.691L208.029 123.589L208.531 126.526C208.531 126.526 208.233 125.82 210.558 126.628C212.882 127.437 213.801 129.77 213.903 131.592C213.879 133.105 213.641 134.606 213.197 136.053L209.791 133.499C209.791 133.499 210.098 129.651 208.574 129.957C207.05 130.264 207.263 131.779 206.25 134.01C205.237 136.24 203.875 136.802 203.875 136.802Z" fill="white" stroke="#263238" stroke-linecap="round" stroke-linejoin="round"/>
<path d="M205.526 135.38C205.526 135.38 207.552 130.613 209.579 129.906C210.862 129.386 212.251 129.179 213.631 129.302C214.346 129.404 214.644 130.715 214.644 132.034C214.644 133.354 212.72 132.741 211.605 133.958C210.489 135.176 210.694 137.364 210.694 137.364" fill="#92E3A9"/>
<path d="M205.526 135.38C205.526 135.38 207.552 130.613 209.579 129.906C210.862 129.386 212.251 129.179 213.631 129.302C214.346 129.404 214.644 130.715 214.644 132.034C214.644 133.354 212.72 132.741 211.605 133.958C210.489 135.176 210.694 137.364 210.694 137.364" stroke="#263238" stroke-linecap="round" stroke-linejoin="round"/>
<path d="M215.606 140.871C215.274 140.329 214.792 139.895 214.218 139.62L213.801 139.458C213.675 139.398 213.552 139.33 213.435 139.254C213.195 139.099 212.967 138.925 212.754 138.734C212.318 138.344 211.912 137.923 211.537 137.474L211 137.951C211.432 138.396 211.896 138.809 212.388 139.186L212.567 139.296C212.017 139.826 211.582 140.464 211.29 141.169C210.937 142.089 210.854 143.09 211.051 144.055C211.171 144.992 211.341 145.92 211.443 146.848C211.624 147.769 211.495 148.723 211.077 149.564C211.549 148.736 211.74 147.777 211.622 146.831C211.622 145.886 211.469 144.949 211.409 144.021C211.284 143.124 211.414 142.209 211.784 141.382C211.86 141.229 211.954 141.076 212.047 140.922C212.383 141.484 212.649 142.084 212.839 142.71C213.07 143.502 213.199 144.321 213.222 145.145C213.25 146.004 213.355 146.859 213.537 147.699C213.628 148.116 213.766 148.521 213.946 148.908C214.109 149.3 214.377 149.639 214.721 149.887C214.401 149.617 214.162 149.263 214.031 148.866C213.883 148.478 213.778 148.075 213.716 147.665C213.593 146.84 213.55 146.004 213.588 145.171C213.621 144.313 213.544 143.455 213.359 142.617C213.192 141.831 212.905 141.075 212.507 140.378C212.71 140.138 212.935 139.918 213.18 139.722C213.323 139.799 213.471 139.867 213.622 139.926L214.065 140.046C214.608 140.231 215.085 140.571 215.436 141.025C215.802 141.496 216.074 142.034 216.236 142.608C216.148 141.992 215.933 141.401 215.606 140.871Z" fill="#263238"/>
<path d="M204.377 141.663C203.951 141.467 203.575 141.176 203.279 140.812C203.06 140.523 202.912 140.188 202.844 139.833C203.127 139.577 203.381 139.292 203.602 138.981C204.206 138.21 204.54 137.262 204.556 136.283L203.517 136.878C203.422 137.455 203.198 138.002 202.861 138.479C202.506 139.016 202.082 139.506 201.601 139.935C200.931 140.501 200.21 141.006 199.448 141.442L198.732 141.825C198.562 141.918 198.383 142.004 198.205 142.089L198.741 141.97C198.77 142.416 198.847 142.859 198.971 143.289C199.147 143.92 199.435 144.514 199.822 145.043C200.2 145.552 200.619 146.031 201.074 146.473C201.518 146.921 202.009 147.321 202.538 147.665C202.052 147.27 201.61 146.825 201.218 146.337C200.823 145.861 200.462 145.357 200.137 144.83C199.825 144.305 199.609 143.728 199.499 143.127C199.401 142.672 199.367 142.205 199.396 141.74C199.66 141.655 199.916 141.561 200.171 141.459C200.825 141.193 201.447 140.856 202.027 140.454L202.274 140.267C202.418 140.583 202.617 140.871 202.861 141.118C203.237 141.507 203.702 141.799 204.215 141.97C205.146 142.324 206.043 142.76 206.897 143.272C206.107 142.66 205.264 142.122 204.377 141.663Z" fill="#263238"/>
<path d="M282.396 48.5326C272.635 53.9357 265.221 62.532 261.467 72.7987C257.713 83.0653 257.86 94.3398 261.884 104.625L252.642 115.761C252.294 116.18 252.087 116.692 252.048 117.231C252.009 117.769 252.139 118.309 252.422 118.78C252.705 119.25 253.127 119.629 253.633 119.867C254.139 120.105 254.705 120.19 255.258 120.112L269.948 118.02C275.816 124.863 283.561 129.973 292.271 132.745C300.981 135.518 310.292 135.838 319.107 133.668C327.921 131.498 335.872 126.928 342.022 120.497C348.171 114.066 352.263 106.043 353.815 97.3721C355.367 88.7014 354.314 79.7452 350.781 71.5593C347.248 63.3734 341.381 56.299 333.873 51.1701C326.365 46.0413 317.528 43.0717 308.405 42.6115C299.281 42.1513 290.251 44.2198 282.378 48.5729L282.396 48.5326ZM344.705 67.7477C350.382 77.1605 352.16 88.2584 349.676 98.7758L348.289 103.449C344.655 113.518 337.208 121.838 327.432 126.751C317.656 131.664 306.267 132.81 295.535 129.961C284.802 127.112 275.513 120.477 269.517 111.377C263.521 102.277 261.258 91.3797 263.179 80.8557L264.316 76.1107C266.754 68.1724 271.551 61.1313 278.118 55.8541C284.685 50.5769 292.734 47.294 301.276 46.4096C309.817 45.5251 318.477 47.0776 326.191 50.8761C333.904 54.6745 340.333 60.553 344.688 67.788L344.705 67.7477Z" fill="#808080" fill-opacity="0.36"/>
<path d="M291.39 107.904C294.13 108.348 296.944 107.853 299.345 106.505" stroke="#263238" stroke-width="0.5" stroke-linecap="round" stroke-linejoin="round"/>
<path d="M295.755 109.857C297.584 109.553 299.387 109.118 301.149 108.555" stroke="#263238" stroke-width="0.5" stroke-linecap="round" stroke-linejoin="round"/>
<path d="M312.407 108.23L318.003 109.385" stroke="#263238" stroke-width="0.5" stroke-linecap="round" stroke-linejoin="round"/>
<path d="M313.924 105.626C316.694 107.247 319.937 107.95 323.16 107.627" stroke="#263238" stroke-width="0.5" stroke-linecap="round" stroke-linejoin="round"/>
<path d="M296.429 104.341C296.429 104.341 303.171 106.44 303.171 117H309.912C309.912 117 310.907 108.23 315.626 103.202L317.48 101.412C315.73 100.037 313.729 98.9881 311.581 98.3203C307.216 96.6931 307.89 97.0185 302.665 98.1575C298.772 99.0199 295.266 103.527 295.266 103.527L296.429 104.341Z" fill="white" stroke="#263238" stroke-linecap="round" stroke-linejoin="round"/>
<path d="M306.693 66.1676C306.693 66.1676 303.154 62.4252 299.8 63.076C296.446 63.7269 283.654 72.1718 281.126 75.5888C279.261 78.5596 278.489 82.0512 278.935 85.4982C279.272 86.3118 279.778 87.2881 279.778 87.2881C279.778 87.2881 276.576 90.038 278.767 95.8958C280.958 101.754 284.648 104.341 287.682 104.975C290.591 105.692 293.664 105.47 296.429 104.341C298.452 103.202 301.317 101.086 301.317 101.086C301.317 101.086 303.491 101.575 306.693 99.2965C307.554 100.188 308.656 100.828 309.874 101.145C311.093 101.461 312.379 101.441 313.587 101.086C314.671 102.59 316.139 103.798 317.848 104.593C319.558 105.389 321.451 105.744 323.345 105.626C326.23 105.417 328.973 104.332 331.18 102.525C333.387 100.719 334.945 98.2842 335.631 95.5703C336.359 92.4608 336.003 89.2064 334.62 86.3118C334.872 81.2522 333.193 76.2791 329.901 72.3345C324.356 65.5167 317.631 64.7032 314.261 63.5642C310.89 62.4252 306.693 66.1676 306.693 66.1676Z" fill="#FF0303" stroke="#263238" stroke-linecap="round" stroke-linejoin="round"/>
<path d="M306.693 99.2965V66.1676" stroke="#263238" stroke-width="0.5" stroke-linecap="round" stroke-linejoin="round"/>
<path d="M306.356 76.5652C305.682 76.5426 305.021 76.3865 304.412 76.1065C303.803 75.8266 303.26 75.4289 302.817 74.938C301.486 73.3109 299.969 75.5889 299.632 72.66C299.295 69.7312 299.463 67.9576 298.283 67.7786C297.52 67.8394 296.784 68.0785 296.138 68.4754C295.492 68.8723 294.956 69.4149 294.576 70.0566" stroke="#263238" stroke-width="0.5" stroke-linecap="round" stroke-linejoin="round"/>
<path d="M299.8 69.7473C300.703 69.0634 301.305 68.0754 301.485 66.9811" stroke="#263238" stroke-width="0.5" stroke-linecap="round" stroke-linejoin="round"/>
<path d="M296.935 77.0533L294.407 74.7753L295.25 72.8227" stroke="#263238" stroke-width="0.5" stroke-linecap="round" stroke-linejoin="round"/>
<path d="M294.407 74.7753C293.62 75.3662 292.942 76.0814 292.402 76.8906C292.103 77.4589 291.877 78.0599 291.727 78.6804" stroke="#263238" stroke-width="0.5" stroke-linecap="round" stroke-linejoin="round"/>
<path d="M306.693 86.7999C305.945 87.8976 304.97 88.8339 303.828 89.5497C301.974 90.6888 297.946 88.7362 296.766 87.5972C295.587 86.4581 293.901 81.9184 292.738 80.2912C291.575 78.6641 290.379 78.0295 288.693 78.9895C287.584 79.7488 286.756 80.8328 286.334 82.0811" stroke="#263238" stroke-width="0.5" stroke-linecap="round" stroke-linejoin="round"/>
<path d="M303.323 81.1051C303.323 81.1051 302.311 83.0577 301.974 83.8712C301.637 84.6848 301.317 81.4305 299.8 79.8033" stroke="#263238" stroke-width="0.5" stroke-linecap="round" stroke-linejoin="round"/>
<path d="M294.407 84.6848C294.407 84.6848 292.907 86.6374 292.233 86.8001" stroke="#263238" stroke-width="0.5" stroke-linecap="round" stroke-linejoin="round"/>
<path d="M293.311 92.316C293.097 92.4977 292.845 92.6341 292.572 92.7166C292.3 92.7991 292.013 92.8259 291.729 92.7953C291.445 92.7646 291.171 92.6773 290.924 92.5388C290.677 92.4002 290.463 92.2135 290.295 91.9906C288.778 90.3634 288.272 89.8753 286.924 89.8753C285.889 89.9367 284.871 90.1564 283.907 90.5262" stroke="#263238" stroke-width="0.5" stroke-linecap="round" stroke-linejoin="round"/>
<path d="M287.345 73.4737C287.345 73.4737 283.149 76.5653 282.474 79.6406C282.141 82.4206 282.608 85.2356 283.823 87.7764C284.312 88.7527 281.969 89.729 283.486 92.1697C284.678 93.9527 286.087 95.5916 287.682 97.0512C287.682 97.0512 292.738 96.0912 295.25 97.2139C297.395 98.3287 299.426 99.6362 301.317 101.119" stroke="#263238" stroke-width="0.5" stroke-linecap="round" stroke-linejoin="round"/>
<path d="M287.683 96.9859C286.941 97.1704 286.287 97.5932 285.827 98.1847C285.367 98.7762 285.13 99.5012 285.154 100.24C284.817 103.169 287.514 104.145 290.379 104.78" stroke="#263238" stroke-width="0.5" stroke-linecap="round" stroke-linejoin="round"/>
<path d="M283.823 87.7601C283.823 87.7601 281.295 86.3119 279.778 87.2882" stroke="#263238" stroke-width="0.5" stroke-linecap="round" stroke-linejoin="round"/>
<path d="M278.598 94.5941C278.598 94.5941 280.621 96.8559 282.475 96.8559" stroke="#263238" stroke-width="0.5" stroke-linecap="round" stroke-linejoin="round"/>
<path d="M292.402 67.6971C292.402 67.6971 290.042 68.9989 290.042 69.9752C290.042 70.9515 293.227 71.9115 293.227 71.9115" stroke="#263238" stroke-width="0.5" stroke-linecap="round" stroke-linejoin="round"/>
<path d="M291.39 71.5209L289.705 74.287" stroke="#263238" stroke-width="0.5" stroke-linecap="round" stroke-linejoin="round"/>
<path d="M302.649 70.7073C303.136 69.5116 303.757 68.3711 304.503 67.3066C305.345 66.3303 306.862 68.6083 306.862 68.6083C306.862 68.6083 309.727 65.6794 310.57 68.6083" stroke="#263238" stroke-width="0.5" stroke-linecap="round" stroke-linejoin="round"/>
<path d="M304.502 67.3067L303.323 65.5168" stroke="#263238" stroke-width="0.5" stroke-linecap="round" stroke-linejoin="round"/>
<path d="M319.974 71.0327C319.974 71.0327 316.115 68.1201 314.766 70.0727C313.418 72.0253 315.103 75.2633 312.238 76.8905C310.698 77.8522 308.832 78.202 307.03 77.8668" stroke="#263238" stroke-width="0.5" stroke-linecap="round" stroke-linejoin="round"/>
<path d="M310.57 83.3829C310.57 83.3829 310.89 83.871 312.407 82.8947C313.924 81.9185 313.587 80.6167 315.104 79.4777" stroke="#263238" stroke-width="0.5" stroke-linecap="round" stroke-linejoin="round"/>
<path d="M306.525 88.7363C306.525 88.7363 312.744 90.8516 315.104 88.7363C317.463 86.621 316.789 84.3592 317.8 83.2202C318.812 82.0812 321.323 79.9659 320.986 78.1923C320.616 76.9655 319.779 75.9192 318.643 75.2634" stroke="#263238" stroke-width="0.5" stroke-linecap="round" stroke-linejoin="round"/>
<path d="M320.985 78.1923C321.488 77.9029 322.051 77.7238 322.633 77.6675C323.216 77.6113 323.804 77.6793 324.356 77.8669" stroke="#263238" stroke-width="0.5" stroke-linecap="round" stroke-linejoin="round"/>
<path d="M317.8 83.2203C318.211 84.1073 318.813 84.8998 319.566 85.545C320.318 86.1902 321.204 86.6735 322.165 86.9627" stroke="#263238" stroke-width="0.5" stroke-linecap="round" stroke-linejoin="round"/>
<path d="M330.744 82.8947C331.206 85.5407 331.091 88.2507 330.407 90.8514C329.227 93.943 328.401 94.2685 328.401 94.2685C325.762 94.094 323.115 94.4829 320.648 95.4075C317.632 96.8557 315.104 97.0347 313.907 99.1337L312.727 101.249" stroke="#263238" stroke-width="0.5" stroke-linecap="round" stroke-linejoin="round"/>
<path d="M328.401 94.2685C328.401 94.2685 333.609 95.5702 332.598 98.8083" stroke="#263238" stroke-width="0.5" stroke-linecap="round" stroke-linejoin="round"/>
<path d="M332.429 96.0584C332.429 96.0584 334.115 95.2448 334.115 91.8278" stroke="#263238" stroke-width="0.5" stroke-linecap="round" stroke-linejoin="round"/>
<path d="M334.62 86.3119L331.586 85.8237" stroke="#263238" stroke-width="0.5" stroke-linecap="round" stroke-linejoin="round"/>
<path d="M326.884 72.9854C327.437 73.0593 327.949 73.3063 328.341 73.6885C328.734 74.0707 328.986 74.5669 329.058 75.1007L329.395 77.0533C329.395 77.0533 332.766 78.0296 331.755 80.4541" stroke="#263238" stroke-width="0.5" stroke-linecap="round" stroke-linejoin="round"/>
<path d="M322.503 67.9576C323.102 68.681 323.545 69.5131 323.805 70.4046C324.066 71.2962 324.139 72.2291 324.019 73.1482" stroke="#263238" stroke-width="0.5" stroke-linecap="round" stroke-linejoin="round"/>
<path d="M313.25 65.6794C314.91 65.4051 316.616 65.6325 318.137 66.3303" stroke="#263238" stroke-width="0.5" stroke-linecap="round" stroke-linejoin="round"/>
<path d="M313.924 99.1338C313.924 99.1338 319.317 103.527 325.03 101.249" stroke="#263238" stroke-width="0.5" stroke-linecap="round" stroke-linejoin="round"/>
<path d="M323.85 98.4829C324.481 98.3172 325.141 98.2798 325.787 98.373C326.434 98.4663 327.053 98.6883 327.606 99.0249C328.159 99.3614 328.634 99.8052 329 100.328C329.366 100.851 329.615 101.442 329.732 102.063" stroke="#263238" stroke-width="0.5" stroke-linecap="round" stroke-linejoin="round"/>
<path d="M313.536 92.1045C313.536 92.1045 309.845 92.4299 310.519 94.8707" stroke="#263238" stroke-width="0.5" stroke-linecap="round" stroke-linejoin="round"/>
<path d="M324.188 83.8711C324.188 83.8711 325.536 83.7084 327.559 81.1049" stroke="#263238" stroke-width="0.5" stroke-linecap="round" stroke-linejoin="round"/>
<path d="M326.042 82.8947L326.379 85.1727" stroke="#263238" stroke-width="0.5" stroke-linecap="round" stroke-linejoin="round"/>
<path d="M296.935 94.1058C297.375 94.6789 297.929 95.1604 298.567 95.5211C299.204 95.8818 299.91 96.1144 300.643 96.2048C301.411 96.3572 302.205 96.3351 302.962 96.1403C303.72 95.9454 304.42 95.5831 305.008 95.0821" stroke="#263238" stroke-width="0.5" stroke-linecap="round" stroke-linejoin="round"/>
<path d="M330.39 90.8515C329.064 89.8016 327.403 89.2268 325.688 89.2244" stroke="#263238" stroke-width="0.5" stroke-linecap="round" stroke-linejoin="round"/>
<path d="M289.705 82.8947C289.131 83.2273 288.638 83.6758 288.26 84.2094C287.882 84.7429 287.627 85.3491 287.514 85.9863" stroke="#263238" stroke-width="0.5" stroke-linecap="round" stroke-linejoin="round"/>
</svg>
